<svg xmlns="http://www.w3.org/2000/svg" width="152.65" height="65" viewBox="0 0 152.65 65"><title>bfr-logo</title><path d="M20.64,6.76,21,5.91H43.81l.51.84H52l2-5.57L53,0H12.86l-.17.84q0,.51.08,1.77T13,4.22L12.1,6.76Z"/><path d="M42.46,33.11l4.4-12.16a14.08,14.08,0,0,1-.68-1.77,3.22,3.22,0,0,0-1.1-1.77,7.75,7.75,0,0,0,2.11-1.6q.93-1,2.45-2.45l1.18-3.13H43.47q-.42.93-1.1,2.11a6.85,6.85,0,0,1-1.52,2H17.93l1.52-4.14H10.92L3.47,30.49q-.25.25-.68.76a11.51,11.51,0,0,1-.85.93l-.85,1q-.34.42-.51.68a5.53,5.53,0,0,1-.34.59q-.17.17-.17.25H40.51ZM38.65,22.72a13,13,0,0,1-.76,2.36l-.08.25q-.17.42-.68,1.44A5.18,5.18,0,0,1,36.54,28l-1.18.84H12.52l3.13-8.53H38.48A3.48,3.48,0,0,1,38.65,22.72Z"/><path d="M92.75,5.83a26.45,26.45,0,0,0,3.47-1.44q1.69-.93,3.3-2a31.48,31.48,0,0,0,3-2.28H64.25a2.08,2.08,0,0,0-.76.42,2.71,2.71,0,0,0-.59.59L60.62,6.33H89.54A11.2,11.2,0,0,0,92.75,5.83Z"/><path d="M115.15,6.76l.34-.84h22.83l.51.84h7.61L152.65,0H107.37l-.17.84q0,.51.08,1.77a8.17,8.17,0,0,0,.34,1.6l-.93,2.53Z"/><path d="M56,34.71l2.57-1.6,4.94-12.59h20A12.6,12.6,0,0,0,87,20a21.79,21.79,0,0,0,3.64-1.35q1.78-.93,3.47-2a33.72,33.72,0,0,0,3.21-2.36H59.1a2.08,2.08,0,0,0-.76.42,2.7,2.7,0,0,0-.59.59L50.19,34.71Z"/><path d="M96.9,34.38q.25.34.42.34h6.18q1.27-.42,1.44-.84l4-11.06,8.37-.84a2.37,2.37,0,0,1,.59.34l.76.51c1,1,6.66,6.5,7.56,7.35s1.66,1.46,2.28,2,3,2.59,3.07,2.53h9.19c-1.1-1.2-9.19-10.94-9.19-10.94a.84.84,0,0,1-.23-1c.24-.71,1.24-.62,1.86-.51A3.65,3.65,0,0,0,135,22l8-5.91,2.2-5.83H138a12.94,12.94,0,0,1-.76,1.6,9.58,9.58,0,0,1-1,1.6,4.54,4.54,0,0,1-1.27,1.27,3,3,0,0,1-1.69.51H112.11l1.86-5h-8.46l-8.7,23.65A.6.6,0,0,0,96.9,34.38Z"/><path d="M8.84,55.8l.84,2.41H13L8,45.35H4.91L0,58.21H3.26l.82-2.41ZM6.48,48.71l1.69,4.9H4.76Z"/><path d="M15.88,45.35v8c0,1.4.15,5.23,5.68,5.23s5.68-3.93,5.68-5.23v-8H24.14v7.49c0,2.2-.69,3.23-2.59,3.23S19,55,19,52.84V45.35Z"/><polygon points="37.73 58.21 37.73 47.85 41.68 47.85 41.68 45.35 30.67 45.35 30.67 47.85 34.64 47.85 34.64 58.21 37.73 58.21"/><path d="M56.72,51.78c0-3.89-2.12-6.79-6.63-6.79-5.17,0-6.63,3.8-6.63,6.79s1.46,6.79,6.63,6.79C54.6,58.57,56.72,55.67,56.72,51.78Zm-9.91,0c0-3.4,1.57-4.3,3.28-4.3,3.17,0,3.3,3.14,3.3,4.3s-.15,4.3-3.3,4.3C48.38,56.08,46.81,55.14,46.81,51.78Z"/><path d="M65.84,56.08c-2.21,0-2.64-1.25-2.62-2H60.09c0,1.71.88,4.54,5.71,4.54,5.25,0,5.54-3.23,5.54-4.28,0-2.81-2.32-3.49-5.08-4-1.12-.22-2.59-.46-2.59-1.58,0-.64.49-1.23,2-1.23s2.17.7,2.25,1.4h2.92c0-1.87-1.35-3.89-5-3.89-4,0-5.38,1.73-5.38,3.8,0,2.86,2,3.45,4.33,4,1.59.35,3.33.61,3.33,2C68.18,55.87,67,56.08,65.84,56.08Z"/><polygon points="85.67 47.85 85.67 45.35 75.32 45.35 75.32 58.21 85.86 58.21 85.86 55.71 78.41 55.71 78.41 52.83 84.81 52.83 84.81 50.46 78.41 50.46 78.41 47.85 85.67 47.85"/><path d="M100.76,49c0-3.32-3.13-3.65-4.46-3.65H89.59V58.21h3.09V53.47h2.38c.36,0,2-.07,2.12,1.47.17,2,0,2.46.52,3.27h3.15c-.47-.66-.47-1.19-.51-2.83,0-.94-.06-2.61-1.87-3.12v0A3.15,3.15,0,0,0,100.76,49Zm-5.25,2.11H92.68V47.85H95.4c1.33,0,2.1.39,2.1,1.65C97.5,50.13,97.25,51.12,95.51,51.12Z"/><polygon points="115.51 45.35 112.09 45.35 109.54 54.53 106.88 45.35 103.34 45.35 107.78 58.21 111.06 58.21 115.51 45.35"/><rect x="118.6" y="45.35" width="3.09" height="12.85"/><path d="M132.3,47.48A2.44,2.44,0,0,1,135,49.72h3C138,47.83,136.8,45,132.15,45c-1.26,0-6.31.26-6.31,7,0,5,3.07,6.56,6.43,6.56,4.65,0,5.75-3,6-4.9h-3.07a2.59,2.59,0,0,1-2.75,2.41c-2.1,0-3.22-1.74-3.22-4.17C129.17,47.61,131.61,47.48,132.3,47.48Z"/><polygon points="145.12 52.83 151.53 52.83 151.53 50.46 145.12 50.46 145.12 47.85 152.39 47.85 152.39 45.35 142.03 45.35 142.03 58.21 152.58 58.21 152.58 55.71 145.12 55.71 145.12 52.83"/><polygon points="0 38.56 0 41.31 152.58 41.31 149.82 38.56 0 38.56"/><polygon points="0 65 149.82 65 152.58 62.25 0 62.25 0 65"/></svg>