<svg xmlns="http://www.w3.org/2000/svg" width="263" height="49" viewBox="0 0 263 49"><title>audi-logo</title><path d="M263,37.4V18.8h-7.638V37.4Z" style="fill:#fff"/><path d="M222.421,29.655V19.041h-7.4v8.14a13.249,13.249,0,0,1-.239,3.591c-.477,1.676-2.307,2.474-4.138,2.474-2.546,0-3.74-.958-4.217-2.554a12.144,12.144,0,0,1-.239-1.676,16.675,16.675,0,0,1,0-2v-7.98h-7.559V29.655a6.966,6.966,0,0,0,2.148,5.427c2.228,2.235,6.047,2.873,9.548,2.873,4.3,0,7.559-.639,9.946-2.953A6.581,6.581,0,0,0,222.421,29.655Z" style="fill:#fff"/><path d="M185.98,28.3a4.216,4.216,0,0,0-1.114-.08h-8.514c-.4,0-.875.08-1.114.08a8.9,8.9,0,0,0,.716-.8l3.819-6.3c.477-.878.716-1.436.875-1.676a8.461,8.461,0,0,0,.875,1.676l3.9,6.384A1.737,1.737,0,0,0,185.98,28.3Zm14.163,9.1L183.2,11.937h-9.468l2.467,2.953c.08.08.159.08.239.16-.08.08-.159.08-.239.16L161.474,37.4h8.593l2.307-3.831a1.657,1.657,0,0,0,.159-.479,4.476,4.476,0,0,0,.557.08h15.277a2.807,2.807,0,0,0,.477-.08.871.871,0,0,0,.08.4l2.387,3.911Z" style="fill:#fff"/><path d="M253.292,27.819c0-2.075-.875-4.469-3.5-7.821l-6.365-8.06h-8.832l5.013,5.666a17.163,17.163,0,0,0,1.91,1.756,8.117,8.117,0,0,0-3.978-.958,17.676,17.676,0,0,0-8.514,2.075,8.483,8.483,0,0,0-4.694,7.581,8.857,8.857,0,0,0,2.705,6.225c3.421,3.432,9.548,3.751,11.776,3.751,3.342,0,8.593-.718,11.537-3.432A9.13,9.13,0,0,0,253.292,27.819Zm-7.4.239a4.839,4.839,0,0,1-2.864,4.23,8.922,8.922,0,0,1-4.217.878,10.477,10.477,0,0,1-4.3-.958,4.818,4.818,0,0,1-2.785-4.07c0-2,1.512-3.591,3.421-4.469a8.214,8.214,0,0,1,3.58-.718,10.834,10.834,0,0,1,3.74.639A5.146,5.146,0,0,1,245.893,28.058Z" style="fill:#fff"/><path d="M115.371,0a24.31,24.31,0,0,0-15.117,5.267,24.558,24.558,0,0,0-30.395,0,24.443,24.443,0,0,0-30.315,0A24.466,24.466,0,1,0,24.427,49a24.31,24.31,0,0,0,15.118-5.267,24.443,24.443,0,0,0,30.315,0,24.558,24.558,0,0,0,30.395,0A24.466,24.466,0,1,0,115.371,0ZM35.646,39.743a18.651,18.651,0,0,1-11.139,3.671,18.914,18.914,0,0,1,0-37.827A18.651,18.651,0,0,1,35.646,9.257,24.228,24.228,0,0,0,30.394,24.5,23.772,23.772,0,0,0,35.646,39.743Zm3.978-3.99a19.127,19.127,0,0,1,0-22.5,19.127,19.127,0,0,1,0,22.5Zm26.337,3.99a18.736,18.736,0,0,1-22.279,0,24.747,24.747,0,0,0,0-30.485,18.736,18.736,0,0,1,22.279,0A24.228,24.228,0,0,0,60.709,24.5,23.772,23.772,0,0,0,65.961,39.743Zm3.978-3.99a19.127,19.127,0,0,1,0-22.5,19.127,19.127,0,0,1,0,22.5Zm26.336,3.99a18.736,18.736,0,0,1-22.279,0A24.747,24.747,0,0,0,74,9.257a18.736,18.736,0,0,1,22.279,0A24.228,24.228,0,0,0,91.024,24.5,23.772,23.772,0,0,0,96.275,39.743Zm3.979-3.99a19.126,19.126,0,0,1,0-22.5,19.127,19.127,0,0,1,0,22.5Zm15.117,7.661a18.651,18.651,0,0,1-11.139-3.671,24.749,24.749,0,0,0,0-30.485,18.651,18.651,0,0,1,11.139-3.671,18.914,18.914,0,0,1,0,37.827Z" style="fill:#fff"/></svg>