<svg xmlns="http://www.w3.org/2000/svg" width="71.37" height="71.41" viewBox="0 0 71.37 71.41"><title>bmw-logo</title><path d="M61.73,11.21A35.69,35.69,0,0,0,11.27,61.69,35.68,35.68,0,0,0,72.18,36.45,35.43,35.43,0,0,0,61.73,11.21ZM36.51,70.9A34.5,34.5,0,0,1,2,36.45,34.5,34.5,0,0,1,36.51,2a34.47,34.47,0,0,1,0,68.93Z" transform="translate(-0.82 -0.74)"/><path d="M60.86,12.07a34.41,34.41,0,0,0-48.72,0,34.43,34.43,0,0,0,0,48.72A34.44,34.44,0,0,0,71,36.43,34.28,34.28,0,0,0,60.86,12.07ZM36.51,69.5a33,33,0,1,1,33-33A33,33,0,0,1,36.51,69.5Z" transform="translate(-0.82 -0.74)" style="fill:#fff"/><path d="M36.51,3.4a33,33,0,1,0,33,33A33,33,0,0,0,36.51,3.4ZM31.67,5.19h2.62l2.36,6.19L39,5.19h2.61V13.9H39.9V7.83L37.61,13.9h-1.9L33.41,7.83V13.9H31.67ZM9.75,19.5,14,14.43c.89-1,2.12-1.88,3.28-.9a3.12,3.12,0,0,1,.94,1.2,1.93,1.93,0,0,1,0,1.3,2.22,2.22,0,0,1,2.79.26c1.07,1,.92,2.26-.11,3.48L16.42,25.1ZM51.43,51.37a21.11,21.11,0,1,1,0-29.86A21.09,21.09,0,0,1,51.43,51.37Zm4.73-26.08-1.59-2,3.15-4.6h0l-5.15,2.12-1.59-2,5.45-7,1.33,1.66L54.35,18l5.21-2.23L61,17.51l-3.28,4.64,5.08-2.41,1.35,1.66Z" transform="translate(-0.82 -0.74)"/><path d="M21.59,21.51a21.11,21.11,0,1,0,29.84,0A21.12,21.12,0,0,0,21.59,21.51ZM36.51,56.2V36.45H16.76A19.74,19.74,0,0,1,36.51,16.7V36.45H56.25A19.74,19.74,0,0,1,36.51,56.2Z" transform="translate(-0.82 -0.74)" style="fill:#fff"/><path d="M36.51,16.7A19.74,19.74,0,0,0,16.76,36.45H36.51V56.2A19.74,19.74,0,0,0,56.25,36.45H36.51Z" transform="translate(-0.82 -0.74)"/><path d="M20.89,19.77c1-1.22,1.19-2.44.11-3.48A2.22,2.22,0,0,0,18.21,16a1.93,1.93,0,0,0,0-1.3,3.12,3.12,0,0,0-.94-1.2c-1.16-1-2.39-.14-3.28.9L9.75,19.5l6.67,5.6Zm-8.52-1,2.55-3.05a1,1,0,0,1,1.39,0,.91.91,0,0,1,.16,1.33l-2.52,3Zm5.38-.94a1,1,0,0,1,1.43-.09,1.07,1.07,0,0,1,.21,1.52l-2.66,3.17L15.08,21Z" transform="translate(-0.82 -0.74)" style="fill:#fff"/><polygon points="32.6 7.09 34.89 13.17 36.79 13.17 39.09 7.09 39.09 13.17 40.82 13.17 40.82 4.46 38.21 4.46 35.84 10.65 33.47 4.46 30.85 4.46 30.85 13.17 32.6 13.17 32.6 7.09" style="fill:#fff"/><polygon points="61.99 19.01 56.91 21.42 60.19 16.78 58.74 15 53.53 17.23 56.94 12.77 55.61 11.1 50.15 18.12 51.74 20.09 56.9 17.96 56.91 17.98 53.76 22.58 55.35 24.55 63.34 20.67 61.99 19.01" style="fill:#fff"/><path d="M16.31,15.73a1,1,0,0,0-1.39,0l-2.55,3.05,1.57,1.32,2.52-3A.91.91,0,0,0,16.31,15.73Z" transform="translate(-0.82 -0.74)"/><path d="M19.4,19.25a1.07,1.07,0,0,0-.21-1.52,1,1,0,0,0-1.43.09L15.08,21l1.66,1.4Z" transform="translate(-0.82 -0.74)"/></svg>