<svg xmlns="http://www.w3.org/2000/svg" width="270.001" height="70" viewBox="0 0 270.001 70"><title>dodge-logo</title><path d="M57.915,1.008C53.742.6,42.783,0,32.426,0S11.11.6,6.938,1.008C2.212,1.512,0,3.931,0,8.618c0,8.92.352,22.88.955,31.044.553,7.307.955,13.053,10,18.546,6.485,3.931,12.92,7.308,21.316,11.692l.151.1.151-.1c8.4-4.334,14.881-7.761,21.316-11.692,9.049-5.543,9.5-11.289,10-18.546.6-8.214.955-22.124.955-31.044C64.853,3.88,62.641,1.461,57.915,1.008ZM61.132,39.46c-.5,6.955-.855,11.591-8.7,16.328-6.133,3.729-11.563,6.6-19.707,10.835l-.3.151-.3-.151c-7.943-4.132-13.574-7.106-19.707-10.835C4.625,51,4.273,46.415,3.771,39.41c-.6-8.114-.955-21.973-.955-30.842,0-3.225,1.106-4.435,4.424-4.788,4.122-.4,14.982-1.008,25.187-1.008,10.256,0,21.064.6,25.187,1.008,3.318.353,4.424,1.562,4.424,4.788C62.037,17.487,61.736,31.3,61.132,39.46Z" transform="translate(0 0)" style="fill:#fff"/><path d="M32.024,20.864l-.955,3.276C27.55,16.883,23.327,13.1,18.2,13.1a10.52,10.52,0,0,0-9,4.888,10.862,10.862,0,0,1,10.155-6.7C26.142,11.289,30.013,16.681,32.024,20.864Z" transform="translate(0 0)" style="fill:#fff"/><path d="M6.436,28.271c.05,12.045,3.519,17.84,8.748,17.84a3.871,3.871,0,0,0,4.173-4.032,9.105,9.105,0,0,0-1.307-4.485,11.04,11.04,0,0,1,.251,2.369,2.5,2.5,0,0,1-2.564,2.772c-3.469,0-6.938-6.753-7.943-14.514C7.391,28.271,6.436,28.271,6.436,28.271Z" transform="translate(0 0)" style="fill:#fff"/><path d="M45.6,11.289a10.915,10.915,0,0,1,10.155,6.7,10.719,10.719,0,0,0-9-4.888c-5.078,0-9.3,3.78-12.87,11.037l-.955-3.276C34.889,16.681,38.76,11.289,45.6,11.289Z" transform="translate(0 0)" style="fill:#fff"/><path d="M57.061,28.273c-.955,7.711-4.474,14.514-7.943,14.514A2.442,2.442,0,0,1,46.6,40.016a11.038,11.038,0,0,1,.251-2.369,9.468,9.468,0,0,0-1.307,4.485,3.872,3.872,0,0,0,4.173,4.032c5.228,0,8.748-5.8,8.748-17.84A9.38,9.38,0,0,0,57.061,28.273Z" transform="translate(0 0)" style="fill:#fff"/><path d="M49.972,17.891c-4.474,0-8.848,3.578-11.412,11.793l1.709,1.159-.8,4.032L36.3,36.184l-.553,3.981L37.3,38.251l1.659-.706-.5,2.57-2.866,1.159-1.005,6.9.7,2.217L32.527,51.5,29.762,50.4l.7-2.217-1.006-6.9-2.866-1.159-.5-2.57,1.659.706,1.559,1.915-.6-3.981-3.167-1.31-.8-4.032,1.709-1.159c-2.614-8.215-6.988-11.793-11.412-11.793-5.53,0-7.792,5.241-7.491,9.575H8.848c1.106,6.1,4.223,11.289,6.536,11.289.7,0,1.106-.554,1.106-1.461,0-2.167-1.458-4.435-1.458-8.517,0-1.915.6-3.074,2.061-3.074.955,0,1.76,1.008,2.212,2.117-.855,3.074-.754,5.644,1.709,6.753,1.207.554,2.664,1.209,2.664,1.209s1.559,6.6,1.659,7.106a6.854,6.854,0,0,0,.553,1.411c.3.5,2.313,4.032,2.313,4.032s.7,3.477.855,4.233c.4,2.016,1.81,2.016,3.419,2.016s3.016,0,3.419-2.016c.151-.756.855-4.233.855-4.233S38.811,44.8,39.063,44.3a5.889,5.889,0,0,0,.553-1.411c.1-.454,1.659-7.106,1.659-7.106s1.458-.655,2.665-1.209c2.463-1.109,2.564-3.679,1.709-6.753C46.1,26.71,46.905,25.7,47.911,25.7c1.408,0,2.061,1.209,2.061,3.074,0,4.132-1.458,6.4-1.458,8.517,0,.907.352,1.461,1.106,1.461,2.313,0,5.43-5.191,6.536-11.289h1.307C57.764,23.182,55.5,17.891,49.972,17.891Zm-28.1,15.522c-1.76-.756-1.91-2.822-1.357-5.544l1.91,2.973.7,3.074C23.176,33.967,22.472,33.665,21.869,33.413Zm21.165,0c-.6.252-1.257.554-1.257.554l.7-3.074,1.91-2.973C44.945,30.641,44.743,32.707,43.034,33.413Z" transform="translate(0 0)" style="fill:#fff"/><path d="M165.159,33.272v7.82h10.615c5.964,0,8.111-2.37,8.111-5.569,0-2.133-1.073-5.569-8.111-5.569h-18.01V25.57h18.845c11.927,0,14.79,4.977,14.79,9.953,0,5.924-4.055,9.953-14.79,9.953H157.883v-12.2Z" transform="translate(0 0)" style="fill:#fff"/><path d="M85.365,33.272v7.82H96.1c5.964,0,8.111-2.37,8.111-5.569,0-2.133-1.073-5.569-8.111-5.569H78.089V25.57H96.934c11.927,0,14.79,4.977,14.79,9.953,0,5.924-4.055,9.953-14.79,9.953H78.208v-12.2Z" transform="translate(0 0)" style="fill:#fff"/><path d="M212.868,33.272v4.384h10.615v3.436H212.868c-5.964,0-8.23-2.37-8.23-5.569,0-3.673,2.982-5.569,7.872-5.569h18.249V25.57H212.271c-9.542,0-15.028,2.962-15.028,9.953,0,6.872,5.367,9.953,14.79,9.953h18.845v-12.2Z" transform="translate(0 0)" style="fill:#fff"/><path d="M246.861,29.835h22.9V25.451H239.228V45.476H270V41.092H246.861V37.656h21.708V33.271H246.861Z" transform="translate(0 0)" style="fill:#fff"/><path d="M134.505,45.713c-12.4,0-17.056-4.029-17.056-10.309,0-6.161,4.89-10.308,17.056-10.308s17.056,4.029,17.056,10.308C151.68,41.684,146.79,45.713,134.505,45.713ZM144.166,35.4c0-3.436-3.34-5.924-9.661-5.924s-9.661,2.488-9.661,5.924c0,3.2,2.982,5.924,9.661,5.924C141.3,41.329,144.166,38.722,144.166,35.4Z" transform="translate(0 0)" style="fill:#fff"/></svg>