<svg xmlns="http://www.w3.org/2000/svg" width="320" height="41" viewBox="0 0 320 41"><title>hyundai-logo</title><path d="M299.159,10.311H285.981c-2.239.172-2.842.687-2.842,3.35v7.3h15.933V10.311Zm6.976-5.84V36.508h-6.976V27.231H283.226v9.19H276.25V11.342c0-4.466,1.809-6.871,6.976-6.871Zm-36.861,6.871v17.35c0,5.5-3.1,7.73-6.976,7.73H240.336V4.471H262.3C268.239,4.471,269.274,8.25,269.274,11.342Zm-7.062,1.975a2.71,2.71,0,0,0-2.928-2.92H247.226V30.409H259.2c2.756-.172,2.929-1.8,2.929-3.092v-14ZM98.146,4.471h6.976V17.1H120.71V4.471h6.976V36.508H120.71V23.366H105.122V36.422H98.146Zm41.512,0,8.785,13.055,8.612-13.055h8.44L151.887,24.912V36.422h-6.976V24.912L131.131,4.471Zm64.937,0h22.478c3.187,0,6.287.429,6.2,6.871v25.08H226.3V13.661c0-2.748-.344-3.35-2.5-3.35h-12.23v26.11h-6.976ZM320,4.471V36.508h-6.976V4.471ZM168.939,36.422h22.478c4.479,0,6.287-1.288,6.2-7.73V4.471h-6.976V27.317c0,2.749-.345,3.092-2.5,3.092H175.915V4.471h-6.976Z" transform="translate(0 0)" style="fill:#fff"/><path d="M48.882,25.171c.6,3.178-1.034,5.84-2.411,8.331-1.55,2.4-4.048,4.38-7.148,4.123A71.142,71.142,0,0,1,19.6,34.619c-.258-.086-.6-.258-.689-.515a1.02,1.02,0,0,1,.345-.945c5.684-4.552,12.4-6.7,19.033-8.933,2.5-.687,5.167-1.46,7.923-1.117A3.651,3.651,0,0,1,48.882,25.171ZM72.222,11.6c3.187,2.577,6.029,6.184,5.081,10.479-1.55,6.356-8.526,9.705-14.038,11.853a37.849,37.849,0,0,1-9.3,2.319c-.172,0-.517,0-.6-.258l.086-.344A81.618,81.618,0,0,0,64.729,18.558c1.464-2.663,2.756-5.411,3.962-8.16a.872.872,0,0,1,.6-.344C70.5,10.141,71.274,11,72.222,11.6Zm-44.7-6.7-.086.344c-6.718,7.644-11.2,16.491-15.416,25.337-.861.773-1.636-.258-2.325-.6-3.789-2.4-7.148-6.356-6.2-11.08,1.55-6.1,7.923-9.448,13.177-11.6A45.927,45.927,0,0,1,26.49,4.644C26.834,4.644,27.351,4.558,27.523,4.9ZM60.939,6.1c.345.172.861.258,1.033.687s-.172.687-.431,1.031c-5.253,4.123-11.282,6.442-17.483,8.417-3.187.773-6.373,2.147-9.818,1.374a3.356,3.356,0,0,1-2.067-1.546c-.861-2.4.345-4.9,1.292-7.043,1.378-2.663,3.789-5.755,7.062-5.755A74.628,74.628,0,0,1,60.939,6.1Zm8.871.258c5.426,3.006,11.627,8.16,10.938,15.117-.775,6.442-6.8,10.908-12.143,13.656-15.675,7.472-37.808,7.73-54,1.2C9.093,34.1,2.978,30.153.653,24.312-1.156,19.5,1,14.435,4.614,11.085,12.193,4.214,21.839,1.9,31.743.521A72.288,72.288,0,0,1,63.437,3.7,32.16,32.16,0,0,1,69.81,6.361Z" transform="translate(0 0)" style="fill:#fff"/></svg>