<svg xmlns="http://www.w3.org/2000/svg" width="320" height="41.01" viewBox="0 0 320 41.01"><title>hyundai-logo</title><path d="M299.16,10.31H286c-2.24.17-2.84.69-2.84,3.35V21h15.93V10.31Zm7-5.84v32h-7V27.23H283.23v9.19h-7V11.34c0-4.47,1.81-6.87,7-6.87Zm-36.86,6.87V28.69c0,5.5-3.1,7.73-7,7.73h-22v-32h22c5.94,0,7,3.78,7,6.87Zm-7.06,2a2.71,2.71,0,0,0-2.93-2.92H247.23v20h12c2.76-.17,2.93-1.8,2.93-3.09v-14ZM98.15,4.47h7V17.1h15.59V4.47h7v32h-7V23.37H105.12V36.42h-7Zm41.51,0,8.79,13.06,8.61-13.06h8.44L151.89,24.91V36.42h-7V24.91L131.13,4.47Zm64.94,0h22.48c3.19,0,6.29.43,6.2,6.87V36.42h-7V13.66c0-2.75-.34-3.35-2.5-3.35H211.57V36.42h-7Zm115.4,0v32h-7v-32Zm-151.06,32h22.48c4.48,0,6.29-1.29,6.2-7.73V4.47h-7V27.32c0,2.75-.35,3.09-2.5,3.09H175.91V4.47h-7Z" transform="translate(0 0.02)" style="fill:#fff"/><path d="M69.81,6.36h0A32.16,32.16,0,0,0,63.44,3.7,72.29,72.29,0,0,0,31.74.52C21.84,1.9,12.19,4.21,4.61,11.09,1,14.43-1.16,19.5.65,24.31c2.33,5.84,8.44,9.79,14,12,16.19,6.53,38.33,6.27,54-1.2C73.95,32.38,80,27.92,80.75,21.47,81.44,14.52,75.24,9.36,69.81,6.36ZM33.47,9c1.38-2.66,3.79-5.76,7.06-5.76A74.63,74.63,0,0,1,60.94,6.1c.34.17.86.26,1,.69s-.17.69-.43,1c-5.25,4.12-11.28,6.44-17.48,8.42-3.19.77-6.37,2.15-9.82,1.37a3.36,3.36,0,0,1-2.07-1.55C31.31,13.66,32.52,11.16,33.47,9ZM12,30.58c-.86.77-1.64-.26-2.33-.6-3.79-2.4-7.15-6.36-6.2-11.08C5,12.8,11.42,9.45,16.67,7.3a45.93,45.93,0,0,1,9.82-2.66c.34,0,.86-.09,1,.26h0l-.09.34C20.72,12.89,16.24,21.73,12,30.58ZM46.47,33.5c-1.55,2.4-4,4.38-7.15,4.12a71.14,71.14,0,0,1-19.72-3,1.08,1.08,0,0,1-.69-.52,1,1,0,0,1,.34-.95c5.68-4.55,12.4-6.7,19-8.93,2.5-.69,5.17-1.46,7.92-1.12a3.65,3.65,0,0,1,2.67,2.06C49.48,28.35,47.85,31,46.47,33.5ZM77.3,22.08c-1.55,6.36-8.53,9.71-14,11.85A37.85,37.85,0,0,1,54,36.25c-.17,0-.52,0-.6-.26l.09-.34A81.62,81.62,0,0,0,64.73,18.56c1.46-2.66,2.76-5.41,4-8.16a.87.87,0,0,1,.6-.34c1.21.09,2,.95,2.93,1.55C75.41,14.18,78.25,17.78,77.3,22.08Z" transform="translate(0 0.02)" style="fill:#fff"/></svg>