<svg xmlns="http://www.w3.org/2000/svg" width="320" height="46" viewBox="0 0 320 46"><title>infiniti-logo</title><path d="M169.373,30.889V16.1h7.717v2.09h-4.882v3.858h4.567v2.09h-4.567v6.751Z" transform="translate(0 0)" style="fill:#fff"/><path d="M259.405,31.049V16.262h2.677V31.049Z" transform="translate(0 0)" style="fill:#fff"/><path d="M285.451,16.1h9.135v2.25h-3.15V30.889H288.6V18.352h-3.15Z" transform="translate(0 0)" style="fill:#fff"/><path d="M113.475,31.049V16.262h2.677V31.049Z" transform="translate(0 0)" style="fill:#fff"/><path d="M233.708,16.1h2.2V30.889h-3.15L228.983,19.8V30.889h-2.2V16.1h3.15l3.78,11.251Z" transform="translate(0 0)" style="fill:#fff"/><path d="M317.165,31.049V16.262H320V31.049Z" transform="translate(0 0)" style="fill:#fff"/><path d="M200.456,31.049V16.262h2.835V31.049Z" transform="translate(0 0)" style="fill:#fff"/><path d="M143.833,16.1H146.2V30.889h-3.15L139.266,19.8V30.889h-2.2V16.1h3.15l3.78,11.251h-.157Z" transform="translate(0 0)" style="fill:#fff"/><path d="M45.39,0C20.294,0,0,10.578,0,23.522,0,34.03,13.326,43.008,31.726,46L45.39,12.318,59.055,46c18.4-2.992,31.726-11.9,31.726-22.478C90.78,10.508,70.419,0,45.39,0ZM66.225,35.353,45.39,10.439,24.623,35.283C14.408,32.36,7.644,27.21,7.644,20.878,7.644,10.856,24.42,1.461,45.39,1.461s38.084,9.395,38.084,19.416C83.475,27.28,76.575,32.43,66.225,35.353Z" transform="translate(0 0)" style="fill:#fff"/></svg>