<svg xmlns="http://www.w3.org/2000/svg" width="152" height="80" viewBox="0 0 152 80"><title>land-rover-logo</title><path d="M152,40c0,22.039-33.98,40-76,40C34.066,80,0,62.126,0,40,0,17.961,33.979,0,76,0,117.934,0,152,17.874,152,40Z" transform="translate(0 0)"/><path d="M148.8,39.914c0,20.3-32.6,36.7-72.888,36.7-40.2,0-72.887-16.4-72.887-36.7.086-20.217,32.683-36.7,72.887-36.7C116.2,3.211,148.8,19.7,148.8,39.914ZM75.913,6.161C37.264,6.161,5.879,21.345,5.879,40S37.264,73.84,75.913,73.84,145.946,58.656,145.946,40C145.946,21.259,114.647,6.161,75.913,6.161Z" transform="translate(0 0)" style="fill:#fff"/><path d="M144.132,39.912c0,17.7-30.521,32.017-68.219,32.017S7.7,57.613,7.7,39.912,38.216,7.895,75.914,7.895C113.611,7.981,144.132,22.3,144.132,39.912ZM119.663,24.988H107.991l-1.384,4.078h7.609L105.57,32.1l-.605,1.649,13.315-4.338ZM45.133,32.1H40.378s4.41-11.8,4.755-12.668c.605-1.562,1.037-1.475,1.037-1.475H39.6c.778.434.087,1.909.087,1.909s-5.274,14.751-5.62,15.445a2.354,2.354,0,0,1-.605.868H44.874l1.556-4.338C46.171,32.276,45.133,32.1,45.133,32.1Zm19.973,4.078h5.361a1.481,1.481,0,0,1-.173-1.128c.346-.868,3.2-8.59,3.2-8.59L74.7,36.181h4.842l6.4-17.354s.259-.781.605-.781H81.361a1.926,1.926,0,0,1,0,1.041c-.173.434-3.113,8.33-3.113,8.33L77.124,17.96H71.591a1.236,1.236,0,0,1,.086.954C71.5,19.348,65.8,35.14,65.8,35.14S65.365,36.181,65.106,36.181ZM89.661,17.96s.432.694-.173,2.43-5.274,14.317-5.274,14.317-.346,1.215-.865,1.388H90.7a12.07,12.07,0,0,0,11.672-9.024s3.458-9.284-6.571-9.2H89.661Zm.778,14.056H91.3c1.211,0,3.545-.26,5.1-4.078,2.594-6.247-1.037-5.987-1.037-5.987H93.984ZM25.161,50.845H36.833l1.383-4.078H30.694L39.34,43.73l.605-1.648L26.631,46.419Zm20.491,7.549c-.173,0-.173-.607-.173-.607l2.162-5.727s2.68,5.293,2.853,5.64a1.1,1.1,0,0,1,.087.694h6.4c-.605,0-1.21-1.128-1.21-1.128l-3.2-5.727c4.5,0,5.879-4.425,5.879-4.425,2.162-7.028-5.188-6.855-5.188-6.855H45.652c.519.607.086,1.909.086,1.909S41.07,55.7,40.637,56.745A4.894,4.894,0,0,1,39.6,58.48S45.912,58.393,45.652,58.393Zm4.5-14.056-1.211,3.644h1.124a3.306,3.306,0,0,0,3.113-1.649s.951-2.082-1.729-2.082A10.706,10.706,0,0,1,50.148,44.337Zm61.82,14.143c-.432,0-.173-1.128-.173-1.128l1.9-5.206s2.594,5.293,2.767,5.64a1.107,1.107,0,0,1,.087.694h6.657c-.605,0-1.3-1.128-1.3-1.128l-3.2-5.727a6.194,6.194,0,0,0,5.793-4.252c2.334-7.375-5.1-7.028-5.1-7.028h-7.436c.519.607.086,1.909.086,1.909s-4.928,13.536-5.274,14.577a4.893,4.893,0,0,1-1.037,1.735Zm4.323-10.412s2.248.174,2.94-1.562c.778-2.082-1.211-2-1.211-2h-1.642l-1.211,3.644h1.124ZM66.317,58.827c6.658,0,10.548-6.508,10.548-11.193,0-4.859-1.989-7.983-6.571-7.983-5.879,0-9.684,4.425-10.635,9.978C58.794,54.836,61.648,58.827,66.317,58.827Zm.432-4.252c1.643.347,3.458-.868,4.41-4.685,1.47-5.727-1.21-5.813-1.729-5.9-1.47-.174-3.458,1.475-4.237,5.033C64.933,50.671,64.5,54.142,66.749,54.576ZM78.508,40.259s.432.26.432,1.388V57.439s-.087.868-.346,1.041h4.928a1.739,1.739,0,0,1,.519-.955c.519-.607,10.721-14.317,10.721-14.317s2.335-2.863,2.94-2.863h-7s.519.347.086,1.041-6.658,10.065-6.658,10.065l.087-9.458s0-1.562.605-1.649Zm29.657,4.252,1.556-4.338H97.789s.432.347-.087,1.909-5.361,14.577-5.361,14.577-.865,1.735-1.124,1.735H103.5l1.47-4.338s-.173.26-1.383.26H98.394l1.124-2.95h4.064s.865-.087,1.038.174l1.643-4.685s-.086.434-1.21.434h-3.891l1.124-3.21h4.928C107.3,44.077,107.991,43.99,108.164,44.511ZM46,36.181h5.879a2.013,2.013,0,0,1,.173-.781c.259-.521,1.038-1.822,1.038-1.822h5.879V35.14a1.473,1.473,0,0,1-.432.955h5.879a1.3,1.3,0,0,1-.519-.955l-.778-16.052s0-1.041.432-1.215H57.757s.432.521-.346,1.649S46.69,35.487,46.69,35.487A1.184,1.184,0,0,1,46,36.181ZM58.881,24.207,55.6,29.587h3.285Z" transform="translate(0 0)" style="fill:#fff"/></svg>