<svg xmlns="http://www.w3.org/2000/svg" width="319" height="79.999" viewBox="0 0 319 79.999"><title>mitsubishi-logo</title><path d="M45.245,53.652H15L0,80H30.332Z" style="fill:#fff"/><path d="M60.627,26.618,45.5,0,30.331,26.618,45.5,53.272Z" style="fill:#fff"/><path d="M60.609,80H90.941L75.955,53.652H45.7Z" style="fill:#fff"/><path d="M254.055,24.727h-5.766V55.051h5.766Z" style="fill:#fff"/><path d="M319,24.727h-5.766V55.051H319Z" style="fill:#fff"/><path d="M145.288,24.727h-5.766V55.051h5.766Z" style="fill:#fff"/><path d="M167.427,24.727h-17.9v5.16h5.95V55.1h5.95V29.886h6Z" style="fill:#fff"/><path d="M301.613,36.268H288.6V24.727h-5.812V55.1H288.6V41.428h13.008V55.1h5.812V24.727h-5.812Z" style="fill:#fff"/><path d="M120.84,38.3,115.4,24.727h-6.688V55.1h5.766V36.268L120.84,51.34l6.135-15.253V55.1h5.766V24.727h-6.5Z" style="fill:#fff"/><path d="M216.461,24.727h-5.72V46.361c0,2.354-2.675,4.254-5.074,4.254s-5.074-1.9-5.074-4.254V24.727h-5.9l.092,21.363c0,5.477,5.258,9.912,10.84,9.912s10.84-4.436,10.84-9.912Z" style="fill:#fff"/><path d="M238.786,38.667c.83-.543,3.875-2.308,3.875-6.11a7.562,7.562,0,0,0-7.242-7.785H222V55.1h11.9c4.7,0,9.779-2.218,9.779-8.056C243.676,41.971,241.231,40.024,238.786,38.667Zm-4.613,11.27h-6.366V29.886H233.9a2.915,2.915,0,0,1,2.906,2.942c0,1.584-.646,3.44-2.814,3.44h-2.537v5.16h2.721c1.614,0,3.875,1.494,3.782,4.617A3.9,3.9,0,0,1,234.174,49.936Z" style="fill:#fff"/><path d="M169.735,45.227a10.592,10.592,0,0,0,0,1.222,9.322,9.322,0,0,0,9.641,9.188c5.351,0,9.64-3.53,9.64-8.781a8.556,8.556,0,0,0-3-6.608c-1.568-1.4-6-3.53-7.749-4.571-1.614-1-2.4-1.72-2.445-3.168a3.333,3.333,0,0,1,3.506-3.53,3.784,3.784,0,0,1,3.829,3.757c.046.543.046,1.086.046,1.4h5.12v-1.4c0-4.888-3.137-8.735-8.995-8.735-4.982,0-8.995,3.349-8.995,8.735,0,2.4,1.153,4.707,3.967,6.518,3,1.946,6.781,3.394,8.026,4.662a3.989,3.989,0,0,1-2.952,6.88,4.708,4.708,0,0,1-4.474-3.938,12.275,12.275,0,0,1-.185-1.675h-4.982Z" style="fill:#fff"/><path d="M267.476,35.724c-1.614-1-2.4-1.72-2.445-3.168a3.333,3.333,0,0,1,3.506-3.53,3.784,3.784,0,0,1,3.828,3.757c.046.543.046,1.086.046,1.4h5.12v-1.4c0-4.888-3.137-8.735-8.995-8.735-4.982,0-8.995,3.349-8.995,8.735,0,2.4,1.153,4.707,3.967,6.517,3,1.946,6.781,3.395,8.026,4.662a3.989,3.989,0,0,1-2.952,6.88,4.708,4.708,0,0,1-4.474-3.938,12.28,12.28,0,0,1-.185-1.675H258.9a10.594,10.594,0,0,0,0,1.222,9.322,9.322,0,0,0,9.641,9.188c5.351,0,9.64-3.53,9.64-8.781a8.556,8.556,0,0,0-3-6.608C273.657,38.892,269.183,36.765,267.476,35.724Z" style="fill:#fff"/></svg>