<svg xmlns="http://www.w3.org/2000/svg" width="320" height="45" viewBox="0 0 320 45"><title>nissan-logo</title><path d="M64.712,0h11.18a1.151,1.151,0,0,1,1.186,1.171V43.494a1.151,1.151,0,0,1-1.186,1.171H64.712a1.151,1.151,0,0,1-1.186-1.171V1.171A1.419,1.419,0,0,1,64.712,0ZM1.186.335H17.957a5.5,5.5,0,0,1,4.4,2.509L43.367,34.963V1.506A1.151,1.151,0,0,1,44.553.335h9.486a1.151,1.151,0,0,1,1.186,1.171V43.829A1.151,1.151,0,0,1,54.039,45H37.777c-.678,0-3.9,0-5.421-2.677l-20.5-31.282V43.829A1.151,1.151,0,0,1,10.672,45H1.186A1.151,1.151,0,0,1,0,43.829V1.506A1.151,1.151,0,0,1,1.186.335Zm264.605,0h16.941a5.5,5.5,0,0,1,4.4,2.509l21.006,32.119V1.506A1.151,1.151,0,0,1,309.328.335h9.486A1.151,1.151,0,0,1,320,1.506V43.829A1.151,1.151,0,0,1,318.814,45H302.552c-.678,0-3.9,0-5.421-2.677L276.8,11.041V43.829A1.151,1.151,0,0,1,275.617,45h-9.826a1.15,1.15,0,0,1-1.185-1.171V1.506A1.15,1.15,0,0,1,265.791.335ZM218.528,26.766h18.3L229.37,10.372h-3.388ZM240.889,35.8h-26.6l-3.557,7.862a2.044,2.044,0,0,1-1.525,1.171h-11.18c-.678,0-.847-.5-.678-1.171L216.665,1.338A2.042,2.042,0,0,1,218.19.167h18.8a1.624,1.624,0,0,1,1.525,1.171L257.83,43.662c.338.669,0,1.171-.678,1.171H245.971a1.623,1.623,0,0,1-1.524-1.171ZM133.827,10.2H100.794A1.509,1.509,0,0,0,99.27,11.71v2.509a1.482,1.482,0,0,0,1.355,1.506S127.9,18.234,128.068,18.4a10.8,10.8,0,0,1,8.47,10.539v4.851c0,6.19-3.219,11.208-13.891,11.208H87.242a.945.945,0,0,1-1.016-.836v-8.2c0-.5.339-.836,1.016-.836h34.9a1.373,1.373,0,0,0,1.355-1.506V30.279a1.509,1.509,0,0,0-1.525-1.506L96.559,26.6H96.39c-5.76-.167-10.164-4.182-10.164-9.87V11.543A11.242,11.242,0,0,1,97.406.335h36.421a.945.945,0,0,1,1.017.836V9.2A1.086,1.086,0,0,1,133.827,10.2Zm57.428,0h-33.2a1.509,1.509,0,0,0-1.525,1.505v2.509a1.482,1.482,0,0,0,1.355,1.506s27.274,2.509,27.444,2.677a10.8,10.8,0,0,1,8.47,10.539v4.851C193.8,39.981,190.577,45,179.9,45H144.669a.945.945,0,0,1-1.016-.836v-8.2c0-.5.339-.836,1.016-.836h34.9a1.373,1.373,0,0,0,1.355-1.506V30.279a1.508,1.508,0,0,0-1.524-1.506L153.986,26.6h-.169c-5.76-.167-10.164-4.182-10.164-9.87V11.543A11.241,11.241,0,0,1,154.833.335h36.422a.945.945,0,0,1,1.016.836V9.2C192.1,9.7,191.763,10.2,191.255,10.2Z" style="fill:#fff"/></svg>