<svg xmlns="http://www.w3.org/2000/svg" width="320" height="58.01" viewBox="0 0 320 58.01"><title>opel-logo</title><polygon points="198.23 7.53 182.66 7.53 182.49 7.53 182.49 52.19 230.73 52.19 230.73 42.6 198.23 42.6 198.23 7.53" style="fill:#fff"/><polygon points="126.39 52.19 177.36 52.19 177.36 42.78 142.13 42.78 142.13 34.05 170.18 34.05 170.18 25.15 142.13 25.15 142.13 16.77 177.53 16.77 177.53 7.53 126.39 7.53 126.39 52.19" style="fill:#fff"/><path d="M107.41,7.53H66V51.84H82.1v-14h25.65c9.75,0,14-5,14.2-15.74C121.95,12.66,116,7.53,107.41,7.53Zm-6.16,21.21h-19V16.94h18.64c.85,0,5.3-.86,5.47,6C106.55,28.57,103.13,28.91,101.25,28.74Z" transform="translate(0 0)" style="fill:#fff"/><path d="M42.93,6.84H18.3C6,6.84,0,12.49,0,25v9.41c0,11.64,4.79,18,18,18h25c12.31,0,18-6.33,18-18V25C60.89,14,57,6.84,42.93,6.84Zm2.57,18.31v8.55a7.85,7.85,0,0,1-7.83,7.87H23.26a7.85,7.85,0,0,1-7.87-7.83s0,0,0,0V25.15A7.74,7.74,0,0,1,23,17.28H37.63a7.85,7.85,0,0,1,7.87,7.83S45.5,25.14,45.49,25.15Z" transform="translate(0 0)" style="fill:#fff"/><path d="M310.59,29.6v-.68a28.91,28.91,0,0,0-57-7l-10.09.17h-.17V27.2l9.24.17v1.71a29,29,0,0,0,57.29,6.16L320,35.08v-5ZM281.77,54.92a26,26,0,0,1-26.07-25.84V27.55l20.18.51-10.26,7.53,41.22-.34A26,26,0,0,1,281.77,54.92ZM307.52,29.6l-19.16-.85,9.58-7.19-41.22.34a26.11,26.11,0,0,1,25-18.82h0a25.81,25.81,0,0,1,25.78,25.83Z" transform="translate(0 0)" style="fill:#fff"/></svg>