<svg xmlns="http://www.w3.org/2000/svg" width="320" height="58" viewBox="0 0 320 58"><title>opel-logo</title><path d="M182.662,7.528h15.564V42.6h32.5v9.581H182.491V7.528ZM142.127,25.15h28.049v8.9H142.127v8.726H177.36v9.41H126.392V7.528h51.139v9.239h-35.4ZM66.018,7.528h41.39c8.551,0,14.537,5.133,14.537,14.543-.171,10.779-4.446,15.74-14.195,15.74H82.1V51.841H66.018Zm16.248,9.41h18.643c.855,0,5.3-.856,5.473,5.988.171,5.646-3.25,5.988-5.131,5.817H82.266ZM23.26,17.28H37.627a7.848,7.848,0,0,1,7.868,7.87v8.555a7.848,7.848,0,0,1-7.868,7.87H23.26a7.848,7.848,0,0,1-7.867-7.87V25.15A7.741,7.741,0,0,1,23.26,17.28ZM18.3,6.844H42.929c14.025,0,17.958,7.186,17.958,18.136v9.41c0,11.634-5.644,17.965-17.958,17.965H17.958C4.789,52.354,0,46.024,0,34.389v-9.41C0,12.49,5.986,6.844,18.3,6.844ZM243.549,22.071,253.64,21.9a28.908,28.908,0,0,1,56.953,7.015V29.6l9.407.513v4.962l-10.091.171a28.986,28.986,0,0,1-57.295-6.159V27.375l-9.236-.171V22.071Zm13.169-.171,41.219-.342-9.578,7.186,19.156.855v-.684A25.807,25.807,0,0,0,281.689,3.08,26.115,26.115,0,0,0,256.718,21.9Zm50.113,13.345-41.219.342,10.262-7.528-20.182-.513v1.54a25.955,25.955,0,0,0,51.139,6.159Z" style="fill:#fff"/></svg>