<svg xmlns="http://www.w3.org/2000/svg" width="320" height="22" viewBox="0 0 320 22"><title>porshe-logo</title><path d="M37.412.191H0V21.809H4.178V16.835H38.172c2.089,0,3.039-2.1,3.039-3.635V3.444C41.211.383,38.742.191,37.412.191Zm-.57,9.948c0,1.53-.57,2.1-1.709,2.1H4.178V4.209H34.754c1.519,0,2.089.765,2.089,1.53Z" transform="translate(0 0)" style="fill:#fff"/><path d="M85.65.191H49a2.115,2.115,0,0,0-2.089,2.1V19.513A2.115,2.115,0,0,0,49,21.617H85.65a2.115,2.115,0,0,0,2.089-2.1V2.3A2.115,2.115,0,0,0,85.65.191ZM83.561,16.261A1.472,1.472,0,0,1,82.042,17.6H52.606a1.358,1.358,0,0,1-1.519-1.339V5.357a1.471,1.471,0,0,1,1.519-1.339H81.852a1.358,1.358,0,0,1,1.519,1.339v10.9Z" transform="translate(0 0)" style="fill:#fff"/><path d="M132.369,16.835c.57-.191,2.089-.765,2.089-3.443V4.4c0-2.487-1.139-4.017-3.229-4.017H93.247V22h4.178V16.835h30.2l2.279,4.974h4.938Zm-1.9-6.5c0,1.339-.57,1.913-1.9,1.913H97.615V4.209h30.956c1.329,0,1.9.574,1.9,1.722Z" transform="translate(0 0)" style="fill:#fff"/><path d="M180.416,0V4.4H147.751a1.378,1.378,0,0,0-1.519,1.53V7.269a1.3,1.3,0,0,0,1.329,1.53h29.816a3.24,3.24,0,0,1,3.418,3.443v5.739a3.365,3.365,0,0,1-3.608,3.635H142.054V17.409h32.665c1.519,0,1.9-.574,1.9-1.53V13.965c0-1.339-2.089-1.148-3.039-1.148H145.093c-2.469,0-3.039-1.913-3.039-3.252V2.87c0-1.913,1.9-2.87,3.608-2.87C147.561.191,180.416,0,180.416,0Z" transform="translate(0 0)" style="fill:#fff"/><path d="M226.753.192V4.21H194.088c-1.519,0-1.9,1.148-1.9,2.1v9.565c0,1.53.38,1.913,1.519,1.913h32.855V21.81H191.43c-3.039,0-3.229-2.1-3.229-3.826V3.062c0-2.87,2.659-2.87,3.418-2.87C192.569,0,226.753.192,226.753.192Z" transform="translate(0 0)" style="fill:#fff"/><path d="M268.155,0V8.8H237.389V0h-4.178V22h4.178V13.009h30.766V22h4.178V0Z" transform="translate(0 0)" style="fill:#fff"/><path d="M320,4.209V0H278.789V21.809H320V17.6H282.967V12.817H320V8.609H282.967v-4.4Z" transform="translate(0 0)" style="fill:#fff"/></svg>