<svg xmlns="http://www.w3.org/2000/svg" width="320" height="67" viewBox="0 0 320 67"><title>renault-logo</title><path d="M54.164,31.712c-.959-2.07-4.122-8-6.711-12.61-3.547-6.4-9.97-16.938-10.641-17.879A2.086,2.086,0,0,0,34.991.188h-.1C33.937.094,29.814,0,27.322,0c-2.109,0-6.615.094-7.669.188a2.152,2.152,0,0,0-1.822,1.129C17.064,2.353,10.545,13.08,7.19,19.1,4.7,23.431.863,30.959.479,31.712A5.509,5.509,0,0,0,0,33.5a4.534,4.534,0,0,0,.479,1.788c.767,1.694,3.259,6.493,6.711,12.61,3.547,6.4,10.066,16.938,10.737,17.879.767.941,1.15,1.035,1.821,1.035.959.094,5.273.188,7.573.188,2.493,0,7-.094,7.573-.188a2.192,2.192,0,0,0,1.821-1.035c.671-.847,7.573-12.233,10.737-17.879,2.972-5.364,6.327-11.763,6.711-12.61a4.794,4.794,0,0,0,.479-1.788A3.409,3.409,0,0,0,54.164,31.712ZM36.717,35.476C33.074,43.1,23.3,60.883,21.282,64.271a2.05,2.05,0,0,1-.288.47c-.288.47-.575.753-.767.659a129.774,129.774,0,0,0,6.423-13.456c-3.164-5.74-5.944-11.1-8.532-16.562a4.637,4.637,0,0,1-.671-1.976,5.062,5.062,0,0,1,.671-1.976C21.857,23.525,31.156,6.3,33.841,2.164c.288-.471.479-.659.671-.659,0,0-3.739,6.963-6.423,13.456,3.164,5.74,5.944,11.1,8.532,16.562a4.363,4.363,0,0,1,.671,1.882C37.388,33.971,37.2,34.441,36.717,35.476Z" transform="translate(0)" style="fill:#fff"/><path d="M320,19.012V24.5H308.433V48.745h-7.9V24.5h-11.76V19.012Z" transform="translate(0)" style="fill:#fff"/><path d="M292.239,43.253v5.492H267.177V19.012h7.9V43.253Z" transform="translate(0)" style="fill:#fff"/><path d="M141.095,43.253v5.492H114.876V19.012h25.641V24.5H122.587v6.628h16.387v5.3H122.587v6.818Z" transform="translate(0)" style="fill:#fff"/><path d="M100.8,37.759a10.326,10.326,0,0,0,5.4-9.091c0-3.03-.964-5.492-2.892-7.007C100.995,19.767,98.1,19.01,92.9,19.01H74.969L74.583,20.9l.771,1.136a2.676,2.676,0,0,1,.578,1.894v24.81h7.9V39.274h9.832l5.205,9.469h8.483Zm-4.049-4.924a3.362,3.362,0,0,1-2.506.947h-10.6V24.691h8.483c2.506,0,3.856.189,4.82.947s1.35,1.7,1.35,3.409A6.169,6.169,0,0,1,96.753,32.835Z" transform="translate(0)" style="fill:#fff"/><path d="M173.866,19.012v19.7a88.026,88.026,0,0,0-6.94-7.954c-2.7-2.841-8.1-8.712-10.989-11.742h-7.519l-.386,1.7.771,1.136c.386.758.578.947.578,1.326V48.366h7.133V29.049a58.435,58.435,0,0,0,5.591,6.439c3.277,3.6,8.29,9.09,12.338,13.257h6.747V19.012Z" transform="translate(0)" style="fill:#fff"/><path d="M250.79,19.01V37.191c0,2.083-.385,3.22-1.349,4.167-1.35,1.136-3.277,1.7-6.362,1.7s-5.205-.568-6.555-1.7c-.964-.947-1.35-2.083-1.35-4.167V19.01H226.5l-.386,1.7.771,1.136c.386.758.578.947.578,1.326V37.191c0,7.765,5.4,11.742,15.616,11.742h.193c10.41,0,15.423-3.788,15.423-11.742V18.82h-7.9Z" transform="translate(0)" style="fill:#fff"/><path d="M209.726,19.012h-9.832c-2.892,6.06-8.1,17.234-12.917,29.734h7.9c.578-1.7,1.35-3.409,1.928-5.113H213c.771,1.7,1.35,3.409,1.928,5.113h7.9C217.823,36.246,212.81,25.072,209.726,19.012Zm-10.6,18.939c2.121-5.113,4.048-9.848,5.784-13.446,1.735,3.788,3.663,8.522,5.784,13.446Z" transform="translate(0)" style="fill:#fff"/></svg>