<svg xmlns="http://www.w3.org/2000/svg" width="293" height="68" viewBox="0 0 293 68"><title>acura-logo</title><path d="M109.634,19,92.192,48.774h8.345l2.614-4.369h17.835l-3.223-5.727H106.375l6.8-12.923,1.146.11,12.356,22.909h8.058L118.516,19Z" transform="translate(0)" style="fill:#fff"/><path d="M135.778,27.811V40a8.614,8.614,0,0,0,8.56,8.738h23.888V43.01H145.3a2.5,2.5,0,0,1-2.507-2.57V27.334a2.523,2.523,0,0,1,2.507-2.57l22.921-.037V19H144.338A8.7,8.7,0,0,0,135.778,27.811Z" transform="translate(0)" style="fill:#fff"/><path d="M200.24,40.734a2.57,2.57,0,0,1-2.507,2.57H182.656a2.57,2.57,0,0,1-2.507-2.57V19h-7.02V39.963a8.591,8.591,0,0,0,8.56,8.738h16.94a8.69,8.69,0,0,0,8.6-8.738V19H200.2V40.734Z" transform="translate(0)" style="fill:#fff"/><path d="M45,67.282C61.313,64.65,70.536,54.6,70.536,34.008,70.536,13.4,61.313,3.367,45,.735A60.088,60.088,0,0,0,35.268,0a62,62,0,0,0-9.731.718C9.223,3.35,0,13.4,0,34.008,0,54.6,9.223,64.65,25.537,67.282A60.154,60.154,0,0,0,35.268,68,64.3,64.3,0,0,0,45,67.282ZM45,3.315C56.523,5.828,65.966,13.774,65.966,34.008c0,15.381-5.449,23.652-13.149,27.839L48.485,32.419,45,22.49,37.942,2.41A41.965,41.965,0,0,1,45,3.315ZM33.931,2.341c.44-.017.88-.017,1.337-.017.44,0,.88.017,1.337.017l.389,24.524H33.542ZM4.552,34.008C4.552,13.774,14,5.828,25.52,3.315a43.8,43.8,0,0,1,7.057-.906L25.52,22.49l-3.486,9.929L17.7,61.848C10.019,57.661,4.552,49.389,4.552,34.008ZM25.537,64.685a30.429,30.429,0,0,1-7.074-2.444l7.074-14.817L33.2,31.36h4.146l7.666,16.064L52.09,62.241a30.429,30.429,0,0,1-7.074,2.444,47,47,0,0,1-9.731.974A45.91,45.91,0,0,1,25.537,64.685Z" transform="translate(0)" style="fill:#fff"/><path d="M272.586,25.865l12.356,22.909H293L276.776,19h-8.918L250.417,48.774h8.38l2.579-4.369h17.871l-3.223-5.727H264.6l6.8-12.923Z" transform="translate(0)" style="fill:#fff"/><path d="M241.07,19.037,214.138,19h-1.361V48.737h6.984V24.764h19.411a2.146,2.146,0,0,1,2.077,2.093v4.222a2.121,2.121,0,0,1-2.077,2.093H222.3l1.5,5.727,15.328.037a2.12,2.12,0,0,1,2.077,2.093v7.746h6.518V41.468c-.036-2.166-1.5-4.919-3.581-5.4a5.088,5.088,0,0,0,4.047-4.516V26.379A7.246,7.246,0,0,0,241.07,19.037Z" transform="translate(0)" style="fill:#fff"/></svg>