<svg xmlns="http://www.w3.org/2000/svg" width="329.688" height="46.149" viewBox="0 0 329.688 46.149"><title>bentley-logo</title><path d="M171.775,22.4a5.392,5.392,0,0,0,2.384-4.676c0-2.739-2.317-5.411-6.687-5.411-3.774.067-7.945.067-11.587,0,.132,7.281.132,14.5,0,21.576h13.044c3.708,0,6.687-1.937,6.687-6.079A5.4,5.4,0,0,0,171.775,22.4ZM160.122,15.85h0c2.053-.067,5.562-.134,7.283,0,1.854.134,2.715,1.069,2.715,2.472a2.344,2.344,0,0,1-2.212,2.469q-.086,0-.172,0c-1.721.067-5.827.134-7.614,0C160.056,19.19,160.056,17.52,160.122,15.85ZM167.8,30.212h0a74.815,74.815,0,0,1-7.747,0c-.066-1.937-.066-3.674,0-5.678,2.582-.067,5.429-.067,7.68,0,2.582.067,3.84,1.2,3.84,2.872C171.576,29.143,170.451,30.078,167.8,30.212Z" transform="translate(0 -0.005)" style="fill:#fff"/><path d="M262.416,30.146q-.2-8.918,0-17.836c-1.39.067-2.715.067-4.1,0,.132,7.214.132,14.362,0,21.576q8.839-.2,17.678,0a35.246,35.246,0,0,1,0-3.741C271.487,30.212,266.918,30.212,262.416,30.146Z" transform="translate(0 -0.005)" style="fill:#fff"/><path d="M223.087,12.31q.2,7.215,0,14.429c-4.3-4.81-8.475-9.619-12.448-14.429a34.313,34.313,0,0,1-3.708,0c.066,7.214.066,14.362,0,21.576a33.132,33.132,0,0,1,3.642,0c-.066-5.08-.066-10.223,0-15.3,4.5,5.146,8.873,10.29,13.044,15.3a24.2,24.2,0,0,1,3.112,0c-.132-7.276-.132-14.495,0-21.576A33.1,33.1,0,0,1,223.087,12.31Z" transform="translate(0 -0.005)" style="fill:#fff"/><path d="M186.145,30.079q-.1-2.706,0-5.411c3.311-.067,6.489-.067,9.667,0a35.28,35.28,0,0,1,0-3.741c-3.245.067-6.489.067-9.667,0a29.968,29.968,0,0,1,0-4.876q7.148-.2,14.1,0c-.066-1.2-.066-2.471-.065-3.807-5.959.134-12.051.134-18.142,0,.132,7.214.132,14.362,0,21.576,6.158-.134,12.249-.134,18.407,0a35.215,35.215,0,0,1,0-3.741Q193.3,30.179,186.145,30.079Z" transform="translate(0 -0.005)" style="fill:#fff"/><path d="M329.688,12.31c-1.655.067-3.377.067-5.032,0-2.12,2.806-4.436,5.544-6.82,8.35-2.384-2.806-4.7-5.544-6.82-8.35-1.655.067-3.377.067-5.032,0,3.378,4.075,6.688,8.216,9.8,12.291.132,3.139.132,6.212,0,9.285,1.324-.067,2.716-.067,4.1,0-.133-3.073-.133-6.212,0-9.285C323,20.526,326.311,16.385,329.688,12.31Z" transform="translate(0 -0.005)" style="fill:#fff"/><path d="M285.861,30.079q-.1-2.706,0-5.411c3.245-.067,6.489-.067,9.667,0a35.28,35.28,0,0,1,0-3.741c-3.245.067-6.489.067-9.667,0a29.968,29.968,0,0,1,0-4.876q7.148-.2,14.1,0c-.067-1.2-.067-2.471-.065-3.807-5.959.134-12.051.134-18.142,0,.132,7.214.132,14.362,0,21.576,6.158-.134,12.249-.134,18.407,0a35.215,35.215,0,0,1,0-3.741Q293.012,30.179,285.861,30.079Z" transform="translate(0 -0.005)" style="fill:#fff"/><path d="M233.151,12.309a35.246,35.246,0,0,1,0,3.741,73.647,73.647,0,0,1,7.681,0q.2,9.018,0,17.836c1.324-.067,2.714-.067,4.1,0q-.2-8.918,0-17.836c2.58-.067,5.1-.067,7.68,0a35.246,35.246,0,0,1,0-3.741Q242.884,12.509,233.151,12.309Z" transform="translate(0 -0.005)" style="fill:#fff"/><path d="M140.984,3.912c-.127-.132-.478-.611-.827-1.011a16.7,16.7,0,0,0-1.263-1.274c-.087-.088-.348-.088-.871-.044-.48,0-3.354.268-4.661.4s-3.963.264-4.747.264-3.309-.127-4.529-.176-7.229-.4-8.58-.4c-1.348.048-8.011.356-9.1.4-1.092.088-4.925.264-6.1.264a37.6,37.6,0,0,1-4.181-.264c-.7-.088-3.311-.352-4.4-.352s-1.785.088-2.656.132a26.229,26.229,0,0,0-3.441.527c-1,.219-2.178.571-2.178.571s-1.616-.747-2.4-1.055A39.582,39.582,0,0,0,76.521.576a35.372,35.372,0,0,0-6.1-.571,34.566,34.566,0,0,0-5.27.483A37.209,37.209,0,0,0,60.4,1.674c-.827.308-2.482.967-2.482.967a12.271,12.271,0,0,0-1.873-.483c-.866-.136-4.747-.4-5.966-.4s-7.4.264-8.71.308c-1.306,0-5.226-.176-6.663-.264-1.437-.044-7.186-.264-8.449-.264-1.261.044-6.4.087-7.317.175s-4.964.308-5.487.308H9.407c-.959,0-3.354-.132-3.92-.176S2.874,1.537,2.7,1.537a.632.632,0,0,0-.61.22c-.217.22-.435.483-.74.835S0,4.174,0,4.174l.131.4A.753.753,0,0,0,.392,5.1c.174.088,1.306.66,1.7.879S4.224,7.021,4.224,7.021a.193.193,0,0,0-.044.132c-.044.088-.131.615-.218.967-.087.307-.218,1.011-.261,1.186s-.087.392.131.483,1.219.615,1.655.791c.39.176,2.09.967,2.09.967v.7c.044.219.087,1.01.131,1.186a.729.729,0,0,0,.261.659,4.337,4.337,0,0,0,1.176.483c.435.136.653.224,1.306.4.7.175,1.916.439,1.916.439s.087.483.218,1.054a7.735,7.735,0,0,0,.392,1.538.852.852,0,0,0,.479.483,8.234,8.234,0,0,0,1.307.308c.3.044.958.176,1.437.22.479.088,1.524.176,1.524.176l.087.176c.043.088.436.7.653,1.011s.435.615.653.879c.218.219.349.439.61.527a14.239,14.239,0,0,0,1.786.351c.61.132,1.742.264,2.265.308a13.6,13.6,0,0,0,1.568.088,6.5,6.5,0,0,0,.218.747,3.031,3.031,0,0,0,.566,1.011,1.336,1.336,0,0,0,.915.571c.348.044,1.224.132,1.524.132h3.657s.044.176.087.308c.087.132.348.7.479.879a3.55,3.55,0,0,0,.566.659,1.612,1.612,0,0,0,.827.4,6.465,6.465,0,0,0,1.524-.088c.567-.088,1.479-.265,1.873-.352s1.394-.351,1.394-.351a6.725,6.725,0,0,0,.436.747,3.041,3.041,0,0,0,.566.659c.131.132.262.22.915.264a7.918,7.918,0,0,0,2-.308,16.227,16.227,0,0,0,1.568-.439,1.433,1.433,0,0,0,.087.4,17.6,17.6,0,0,0,.653,1.8c.348.791.61,1.362.958,2.021a14.363,14.363,0,0,0,1.219,1.977c.523.7,1.089,1.406,1.481,1.845a31.213,31.213,0,0,0,2.4,2.417c.434.4,1.611,1.274,2.134,1.626a21.4,21.4,0,0,0,1.9,1.17c.522.263,1.742.878,2.308,1.142.523.263,1.35.571,1.35.571s.174.353.261.571.566,1.186.653,1.318a.415.415,0,0,0,.392.088c.131,0,.828-.312,1.089-.4.215-.087.915-.351.915-.351l.523.791c.174.22.566.791.61.879.039.132.213.132.3.088a8.726,8.726,0,0,1,.827-.483c.3-.171,1.045-.571,1.045-.571s.348.483.479.615c.084.132.7.835.784.967.039.132.213.132.3.088s.653-.527.871-.659c.174-.132.827-.615.827-.615l.7.7a5.657,5.657,0,0,0,.871.747.167.167,0,0,0,.218,0l.174-.176a8.4,8.4,0,0,0,.7-.659c.177-.176.7-.659.7-.659a2.037,2.037,0,0,0,.261.22c.127.088.566.439.827.615a5.953,5.953,0,0,0,.61.439q.2.066.261,0a10.144,10.144,0,0,0,.784-.923c.174-.264.566-.747.566-.747s.653.4.827.483.963.527,1.045.571a.252.252,0,0,0,.3,0,5.848,5.848,0,0,0,.61-.879c.174-.22.566-.835.566-.835s.61.263.871.351c.261.131,1,.395,1.132.439a.337.337,0,0,0,.348-.088,9.568,9.568,0,0,0,.523-1.011c.179-.4.479-.967.479-.967s.789-.307,1.437-.615,2.173-1.1,3-1.626,1.872-1.316,2.482-1.8,1.7-1.494,1.96-1.758.654-.7.959-1.011c.261-.308,1.485-1.846,1.785-2.285a20.268,20.268,0,0,0,1.219-1.977c.175-.352.7-1.364.784-1.626s.479-1.362.479-1.362.3.132.653.264a9.794,9.794,0,0,0,1.089.264,5.853,5.853,0,0,0,.784.044,1.882,1.882,0,0,0,.7-.4,3.748,3.748,0,0,0,.566-.615,5.9,5.9,0,0,0,.349-.615,3.661,3.661,0,0,0,.391.132c.175.043.963.263,1.263.351a12.22,12.22,0,0,0,1.35.308,3.216,3.216,0,0,0,1.133.088c.392-.044.61-.351.828-.527a5.182,5.182,0,0,0,.565-.791,2.8,2.8,0,0,0,.262-.659s.217.088.479.176a9.651,9.651,0,0,0,1.48.308,11.049,11.049,0,0,0,1.7.132,4.791,4.791,0,0,0,1.132-.044.806.806,0,0,0,.566-.308,2.4,2.4,0,0,0,.392-.615,9.152,9.152,0,0,0,.348-.879c.044-.264.175-.747.175-.747h2.134c.39,0,1.873-.044,2.09-.044.219-.044.567-.044.959-.132a1.12,1.12,0,0,0,.61-.351,2.152,2.152,0,0,0,.391-.659,4.406,4.406,0,0,0,.262-.835c.043-.176.13-.791.13-.791s.217.044.479.088c.3.044.828.088,1.263.132s1.354.044,1.654.044a6.65,6.65,0,0,0,1.046-.088,3.354,3.354,0,0,0,.566-.4,4.245,4.245,0,0,0,.7-.791,4.167,4.167,0,0,0,.566-1.054c.083-.219.3-1.054.3-1.054a4.9,4.9,0,0,1,.61-.044c.306-.044,1.176-.132,1.612-.176.479-.088.957-.176,1.306-.264a1.488,1.488,0,0,0,.74-.4,2.146,2.146,0,0,0,.479-.791,7.5,7.5,0,0,0,.217-1.054c.043-.308.043-.967.043-.967h.392c.217-.044.7-.088,1.089-.176a9.793,9.793,0,0,0,1.306-.4,2.557,2.557,0,0,0,.653-.483,3.289,3.289,0,0,0,.435-.879,4.322,4.322,0,0,0,.087-1.054c0-.352-.043-.879-.043-.879s.7-.22,1.089-.308a13.271,13.271,0,0,0,1.48-.571,7.029,7.029,0,0,0,.872-.483,2.745,2.745,0,0,0,.043-.659,4.343,4.343,0,0,0-.262-1.1c-.091-.311-.391-1.011-.391-1.011s1-.4,1.393-.571c.349-.176,1.524-.791,1.655-.835a.581.581,0,0,0,.261-.22,2.427,2.427,0,0,0,.392-.615C141.159,4.132,141.111,4.044,140.984,3.912ZM59.447,2.461c.349-.132,2.221-.791,2.787-.923.7-.176,2.308-.571,3.266-.747A38.166,38.166,0,0,1,70.334.439,36.421,36.421,0,0,1,74.21.658c.784.088,2.352.4,3,.527.653.176,1.7.439,2.308.659s1.568.527,1.916.7.61.22.653.264a1.351,1.351,0,0,0,.261.264,3.544,3.544,0,0,0,.479.176.593.593,0,0,1-.261.132c-.131.044-.348.176-.479.22a2.9,2.9,0,0,0-.3.132s0-.22-.087-.264a3.972,3.972,0,0,0-1.045-.483c-.435-.176-1.132-.4-1.786-.615-.653-.176-1.829-.527-2.657-.659-.784-.132-1.655-.308-2.439-.4s-2.569-.22-3.484-.22-2.7.132-3.571.22c-.871.132-2.308.352-3.179.527-.827.22-1.96.483-2.4.659-.436.132-.958.4-1.132.4s-.517-.039-.647-.039h-.3c-.087,0-.261.132-.348.088-.006-.045-.18-.133-.18-.133S59.1,2.593,59.447,2.461Zm22.292,5.8c1.307,1.011,3.745,2.5,4.181,4.789a4.316,4.316,0,0,1,.222,1.4,3.3,3.3,0,0,1-.3-.351c-.087-.132-.174-.659-.3-.967a7.119,7.119,0,0,0-.871-1.23A8.286,8.286,0,0,0,82.8,10.372a17.351,17.351,0,0,0-3.1-1.63,15.912,15.912,0,0,0-3.179-1.011,23.867,23.867,0,0,0-4.878-.659,32.286,32.286,0,0,0-4.573.22,20.508,20.508,0,0,0-4.007.923,19,19,0,0,0-2.221.879c-.436.22-1.524.747-1.916,1.011s-1,.7-1.394.923c-.392.264-.436.439-.7.4a.614.614,0,0,1-.436-.4,4.447,4.447,0,0,1,.566-.615c.261-.264.915-.835,1.307-1.142.392-.352,1.176-1.011,1.307-1.142s.479-.527.479-.527.131.264.3.176a1.3,1.3,0,0,0,.7-.615,2.7,2.7,0,0,0,.131-2.724,1.285,1.285,0,0,0-.653-.308.958.958,0,0,1-.392-.044,2.576,2.576,0,0,1-.261-.176s.479-.176.7-.264,1.176-.439,1.786-.615c.653-.176,1.307-.352,2.09-.527a27.3,27.3,0,0,1,2.918-.439c.958-.088,2.178-.176,2.874-.176.74,0,2.4.088,3.092.176s2,.264,2.787.439a25.61,25.61,0,0,1,2.918.791,10.926,10.926,0,0,1,1.524.571.781.781,0,0,0,.3.22,1.283,1.283,0,0,1,.261.132,4.976,4.976,0,0,0-.523.747C79.954,6.066,80.738,7.466,81.739,8.266Zm22.485-1.052a1.032,1.032,0,0,0-.523-.4,7.882,7.882,0,0,0-1.524-.132h-1.524a3.722,3.722,0,0,1-.915-.132c-.174-.088-.131-.044-.174-.088a.3.3,0,0,0-.182.084,1.841,1.841,0,0,1-.087-.264V6.2a5.885,5.885,0,0,0,.7-.044c.261-.044,1.132-.176,1.655-.264s1.524-.264,1.873-.308a3.764,3.764,0,0,1,.871-.088.436.436,0,0,1,.261.352,2.858,2.858,0,0,0,.174.571,4.072,4.072,0,0,1,.131.4,1.6,1.6,0,0,1-.3.4l-.392.4A.7.7,0,0,0,104.224,7.214Zm-4.8.3a15.624,15.624,0,0,1,1.742.22c.436.088,1.568.22,1.873.264s.827,0,.958.044c.261.088.218.308.261.483,0,.176.044.439.044.527s-.174.22-.348.352a2.955,2.955,0,0,1-.392.264c-.087.044.044-.22-.087-.308a1.069,1.069,0,0,0-.479-.176c-.261-.044-.653-.132-.915-.176s-1.176-.22-1.524-.308-.784-.132-1.045-.22c-.261-.132-.392-.308-.566-.4a.411.411,0,0,0-.3-.17V7.733s.218-.22.3-.22A1.549,1.549,0,0,1,99.422,7.513Zm3.091,4.043a1.465,1.465,0,0,0-.74-.352c-.261-.088-1-.308-1.437-.439-.392-.132-1.089-.352-1.307-.4a2.283,2.283,0,0,1-.653-.22,1.737,1.737,0,0,1-.392-.308.671.671,0,0,0-.257-.127,2.346,2.346,0,0,1,.044-.527c.087,0,.261.044.348.044a3.1,3.1,0,0,1,.566.044c.218.044,1.524.4,2,.483.523.132,1.176.264,1.611.352s.7.088.784.22a1.615,1.615,0,0,1,.087.659,2.428,2.428,0,0,1,0,.571c-.044.044-.261.132-.392.22a1.816,1.816,0,0,0-.218.088A.279.279,0,0,0,102.513,11.556Zm-.739,2.194a.414.414,0,0,1-.3.088,1.209,1.209,0,0,1-.261.044s.131-.176,0-.308a1.062,1.062,0,0,0-.523-.352c-.3-.132-.827-.352-1.045-.439s-1.219-.527-1.524-.659a5.78,5.78,0,0,1-1.045-.439,1.639,1.639,0,0,1-.348-.22c-.045-.043-.262-.043-.262-.043l.087-.352c.044-.176,0-.264.044-.308a.684.684,0,0,0,.3,0,.841.841,0,0,1,.348.044c.087.044.523.22.74.308s1.35.483,1.742.659c.392.132,1.089.4,1.394.527s.523.132.61.264a.542.542,0,0,1,.218.439c0,.22.044.264-.044.351a1.748,1.748,0,0,0-.131.176C101.774,13.574,101.861,13.706,101.774,13.75Zm-1.654,1.59c-.087.044-.261.044-.348.088a.757.757,0,0,1-.218.044.308.308,0,0,0,.087-.176.424.424,0,0,0-.348-.308,3.441,3.441,0,0,1-.653-.132,2.653,2.653,0,0,1-.653-.308c-.3-.176-.871-.527-1.176-.7s-.871-.483-1.089-.615a1.9,1.9,0,0,0-.392-.22.369.369,0,0,0-.3,0c-.046.081-.221.037-.221.037s.261,0,.348-.132a2.155,2.155,0,0,0,.044-.527c0-.132,0-.176.044-.22a1.345,1.345,0,0,0,.3.088,1.285,1.285,0,0,1,.523.088c.218.132,1.132.571,1.568.791.479.22,1.437.7,1.7.791.3.132.784.308.827.439a.43.43,0,0,1,.044.4.587.587,0,0,0-.131.308C100.12,15.164,100.207,15.3,100.12,15.34Zm-3.06,1.407a3.184,3.184,0,0,0-.61-.176,3.788,3.788,0,0,1-.784-.483c-.218-.176-.74-.571-1-.747s-.61-.483-.784-.571a4.048,4.048,0,0,0-.7-.176H92.72c-.044,0-.087.22-.174.132a.58.58,0,0,0-.218-.132.342.342,0,0,1-.044-.136v-.176a1.058,1.058,0,0,1,.3-.044,2.1,2.1,0,0,0,.523-.044c.174-.088.174-.044.3-.132s.174-.088.3-.176.087-.176.174-.22a1.174,1.174,0,0,1,.392,0c.087.044.566.439.871.659.3.176,1.219.747,1.568.967a9.049,9.049,0,0,1,1.045.659c.174.132.3.22.261.4,0,.132-.131.264-.174.352a2.816,2.816,0,0,1-.087.308l-.087.176-.436.088a.206.206,0,0,0,.087-.22C97.321,16.923,97.234,16.835,97.06,16.747Zm-1.99,1.485a2.76,2.76,0,0,0-.523-.308,6.9,6.9,0,0,1-.784-.571,12.942,12.942,0,0,1-1.089-1.011,9.158,9.158,0,0,0-.74-.615,3.03,3.03,0,0,0-.61-.132c-.131-.044-.3-.088-.3-.088s-.087.132-.131.132H90.8l-.044-.044a.813.813,0,0,1-.172-.13.458.458,0,0,0,.044-.176c0-.088.044-.22.087-.22a2.3,2.3,0,0,0,.479.132c.174,0,.174-.044.174-.044a.486.486,0,0,1,.3-.176,1.386,1.386,0,0,1,.348-.044.883.883,0,0,1,.392.088,8.18,8.18,0,0,1,1.045.791c.218.176,1.176.923,1.437,1.142s.566.4.653.483.348.352.261.439c-.044.088-.174.264-.218.352a1.246,1.246,0,0,0-.044.352c0,.088-.174.088-.218.088H95.07s.131-.088.131-.176C95.245,18.408,95.157,18.32,95.07,18.232Zm-2.222,1.233a2.89,2.89,0,0,0-.523-.264,1.283,1.283,0,0,1-.525-.443c-.131-.176-.523-.659-.653-.835-.174-.176-.566-.747-.784-.923a1.335,1.335,0,0,0-.61-.4,1.959,1.959,0,0,0-.348-.044c-.044,0-.131.176-.131.22s-.087-.044-.218-.176c-.127-.256-.388-.651-.388-.651a2.121,2.121,0,0,0,.566.132h.436c.044,0,.131-.176.348-.22a.786.786,0,0,1,.61.132c.218.132,1.219,1.186,1.35,1.318s.784.791,1,.967a2.411,2.411,0,0,1,.566.659c.044.132.087.264.044.308-.044.088-.131.132-.131.22-.044.088-.044.308-.087.352a.371.371,0,0,1-.261.132h-.261s.174-.088.174-.176A.382.382,0,0,0,92.848,19.465ZM99.083,6.548a.658.658,0,0,0-.044.264V6.9a.627.627,0,0,0-.131.088c-.087.044-.392.264-.392.264a.774.774,0,0,0-.044-.22.5.5,0,0,0-.392-.264c-.131-.044-.653-.044-.871-.088a7.005,7.005,0,0,1-.958-.044,3.353,3.353,0,0,1-.392-.044.318.318,0,0,0-.261.088c-.087.044-.131.132-.174.132H95.25c-.044,0-.087.044,0,.176a1.369,1.369,0,0,0,.74.264c.261.044.61.088.871.132s.61.132.827.176a4.189,4.189,0,0,1,.523.088c.087,0,.218.088.218.132,0,.088-.044.132-.044.22a.278.278,0,0,0,0,.264.176.176,0,0,1-.087.176,3.449,3.449,0,0,1-.392.176c-.043.044-.174,0-.174,0s.043-.176,0-.22a.61.61,0,0,0-.3-.176c-.174-.044-.7-.176-.958-.264-.261-.044-.653-.176-.915-.22s-.435-.132-.523-.044-.087.132-.131.132-.131-.044-.174,0-.131.132-.087.176a1.028,1.028,0,0,0,.392.22c.174.044.784.22,1.045.308a8.07,8.07,0,0,0,.958.308A.861.861,0,0,1,97.6,9.1a.334.334,0,0,1-.044.351.381.381,0,0,0-.131.264.992.992,0,0,1-.044.176,2.683,2.683,0,0,0-.261.176l-.218.088s.087-.088,0-.264-.261-.264-.523-.4-.784-.308-1-.4-.871-.352-1-.4a1.552,1.552,0,0,0-.479-.088c-.131.044-.218.132-.174.176.044.088.131.088.131.176s0,.132-.044.176a.043.043,0,0,0-.044.042v0s.348.22.566.352a6.513,6.513,0,0,0,.958.483c.131.088.61.308.74.4s.348.22.3.308a1.986,1.986,0,0,0-.087.351c0,.044,0,.132-.087.132a4.182,4.182,0,0,1-.479.132.218.218,0,0,0-.044-.132c0-.044-.087-.132-.3-.264s-.915-.571-1.089-.659a5.544,5.544,0,0,1-.74-.439,3.055,3.055,0,0,0-.436-.351c-.087-.044-.261-.132-.392,0-.087.088-.131.308-.087.351a.613.613,0,0,0,.174.176s-.131.088-.087.132a5.421,5.421,0,0,0,.566.439c.261.176.871.615,1.045.7a3.689,3.689,0,0,1,.61.439c.131.088.131.176.044.264a.273.273,0,0,0-.087.176v.308a.477.477,0,0,1-.174.088,1.528,1.528,0,0,0-.3.044.193.193,0,0,1-.044-.132c0-.088-.087-.132-.218-.264-.174-.132-.653-.483-.915-.659a8.228,8.228,0,0,1-.827-.615c-.131-.132-.3-.4-.436-.527-.131-.088-.261-.176-.392-.132a.462.462,0,0,0-.3.264c0,.132-.044.22.044.264s.174.132.174.176-.131.088-.087.132a3.07,3.07,0,0,0,.653.527,9.211,9.211,0,0,1,1,.835,2.936,2.936,0,0,1,.523.527.688.688,0,0,1-.044.439c-.044.088-.174.088-.3.132a1.533,1.533,0,0,0-.3.044.9.9,0,0,0,.044-.22,3.9,3.9,0,0,0-.523-.4c-.218-.176-.827-.7-1.089-.923a2.343,2.343,0,0,1-.566-.615c-.087-.176-.218-.4-.436-.4a.69.69,0,0,0-.523.176c-.131.176-.131.352-.044.4.087.088.261.176.218.22l-.174.132s.174.132.436.308a11.048,11.048,0,0,0,.958.791c.174.176.566.527.61.571a.559.559,0,0,1,.174.4,1.058,1.058,0,0,1-.087.4c-.044.088,0,.132-.087.176a1.074,1.074,0,0,1-.348.044h-.131s.174-.132.174-.176a2.218,2.218,0,0,0-.348-.4c-.131-.132-.827-.7-1.089-.923a2.956,2.956,0,0,1-.7-.835,3.315,3.315,0,0,0-.218-.7,7.829,7.829,0,0,1-.566-.615c-.131-.176-.566-.879-.784-1.274a4.686,4.686,0,0,1-.479-1.1c-.044-.352,0-.571-.087-.659a.5.5,0,0,0-.261-.264.364.364,0,0,1-.327.093,2.16,2.16,0,0,1,.566-.527,4.4,4.4,0,0,1,1.307-.615A19.109,19.109,0,0,1,90.847,6.2c.61-.044,2.221-.044,2.744-.088h5.1c.131.044.348.088.392.176A.282.282,0,0,1,99.083,6.548ZM88.976,13.62a2.7,2.7,0,0,0,.523.352,2.971,2.971,0,0,1,.523.527c.087.132.3.308.3.439a2.189,2.189,0,0,1-.174.571.552.552,0,0,1-.3.176,1.525,1.525,0,0,1-.261-.044s.218-.044.218-.132-.044-.176-.218-.352a3.951,3.951,0,0,1-.392-.439,3.132,3.132,0,0,1-.3-.483l-.131.044h-.131s-.044-.4-.087-.615-.131-.4-.131-.483a.768.768,0,0,1-.139-.308A9.65,9.65,0,0,0,88.976,13.62Zm-.482,2.947.044-.176s.261.352.348.439a4.124,4.124,0,0,1,.436.439c.087.132.566.747.74,1.011s.74,1.011.827,1.142a2.847,2.847,0,0,1,.392.7,1.292,1.292,0,0,1-.087.4c-.044.132-.131.264-.174.264h-.348a.646.646,0,0,0,.087-.176.737.737,0,0,0-.3-.4,3.7,3.7,0,0,1-.61-.4,6.875,6.875,0,0,1-.436-.967c-.131-.264-.392-.747-.523-.967a1.756,1.756,0,0,0-.3-.439c-.039,0-.044.044-.131.044-.183.052-.226.008-.226.008s.131-.352.174-.483C88.407,16.874,88.494,16.654,88.494,16.567Zm5.671,11.2a6.077,6.077,0,0,0-.74-.4,10.186,10.186,0,0,1-1.045-.4,1.865,1.865,0,0,1-.61-.352,10.883,10.883,0,0,1-.7-1.142c-.174-.351-.74-1.406-.915-1.714a1.5,1.5,0,0,1-.218-.615,7.252,7.252,0,0,0-.087-.967,1.58,1.58,0,0,0-.35-.52,1.39,1.39,0,0,0-.218-.132.732.732,0,0,0-.218-.088V21.09h0l0,0v0c.012,0,.436.044.7.044a2.755,2.755,0,0,1,.61,0,.4.4,0,0,1,.348.132,1.191,1.191,0,0,1,.218.483c.044.132.871,1.274,1,1.45s.7.967.958,1.274c.261.351.915,1.23,1.132,1.494a8.868,8.868,0,0,1,.7.835c.087.132.348.527.392.615s-.044.176-.131.264a1.913,1.913,0,0,1-.3.351,1.143,1.143,0,0,1-.348.264c-.044,0,0-.132.044-.22A.348.348,0,0,0,94.165,27.768Zm-4.406.349a1.586,1.586,0,0,0-.392-.352c-.174-.088-.566-.264-.566-.4a.544.544,0,0,1,.044-.439,1.386,1.386,0,0,0,.044-.835,1.336,1.336,0,0,0-.131-.4.326.326,0,0,0-.131-.132s.131-.527.174-.659l.086-.468s.261.483.392.659c.087.176.348.527.479.791s.523.923.653,1.142c.087.22.261.439.218.659a1.622,1.622,0,0,1-.261.615.778.778,0,0,1-.218.351.549.549,0,0,1-.348.132.461.461,0,0,0,.131-.264A.657.657,0,0,0,89.759,28.117Zm-.484.922a1.868,1.868,0,0,0,.7.044.718.718,0,0,0,.523-.22,2.206,2.206,0,0,0,.348-.615c.044-.132.131-.351.131-.351s.3.132.523.22l.958.351a5.414,5.414,0,0,1,.784.264c.131.132.174.176.174.308a1.89,1.89,0,0,1-.218.571,11.872,11.872,0,0,1-.653,1.274c-.131.264-.784,1.274-1.089,1.714a19.388,19.388,0,0,1-1.7,2.065,8.981,8.981,0,0,1-1.089.967c-.261.132-.7.22-1,.4L86.143,37a8.759,8.759,0,0,1-1.394.791c-.392.22-1.437.747-1.742.879s-.74.352-.915.439a1.461,1.461,0,0,1-.523.176c-.174,0-.261-.132-.348-.264s-.566-.967-.74-1.318-.871-1.538-1-1.714a.768.768,0,0,0-.523-.439c-.218-.088-.261-.132-.392-.132a.843.843,0,0,1-.3-.044.445.445,0,0,0-.05-.134s.653-.264,1-.4l1.307-.571a21.625,21.625,0,0,0,1.96-1.1,16.505,16.505,0,0,0,1.524-1.1c.479-.4,1.263-1.142,1.568-1.45a19.191,19.191,0,0,0,1.263-1.494c.218-.308.61-.923.61-.923l.827.439A4.246,4.246,0,0,0,89.275,29.039Zm-.564-6.851c0,7.381-7.926,13.929-18.421,13.929S51.868,29.57,51.868,22.189c0-7.431,7.926-13.931,18.422-13.931S88.711,14.807,88.711,22.188ZM51.084,25.526s.3-.7.348-.835a2.4,2.4,0,0,0,.174-.352s.087.4.131.527a2.373,2.373,0,0,1,.3.571c.044.132.348.923.392,1.055a1.688,1.688,0,0,1,.131.439.724.724,0,0,0,0,.308c.044.088.087.176,0,.22s-.3.176-.392.22a.309.309,0,0,1-.348-.132c-.044-.088-.3-.132-.523-.264-.218-.176-.174-.264-.174-.439a6.858,6.858,0,0,0,.044-.923C51.215,25.79,51.084,25.526,51.084,25.526ZM41.242,6.859a1.28,1.28,0,0,0-.523-.132c-.174,0-1.132.088-1.437.132s-1.176.132-1.307.176a.858.858,0,0,1-.479-.044,5.645,5.645,0,0,1-.74-.351c-.131-.088-.174-.132-.261-.132l-.174-.05.087-.264a1.758,1.758,0,0,0,.131-.175h4.747c.174,0,.392.088.479.088h.174s.087.176,0,.264a1.729,1.729,0,0,0-.174.4c-.044.132,0,.264-.087.264s-.392.044-.392.044A.232.232,0,0,0,41.242,6.859ZM37.361,8.393a4.466,4.466,0,0,1,.7-.22c.174-.044,1.045-.264,1.437-.352s1.132-.22,1.437-.308a8.082,8.082,0,0,1,.784-.22.822.822,0,0,1,.392.132,3.815,3.815,0,0,1,.436.352c.131.088.218.264.174.308-.044.088-.087.132-.131.22a.4.4,0,0,0-.044.22.779.779,0,0,0-.044.264s-.3.088-.348.088a.436.436,0,0,0-.131.044s.087-.22,0-.264a.833.833,0,0,0-.523-.22,4.912,4.912,0,0,0-1.089.264c-.218.088-1,.264-1.307.4a3.314,3.314,0,0,1-.827.22,1.647,1.647,0,0,1-.653-.22,2.413,2.413,0,0,1-.348-.176A.493.493,0,0,0,37.1,8.7,1.4,1.4,0,0,1,37.361,8.393ZM50.953,20.208a.617.617,0,0,1-.044-.571c.087-.264.218-.615.3-.835a7.873,7.873,0,0,1,.348-.835A9.938,9.938,0,0,1,52.036,17a5.2,5.2,0,0,1,.348-.527.3.3,0,0,1,.182-.215,1.723,1.723,0,0,0,.174.22.559.559,0,0,1,.174.308c0,.088-.392.791-.479,1.011a9.431,9.431,0,0,0-.392,1.318,4.672,4.672,0,0,1-.218.835,1.359,1.359,0,0,0-.174.4l-.044.264s-.131.088-.218.132l-.218.044v-.182C51.171,20.52,51.04,20.388,50.953,20.208Zm1.485-5.884a3.5,3.5,0,0,1-.131.571,2.259,2.259,0,0,0-.044.4,1.28,1.28,0,0,1-.261.132c-.087.044-.218.132-.218.132a.962.962,0,0,0-.131-.483c-.131-.176-.174-.22-.261-.264a1.7,1.7,0,0,0-.261-.088l.084-.048s.348-.4.61-.747l.7-.747a1.946,1.946,0,0,0,.218-.264,5.5,5.5,0,0,0-.218.659A4.932,4.932,0,0,0,52.438,14.324Zm.127-1.8c-.262.267-1.045,1.142-1.35,1.494-.3.4-.566.659-.653.791a3.366,3.366,0,0,0-.261.308h-.087a.48.48,0,0,0,.086-.359,1.056,1.056,0,0,0-.3-.527.366.366,0,0,0-.261-.088.615.615,0,0,1-.261.088.19.19,0,0,0-.131.044s.348-.4.523-.571a10.389,10.389,0,0,0,.74-.747,1.143,1.143,0,0,1,.348-.264.851.851,0,0,0,.479,0,1.209,1.209,0,0,0,.523-.615.711.711,0,0,0-.261-.571.636.636,0,0,0-.523-.176.986.986,0,0,0-.479.132,2.047,2.047,0,0,1-.218.088.949.949,0,0,1,.044-.264.926.926,0,0,0-.174-.483.589.589,0,0,0-.479-.264c-.218-.044-.3.044-.392-.044-.087-.044,0-.176-.087-.351A.852.852,0,0,0,49,9.662a1.572,1.572,0,0,0-.479-.132c-.087,0-.087-.044-.087-.176a1.285,1.285,0,0,0-.131-.615,1.8,1.8,0,0,0-.479-.308c-.131-.044-.261-.044-.261-.132s.087-.264.087-.4a.643.643,0,0,0-.218-.527c-.174-.132-.392-.22-.479-.351s-.218-.264-.261-.264h-.348c-.131,0-.392.088-.61.088-.218.044-.3.088-.436.044a1.511,1.511,0,0,0-.523-.132,5.8,5.8,0,0,0-.827.044,4.44,4.44,0,0,1-.74.044,1.827,1.827,0,0,1-.523-.132c-.174-.088-.218-.088-.3-.176a.327.327,0,0,1-.131-.132.218.218,0,0,1,.044-.132.633.633,0,0,0,.076-.122s.784-.044,1.35-.044,1.307,0,1.7.044,1,.088,1.263.088a10.106,10.106,0,0,1,1.176,0,22.14,22.14,0,0,1,2.308.132,10.688,10.688,0,0,1,1.873.439,5.058,5.058,0,0,1,1.916,1.055,1.521,1.521,0,0,1,.523,1.23,4.619,4.619,0,0,1-.392,1.362c-.174.308-.566,1.011-.61,1.1C53.393,11.689,52.827,12.257,52.565,12.524ZM43.856,9.448a7.3,7.3,0,0,1,1-.483c.436-.176,1.35-.527,1.568-.571.174-.044.392-.132.523-.044.087.044.218.132.174.22a1.21,1.21,0,0,1-.3.4c-.131.044-.74.4-1,.527-.261.088-.784.4-.915.4a1.554,1.554,0,0,1-.479-.088,1.757,1.757,0,0,0-.3-.088h-.261V9.448Zm-.13-1.1a2.154,2.154,0,0,1-.523-.132c-.131-.044-.131,0-.218.044s-.131,0-.131,0V8.126A.444.444,0,0,1,42.9,8s.566-.22.958-.352,1.132-.308,1.481-.4a1.711,1.711,0,0,1,.7-.132,1.331,1.331,0,0,0,.392.044H46.6s.087.088.044.132a.614.614,0,0,1-.174.176c-.131.132-.218.264-.348.308s-.436.132-.784.22-.871.264-1.089.308A.972.972,0,0,1,43.726,8.346ZM44.9,10.984s.61-.352.784-.483c.218-.132.871-.439,1.132-.571a2.155,2.155,0,0,1,.74-.264c.174,0,.3.088.3.176a.728.728,0,0,1-.087.4,2.116,2.116,0,0,1-.348.439c-.261.22-.436.351-.566.483a1.821,1.821,0,0,1-.523.351,1.035,1.035,0,0,1-.392-.132,2.11,2.11,0,0,1-.479-.176.615.615,0,0,0-.261-.088,1.959,1.959,0,0,0-.348.088Zm2.18.791a9.2,9.2,0,0,1,.915-.659,2.534,2.534,0,0,1,.479-.308c.087,0,.131,0,.174.088.044.044.174.044.218.176s0,.22.044.308.131.044.174.132v.176s-.523.4-.7.571-.479.439-.523.483c-.087.044-.348-.088-.479-.176a2.077,2.077,0,0,0-.653-.176.515.515,0,0,0-.259-.088A5.222,5.222,0,0,1,47.08,11.775Zm1.479.881a7.816,7.816,0,0,0,.61-.571l.523-.4s.131,0,.131.088.087.132.174.132.261-.044.3,0c.044,0,.131.044.131.176s0,.22.044.22.131,0,.131.044v.088l-.784.791a8.822,8.822,0,0,0-.653.659l-.087.088a1.33,1.33,0,0,0-.261-.4c-.218-.176-.261-.264-.479-.308l-.433.008S48.342,12.871,48.559,12.656ZM38.02,10.588c.087-.088.348-.132.436-.176.131-.044.479-.176.871-.308s1.132-.352,1.437-.439a12.243,12.243,0,0,0,1.176-.4c.174-.088.392-.22.566-.176a3.446,3.446,0,0,1,.653.132c.174.088.392.132.392.264a.445.445,0,0,1-.131.4c-.087.088-.087.176-.131.264v.22a1.283,1.283,0,0,1-.261.132l-.174.088a.527.527,0,0,0-.087-.264.54.54,0,0,0-.523-.132,9.355,9.355,0,0,0-1.089.439c-.261.132-.958.439-1.219.527a1.169,1.169,0,0,1-.653.132,2.448,2.448,0,0,1-.653-.132l-.523-.264a1.868,1.868,0,0,1-.218-.043A.343.343,0,0,1,38.02,10.588Zm2.306,1.622c.3-.132,1.394-.659,1.742-.791.348-.176.915-.439,1-.483a1.376,1.376,0,0,1,.392-.132,3.827,3.827,0,0,1,.653.088c.174.044.436.088.479.176.044.132.087.352.044.4a1.293,1.293,0,0,0-.087.4,2.5,2.5,0,0,0,.044.308l-.261.132a1.127,1.127,0,0,1-.3.132,1.246,1.246,0,0,0-.131-.264.6.6,0,0,0-.479-.088,8.792,8.792,0,0,0-1,.571,7.483,7.483,0,0,0-.958.615c-.087.044-.174.22-.479.176a4.6,4.6,0,0,1-.61-.132c-.131-.088-.479-.308-.523-.351-.087-.044-.392-.132-.392-.22l-.005-.137Zm.7,2.508s.871-.571,1.219-.791c.392-.22,1.263-.747,1.611-.923s.7-.439.871-.483a5.763,5.763,0,0,1,.871,0c.218,0,.392,0,.392.132a.656.656,0,0,1-.044.308v.4L44.2,14.718c-.261.22-.958.835-1,.835a5.31,5.31,0,0,0-.523-.264,2.125,2.125,0,0,0-.523-.132,1.125,1.125,0,0,1-.436-.176c-.174-.088-.218-.132-.348-.132a1.782,1.782,0,0,0-.392.088ZM43.9,15.6c.3-.259,1.219-1.011,1.481-1.23s.871-.659.958-.747a.365.365,0,0,1,.3-.088c.131,0,.392-.088.523-.088s.348,0,.348.132c0,.176.087.483.087.615a.864.864,0,0,0,.044.352.545.545,0,0,0,.087.132,2.269,2.269,0,0,1-.261.308c-.174.176-.7.659-.915.879s-.7.659-.871.879l-.436.439a1.229,1.229,0,0,0-.218-.4,1.341,1.341,0,0,0-.74-.22,1.593,1.593,0,0,1-.61-.264c-.087-.044-.261.044-.261.044s-.214,0-.256-.084C43.158,16.258,43.594,15.858,43.9,15.6Zm2.615.746c.218-.22,1-.967,1.176-1.142a2.314,2.314,0,0,1,.523-.439c.218-.088.436-.22.566-.176s.174.176.261.352a.747.747,0,0,0,.479.483,1.951,1.951,0,0,0,.566.132H50.3a3.846,3.846,0,0,1-.436.439c-.131.132-.61.571-.871.835s-.915.923-1.132,1.1a4.767,4.767,0,0,1-.479.4.478.478,0,0,0-.131-.308c-.174-.176-.436-.132-.653-.132a.592.592,0,0,1-.479-.176c-.131-.132-.218-.22-.3-.22s-.218.088-.261.088c-.047-.05-.221-.05-.221-.05Zm2.133,1.363c.3-.308.958-.923,1.219-1.186s.784-.747.784-.747a.517.517,0,0,0,.348.176,2.551,2.551,0,0,1,.61.088c.174,0,.479,0,.566-.088a.636.636,0,0,1,.218-.132,4.511,4.511,0,0,1-.3.439c-.174.22-.653.923-.915,1.318s-.871,1.318-1,1.494c-.087.176-.348.527-.392.659a1.722,1.722,0,0,0-.174.22,1.388,1.388,0,0,0-.131-.483c-.174-.264-.261-.308-.392-.352a2.193,2.193,0,0,1-.392-.088c-.218-.132-.3-.308-.436-.351s-.131-.044-.218,0a1.2,1.2,0,0,1-.353-.044S48.341,18.016,48.646,17.708Zm1.345,3.469a2.34,2.34,0,0,0,.653-.088c.261-.044.7-.132.784-.132.087.044.087.132.131.176,0,.088,0,.967.044,1.23a9.654,9.654,0,0,1-.044,1.142c-.044.22-.74,1.538-.871,1.889s-.566,1.142-.653,1.318a1.467,1.467,0,0,1-.131.264c-.044.044-.174-.132-.3-.308-.218-.264-.436-.22-.7-.176-.218.044-1.524.4-1.742.439a2.936,2.936,0,0,1-.827.132.533.533,0,0,1-.392-.351.418.418,0,0,0-.392-.264,1.2,1.2,0,0,1-.346-.042s1.219-1.274,1.481-1.582c.261-.264,1.742-1.889,2.047-2.241s.827-.967.958-1.142S49.909,21.177,49.991,21.177ZM3.309,4.783c-.479-.22-1.35-.7-1.568-.791a3.929,3.929,0,0,1-.479-.264c-.087-.044-.392.308-.479.4-.087.132-.261,0-.261,0S1.611,2.9,1.829,2.635s.479-.615.61-.659a3.123,3.123,0,0,1,.915,0c.3.044,2.134.176,2.526.22.348.044,1.96.088,2.352.088.436,0,2.439.044,3.092.044s2.744.088,3.353.044,2.352-.176,2.874-.22,2.221-.132,3.005-.176c.784,0,2.4,0,2.918-.044S26,1.888,26.74,1.888c.7,0,2.7.088,3.353.088s3.571.176,4.312.22,4.486.176,5.313.22c.827,0,2.047.044,2.7,0s3.789-.176,4.747-.22,3.44-.088,4.486-.044c1,.044,3.44.264,4.268.4.827.088,1.655.308,1.873.308a1.861,1.861,0,0,1,.74.132c.131.132.261.4.523.527s.61.22.74.4.131.483.218.659a3.06,3.06,0,0,1,.392.923,1.934,1.934,0,0,1-.218,1.186,6.562,6.562,0,0,1-.915,1.142c-.392.4-.915.791-1.437,1.23a15.5,15.5,0,0,0-1.742,1.67,3.582,3.582,0,0,0-.784,1.582c-.087.615-.043.967-.087,1.054a2.9,2.9,0,0,1-.261.527c-.131.132-.74.879-.958,1.186s-.61.835-.7.967a3.425,3.425,0,0,0-.174.308L53,16.08a2.763,2.763,0,0,0,.348-.483c.045-.045,0-.484.088-1.231.174-1.889,2.482-3.954,2.178-5.888C55.353,6.984,53.48,5.71,51.651,5.4c-1.089-.176-4.573-.439-5.357-.439-.958-.044-3.484-.088-4.268-.088s-2.874,0-3.528-.044a13.654,13.654,0,0,1-2.4-.22,18.762,18.762,0,0,1-2.7-.7c-1-.308-1.786-.527-2.569-.7S29,2.9,28.308,2.811c-.7-.044-2.047-.176-3.049-.176H20.948c-.784,0-3.31.088-3.963.088H15.33c-.3,0-.261.176-.392.176h-1.35a4.741,4.741,0,0,1-.915-.044h-.392s-.044.132.131.176a3.332,3.332,0,0,0,.653.088c.131,0,1.176.088,1.524.088s1,0,1.394.044,1.089.044,1.568.044h3.005c.7,0,1.96,0,2.613.044.653,0,2.134.088,3.31.22a21.742,21.742,0,0,1,3.31.571c1.132.264,2.482.7,3.136.923a17.6,17.6,0,0,0,2.047.527,3.868,3.868,0,0,1,1,.22.23.23,0,0,1,.043.352,1.319,1.319,0,0,0-.174.352l-.087.264H35.32a.308.308,0,0,0,.087-.176c0-.088-.261-.264-.523-.308s-1.437-.178-1.784-.226c-.3-.044-1.481-.132-2.134-.132h-3.79c-.653.044-3.005-.044-3.571,0H15.068c-.61,0-2.744-.044-3.179-.044-.392,0-1.568-.044-2.178-.044-.566,0-2.569-.088-3.136-.088a10.793,10.793,0,0,1-1.437-.088C4.92,5.618,3.788,5,3.309,4.783ZM6.359,9.23a5.224,5.224,0,0,1-1-.527c-.087-.132-.044-.352-.044-.527a.607.607,0,0,0-.174-.527,2.5,2.5,0,0,1-.525-.311l.087-.4h1.35c.3,0,2.178.088,2.831.088s2.7.044,3.179.044,3.223.044,3.832.044h4.05c.61,0,3.876.044,4.4.044h7.8c.61,0,2.178.044,2.526,0,.348,0,.61-.044.7-.044s.3-.132.436-.044c.131.044.174.22.261.308a.642.642,0,0,0,.261.22.819.819,0,0,1,.3.264.527.527,0,0,0,.218.22c.131.132.174.176.131.22s-.261.352-.348.483-.131.308-.174.352a1.334,1.334,0,0,1-.348.088s.174-.132.131-.264a.788.788,0,0,0-.653-.439,15.846,15.846,0,0,0-2,.132c-.479.044-3.7.352-4.224.4-.566.044-5.008.352-5.749.439-.74.044-4.268.264-4.921.308s-3.31.176-4.094.22c-.827.044-2.7.132-3.4.176s-2.134.044-2.4.044a2.069,2.069,0,0,1-.784-.264C7.84,9.889,6.707,9.362,6.359,9.23ZM10.7,13.444a5.953,5.953,0,0,1-1.437-.483A.913.913,0,0,1,9,12.522a1.178,1.178,0,0,0-.436-.571,3.871,3.871,0,0,1-.423-.218v-.264a6,6,0,0,0,.74-.044c.261-.044,1.263-.044,1.916-.088s3.266-.132,4.094-.176,4.529-.264,5.226-.308,5.574-.4,6.271-.439,4.7-.4,5.357-.439,2.744-.264,3.484-.352a4.454,4.454,0,0,0,1-.176c.131,0,.218-.088.348.044a5.935,5.935,0,0,0,.523.527c.131.088.61.4.653.571a1.192,1.192,0,0,1-.218.483,1.063,1.063,0,0,0-.087.439l-.479.088a.458.458,0,0,0,.043-.176.471.471,0,0,0-.261-.352,1.78,1.78,0,0,0-.871-.088c-.348.088-1.829.352-2.439.439s-4.181.7-5.052.835-4.268.659-5.1.791-3.963.527-5.1.659c-1.089.132-2.439.264-3.179.264a10.893,10.893,0,0,1-2.047.044A21.358,21.358,0,0,1,10.7,13.444Zm5.241,4.142c-.61-.088-1.263-.22-1.524-.264a.679.679,0,0,1-.566-.352c-.087-.264-.087-.483-.261-.659a2.112,2.112,0,0,0-.523-.439c-.131-.044-.348-.044-.392-.132a1.55,1.55,0,0,1-.089-.449,1.249,1.249,0,0,0,.436,0,2.868,2.868,0,0,1,.653-.132c.261,0,1.045-.044,1.481-.044s1.7-.132,2.134-.176,2.526-.264,3.223-.352,4.442-.615,5.052-.7,3.745-.571,4.616-.7,3.7-.659,4.442-.791,1.611-.264,1.96-.352.566-.22.74-.176a2.631,2.631,0,0,1,.61.308,5.785,5.785,0,0,0,.784.308c.174.088.392.176.392.264a1.037,1.037,0,0,1-.087.483,1.57,1.57,0,0,0-.174.4,1.418,1.418,0,0,0-.043.308l-.436.176s.087-.22,0-.308a.9.9,0,0,0-.436-.264,2.583,2.583,0,0,0-.523.088c-.218.088-2.918.879-3.353,1.011l-3.223.923c-.392.132-2.961.747-3.658.923-.74.132-3.4.7-4.05.835s-3.179.439-3.832.483-.74.044-1.263.044A19.389,19.389,0,0,1,15.942,17.586ZM25.311,21c-.348,0-1.786-.088-2.352-.176s-2.221-.308-2.439-.4a1.3,1.3,0,0,1-.479-.308,2.313,2.313,0,0,0-.479-.4,2.845,2.845,0,0,0-.653-.308,2.037,2.037,0,0,0-.392-.132c-.131-.044-.261-.044-.3-.132-.186-.034-.186-.122-.186-.122s1.829-.176,2.221-.264c.392-.044,3.223-.483,3.92-.615.653-.132,3.571-.791,4.094-.923s3.7-.967,4.311-1.142c.653-.176,2.744-.791,3.353-.967.566-.176,2.265-.7,2.482-.791a1.515,1.515,0,0,1,.566-.22,4.5,4.5,0,0,1,.958.264c.218.044.74.132.827.264a.273.273,0,0,1,.087.308v.967c0,.088.218.264.218.264l-.479.176c-.087.044-.3.132-.3.132s.044-.22,0-.264a3.044,3.044,0,0,0-.392-.264.883.883,0,0,0-.392.088c-.218.088-.74.308-1,.439s-1.873.747-2.352.967c-.479.176-2.439.923-3.048,1.186-.61.22-3.44,1.186-3.963,1.362s-2.4.7-2.831.791A3.181,3.181,0,0,1,25.311,21Zm6.782,2.551a15.309,15.309,0,0,1-1.568.044c-.61,0-1.742,0-2.134-.044a5.08,5.08,0,0,1-1.176-.132c-.261-.132-.3-.264-.479-.483a1.7,1.7,0,0,0-.653-.439.933.933,0,0,0-.479-.044l-.04-.269a5.7,5.7,0,0,0,.784-.22c.174-.088,1.132-.352,1.437-.439s1.394-.4,1.829-.527,2.569-.879,2.961-1.011,2.918-1.1,3.4-1.274,3.266-1.362,3.7-1.494c.392-.176.784-.351.958-.439a3.62,3.62,0,0,1,.827-.352,2.8,2.8,0,0,1,.827-.088c.174,0,.348,0,.392.088a.344.344,0,0,1,.087.352,1,1,0,0,0,.218.659,1.646,1.646,0,0,0,.74.308,3.215,3.215,0,0,0,.653.132h.174s-.566.352-.7.4l-.74.351a.343.343,0,0,0-.131-.176,1.2,1.2,0,0,0-.566,0,1.288,1.288,0,0,0-.653.22c-.218.132-2.134,1.142-2.526,1.362S35.882,21.8,35.49,21.972s-2.308,1.142-2.613,1.274A2.9,2.9,0,0,1,32.093,23.554Zm4.7,1.931a16.9,16.9,0,0,1-1.96.308,1.081,1.081,0,0,1-.784-.22c-.218-.22-.3-.527-.566-.659s-.436-.22-.61-.176c-.387.043-.43-.088-.43-.088s2.308-1.186,2.657-1.318,3.789-1.933,4.224-2.153c.436-.264,2.961-1.626,3.484-1.933s1.306-.7,1.437-.791.218-.22.348-.264l.261-.088s.218.264.348.439a1.421,1.421,0,0,0,.7.483,3.736,3.736,0,0,0,.653.044,3.059,3.059,0,0,0,.523-.088s-.827.791-1,.923c-.131.132-1.96,1.626-2.352,1.977-.348.308-1.7,1.362-2,1.626a11.848,11.848,0,0,1-1.488,1.051,6.679,6.679,0,0,1-1.045.4C38.847,25.046,37.322,25.358,36.795,25.485Zm7.5.621c-.218-.132-.436-.044-.74.044-.261.088-.784.22-1.132.308a8.579,8.579,0,0,1-1.307.264c-.218,0-.436,0-.566-.176a6.212,6.212,0,0,0-.566-.527c-.131-.088-.348-.132-.392-.088s-.391.21-.439.078c0,0,1.263-.923,1.524-1.142s1.394-1.1,1.7-1.362,1.611-1.318,2.047-1.67c.392-.352,1.611-1.362,1.916-1.67.3-.264.915-.879.915-.879a.882.882,0,0,0,.131.352,3.2,3.2,0,0,0,.523.4,2.009,2.009,0,0,0,.871.132c.261,0,.523-.044.61-.044s.261.044.261.22v.4a.193.193,0,0,0,.044.132l-1.829,2.065c-.348.4-1.394,1.538-1.742,1.889s-1.176,1.274-1.263,1.362S44.468,26.194,44.294,26.106ZM59.149,41.3l-.261.439-.218-.132s.174-.132.087-.264a.586.586,0,0,0-.3-.351c-.174-.088-1-.439-1.394-.615-.348-.176-1.96-1.054-2.526-1.406a27.273,27.273,0,0,1-2.613-1.889A27.277,27.277,0,0,1,49.4,34.622c-.479-.527-1.437-1.845-1.742-2.285-.3-.483-1.176-2.021-1.35-2.461a2.364,2.364,0,0,0-.436-.835.781.781,0,0,0-.3-.22,1.53,1.53,0,0,1-.261-.044l-.131-.4a3.061,3.061,0,0,1-.19-.39s.392.483.61.483c.261,0,.3-.088.436-.088a.6.6,0,0,1,.392,0,.5.5,0,0,1,.218.352,2.737,2.737,0,0,0,.174.7,19.443,19.443,0,0,0,.958,1.845,25.2,25.2,0,0,0,1.568,2.2c.392.439,1.611,1.8,1.916,2.109.3.264,1.96,1.67,2.526,2.065a23.054,23.054,0,0,0,2.831,1.714,18.723,18.723,0,0,0,2.178,1.011,1.529,1.529,0,0,1,.523.22.819.819,0,0,0,.131.176Zm.55-.97c0,.044-.087.044-.131,0s.131-.22.131-.4a1.289,1.289,0,0,0-.218-.615,2.767,2.767,0,0,0-.61-.352c-.174-.088-1.045-.527-1.524-.747a19.651,19.651,0,0,1-1.916-1.142c-.566-.4-1.35-.923-1.873-1.318S52.339,34.7,51.9,34.307a25.1,25.1,0,0,1-1.655-1.889A24.3,24.3,0,0,1,48.854,30.4c-.3-.571-.653-1.318-.74-1.406a1.269,1.269,0,0,0-.523-.4,1.313,1.313,0,0,0-.479-.132c-.087,0-.261,0-.3-.088-.081-.031-.081-.075-.081-.075a1.575,1.575,0,0,0,.61-.132,11.38,11.38,0,0,1,1.307-.4c.3-.088.653-.22.784-.264a1.336,1.336,0,0,1,.348-.088c.087,0,.131.088.261.22a2.209,2.209,0,0,0,.348.527.761.761,0,0,0,.653.264,2.275,2.275,0,0,0,.784-.176c.218-.088.653-.4.784-.439.087-.044.261-.176.3-.088l.174.176c.087,0,.174.132.218.176a13.754,13.754,0,0,0,1,1.406c.348.4.827.967,1.176,1.318s1.35,1.186,1.742,1.494c.392.264,1.524,1.055,2.047,1.318s1.132.615,1.655.835,1.045.439,1.176.483c.131.088.174.132.3.22.087.088.174.176.131.264s-.566.923-.784,1.362-.653,1.1-.827,1.406-.61,1.054-.74,1.274C60.047,39.716,59.7,40.243,59.7,40.331Zm2.883,1.061c-.088.22-.392.923-.479,1.142l-.174.352-.392.132a.34.34,0,0,0,.044-.264,1.177,1.177,0,0,0-.348-.308.712.712,0,0,0-.392.088c-.174.044-.348.044-.436-.088a6.276,6.276,0,0,1-.3-.615c0-.088-.087-.22,0-.4s.74-1.406.915-1.626c.131-.22.915-1.538,1.089-1.845s.61-1.055.653-1.186c.087-.176.131-.308.087-.4-.044-.132-.044-.176-.131-.22a.431.431,0,0,0-.174-.044l.43-.7a1.34,1.34,0,0,0,.436.088,3.268,3.268,0,0,1,.653.044c.261.088.566.264.61.4s-.087.4-.218.7-.784,2.065-.958,2.461C63.366,39.459,62.67,41.172,62.582,41.392Zm3.178.217c-.044.264-.261,1.186-.3,1.362a2.345,2.345,0,0,1-.218.615c0,.044-.3.176-.392.22l-.174.088s.131-.176.087-.264a.343.343,0,0,0-.3-.22c-.131,0-.3.132-.436.088a.69.69,0,0,1-.436-.439A.931.931,0,0,1,63.5,42.4c.044-.264.653-1.758.784-2.109s.7-1.845.827-2.2a3.314,3.314,0,0,0,.3-.967,1.025,1.025,0,0,0-.174-.439c-.087-.088-.174-.132-.218-.088a.152.152,0,0,1-.087-.044l.171-.524s.3.044.436.044a1.782,1.782,0,0,1,.653.044c.261.044.61.132.653.22a.945.945,0,0,1,.044.527c-.087.264-.523,2.241-.61,2.592S65.847,41.345,65.76,41.609Zm3.355-4.79c0,.264-.087,1.274-.131,1.582-.044.264-.218,2.329-.218,2.5s-.044,1.1-.087,1.362a8.026,8.026,0,0,1-.131,1.011,3.463,3.463,0,0,1-.131.615.154.154,0,0,1-.044.088,3.542,3.542,0,0,1-.523.352c-.131.044-.131-.088-.218-.132-.087-.088-.174-.088-.392-.176a2.5,2.5,0,0,1-.61-.571.849.849,0,0,1-.087-.747c.087-.352.348-1.494.436-1.889l.436-1.977a11.154,11.154,0,0,0,.261-1.274.838.838,0,0,0-.174-.527c-.131-.132-.131-.132-.218-.176a.431.431,0,0,0-.174-.044l.219-.436h.436c.131,0,.261-.044.523-.044a2.279,2.279,0,0,1,.566.044C69.028,36.424,69.154,36.512,69.115,36.819Zm2.613,7.118-.61.615c-.131.132-.7.615-.7.615a2.4,2.4,0,0,1,.174-.351.367.367,0,0,0,.087-.352,7.845,7.845,0,0,0-.61-.659.722.722,0,0,1-.3-.527c0-.22.087-1.626.131-2.2s.131-1.933.174-2.373a3.517,3.517,0,0,0,0-1.186c-.087-.176-.218-.439-.348-.483s-.3-.088-.3-.088l.037-.438h.479a2.819,2.819,0,0,1,.74-.088c.261,0,.566.088.61.22,0,.132.044.659.044.967s.131,1.889.131,2.153.131,2.021.174,2.417c.044.439.087,1.23.087,1.406Zm3.224-.22c-.044.044-.348.439-.479.615-.131.132-.7.835-.7.835a.658.658,0,0,1,0-.308.593.593,0,0,0,.218-.4,1.229,1.229,0,0,0-.3-.571c-.131-.132-.436-.264-.566-.4a.7.7,0,0,1-.218-.571c-.044-.352-.174-2.109-.218-2.68s-.174-2.2-.218-2.417a1.117,1.117,0,0,0-.261-.659c-.174-.176-.3-.264-.436-.264a.577.577,0,0,0-.218-.044l.084-.341a4.167,4.167,0,0,0,.523-.088,3.639,3.639,0,0,1,.784-.132c.261,0,.479.044.523.22.044.132.087.571.131.791.044.176.479,2.065.523,2.329s.566,2.285.61,2.592.218,1.011.218,1.142Zm2.873-.042c-.131.22-.653.879-.653.879a.92.92,0,0,1,0-.352,1.043,1.043,0,0,0,.087-.352c-.044-.088-.131-.4-.3-.483-.131-.132-.436-.22-.566-.351a1.044,1.044,0,0,1-.348-.615c-.131-.439-.392-1.626-.479-1.977s-.436-2.021-.523-2.373a3.6,3.6,0,0,0-.3-.967,1.546,1.546,0,0,0-.523-.439h-.392l-.1-.351a2.508,2.508,0,0,0,.436-.044,7.453,7.453,0,0,1,.915-.308,1.791,1.791,0,0,1,.566.044,3.829,3.829,0,0,1,.218.527c.087.264.7,1.758.827,2.2.131.4.784,2.021.915,2.373s.436,1.055.479,1.23a1.962,1.962,0,0,1,.131.659A6.41,6.41,0,0,1,77.825,43.675Zm3.656-1.54c-.044.132-.392.747-.436.879-.087.132-.392.7-.392.7a3.3,3.3,0,0,0-.131-.659.992.992,0,0,0-.348-.483,6.371,6.371,0,0,0-.61-.264,1.186,1.186,0,0,1-.392-.483c-.131-.308-.566-1.406-.7-1.758-.131-.4-.653-1.67-.827-2.109a10.525,10.525,0,0,0-.566-1.318,1.514,1.514,0,0,0-.566-.439,2.426,2.426,0,0,1-.3-.044h-.174l-.131-.262s.566-.132.827-.22a8.207,8.207,0,0,1,.784-.264.406.406,0,0,1,.392.044,3.864,3.864,0,0,1,.261.439c.044.132.61,1.142.784,1.45.174.352.74,1.274.871,1.582.174.308.74,1.23.871,1.45s.261.483.348.659l.348.7A.451.451,0,0,1,81.481,42.135Zm13.769-13.4c-.043.176-.261.747-.392,1.055s-.61,1.186-.74,1.494c-.174.308-.915,1.45-1.176,1.889-.3.4-1.219,1.538-1.481,1.889-.261.308-1.394,1.406-1.655,1.67a30.437,30.437,0,0,1-2.613,1.8c-.392.22-1.655.967-1.916,1.142-.3.176-1.176.571-1.481.747-.3.132-1.089.527-1.263.571a2.445,2.445,0,0,1-.566,0,1.139,1.139,0,0,0-.3-.044c-.044,0-.261.044-.261.044l-.087-.132s.74-.308,1.089-.483c.392-.176,1.96-.923,2.439-1.186.436-.264,1.394-.791,1.873-1.142a24.984,24.984,0,0,0,2.047-1.538c.436-.4,1.611-1.582,1.829-1.845s1.176-1.186,1.394-1.406a7.212,7.212,0,0,0,.871-1.011,17.037,17.037,0,0,0,1.045-1.8,3.855,3.855,0,0,0,.261-.659c-.044-.132-.044-.264-.087-.264a1.805,1.805,0,0,1-.261-.088l.087-.264-.006-.264a1.214,1.214,0,0,0,.348-.044,1.81,1.81,0,0,0,.61-.483c.174-.176.392-.439.479-.527l.087-.132s.087.044.087.088S95.293,28.561,95.25,28.737ZM99.6,27.021a2.671,2.671,0,0,1-.436.615,4.778,4.778,0,0,1-.436.351s.131-.22.087-.308a1.031,1.031,0,0,0-.392-.352c-.174-.044-.871-.264-1.176-.351a5.506,5.506,0,0,1-1.132-.483c-.174-.132-.958-1.1-1.176-1.318-.174-.22-.871-1.142-1.132-1.45s-.784-1.055-1.089-1.45-.74-.967-.871-1.1-.131-.176-.261-.264a.547.547,0,0,0-.085-.129l.087-.308a.441.441,0,0,0,.044-.176h.653a1.79,1.79,0,0,1,.653-.088c.261,0,.348.088.479.308a3.452,3.452,0,0,0,.74.879c.261.264,1.481,1.362,1.829,1.714s1.568,1.494,1.96,1.845a14.428,14.428,0,0,0,1.132,1.011,3.64,3.64,0,0,1,.566.615C99.73,26.67,99.687,26.89,99.6,27.021Zm5.882-1.008a6.541,6.541,0,0,1-.523.879,3.939,3.939,0,0,1-.392.439c-.131.088-.174.088-.174.088s.174-.176.131-.308a.9.9,0,0,0-.3-.439,4.674,4.674,0,0,0-.915-.22c-.3-.088-1.437-.352-1.829-.483a2.893,2.893,0,0,1-1.045-.439c-.261-.22-1-.879-1.307-1.186-.348-.308-1.089-1.011-1.481-1.362-.392-.4-1.263-1.186-1.568-1.45-.3-.308-1.132-1.011-1.263-1.186a6.93,6.93,0,0,0-.566-.571c-.087-.088-.174-.088-.261-.176a.375.375,0,0,1,0-.308.537.537,0,0,1,.038-.22h.566a4.288,4.288,0,0,1,.653-.132,1.136,1.136,0,0,1,.523.044,4.936,4.936,0,0,1,.958.615c.261.22,1.35,1.055,1.7,1.318s2,1.45,2.308,1.67c.348.22,1.829,1.23,2.221,1.494s1.132.7,1.524.923a5.536,5.536,0,0,1,.871.527C105.481,25.662,105.611,25.75,105.481,26.013Zm6.4-1.76c-.087.176-.261.7-.348.879a2.124,2.124,0,0,1-.392.615.956.956,0,0,1-.261.22H110.8a.718.718,0,0,0,.131-.264.609.609,0,0,0-.218-.4.779.779,0,0,0-.392-.176,8.515,8.515,0,0,1-.915-.044c-.392-.044-1.045-.132-1.524-.22a4.611,4.611,0,0,1-1.178-.3c-.392-.176-1.263-.615-1.7-.879s-1.873-1.142-2.352-1.45c-.436-.308-2.482-1.758-2.787-1.977s-1.045-.791-1.35-1.011-.74-.571-.915-.659-.653-.264-.827-.351-.348-.132-.392-.264a.178.178,0,0,1-.129-.216h0s.7-.176.915-.22a1.475,1.475,0,0,1,.74-.132c.131.044.653.264,1,.439.3.176,1.7.923,2.134,1.142s2.265,1.186,2.657,1.362c.392.22,1.742.879,2.221,1.1s2.134.967,2.613,1.142c.436.176,1.132.439,1.524.571a10.648,10.648,0,0,0,1.176.352c.261.088.653.176.7.308A.537.537,0,0,1,111.884,24.253Zm6.611-2.67c-.044.132-.174.527-.261.747a2.1,2.1,0,0,1-.348.7,1.262,1.262,0,0,1-.436.22.33.33,0,0,0,.131-.264.446.446,0,0,0-.174-.308.873.873,0,0,0-.348-.176c-.174,0-.61.044-.958.044h-1.96a12.041,12.041,0,0,1-1.263,0,11.335,11.335,0,0,1-1.306-.264c-.523-.132-1.829-.659-2.439-.879-.566-.22-2.308-1.011-2.787-1.23s-2.178-1.1-2.744-1.362c-.566-.308-1.394-.7-1.829-.923a15.787,15.787,0,0,0-1.655-.879,7.657,7.657,0,0,0-.74-.264,3.1,3.1,0,0,1-.61-.22,1.76,1.76,0,0,0-.3-.088v-.223s.653-.176,1-.308a3.739,3.739,0,0,1,1-.264,11.489,11.489,0,0,1,1.394.4c.392.132,1.786.659,2.178.791s3.571,1.23,4.094,1.406,3.31,1.011,3.876,1.142c.566.176,3.266.835,3.876.967.653.132,1.655.308,2,.4.3.044.61.132.653.308A1.092,1.092,0,0,1,118.495,21.583Zm6.14-2.512a4.954,4.954,0,0,1-.523.923,3.034,3.034,0,0,1-.479.527,1.283,1.283,0,0,0-.174.132s.131-.176.087-.308a.578.578,0,0,0-.392-.308,6.782,6.782,0,0,0-.958,0,16.963,16.963,0,0,1-2.526-.22,36.156,36.156,0,0,1-3.57-.659c-1.045-.264-2.526-.615-3.571-.923s-2.787-.791-3.876-1.186-2.482-.835-3.136-1.055c-.61-.22-2.4-.879-2.7-.967a2.314,2.314,0,0,0-.7-.176,3.694,3.694,0,0,1-.7,0c-.218-.044-.479-.088-.61-.132a.4.4,0,0,1-.261-.176c-.033-.043.01-.131.01-.131a2.7,2.7,0,0,0,.523-.044c.174-.044.61-.132.784-.176s.261-.088.261-.176v-.483l.087-.264a3.889,3.889,0,0,0,.566.088c.174,0,.74.132,1,.176s3,.747,3.44.879,3.571.879,4.137,1.011c.566.088,3.092.659,3.7.791.566.132,4.4.835,5.008.923.653.088,2.787.439,3.31.483a12.836,12.836,0,0,1,1.394.176c.131.044.3.088.261.264A4.832,4.832,0,0,1,124.635,19.071Zm5.537-4.572c-.043.132-.174,1.1-.218,1.274a3.352,3.352,0,0,1-.261.7,1.183,1.183,0,0,1-.3.352.437.437,0,0,1-.218.088s.131-.22.043-.351c-.043-.132-.261-.352-.392-.352s-.653.088-.958.132a12.78,12.78,0,0,1-1.35.132,5.541,5.541,0,0,1-1.176.044,6.786,6.786,0,0,1-1.176-.132c-.436-.044-2-.264-2.569-.4-.566-.088-2.4-.4-3.179-.571-.784-.132-3.528-.7-4.05-.835s-2.569-.571-3.092-.7-2.744-.659-3.266-.791-1.96-.483-2.308-.571c-.392-.088-1.176-.264-1.394-.308a1.646,1.646,0,0,0-.653-.044,5.663,5.663,0,0,0-.653.22.641.641,0,0,1-.3.044c-.315.137-.445.049-.445.049s.392-.132.61-.22.566-.176.653-.352.131-.22.131-.308a.536.536,0,0,0-.044-.22s.653.044.915.044,1.524.22,1.916.264,2.308.352,2.831.439,4.094.571,4.747.659c.7.088,3.745.483,4.311.527s3.963.439,4.529.483c.523.044,2.439.22,3.136.264.653.044,2.09.132,2.7.132a7.761,7.761,0,0,1,1.219.044C130.085,14.279,130.211,14.411,130.172,14.5ZM134,12.172a3.024,3.024,0,0,1-.436.923,1.879,1.879,0,0,1-.392.264.489.489,0,0,0,.044-.308.511.511,0,0,0-.436-.264c-.131,0-1.045.22-1.481.264s-1.176.132-1.742.132a24.77,24.77,0,0,1-2.482-.132c-.653-.044-2.4-.176-3.266-.264s-3.266-.352-4.355-.483-3.353-.4-4.137-.527c-.784-.088-3.353-.439-4.007-.527-.7-.088-2.526-.352-3-.439-.523-.088-2.09-.308-2.526-.4-.436-.044-.74-.132-.915-.132h-1.219a.435.435,0,0,0-.177-.087,4.033,4.033,0,0,0,.653-.439c.218-.176.436-.308.479-.439a.775.775,0,0,0,.044-.22s1.437.044,1.742.088,1.873.132,2.308.176c.392.044,2.918.22,3.7.264s4.312.308,5.008.352,3.528.22,4.181.264c.7.044,3.4.176,4.268.22s3.919.132,4.442.132,2.221.044,2.526,0c.3,0,.653-.044.871-.044s.436,0,.436.22A8.446,8.446,0,0,1,134,12.172Zm3.435-3.43a1.683,1.683,0,0,1-.479.264.448.448,0,0,0-.174.044s.087-.132,0-.22a.634.634,0,0,0-.392-.264.788.788,0,0,0-.566.132c-.261.088-1.045.308-1.481.4a7.269,7.269,0,0,1-1.35.176H129.86c-.74-.044-2.874-.088-3.876-.132s-3.528-.176-4.4-.22-3.571-.22-4.224-.264-3.789-.22-4.442-.264-3.92-.264-4.486-.308c-.523-.044-1.7-.132-2.047-.132a3.566,3.566,0,0,1-1.045-.132c-.174-.044-.174-.132-.3-.132-.04-.046-.215-.046-.215-.046s.392-.439.479-.527a2.22,2.22,0,0,1,.261-.308,1.937,1.937,0,0,0,.479-.044c.218-.088,1.568-.044,1.916-.088h3.4c.566,0,4.094-.044,4.66-.044h3.789c.653,0,3.832,0,4.573-.044s4.7-.044,5.357-.088c.653,0,3.7-.088,4.224-.088.566,0,1.655-.044,2-.044a6.209,6.209,0,0,1,.784-.044c.131,0,.131.132.174.22s.218.7.3.967a3.8,3.8,0,0,1,.174.791C137.395,8.479,137.482,8.7,137.438,8.742Zm2.8-4.431c-.088.044-.479.22-.479.22a.313.313,0,0,0-.174-.264,1.186,1.186,0,0,0-.566-.088,6.939,6.939,0,0,0-1.095.479,10.1,10.1,0,0,1-1.176.439c-.261.044-1.306.088-1.96.088-.7,0-2.7,0-3.528.044-.871.044-3.789.044-4.4.044s-3.31.044-4.137.044c-.871,0-3.266.044-4.007.044-.784,0-4.181.044-4.965.044h-3.484c-.566,0-1.35.044-2.09.088s-1.786.176-2.09.176a3.645,3.645,0,0,1-.827-.088c-.131-.044-.131-.088-.261-.088-.087,0-.348-.044-.348-.044l-.043-.132a3.779,3.779,0,0,0,.61-.132c.261-.044.523-.176,1-.264s1.7-.352,2.308-.439,3.31-.571,4.094-.7c.784-.088,2.831-.352,3.528-.4s2.744-.22,3.44-.264,2.308-.132,2.744-.088c.392,0,1.786.044,2.308.088s.827.044.827.044l.087-.352s-.566-.044-1.045-.044c-.479-.044-1.742-.044-2.134-.044-.436,0-1.96,0-2.526.044a16.638,16.638,0,0,1-2.047-.088c-.784-.044-2.613,0-3.353.044s-2.831.264-3.528.351c-.653.088-2.961.4-4.007.615-1.045.176-2.657.527-3.44.659s-1.742.351-2.613.439-2.657.132-3.266.132c-.653,0-2.526-.044-3.484-.044a30.4,30.4,0,0,0-3.484.132,19.829,19.829,0,0,0-2.221.439,7.314,7.314,0,0,0-1.307.571,1.114,1.114,0,0,0-.479.615.193.193,0,0,0,.044.132l.261.088a3.319,3.319,0,0,0-.392.308,1.355,1.355,0,0,0-.348.659,9.952,9.952,0,0,0-.131,1.055c0,.264-.044.352.044.527s.479.879.61,1.186.566.923.653,1.142c.131.176.3.483.479.7a6.106,6.106,0,0,1,.436.967,3.365,3.365,0,0,1,.044.7v1.318a1,1,0,0,1-.044.439c-.044.044-.174.132-.174.264,0,.088-.087.351-.087.483l-.131.4a2.611,2.611,0,0,1-.174-.352,2.2,2.2,0,0,0,.044-.7,17.777,17.777,0,0,1-.741-2.722,5.166,5.166,0,0,0-.915-2.109c-.348-.527-.566-1.055-1-1.758a8.15,8.15,0,0,0-2.265-1.889A2.989,2.989,0,0,1,81.57,5.536c0-.308-.174-.835-.566-.615a1.135,1.135,0,0,1,.436-.483,6.607,6.607,0,0,1,1.655-.967c.653-.22,2.134-.659,2.787-.791.61-.132,2.4-.439,3.092-.483.74-.044,2-.132,2.613-.132a23.141,23.141,0,0,1,2.831.176c1,.088,2.352.308,3.223.352s2.4.088,3.049.088,1.873-.088,2.526-.088,3.092-.088,3.876-.132,3-.176,3.789-.22c.827-.044,3.31-.088,4.007-.088s3.789.132,4.573.176,2.7.132,3.44.176c.7.044,1.742.088,2.352.132s2.352,0,2.744,0,1.7,0,2.439-.044,2.7-.176,3.4-.264c.7-.044,2.526-.264,3.136-.308a9.754,9.754,0,0,1,1.437-.088,1.315,1.315,0,0,1,.61.308c.087.088.436.483.653.747a2.312,2.312,0,0,1,.523.659c.044.088.218.308.174.4S140.326,4.267,140.238,4.311Z" transform="translate(0 -0.005)"/><path d="M6.575,5.75c.567,0,2.57.088,3.136.088.61,0,1.786.044,2.178.044.435,0,2.569.044,3.179.044H23.6c.566-.044,2.918.044,3.571,0h3.79c.653,0,1.834.088,2.134.132.347.048,1.522.182,1.784.226s.523.22.523.308a.308.308,0,0,1-.087.176h.434l.087-.264a1.319,1.319,0,0,1,.174-.352.23.23,0,0,0-.043-.352,3.868,3.868,0,0,0-1-.22,17.6,17.6,0,0,1-2.047-.527c-.654-.223-2-.659-3.136-.923a21.742,21.742,0,0,0-3.31-.571c-1.176-.132-2.657-.22-3.31-.22-.653-.044-1.913-.044-2.613-.044H17.551c-.479,0-1.174,0-1.568-.044s-1.046-.044-1.394-.044-1.393-.088-1.524-.088a3.332,3.332,0,0,1-.653-.088c-.175-.044-.131-.176-.131-.176h.392a4.741,4.741,0,0,0,.915.044h1.35c.131,0,.092-.176.392-.176h1.655c.653,0,3.179-.088,3.963-.088h4.311c1,0,2.349.132,3.049.176.692.087,1.738.227,2.521.4s1.569.392,2.569.7a18.762,18.762,0,0,0,2.7.7,13.654,13.654,0,0,0,2.4.22c.654.044,2.744.044,3.528.044s3.31.044,4.268.088c.784,0,4.268.263,5.357.439,1.829.308,3.7,1.582,3.963,3.076.3,1.934-2,4-2.178,5.888-.087.747-.043,1.186-.088,1.231A2.763,2.763,0,0,1,53,16.08l.129.273a3.425,3.425,0,0,1,.174-.308c.09-.132.482-.66.7-.967s.827-1.054.958-1.186a2.9,2.9,0,0,0,.261-.527c.044-.087,0-.439.087-1.054a3.582,3.582,0,0,1,.784-1.582,15.5,15.5,0,0,1,1.742-1.67c.522-.439,1.045-.83,1.437-1.23a6.562,6.562,0,0,0,.915-1.142A1.934,1.934,0,0,0,60.405,5.5a3.06,3.06,0,0,0-.392-.923c-.087-.176-.088-.479-.218-.659s-.478-.273-.74-.4-.392-.395-.523-.527a1.861,1.861,0,0,0-.74-.132c-.218,0-1.046-.22-1.873-.308-.828-.136-3.268-.356-4.268-.4-1.046-.044-3.528,0-4.486.044s-4.094.176-4.747.22-1.873,0-2.7,0c-.827-.044-4.572-.176-5.313-.22s-3.659-.22-4.312-.22-2.653-.088-3.353-.088c-.74,0-2.748,0-3.266.044s-2.134.044-2.918.044c-.784.044-2.483.132-3.005.176s-2.265.176-2.874.22-2.7-.044-3.353-.044-2.656-.044-3.092-.044c-.392,0-2-.044-2.352-.088-.392-.044-2.226-.176-2.526-.22a3.123,3.123,0,0,0-.915,0c-.131.044-.392.4-.61.659S.522,4.128.522,4.128s.174.132.261,0c.087-.092.392-.444.479-.4a3.929,3.929,0,0,0,.479.264c.218.091,1.089.571,1.568.791s1.611.835,1.829.879A10.793,10.793,0,0,0,6.575,5.75Z" transform="translate(0 -0.005)" style="fill:#fff"/><path d="M11.2,10.2c.7-.044,2.573-.132,3.4-.176.784-.044,3.441-.176,4.094-.22s4.181-.264,4.921-.308c.741-.087,5.183-.395,5.749-.439.524-.048,3.745-.356,4.224-.4a15.846,15.846,0,0,1,2-.132.788.788,0,0,1,.653.439c.043.132-.131.264-.131.264a1.334,1.334,0,0,0,.348-.088c.043-.044.087-.221.174-.352s.3-.439.348-.483,0-.088-.131-.22a.527.527,0,0,1-.218-.22.819.819,0,0,0-.3-.264.642.642,0,0,1-.261-.22c-.087-.088-.13-.264-.261-.308-.136-.088-.346.044-.436.044s-.352.044-.7.044c-.348.044-1.916,0-2.526,0h-7.8c-.524,0-3.79-.044-4.4-.044H15.9c-.609,0-3.353-.044-3.832-.044s-2.526-.044-3.179-.044-2.531-.088-2.831-.088H4.7l-.087.4a2.5,2.5,0,0,0,.525.311.607.607,0,0,1,.174.527c0,.175-.043.395.044.527a5.224,5.224,0,0,0,1,.527c.348.132,1.481.659,1.655.747a2.069,2.069,0,0,0,.784.264C9.064,10.241,10.5,10.241,11.2,10.2Z" transform="translate(0 -0.005)" style="fill:#fff"/><path d="M15.013,13.971c.74,0,2.09-.132,3.179-.264,1.137-.132,4.268-.527,5.1-.659s4.229-.656,5.1-.791,4.442-.748,5.052-.835,2.091-.351,2.439-.439a1.78,1.78,0,0,1,.871.088.471.471,0,0,1,.261.352.458.458,0,0,1-.043.176l.479-.088a1.063,1.063,0,0,1,.087-.439,1.192,1.192,0,0,0,.218-.483c-.043-.171-.522-.483-.653-.571a5.935,5.935,0,0,1-.523-.527c-.13-.132-.217-.044-.348-.044a4.454,4.454,0,0,1-1,.176c-.74.088-2.827.313-3.484.352s-4.66.4-5.357.439-5.574.4-6.271.439-4.4.264-5.226.308-3.441.132-4.094.176-1.655.044-1.916.088a6,6,0,0,1-.74.044v.264a3.871,3.871,0,0,0,.423.218A1.178,1.178,0,0,1,9,12.522a.913.913,0,0,0,.261.439,5.953,5.953,0,0,0,1.437.483,21.358,21.358,0,0,0,2.265.571A10.893,10.893,0,0,0,15.013,13.971Z" transform="translate(0 -0.005)" style="fill:#fff"/><path d="M19.295,17.806c.653-.044,3.182-.348,3.832-.483s3.31-.7,4.05-.835c.7-.176,3.266-.791,3.658-.923l3.223-.923c.435-.132,3.135-.923,3.353-1.011a2.583,2.583,0,0,1,.523-.088.9.9,0,0,1,.436.264c.087.088,0,.308,0,.308l.436-.176a1.418,1.418,0,0,1,.043-.308,1.57,1.57,0,0,1,.174-.4,1.037,1.037,0,0,0,.087-.483c0-.088-.218-.176-.392-.264a5.785,5.785,0,0,1-.784-.308,2.631,2.631,0,0,0-.61-.308c-.174-.044-.391.088-.74.176s-1.218.22-1.96.352-3.571.662-4.442.791-4.006.615-4.616.7-4.355.612-5.052.7-2.789.308-3.223.352-1.7.176-2.134.176-1.22.044-1.481.044a2.868,2.868,0,0,0-.653.132,1.249,1.249,0,0,1-.436,0,1.55,1.55,0,0,0,.089.449c.044.088.261.088.392.132a2.112,2.112,0,0,1,.523.439c.174.176.174.4.261.659a.679.679,0,0,0,.566.352c.261.044.914.176,1.524.264a19.389,19.389,0,0,0,2.09.264C18.555,17.85,18.642,17.85,19.295,17.806Z" transform="translate(0 -0.005)" style="fill:#fff"/><path d="M29.142,19.992c.523-.176,3.353-1.142,3.963-1.362.609-.263,2.569-1.01,3.048-1.186.479-.22,2.092-.836,2.352-.967s.782-.351,1-.439a.883.883,0,0,1,.392-.088,3.044,3.044,0,0,1,.392.264c.044.044,0,.264,0,.264s.213-.088.3-.132l.479-.176s-.218-.176-.218-.264v-.967a.273.273,0,0,0-.087-.308c-.087-.132-.609-.22-.827-.264a4.5,4.5,0,0,0-.958-.264,1.515,1.515,0,0,0-.566.22c-.217.091-1.916.615-2.482.791-.609.176-2.7.791-3.353.967-.611.175-3.788,1.01-4.311,1.142s-3.441.791-4.094.923c-.7.132-3.528.571-3.92.615-.392.088-2.221.264-2.221.264s0,.088.186.122c.039.088.169.088.3.132a2.037,2.037,0,0,1,.392.132,2.845,2.845,0,0,1,.653.308,2.313,2.313,0,0,1,.479.4,1.3,1.3,0,0,0,.479.308c.218.092,1.873.312,2.439.4s2,.176,2.352.176a3.181,3.181,0,0,0,1-.22C26.742,20.692,28.619,20.168,29.142,19.992Z" transform="translate(0 -0.005)" style="fill:#fff"/><path d="M35.49,21.972c.392-.175,3.353-1.713,3.745-1.933s2.308-1.23,2.526-1.362a1.288,1.288,0,0,1,.653-.22,1.2,1.2,0,0,1,.566,0,.343.343,0,0,1,.131.176l.74-.351c.134-.048.7-.4.7-.4h-.174a3.215,3.215,0,0,1-.653-.132,1.646,1.646,0,0,1-.74-.308,1,1,0,0,1-.218-.659.344.344,0,0,0-.087-.352c-.044-.088-.218-.088-.392-.088a2.8,2.8,0,0,0-.827.088,3.62,3.62,0,0,0-.827.352c-.174.088-.566.263-.958.439-.434.132-3.218,1.32-3.7,1.494s-3.008,1.142-3.4,1.274-2.526.884-2.961,1.011-1.524.44-1.829.527-1.263.351-1.437.439a5.7,5.7,0,0,1-.784.22l.04.269a.933.933,0,0,1,.479.044,1.7,1.7,0,0,1,.653.439c.179.219.218.351.479.483a5.08,5.08,0,0,0,1.176.132c.392.044,1.524.044,2.134.044a15.309,15.309,0,0,0,1.568-.044,2.9,2.9,0,0,0,.784-.308C33.182,23.114,35.1,22.147,35.49,21.972Z" transform="translate(0 -0.005)" style="fill:#fff"/><path d="M40.24,24.558a11.848,11.848,0,0,0,1.488-1.051c.3-.264,1.652-1.318,2-1.626.392-.351,2.221-1.845,2.352-1.977.173-.132,1-.923,1-.923a3.059,3.059,0,0,1-.523.088,3.736,3.736,0,0,1-.653-.044,1.421,1.421,0,0,1-.7-.483c-.13-.175-.348-.439-.348-.439l-.261.088c-.13.044-.217.173-.348.264s-.914.484-1.437.791-3.048,1.669-3.484,1.933c-.435.22-3.875,2.021-4.224,2.153s-2.657,1.318-2.657,1.318.043.131.43.088c.174-.044.344.044.61.176s.348.439.566.659a1.081,1.081,0,0,0,.784.22,16.9,16.9,0,0,0,1.96-.308c.527-.127,2.052-.439,2.4-.527A6.679,6.679,0,0,0,40.24,24.558Z" transform="translate(0 -0.005)" style="fill:#fff"/><path d="M47.865,22.943l1.829-2.065a.193.193,0,0,1-.044-.132v-.4c0-.176-.174-.22-.261-.22s-.349.044-.61.044a2.009,2.009,0,0,1-.871-.132,3.2,3.2,0,0,1-.523-.4.882.882,0,0,1-.131-.352s-.615.615-.915.879c-.3.308-1.524,1.318-1.916,1.67-.436.352-1.741,1.408-2.047,1.67s-1.439,1.143-1.7,1.362-1.524,1.142-1.524,1.142c.048.132.4-.034.439-.078s.261,0,.392.088a6.212,6.212,0,0,1,.566.527c.13.176.348.176.566.176a8.579,8.579,0,0,0,1.307-.264c.348-.088.871-.22,1.132-.308.3-.088.522-.176.74-.044.174.088.479.176.566.088s.915-1.011,1.263-1.362S47.517,23.343,47.865,22.943Z" transform="translate(0 -0.005)" style="fill:#fff"/><path d="M48.733,22.583c-.305.352-1.786,1.977-2.047,2.241-.262.308-1.481,1.582-1.481,1.582a1.2,1.2,0,0,0,.346.042.418.418,0,0,1,.392.264.533.533,0,0,0,.392.351,2.936,2.936,0,0,0,.827-.132c.218-.039,1.524-.4,1.742-.439.264-.044.482-.088.7.176.126.176.256.352.3.308a1.467,1.467,0,0,0,.131-.264c.087-.176.522-.967.653-1.318s.827-1.669.871-1.889a9.654,9.654,0,0,0,.044-1.142c-.044-.263-.044-1.142-.044-1.23-.044-.044-.044-.132-.131-.176-.084,0-.523.088-.784.132a2.34,2.34,0,0,1-.653.088c-.082,0-.169.089-.3.264S49.038,22.231,48.733,22.583Z" transform="translate(0 -0.005)" style="fill:#fff"/><path d="M51.123,26.844c0,.175-.044.263.174.439.223.132.479.176.523.264a.309.309,0,0,0,.348.132c.092-.044.3-.176.392-.22s.044-.132,0-.22a.724.724,0,0,1,0-.308,1.688,1.688,0,0,0-.131-.439c-.044-.132-.348-.923-.392-1.055a2.373,2.373,0,0,0-.3-.571c-.044-.127-.131-.527-.131-.527a2.4,2.4,0,0,1-.174.352c-.048.135-.348.835-.348.835s.131.264.083.4A6.858,6.858,0,0,1,51.123,26.844Z" transform="translate(0 -0.005)" style="fill:#fff"/><path d="M58.795,40.378a18.723,18.723,0,0,1-2.178-1.011,23.054,23.054,0,0,1-2.831-1.714c-.566-.4-2.226-1.8-2.526-2.065-.3-.309-1.524-1.67-1.916-2.109a25.2,25.2,0,0,1-1.568-2.2,19.443,19.443,0,0,1-.958-1.845,2.737,2.737,0,0,1-.174-.7.5.5,0,0,0-.218-.352.6.6,0,0,0-.392,0c-.136,0-.175.088-.436.088-.218,0-.61-.483-.61-.483a3.061,3.061,0,0,0,.19.39l.131.4a1.53,1.53,0,0,0,.261.044.781.781,0,0,1,.3.22,2.364,2.364,0,0,1,.436.835c.174.44,1.05,1.978,1.35,2.461.3.44,1.263,1.758,1.742,2.285a27.277,27.277,0,0,0,2.526,2.461,27.273,27.273,0,0,0,2.613,1.889c.566.352,2.178,1.23,2.526,1.406.394.176,1.22.527,1.394.615a.586.586,0,0,1,.3.351c.087.132-.087.264-.087.264l.218.132.261-.439.3-.527a.819.819,0,0,1-.131-.176A1.529,1.529,0,0,0,58.795,40.378Z" transform="translate(0 -0.005)" style="fill:#fff"/><path d="M60.918,38.178c.174-.306.609-.967.827-1.406s.741-1.274.784-1.362-.044-.176-.131-.264c-.126-.088-.169-.132-.3-.22-.131-.044-.653-.263-1.176-.483s-1.132-.572-1.655-.835-1.655-1.054-2.047-1.318c-.392-.308-1.393-1.143-1.742-1.494s-.828-.918-1.176-1.318a13.754,13.754,0,0,1-1-1.406c-.044-.044-.131-.176-.218-.176l-.174-.176c-.039-.088-.213.044-.3.088-.131.039-.566.351-.784.439a2.275,2.275,0,0,1-.784.176.761.761,0,0,1-.653-.264,2.209,2.209,0,0,1-.348-.527c-.13-.132-.174-.22-.261-.22a1.336,1.336,0,0,0-.348.088c-.131.044-.484.176-.784.264a11.38,11.38,0,0,0-1.307.4,1.575,1.575,0,0,1-.61.132s0,.044.081.075c.039.088.213.088.3.088a1.313,1.313,0,0,1,.479.132,1.269,1.269,0,0,1,.523.4c.087.088.44.835.74,1.406a24.3,24.3,0,0,0,1.394,2.021A25.1,25.1,0,0,0,51.9,34.307c.436.4,1.132,1.055,1.655,1.45s1.307.918,1.873,1.318a19.651,19.651,0,0,0,1.916,1.142c.479.22,1.35.659,1.524.747a2.767,2.767,0,0,1,.61.352,1.289,1.289,0,0,1,.218.615c0,.18-.175.356-.131.4s.131.044.131,0c0-.088.348-.615.479-.879C60.308,39.232,60.744,38.484,60.918,38.178Z" transform="translate(0 -0.005)" style="fill:#fff"/><path d="M41.678,7.035c.087,0,.043-.132.087-.264a1.729,1.729,0,0,1,.174-.4c.087-.088,0-.264,0-.264h-.174c-.087,0-.3-.088-.479-.088H36.539a1.758,1.758,0,0,1-.131.175l-.087.264.174.05c.087,0,.13.044.261.132a5.645,5.645,0,0,0,.74.351.858.858,0,0,0,.479.044c.131-.044,1-.132,1.307-.176s1.263-.132,1.437-.132a1.28,1.28,0,0,1,.523.132.232.232,0,0,1,.044.22S41.591,7.035,41.678,7.035Z" transform="translate(0 -0.005)" style="fill:#fff"/><path d="M37.624,9.1a1.647,1.647,0,0,0,.653.22A3.314,3.314,0,0,0,39.1,9.1c.307-.136,1.089-.312,1.307-.4A4.912,4.912,0,0,1,41.5,8.437a.833.833,0,0,1,.523.22c.087.044,0,.264,0,.264a.436.436,0,0,1,.131-.044c.048,0,.348-.088.348-.088a.779.779,0,0,1,.044-.264.4.4,0,0,1,.044-.22c.044-.088.087-.132.131-.22.044-.044-.043-.22-.174-.308a3.815,3.815,0,0,0-.436-.352.822.822,0,0,0-.392-.132,8.082,8.082,0,0,0-.784.22c-.3.088-1.045.22-1.437.308s-1.263.308-1.437.352a4.466,4.466,0,0,0-.7.22A1.4,1.4,0,0,0,37.1,8.7a.493.493,0,0,1,.176.224A2.413,2.413,0,0,0,37.624,9.1Z" transform="translate(0 -0.005)" style="fill:#fff"/><path d="M38.63,11.159a2.448,2.448,0,0,0,.653.132,1.169,1.169,0,0,0,.653-.132c.261-.088.958-.4,1.219-.527a9.355,9.355,0,0,1,1.089-.439.54.54,0,0,1,.523.132.527.527,0,0,1,.087.264l.174-.088a1.283,1.283,0,0,0,.261-.132v-.22c.044-.088.044-.176.131-.264a.445.445,0,0,0,.131-.4c0-.132-.218-.176-.392-.264a3.446,3.446,0,0,0-.653-.132c-.174-.044-.392.088-.566.176a12.243,12.243,0,0,1-1.176.4c-.3.087-1.045.307-1.437.439s-.74.264-.871.308c-.088.044-.349.088-.436.176a.343.343,0,0,0-.131.264,1.868,1.868,0,0,0,.218.043Z" transform="translate(0 -0.005)" style="fill:#fff"/><path d="M39.852,12.967c.044.043.392.263.523.351a4.6,4.6,0,0,0,.61.132c.3.044.392-.132.479-.176a7.483,7.483,0,0,1,.958-.615,8.792,8.792,0,0,1,1-.571.6.6,0,0,1,.479.088,1.246,1.246,0,0,1,.131.264,1.127,1.127,0,0,0,.3-.132l.261-.132a2.5,2.5,0,0,1-.044-.308,1.293,1.293,0,0,1,.087-.4c.043-.048,0-.268-.044-.4-.043-.088-.3-.132-.479-.176a3.827,3.827,0,0,0-.653-.088,1.376,1.376,0,0,0-.392.132c-.085.044-.652.307-1,.483-.348.132-1.442.659-1.742.791l-.871.4.005.137C39.46,12.835,39.765,12.923,39.852,12.967Z" transform="translate(0 -0.005)" style="fill:#fff"/><path d="M41.718,14.981a1.125,1.125,0,0,0,.436.176,2.125,2.125,0,0,1,.523.132,5.31,5.31,0,0,1,.523.264c.042,0,.739-.615,1-.835l1.744-1.357v-.4a.656.656,0,0,0,.044-.308c0-.132-.174-.132-.392-.132a5.763,5.763,0,0,0-.871,0c-.171.044-.523.307-.871.483s-1.219.7-1.611.923c-.348.22-1.219.791-1.219.791l-.046.219a1.782,1.782,0,0,1,.392-.088C41.5,14.849,41.544,14.893,41.718,14.981Z" transform="translate(0 -0.005)" style="fill:#fff"/><path d="M43.675,16.3a1.593,1.593,0,0,0,.61.264,1.341,1.341,0,0,1,.74.22,1.229,1.229,0,0,1,.218.4l.436-.439c.171-.22.656-.659.871-.879s.741-.7.915-.879a2.269,2.269,0,0,0,.261-.308.545.545,0,0,1-.087-.132.864.864,0,0,1-.044-.352c0-.132-.087-.439-.087-.615,0-.132-.217-.132-.348-.132s-.392.088-.523.088a.365.365,0,0,0-.3.088c-.087.088-.7.528-.958.747S44.2,15.34,43.9,15.6s-.74.659-.74.659c.042.087.256.084.256.084S43.588,16.254,43.675,16.3Z" transform="translate(0 -0.005)" style="fill:#fff"/><path d="M45.819,17.493c.082,0,.169.088.3.22a.592.592,0,0,0,.479.176c.217,0,.479-.044.653.132a.478.478,0,0,1,.131.308,4.767,4.767,0,0,0,.479-.4c.217-.177.871-.836,1.132-1.1s.74-.7.871-.835a3.846,3.846,0,0,0,.436-.439h-.216a1.951,1.951,0,0,1-.566-.132.747.747,0,0,1-.479-.483c-.087-.176-.131-.308-.261-.352s-.348.088-.566.176a2.314,2.314,0,0,0-.523.439c-.176.175-.958.922-1.176,1.142l-1.176,1.186s.174,0,.221.05C45.6,17.581,45.737,17.493,45.819,17.493Z" transform="translate(0 -0.005)" style="fill:#fff"/><path d="M48.259,18.675c.136.043.218.219.436.351a2.193,2.193,0,0,0,.392.088c.131.044.218.088.392.352a1.388,1.388,0,0,1,.131.483,1.722,1.722,0,0,1,.174-.22c.044-.132.3-.483.392-.659.129-.176.738-1.1,1-1.494s.741-1.1.915-1.318a4.511,4.511,0,0,0,.3-.439.636.636,0,0,0-.218.132c-.087.088-.392.088-.566.088a2.551,2.551,0,0,0-.61-.088.517.517,0,0,1-.348-.176s-.523.484-.784.747-.914.878-1.219,1.186-.958.923-.958.923a1.2,1.2,0,0,0,.353.044C48.128,18.631,48.123,18.632,48.259,18.675Z" transform="translate(0 -0.005)" style="fill:#fff"/><path d="M51.389,20.746c.087-.044.218-.132.218-.132l.044-.264a1.359,1.359,0,0,1,.174-.4,4.672,4.672,0,0,0,.218-.835,9.431,9.431,0,0,1,.392-1.318c.087-.22.479-.923.479-1.011a.559.559,0,0,0-.174-.308,1.723,1.723,0,0,1-.174-.22.3.3,0,0,0-.182.215,5.2,5.2,0,0,0-.348.527,9.938,9.938,0,0,0-.479.967,7.873,7.873,0,0,0-.348.835c-.082.22-.213.571-.3.835a.617.617,0,0,0,.044.571c.087.18.218.312.218.4v.182Z" transform="translate(0 -0.005)" style="fill:#fff"/><path d="M54.09,10.457A4.619,4.619,0,0,0,54.482,9.1a1.521,1.521,0,0,0-.523-1.23A5.058,5.058,0,0,0,52.043,6.81a10.688,10.688,0,0,0-1.873-.439,22.14,22.14,0,0,0-2.308-.132,10.106,10.106,0,0,0-1.176,0c-.263,0-.87-.044-1.263-.088s-1.134-.044-1.7-.044-1.35.044-1.35.044a.633.633,0,0,1-.076.122.218.218,0,0,0-.044.132.327.327,0,0,0,.131.132c.082.088.126.088.3.176a1.827,1.827,0,0,0,.523.132,4.44,4.44,0,0,0,.74-.044,5.8,5.8,0,0,1,.827-.044,1.511,1.511,0,0,1,.523.132c.136.044.218,0,.436-.044.218,0,.479-.088.61-.088h.348c.043,0,.174.133.261.264s.3.219.479.351a.643.643,0,0,1,.218.527c0,.136-.087.312-.087.4s.13.088.261.132a1.8,1.8,0,0,1,.479.308,1.285,1.285,0,0,1,.131.615c0,.132,0,.176.087.176A1.572,1.572,0,0,1,49,9.662a.852.852,0,0,1,.392.483c.087.175,0,.307.087.351.092.088.174,0,.392.044a.589.589,0,0,1,.479.264.926.926,0,0,1,.174.483.949.949,0,0,0-.044.264,2.047,2.047,0,0,0,.218-.088.986.986,0,0,1,.479-.132.636.636,0,0,1,.523.176.711.711,0,0,1,.261.571,1.209,1.209,0,0,1-.523.615.851.851,0,0,1-.479,0,1.143,1.143,0,0,0-.348.264,10.389,10.389,0,0,1-.74.747c-.175.171-.523.571-.523.571a.19.19,0,0,1,.131-.044.615.615,0,0,0,.261-.088.366.366,0,0,1,.261.088,1.056,1.056,0,0,1,.3.527.48.48,0,0,1-.086.359H50.3a3.366,3.366,0,0,1,.261-.308c.087-.132.353-.391.653-.791.3-.352,1.088-1.227,1.35-1.494s.828-.835.915-.967C53.524,11.468,53.916,10.765,54.09,10.457Z" transform="translate(0 -0.005)" style="fill:#fff"/><path d="M45.338,7.994c.348-.088.654-.176.784-.22s.217-.176.348-.308a.614.614,0,0,0,.174-.176c.043-.044-.044-.132-.044-.132h-.169a1.331,1.331,0,0,1-.392-.044,1.711,1.711,0,0,0-.7.132c-.349.092-1.089.268-1.481.4S42.9,8,42.9,8a.444.444,0,0,0-.046.128v.132s.044.044.131,0,.087-.088.218-.044a2.154,2.154,0,0,0,.523.132.972.972,0,0,0,.523-.044C44.467,8.258,44.99,8.082,45.338,7.994Z" transform="translate(0 -0.005)" style="fill:#fff"/><path d="M44.127,9.721a1.757,1.757,0,0,1,.3.088,1.554,1.554,0,0,0,.479.088c.131,0,.654-.312.915-.4.26-.127.869-.483,1-.527a1.21,1.21,0,0,0,.3-.4c.044-.088-.087-.176-.174-.22-.131-.088-.349,0-.523.044-.218.044-1.132.4-1.568.571a7.3,7.3,0,0,0-1,.483h.01v.273Z" transform="translate(0 -0.005)" style="fill:#fff"/><path d="M45.461,11.207a2.11,2.11,0,0,0,.479.176,1.035,1.035,0,0,0,.392.132,1.821,1.821,0,0,0,.523-.351c.13-.132.3-.263.566-.483a2.116,2.116,0,0,0,.348-.439.728.728,0,0,0,.087-.4c0-.088-.126-.176-.3-.176a2.155,2.155,0,0,0-.74.264c-.261.132-.914.439-1.132.571-.174.131-.784.483-.784.483l-.048.223a1.959,1.959,0,0,1,.348-.088A.615.615,0,0,1,45.461,11.207Z" transform="translate(0 -0.005)" style="fill:#fff"/><path d="M47.382,12.566c.131.088.392.22.479.176.044-.044.346-.312.523-.483s.7-.571.7-.571v-.176c-.043-.088-.13-.044-.174-.132s0-.176-.044-.308-.174-.132-.218-.176c-.043-.088-.087-.088-.174-.088a2.534,2.534,0,0,0-.479.308,9.2,9.2,0,0,0-.915.659,5.222,5.222,0,0,0-.61.527.515.515,0,0,1,.259.088A2.077,2.077,0,0,1,47.382,12.566Z" transform="translate(0 -0.005)" style="fill:#fff"/><path d="M48.818,13.571a1.33,1.33,0,0,1,.261.4l.087-.088a8.822,8.822,0,0,1,.653-.659l.784-.791v-.088c0-.044-.087-.044-.131-.044s-.044-.088-.044-.22-.087-.176-.131-.176c-.039-.044-.213,0-.3,0s-.174-.044-.174-.132-.131-.088-.131-.088l-.523.4a7.816,7.816,0,0,1-.61.571c-.217.215-.653.615-.653.615l.433-.008C48.557,13.307,48.6,13.4,48.818,13.571Z" transform="translate(0 -0.005)" style="fill:#fff"/><path d="M52.743,12.918a1.946,1.946,0,0,1-.218.264l-.7.747c-.262.347-.61.747-.61.747l-.084.048a1.7,1.7,0,0,1,.261.088c.087.044.13.088.261.264a.962.962,0,0,1,.131.483s.131-.088.218-.132a1.28,1.28,0,0,0,.261-.132,2.259,2.259,0,0,1,.044-.4,3.5,3.5,0,0,0,.131-.571,4.932,4.932,0,0,1,.087-.747A5.5,5.5,0,0,1,52.743,12.918Z" transform="translate(0 -0.005)" style="fill:#fff"/><path d="M58.712,2.946c.087.044.261-.088.348-.088h.3c.13,0,.473.039.647.039s.7-.268,1.132-.4c.44-.176,1.573-.439,2.4-.659.871-.175,2.308-.4,3.179-.527.871-.088,2.656-.22,3.571-.22s2.7.128,3.484.22,1.655.268,2.439.4c.828.132,2,.483,2.657.659.654.215,1.351.439,1.786.615a3.972,3.972,0,0,1,1.045.483c.087.044.087.264.087.264a2.9,2.9,0,0,1,.3-.132c.131-.044.348-.176.479-.22a.593.593,0,0,0,.261-.132,3.544,3.544,0,0,1-.479-.176,1.351,1.351,0,0,1-.261-.264c-.043-.044-.3-.091-.653-.264s-1.308-.48-1.916-.7-1.655-.483-2.308-.659c-.648-.127-2.216-.439-3-.527A36.421,36.421,0,0,0,70.334.439,38.166,38.166,0,0,0,65.5.791c-.958.176-2.566.571-3.266.747-.566.132-2.438.791-2.787.923s-.915.352-.915.352S58.706,2.9,58.712,2.946Z" transform="translate(0 -0.005)" style="fill:#fff"/><path d="M81.13,4.219a1.283,1.283,0,0,0-.261-.132.781.781,0,0,1-.3-.22A10.926,10.926,0,0,0,79.045,3.3a25.61,25.61,0,0,0-2.918-.791c-.787-.175-2.1-.351-2.787-.439s-2.352-.176-3.092-.176c-.7,0-1.916.088-2.874.176a27.3,27.3,0,0,0-2.918.439c-.783.175-1.437.351-2.09.527-.61.176-1.565.527-1.786.615s-.7.264-.7.264a2.576,2.576,0,0,0,.261.176.958.958,0,0,0,.392.044,1.285,1.285,0,0,1,.653.308,2.7,2.7,0,0,1-.131,2.724,1.3,1.3,0,0,1-.7.615c-.169.088-.3-.176-.3-.176s-.348.4-.479.527-.915.79-1.307,1.142c-.392.307-1.046.878-1.307,1.142a4.447,4.447,0,0,0-.566.615.614.614,0,0,0,.436.4c.264.039.308-.136.7-.4.394-.223,1-.659,1.394-.923s1.48-.791,1.916-1.011a19,19,0,0,1,2.221-.879,20.508,20.508,0,0,1,4.007-.923,32.286,32.286,0,0,1,4.573-.22,23.867,23.867,0,0,1,4.878.659A15.912,15.912,0,0,1,79.7,8.742a17.351,17.351,0,0,1,3.1,1.63,8.286,8.286,0,0,1,1.873,1.538,7.119,7.119,0,0,1,.871,1.23c.126.308.213.835.3.967a3.3,3.3,0,0,0,.3.351,4.316,4.316,0,0,0-.222-1.4c-.436-2.289-2.874-3.778-4.181-4.789-1-.8-1.785-2.2-1.132-3.3A4.976,4.976,0,0,1,81.13,4.219Z" transform="translate(0 -0.005)" style="fill:#fff"/><path d="M139.672,2.988c-.217-.264-.566-.659-.653-.747a1.315,1.315,0,0,0-.61-.308,9.754,9.754,0,0,0-1.437.088c-.61.044-2.436.264-3.136.308-.7.088-2.661.22-3.4.264s-2.047.044-2.439.044-2.134.044-2.744,0-1.652-.088-2.352-.132c-.74-.044-2.656-.132-3.44-.176s-3.876-.176-4.573-.176-3.18.044-4.007.088c-.789.044-3.005.176-3.789.22s-3.223.132-3.876.132-1.877.088-2.526.088-2.178-.044-3.049-.088-2.223-.264-3.223-.352a23.141,23.141,0,0,0-2.831-.176c-.613,0-1.873.088-2.613.132-.692.044-2.482.351-3.092.483-.653.132-2.134.571-2.787.791a6.607,6.607,0,0,0-1.655.967A1.135,1.135,0,0,0,81,4.921c.392-.22.566.307.566.615a2.989,2.989,0,0,0,1.263,1.933A8.15,8.15,0,0,1,85.1,9.358c.434.7.652,1.231,1,1.758a5.166,5.166,0,0,1,.915,2.109,17.777,17.777,0,0,0,.741,2.722,2.2,2.2,0,0,1-.044.7,2.611,2.611,0,0,0,.174.352l.131-.4c0-.132.087-.4.087-.483,0-.132.13-.22.174-.264a1,1,0,0,0,.044-.439V14.1a3.365,3.365,0,0,0-.044-.7,6.106,6.106,0,0,0-.436-.967c-.179-.217-.348-.524-.479-.7-.087-.219-.522-.835-.653-1.142S86.186,9.575,86.1,9.4s-.044-.263-.044-.527a9.952,9.952,0,0,1,.131-1.055,1.355,1.355,0,0,1,.348-.659,3.319,3.319,0,0,1,.392-.308l-.261-.088a.193.193,0,0,1-.044-.132,1.114,1.114,0,0,1,.479-.615,7.314,7.314,0,0,1,1.307-.571,19.829,19.829,0,0,1,2.221-.439,30.4,30.4,0,0,1,3.484-.132c.958,0,2.831.044,3.484.044.609,0,2.395-.044,3.266-.132s1.83-.307,2.613-.439,2.4-.483,3.44-.659c1.046-.215,3.354-.527,4.007-.615.7-.087,2.788-.307,3.528-.351s2.569-.088,3.353-.044a16.638,16.638,0,0,0,2.047.088c.566-.044,2.09-.044,2.526-.044.392,0,1.655,0,2.134.044.479,0,1.045.044,1.045.044l-.087.352s-.3,0-.827-.044-1.916-.088-2.308-.088c-.436-.044-2.048.044-2.744.088s-2.743.216-3.44.264-2.744.312-3.528.4c-.784.129-3.486.613-4.094.7s-1.831.351-2.308.439-.739.22-1,.264a3.779,3.779,0,0,1-.61.132l.043.132s.261.044.348.044c.13,0,.13.044.261.088a3.645,3.645,0,0,0,.827.088c.3,0,1.35-.132,2.09-.176s1.524-.088,2.09-.088h3.484c.784,0,4.181-.044,4.965-.044.741,0,3.136-.044,4.007-.044.827,0,3.526-.044,4.137-.044s3.529,0,4.4-.044c.828-.044,2.828-.044,3.528-.044.654,0,1.7-.044,1.96-.088a10.1,10.1,0,0,0,1.176-.439,6.939,6.939,0,0,1,1.095-.479,1.186,1.186,0,0,1,.566.088.313.313,0,0,1,.174.264s.391-.176.479-.22.087-.172.131-.264-.13-.312-.174-.4A2.312,2.312,0,0,0,139.672,2.988Z" transform="translate(0 -0.005)" style="fill:#fff"/><path d="M98.691,6.108h-5.1c-.523.044-2.134.044-2.744.088a19.109,19.109,0,0,0-2.308.483,4.4,4.4,0,0,0-1.307.615,2.16,2.16,0,0,0-.566.527.364.364,0,0,0,.327-.093.5.5,0,0,1,.261.264c.087.088.043.307.087.659a4.686,4.686,0,0,0,.479,1.1c.218.4.653,1.1.784,1.274a7.829,7.829,0,0,0,.566.615,3.315,3.315,0,0,1,.218.7,2.956,2.956,0,0,0,.7.835c.262.223.958.791,1.089.923a2.218,2.218,0,0,1,.348.4c0,.044-.174.176-.174.176h.131a1.074,1.074,0,0,0,.348-.044c.087-.044.043-.088.087-.176a1.058,1.058,0,0,0,.087-.4.559.559,0,0,0-.174-.4c-.044-.044-.436-.4-.61-.571a11.048,11.048,0,0,1-.958-.791c-.262-.176-.436-.308-.436-.308L90,11.852c.043-.044-.131-.132-.218-.22-.087-.048-.087-.224.044-.4a.69.69,0,0,1,.523-.176c.218,0,.349.224.436.4a2.343,2.343,0,0,0,.566.615c.262.223.871.747,1.089.923a3.9,3.9,0,0,1,.523.4.9.9,0,0,1-.044.22,1.533,1.533,0,0,1,.3-.044c.126-.044.256-.044.3-.132A.688.688,0,0,0,93.563,13a2.936,2.936,0,0,0-.523-.527,9.211,9.211,0,0,0-1-.835,3.07,3.07,0,0,1-.653-.527c-.044-.044.087-.088.087-.132s-.086-.132-.174-.176-.044-.132-.044-.264a.462.462,0,0,1,.3-.264c.131-.044.261.044.392.132.136.127.305.4.436.527a8.228,8.228,0,0,0,.827.615c.262.176.741.527.915.659.131.132.218.176.218.264a.193.193,0,0,0,.044.132,1.528,1.528,0,0,1,.3-.044.477.477,0,0,0,.174-.088v-.308a.273.273,0,0,1,.087-.176c.087-.088.087-.176-.044-.264a3.689,3.689,0,0,0-.61-.439c-.174-.085-.784-.524-1.045-.7a5.421,5.421,0,0,1-.566-.439c-.044-.044.087-.132.087-.132a.613.613,0,0,1-.174-.176c-.044-.043,0-.263.087-.351.131-.132.3-.044.392,0a3.055,3.055,0,0,1,.436.351,5.544,5.544,0,0,0,.74.439c.174.088.876.527,1.089.659s.3.22.3.264a.218.218,0,0,1,.044.132,4.182,4.182,0,0,0,.479-.132c.087,0,.087-.088.087-.132a1.986,1.986,0,0,1,.087-.351c.048-.088-.17-.216-.3-.308s-.609-.312-.74-.4a6.513,6.513,0,0,1-.958-.483c-.218-.132-.566-.352-.566-.352v0a.043.043,0,0,1,.044-.042c.044-.044.044-.088.044-.176s-.087-.088-.131-.176c-.044-.044.043-.132.174-.176a1.552,1.552,0,0,1,.479.088c.129.048.784.308,1,.4s.738.264,1,.4.436.224.523.4,0,.264,0,.264l.218-.088a2.683,2.683,0,0,1,.261-.176.992.992,0,0,0,.044-.176.381.381,0,0,1,.131-.264A.334.334,0,0,0,97.6,9.1a.861.861,0,0,0-.566-.264,8.07,8.07,0,0,1-.958-.308c-.261-.088-.871-.264-1.045-.308A1.028,1.028,0,0,1,94.644,8c-.044-.044.044-.132.087-.176s.13,0,.174,0,.043-.044.131-.132.261,0,.523.044.654.176.915.22c.258.088.784.22.958.264a.61.61,0,0,1,.3.176c.043.044,0,.22,0,.22s.131.044.174,0a3.449,3.449,0,0,0,.392-.176.176.176,0,0,0,.087-.176.278.278,0,0,1,0-.264c0-.088.044-.132.044-.22,0-.044-.131-.132-.218-.132a4.189,4.189,0,0,0-.523-.088c-.217-.044-.566-.132-.827-.176s-.61-.088-.871-.132a1.369,1.369,0,0,1-.74-.264c-.087-.132-.044-.176,0-.176h.174c.043,0,.087-.088.174-.132a.318.318,0,0,1,.261-.088,3.353,3.353,0,0,0,.392.044,7.005,7.005,0,0,0,.958.044c.218.044.74.044.871.088a.5.5,0,0,1,.392.264.774.774,0,0,1,.044.22s.3-.22.392-.264a.627.627,0,0,1,.131-.088V6.812a.658.658,0,0,1,.044-.264.282.282,0,0,0,0-.264C99.039,6.2,98.822,6.152,98.691,6.108Z" transform="translate(0 -0.005)" style="fill:#fff"/><path d="M88.546,13.664c.043.215.087.615.087.615h.131l.131-.044a3.132,3.132,0,0,0,.3.483,3.951,3.951,0,0,0,.392.439c.174.176.218.264.218.352s-.218.132-.218.132a1.525,1.525,0,0,0,.261.044.552.552,0,0,0,.3-.176,2.189,2.189,0,0,0,.174-.571c0-.131-.213-.307-.3-.439a2.971,2.971,0,0,0-.523-.527,2.7,2.7,0,0,1-.523-.352,9.65,9.65,0,0,1-.7-.747.768.768,0,0,0,.139.308C88.415,13.264,88.5,13.449,88.546,13.664Z" transform="translate(0 -0.005)" style="fill:#fff"/><path d="M88.459,17.481c.087,0,.092-.044.131-.044a1.756,1.756,0,0,1,.3.439c.131.22.392.7.523.967a6.875,6.875,0,0,0,.436.967,3.7,3.7,0,0,0,.61.4.737.737,0,0,1,.3.4.646.646,0,0,1-.087.176h.348c.043,0,.13-.132.174-.264a1.292,1.292,0,0,0,.087-.4,2.847,2.847,0,0,0-.392-.7c-.087-.131-.653-.878-.827-1.142s-.653-.879-.74-1.011a4.124,4.124,0,0,0-.436-.439c-.087-.087-.348-.439-.348-.439l-.044.176c0,.087-.087.307-.087.439-.043.131-.174.483-.174.483S88.276,17.533,88.459,17.481Z" transform="translate(0 -0.005)" style="fill:#fff"/><path d="M92.848,19.949h.261a.371.371,0,0,0,.261-.132c.043-.044.043-.264.087-.352,0-.088.087-.132.131-.22.043-.044,0-.176-.044-.308a2.411,2.411,0,0,0-.566-.659c-.216-.176-.869-.835-1-.967s-1.132-1.186-1.35-1.318a.786.786,0,0,0-.61-.132c-.217.044-.3.22-.348.22h-.436a2.121,2.121,0,0,1-.566-.132s.261.4.388.651c.131.132.218.22.218.176s.087-.22.131-.22a1.959,1.959,0,0,1,.348.044,1.335,1.335,0,0,1,.61.4c.218.176.61.747.784.923.13.176.522.659.653.835a1.283,1.283,0,0,0,.525.443,2.89,2.89,0,0,1,.523.264.382.382,0,0,1,.174.308C93.022,19.861,92.848,19.949,92.848,19.949Z" transform="translate(0 -0.005)" style="fill:#fff"/><path d="M95.07,18.672h.254c.044,0,.218,0,.218-.088a1.246,1.246,0,0,1,.044-.352c.044-.088.174-.264.218-.352.087-.087-.174-.356-.261-.439s-.392-.264-.653-.483-1.219-.966-1.437-1.142a8.18,8.18,0,0,0-1.045-.791.883.883,0,0,0-.392-.088,1.386,1.386,0,0,0-.348.044.486.486,0,0,0-.3.176s0,.044-.174.044a2.3,2.3,0,0,1-.479-.132c-.043,0-.087.132-.087.22a.458.458,0,0,1-.044.176.813.813,0,0,0,.172.13l.044.044h.093c.044,0,.131-.132.131-.132s.169.044.3.088a3.03,3.03,0,0,1,.61.132,9.158,9.158,0,0,1,.74.615,12.942,12.942,0,0,0,1.089,1.011,6.9,6.9,0,0,0,.784.571,2.76,2.76,0,0,1,.523.308c.087.088.175.176.131.264C95.2,18.584,95.07,18.672,95.07,18.672Z" transform="translate(0 -0.005)" style="fill:#fff"/><path d="M97.67,17.187l.087-.176a2.816,2.816,0,0,0,.087-.308c.043-.088.174-.22.174-.352.039-.18-.087-.268-.261-.4a9.049,9.049,0,0,0-1.045-.659c-.349-.22-1.268-.791-1.568-.967-.305-.22-.784-.615-.871-.659a1.174,1.174,0,0,0-.392,0c-.087.044-.048.132-.174.22s-.174.088-.3.176-.126.044-.3.132a2.1,2.1,0,0,1-.523.044,1.058,1.058,0,0,0-.3.044v.176a.342.342,0,0,0,.044.136.58.58,0,0,1,.218.132c.087.088.13-.132.174-.132h.462a4.048,4.048,0,0,1,.7.176c.174.088.524.395.784.571s.782.571,1,.747a3.788,3.788,0,0,0,.784.483,3.184,3.184,0,0,1,.61.176c.174.088.261.176.261.308a.206.206,0,0,1-.087.22Z" transform="translate(0 -0.005)" style="fill:#fff"/><path d="M100.163,14.368c-.043-.131-.527-.307-.827-.439-.263-.091-1.221-.571-1.7-.791-.436-.22-1.35-.659-1.568-.791a1.285,1.285,0,0,0-.523-.088,1.345,1.345,0,0,1-.3-.088c-.044.044-.044.088-.044.22a2.155,2.155,0,0,1-.044.527c-.087.132-.348.132-.348.132s.175.044.221-.037a.369.369,0,0,1,.3,0,1.9,1.9,0,0,1,.392.22c.218.132.784.442,1.089.615s.876.524,1.176.7a2.653,2.653,0,0,0,.653.308,3.441,3.441,0,0,0,.653.132.424.424,0,0,1,.348.308.308.308,0,0,1-.087.176.757.757,0,0,0,.218-.044c.087-.044.261-.044.348-.088s0-.176-.044-.264a.587.587,0,0,1,.131-.308A.43.43,0,0,0,100.163,14.368Z" transform="translate(0 -0.005)" style="fill:#fff"/><path d="M101.949,13a.542.542,0,0,0-.218-.439c-.087-.132-.3-.137-.61-.264s-1-.395-1.394-.527c-.392-.176-1.525-.571-1.742-.659s-.653-.264-.74-.308a.841.841,0,0,0-.348-.044.684.684,0,0,1-.3,0c-.044.044,0,.132-.044.308l-.087.352s.217,0,.262.043a1.639,1.639,0,0,0,.348.22,5.78,5.78,0,0,0,1.045.439c.305.132,1.306.572,1.524.659s.745.307,1.045.439a1.062,1.062,0,0,1,.523.352c.131.132,0,.308,0,.308a1.209,1.209,0,0,0,.261-.044.414.414,0,0,0,.3-.088c.087-.044,0-.176,0-.22a1.748,1.748,0,0,1,.131-.176C101.993,13.267,101.949,13.223,101.949,13Z" transform="translate(0 -0.005)" style="fill:#fff"/><path d="M102.775,11.776c.131-.088.348-.176.392-.22a2.428,2.428,0,0,0,0-.571,1.615,1.615,0,0,0-.087-.659c-.084-.132-.349-.132-.784-.22s-1.088-.22-1.611-.352c-.476-.083-1.782-.439-2-.483a3.1,3.1,0,0,0-.566-.044c-.087,0-.261-.044-.348-.044a2.346,2.346,0,0,0-.044.527.671.671,0,0,1,.257.127,1.737,1.737,0,0,0,.392.308,2.283,2.283,0,0,0,.653.22c.218.048.915.268,1.307.4.437.131,1.176.351,1.437.439a1.465,1.465,0,0,1,.74.352.279.279,0,0,1,.044.308A1.816,1.816,0,0,1,102.775,11.776Z" transform="translate(0 -0.005)" style="fill:#fff"/><path d="M98.643,7.733v.176a.411.411,0,0,1,.3.17c.174.092.3.268.566.4.261.088.7.132,1.045.22s1.262.264,1.524.308.654.132.915.176a1.069,1.069,0,0,1,.479.176c.131.088,0,.352.087.308a2.955,2.955,0,0,0,.392-.264c.174-.132.348-.264.348-.352s-.044-.351-.044-.527c-.043-.175,0-.395-.261-.483-.131-.044-.653,0-.958-.044s-1.437-.176-1.873-.264a15.624,15.624,0,0,0-1.742-.22,1.549,1.549,0,0,0-.479,0C98.861,7.513,98.643,7.733,98.643,7.733Z" transform="translate(0 -0.005)" style="fill:#fff"/><path d="M104.66,7.214a1.6,1.6,0,0,0,.3-.4,4.072,4.072,0,0,0-.131-.4,2.858,2.858,0,0,1-.174-.571.436.436,0,0,0-.261-.352,3.764,3.764,0,0,0-.871.088c-.349.044-1.35.22-1.873.308s-1.394.22-1.655.264a5.885,5.885,0,0,1-.7.044v.087a1.841,1.841,0,0,0,.087.264.3.3,0,0,1,.182-.084c.043.044,0,0,.174.088a3.722,3.722,0,0,0,.915.132h1.524a7.882,7.882,0,0,1,1.524.132,1.032,1.032,0,0,1,.523.4.7.7,0,0,1,.044.4Z" transform="translate(0 -0.005)" style="fill:#fff"/><path d="M137.221,7.512c-.082-.267-.257-.879-.3-.967s-.043-.22-.174-.22a6.209,6.209,0,0,0-.784.044c-.345,0-1.434.044-2,.044-.524,0-3.571.088-4.224.088-.657.044-4.616.044-5.357.088s-3.92.044-4.573.044H116.02c-.566,0-4.094.044-4.66.044h-3.4c-.348.044-1.7,0-1.916.088a1.937,1.937,0,0,1-.479.044,2.22,2.22,0,0,0-.261.308c-.087.088-.479.527-.479.527s.175,0,.215.046c.126,0,.126.088.3.132a3.566,3.566,0,0,0,1.045.132c.347,0,1.524.088,2.047.132.566.044,3.833.264,4.486.308s3.789.22,4.442.264,3.352.22,4.224.264,3.4.176,4.4.22,3.136.088,3.876.132H133a7.269,7.269,0,0,0,1.35-.176c.436-.092,1.22-.312,1.481-.4a.788.788,0,0,1,.566-.132.634.634,0,0,1,.392.264c.087.088,0,.22,0,.22a.448.448,0,0,1,.174-.044,1.683,1.683,0,0,0,.479-.264c.044-.039-.043-.263-.043-.439A3.8,3.8,0,0,0,137.221,7.512Z" transform="translate(0 -0.005)" style="fill:#fff"/><path d="M133.7,10.546c-.218,0-.571.044-.871.044-.3.044-2,0-2.526,0s-3.574-.088-4.442-.132-3.568-.176-4.268-.22c-.653-.044-3.485-.22-4.181-.264s-4.226-.308-5.008-.352-3.308-.22-3.7-.264c-.435-.044-2-.132-2.308-.176s-1.742-.088-1.742-.088a.775.775,0,0,1-.044.22c-.043.131-.261.263-.479.439a4.033,4.033,0,0,1-.653.439.435.435,0,0,1,.177.087h1.219c.175,0,.479.088.915.132.436.092,2,.312,2.526.4.474.087,2.3.351,3,.439.654.088,3.223.439,4.007.527.784.127,3.048.4,4.137.527s3.489.395,4.355.483,2.613.22,3.266.264a24.77,24.77,0,0,0,2.482.132c.566,0,1.306-.088,1.742-.132s1.35-.264,1.481-.264a.511.511,0,0,1,.436.264.489.489,0,0,1-.044.308,1.879,1.879,0,0,0,.392-.264,3.024,3.024,0,0,0,.436-.923,8.446,8.446,0,0,0,.131-1.406C134.134,10.546,133.916,10.546,133.7,10.546Z" transform="translate(0 -0.005)" style="fill:#fff"/><path d="M129.911,14.235a7.761,7.761,0,0,0-1.219-.044c-.61,0-2.047-.088-2.7-.132-.7-.044-2.613-.22-3.136-.264-.566-.044-3.963-.439-4.529-.483s-3.611-.439-4.311-.527c-.653-.088-4.224-.572-4.747-.659s-2.439-.395-2.831-.439-1.654-.264-1.916-.264-.915-.044-.915-.044a.536.536,0,0,1,.044.22c0,.088-.044.132-.131.308s-.435.264-.653.352-.61.22-.61.22.13.088.445-.049a.641.641,0,0,0,.3-.044,5.663,5.663,0,0,1,.653-.22,1.646,1.646,0,0,1,.653.044c.218.044,1,.22,1.394.308.348.088,1.786.439,2.308.571s2.743.662,3.266.791,2.57.565,3.092.7,3.266.7,4.05.835c.779.171,2.613.483,3.179.571.569.136,2.133.356,2.569.4a6.786,6.786,0,0,0,1.176.132,5.541,5.541,0,0,0,1.176-.044,12.78,12.78,0,0,0,1.35-.132c.3-.044.827-.132.958-.132s.349.22.392.352c.088.131-.043.351-.043.351a.437.437,0,0,0,.218-.088,1.183,1.183,0,0,0,.3-.352,3.352,3.352,0,0,0,.261-.7c.044-.174.175-1.142.218-1.274C130.211,14.411,130.085,14.279,129.911,14.235Z" transform="translate(0 -0.005)" style="fill:#fff"/><path d="M124.766,17.8a12.836,12.836,0,0,0-1.394-.176c-.523-.044-2.657-.4-3.31-.483-.608-.088-4.442-.791-5.008-.923-.608-.132-3.134-.7-3.7-.791-.566-.132-3.7-.879-4.137-1.011s-3.18-.835-3.44-.879-.826-.176-1-.176a3.889,3.889,0,0,1-.566-.088l-.087.264v.483c0,.088-.087.132-.261.176s-.61.132-.784.176a2.7,2.7,0,0,1-.523.044s-.043.088-.01.131a.4.4,0,0,0,.261.176c.131.044.392.088.61.132a3.694,3.694,0,0,0,.7,0,2.314,2.314,0,0,1,.7.176c.3.088,2.09.747,2.7.967.654.22,2.047.66,3.136,1.055s2.831.878,3.876,1.186,2.526.659,3.571.923a36.156,36.156,0,0,0,3.57.659,16.963,16.963,0,0,0,2.526.22,6.782,6.782,0,0,1,.958,0,.578.578,0,0,1,.392.308c.044.132-.087.308-.087.308a1.283,1.283,0,0,1,.174-.132,3.034,3.034,0,0,0,.479-.527,4.954,4.954,0,0,0,.523-.923,4.832,4.832,0,0,0,.392-1.011C125.066,17.884,124.9,17.84,124.766,17.8Z" transform="translate(0 -0.005)" style="fill:#fff"/><path d="M117.885,20.748c-.345-.092-1.347-.268-2-.4-.61-.132-3.31-.791-3.876-.967-.566-.131-3.353-.966-3.876-1.142s-3.7-1.274-4.094-1.406-1.786-.659-2.178-.791a11.489,11.489,0,0,0-1.394-.4,3.739,3.739,0,0,0-1,.264c-.347.132-1,.308-1,.308v.223a1.76,1.76,0,0,1,.3.088,3.1,3.1,0,0,0,.61.22,7.657,7.657,0,0,1,.74.264,15.787,15.787,0,0,1,1.655.879c.435.223,1.263.615,1.829.923.566.262,2.265,1.143,2.744,1.362s2.221,1.01,2.787,1.23c.61.22,1.916.747,2.439.879a11.335,11.335,0,0,0,1.306.264,12.041,12.041,0,0,0,1.263,0h1.96c.348,0,.784-.044.958-.044a.873.873,0,0,1,.348.176.446.446,0,0,1,.174.308.33.33,0,0,1-.131.264,1.262,1.262,0,0,0,.436-.22,2.1,2.1,0,0,0,.348-.7c.087-.22.217-.615.261-.747a1.092,1.092,0,0,0,.043-.527C118.495,20.88,118.185,20.792,117.885,20.748Z" transform="translate(0 -0.005)" style="fill:#fff"/><path d="M111.228,23.506a10.648,10.648,0,0,1-1.176-.352c-.392-.132-1.088-.395-1.524-.571-.479-.175-2.134-.921-2.613-1.142s-1.829-.88-2.221-1.1c-.392-.176-2.223-1.143-2.657-1.362S99.2,18.013,98.9,17.837c-.347-.175-.869-.395-1-.439a1.475,1.475,0,0,0-.74.132c-.215.044-.915.22-.915.22h0a.178.178,0,0,0,.129.216c.044.132.218.177.392.264s.652.263.827.351.61.439.915.659,1.045.792,1.35,1.011,2.351,1.669,2.787,1.977c.479.308,1.915,1.186,2.352,1.45s1.308.7,1.7.879a4.611,4.611,0,0,0,1.178.3c.479.088,1.132.176,1.524.22a8.515,8.515,0,0,0,.915.044.779.779,0,0,1,.392.176.609.609,0,0,1,.218.4.718.718,0,0,1-.131.264h.087a.956.956,0,0,0,.261-.22,2.124,2.124,0,0,0,.392-.615c.087-.179.261-.7.348-.879a.537.537,0,0,0,.044-.439C111.881,23.682,111.489,23.594,111.228,23.506Z" transform="translate(0 -0.005)" style="fill:#fff"/><path d="M104.479,25c-.392-.223-1.132-.659-1.524-.923s-1.873-1.274-2.221-1.494c-.308-.22-1.958-1.407-2.308-1.67s-1.439-1.1-1.7-1.318a4.936,4.936,0,0,0-.958-.615,1.136,1.136,0,0,0-.523-.044,4.288,4.288,0,0,0-.653.132h-.566a.537.537,0,0,0-.038.22.375.375,0,0,0,0,.308c.087.088.174.088.261.176a6.93,6.93,0,0,1,.566.571c.131.175.963.878,1.263,1.186.3.264,1.176,1.05,1.568,1.45.392.351,1.133,1.054,1.481,1.362.307.307,1.046.966,1.307,1.186a2.893,2.893,0,0,0,1.045.439c.392.131,1.529.4,1.829.483a4.674,4.674,0,0,1,.915.22.9.9,0,0,1,.3.439c.043.132-.131.308-.131.308s.043,0,.174-.088a3.939,3.939,0,0,0,.392-.439,6.541,6.541,0,0,0,.523-.879c.13-.263,0-.351-.131-.483A5.536,5.536,0,0,0,104.479,25Z" transform="translate(0 -0.005)" style="fill:#fff"/><path d="M99.077,25.967a14.428,14.428,0,0,1-1.132-1.011c-.392-.351-1.612-1.493-1.96-1.845s-1.568-1.45-1.829-1.714a3.452,3.452,0,0,1-.74-.879c-.131-.22-.218-.308-.479-.308a1.79,1.79,0,0,0-.653.088h-.653a.441.441,0,0,1-.044.176l-.087.308a.547.547,0,0,1,.085.129c.13.088.13.131.261.264s.566.705.871,1.1.828,1.142,1.089,1.45.958,1.23,1.132,1.45c.218.218,1,1.186,1.176,1.318a5.506,5.506,0,0,0,1.132.483c.3.087,1,.307,1.176.351a1.031,1.031,0,0,1,.392.352c.044.088-.087.308-.087.308a4.778,4.778,0,0,0,.436-.351,2.671,2.671,0,0,0,.436-.615c.088-.131.131-.351.044-.439A3.64,3.64,0,0,0,99.077,25.967Z" transform="translate(0 -0.005)" style="fill:#fff"/><polygon points="89.06 21.085 89.064 21.085 89.064 21.081 89.06 21.085" style="fill:#fff"/><path d="M94.339,28.3a1.143,1.143,0,0,0,.348-.264,1.913,1.913,0,0,0,.3-.351c.087-.088.175-.176.131-.264s-.3-.483-.392-.615a8.868,8.868,0,0,0-.7-.835c-.217-.264-.871-1.143-1.132-1.494-.258-.307-.829-1.1-.958-1.274s-.956-1.318-1-1.45a1.191,1.191,0,0,0-.218-.483.4.4,0,0,0-.348-.132,2.755,2.755,0,0,0-.61,0c-.26,0-.684-.042-.7-.044v.348a.732.732,0,0,1,.218.088,1.39,1.39,0,0,1,.218.132,1.58,1.58,0,0,1,.35.52,7.252,7.252,0,0,1,.087.967,1.5,1.5,0,0,0,.218.615c.175.308.741,1.363.915,1.714a10.883,10.883,0,0,0,.7,1.142,1.865,1.865,0,0,0,.61.352,10.186,10.186,0,0,0,1.045.4,6.077,6.077,0,0,1,.74.4.348.348,0,0,1,.218.308C94.339,28.164,94.295,28.3,94.339,28.3Z" transform="translate(0 -0.005)" style="fill:#fff"/><path d="M90.15,28.649a.778.778,0,0,0,.218-.351,1.622,1.622,0,0,0,.261-.615c.043-.22-.131-.439-.218-.659-.13-.219-.522-.878-.653-1.142s-.392-.615-.479-.791c-.131-.176-.392-.659-.392-.659L88.8,24.9c-.043.132-.174.659-.174.659a.326.326,0,0,1,.131.132,1.336,1.336,0,0,1,.131.4,1.386,1.386,0,0,1-.044.835.544.544,0,0,0-.044.439c0,.136.392.312.566.4a1.586,1.586,0,0,1,.392.352.657.657,0,0,1,.174.4.461.461,0,0,1-.131.264A.549.549,0,0,0,90.15,28.649Z" transform="translate(0 -0.005)" style="fill:#fff"/><path d="M87.448,28.2s-.392.615-.61.923a19.191,19.191,0,0,1-1.263,1.494c-.3.308-1.089,1.05-1.568,1.45a16.505,16.505,0,0,1-1.524,1.1,21.625,21.625,0,0,1-1.96,1.1l-1.307.571c-.347.136-1,.4-1,.4a.445.445,0,0,1,.05.134.843.843,0,0,0,.3.044c.131,0,.174.044.392.132a.768.768,0,0,1,.523.439c.129.176.826,1.363,1,1.714s.653,1.186.74,1.318.174.264.348.264a1.461,1.461,0,0,0,.523-.176c.175-.087.61-.307.915-.439s1.35-.659,1.742-.879A8.759,8.759,0,0,0,86.143,37l1.524-.967c.3-.18.739-.268,1-.4a8.981,8.981,0,0,0,1.089-.967,19.388,19.388,0,0,0,1.7-2.065c.3-.44.958-1.45,1.089-1.714a11.872,11.872,0,0,0,.653-1.274,1.89,1.89,0,0,0,.218-.571c0-.132-.043-.176-.174-.308a5.414,5.414,0,0,0-.784-.264l-.958-.351c-.223-.088-.523-.22-.523-.22s-.087.219-.131.351a2.206,2.206,0,0,1-.348.615.718.718,0,0,1-.523.22,1.868,1.868,0,0,1-.7-.044,4.246,4.246,0,0,1-1-.4Z" transform="translate(0 -0.005)" style="fill:#fff"/><path d="M81.046,41.035c-.087-.176-.217-.439-.348-.659s-.7-1.142-.871-1.45c-.131-.308-.7-1.23-.871-1.582-.174-.308-.74-1.318-.784-1.45a3.864,3.864,0,0,0-.261-.439.406.406,0,0,0-.392-.044,8.207,8.207,0,0,0-.784.264c-.261.088-.827.22-.827.22l.131.262h.174a2.426,2.426,0,0,0,.3.044,1.514,1.514,0,0,1,.566.439,10.525,10.525,0,0,1,.566,1.318c.174.439.7,1.709.827,2.109.134.352.569,1.45.7,1.758a1.186,1.186,0,0,0,.392.483,6.371,6.371,0,0,1,.61.264.992.992,0,0,1,.348.483,3.3,3.3,0,0,1,.131.659s.3-.568.392-.7c.044-.132.392-.747.436-.879a.451.451,0,0,0-.087-.4Z" transform="translate(0 -0.005)" style="fill:#fff"/><path d="M95.424,27.726l-.087.132c-.087.088-.3.351-.479.527a1.81,1.81,0,0,1-.61.483,1.214,1.214,0,0,1-.348.044l.006.264-.087.264a1.805,1.805,0,0,0,.261.088c.043,0,.043.132.087.264a3.855,3.855,0,0,1-.261.659,17.037,17.037,0,0,1-1.045,1.8,7.212,7.212,0,0,1-.871,1.011c-.218.22-1.176,1.143-1.394,1.406s-1.393,1.445-1.829,1.845a24.984,24.984,0,0,1-2.047,1.538c-.479.351-1.437.878-1.873,1.142-.479.263-2.047,1.01-2.439,1.186-.349.175-1.089.483-1.089.483l.087.132s.217-.044.261-.044a1.139,1.139,0,0,1,.3.044,2.445,2.445,0,0,0,.566,0c.174-.044.963-.439,1.263-.571.3-.176,1.181-.571,1.481-.747.261-.175,1.524-.922,1.916-1.142a30.437,30.437,0,0,0,2.613-1.8c.261-.264,1.394-1.362,1.655-1.67.262-.351,1.181-1.489,1.481-1.889.261-.439,1-1.581,1.176-1.889.13-.308.609-1.186.74-1.494s.349-.879.392-1.055.261-.879.261-.923S95.424,27.726,95.424,27.726Z" transform="translate(0 -0.005)" style="fill:#fff"/><path d="M77.607,41.086c-.131-.352-.784-1.973-.915-2.373-.127-.442-.74-1.936-.827-2.2a3.829,3.829,0,0,0-.218-.527,1.791,1.791,0,0,0-.566-.044,7.453,7.453,0,0,0-.915.308,2.508,2.508,0,0,1-.436.044l.1.351h.392a1.546,1.546,0,0,1,.523.439,3.6,3.6,0,0,1,.3.967c.087.352.436,2.022.523,2.373s.348,1.538.479,1.977a1.044,1.044,0,0,0,.348.615c.13.131.435.219.566.351.169.083.256.4.3.483a1.043,1.043,0,0,1-.087.352.92.92,0,0,0,0,.352s.522-.659.653-.879a6.41,6.41,0,0,0,.392-.7,1.962,1.962,0,0,0-.131-.659C78.043,42.141,77.738,41.438,77.607,41.086Z" transform="translate(0 -0.005)" style="fill:#fff"/><path d="M74.124,39.632c-.044-.264-.479-2.153-.523-2.329-.044-.22-.087-.659-.131-.791-.044-.176-.262-.22-.523-.22a3.639,3.639,0,0,0-.784.132,4.167,4.167,0,0,1-.523.088l-.084.341a.577.577,0,0,1,.218.044c.136,0,.262.088.436.264a1.117,1.117,0,0,1,.261.659c.044.217.174,1.846.218,2.417s.174,2.328.218,2.68a.7.7,0,0,0,.218.571c.13.136.435.268.566.4a1.229,1.229,0,0,1,.3.571.593.593,0,0,1-.218.4.658.658,0,0,0,0,.308s.569-.7.7-.835c.131-.176.435-.571.479-.615v-.351c0-.131-.174-.835-.218-1.142S74.168,39.9,74.124,39.632Z" transform="translate(0 -0.005)" style="fill:#fff"/><path d="M71.467,39.762c0-.264-.131-1.845-.131-2.153s-.044-.835-.044-.967c-.044-.132-.349-.22-.61-.22a2.819,2.819,0,0,0-.74.088h-.479l-.037.438s.17.044.3.088.261.307.348.483a3.517,3.517,0,0,1,0,1.186c-.043.44-.13,1.8-.174,2.373s-.131,1.98-.131,2.2a.722.722,0,0,0,.3.527,7.845,7.845,0,0,1,.61.659.367.367,0,0,1-.087.352,2.4,2.4,0,0,0-.174.351s.569-.483.7-.615l.61-.615v-.352c0-.176-.043-.967-.087-1.406C71.6,41.783,71.467,40.026,71.467,39.762Z" transform="translate(0 -0.005)" style="fill:#fff"/><path d="M68.854,36.38a2.279,2.279,0,0,0-.566-.044c-.262,0-.392.044-.523.044h-.436l-.219.436a.431.431,0,0,1,.174.044c.087.044.087.044.218.176a.838.838,0,0,1,.174.527,11.154,11.154,0,0,1-.261,1.274l-.436,1.977c-.088.395-.349,1.537-.436,1.889a.849.849,0,0,0,.087.747,2.5,2.5,0,0,0,.61.571c.218.088.305.088.392.176.087.044.087.176.218.132a3.542,3.542,0,0,0,.523-.352.154.154,0,0,0,.044-.088,3.463,3.463,0,0,0,.131-.615,8.026,8.026,0,0,0,.131-1.011c.043-.262.087-1.191.087-1.362s.174-2.236.218-2.5c.044-.308.131-1.318.131-1.582C69.154,36.512,69.028,36.424,68.854,36.38Z" transform="translate(0 -0.005)" style="fill:#fff"/><path d="M66.849,36.337c-.043-.088-.392-.176-.653-.22a1.782,1.782,0,0,0-.653-.044c-.136,0-.436-.044-.436-.044l-.171.524a.152.152,0,0,0,.087.044c.044-.044.131,0,.218.088a1.025,1.025,0,0,1,.174.439,3.314,3.314,0,0,1-.3.967c-.127.355-.7,1.849-.827,2.2s-.74,1.845-.784,2.109a.931.931,0,0,0,.087.659.69.69,0,0,0,.436.439c.136.044.3-.088.436-.088a.343.343,0,0,1,.3.22c.044.088-.087.264-.087.264l.174-.088c.092-.044.392-.176.392-.22a2.345,2.345,0,0,0,.218-.615c.039-.176.256-1.1.3-1.362.087-.264.436-1.8.523-2.153s.523-2.328.61-2.592A.945.945,0,0,0,66.849,36.337Z" transform="translate(0 -0.005)" style="fill:#fff"/><path d="M64.455,36.646c.131-.3.262-.564.218-.7s-.349-.312-.61-.4a3.268,3.268,0,0,0-.653-.044,1.34,1.34,0,0,1-.436-.088l-.43.7a.431.431,0,0,1,.174.044c.087.044.087.088.131.22.044.092,0,.224-.087.4-.043.131-.479.879-.653,1.186s-.958,1.625-1.089,1.845c-.175.22-.828,1.446-.915,1.626s0,.312,0,.4a6.276,6.276,0,0,0,.3.615c.088.132.262.132.436.088a.712.712,0,0,1,.392-.088,1.177,1.177,0,0,1,.348.308.34.34,0,0,1-.044.264l.392-.132.174-.352c.087-.219.391-.922.479-1.142s.784-1.933.915-2.285C63.671,38.711,64.324,36.946,64.455,36.646Z" transform="translate(0 -0.005)" style="fill:#fff"/><path d="M70.29,8.258c-10.5,0-18.422,6.5-18.422,13.931,0,7.381,7.922,13.928,18.422,13.928s18.421-6.548,18.421-13.929S80.786,8.258,70.29,8.258Zm0,27.244c-10.626,0-17.812-6.679-17.812-13.313S59.707,8.876,70.29,8.876c10.626,0,17.81,6.682,17.81,13.313S80.873,35.5,70.29,35.5Z" transform="translate(0 -0.005)" style="fill:#fff"/><path d="M70.29,8.876c-10.583,0-17.812,6.679-17.812,13.313S59.664,35.5,70.29,35.5c10.583,0,17.81-6.682,17.81-13.313S80.916,8.876,70.29,8.876Zm.7,23.638c-7.143.044-11.454-3.164-11.454-3.823,0-.615,1.263-1.274,1.263-1.845V17.532h0c0-.482-1.35-.7-1.35-1.582s4.05-4.262,10.757-4.35c5.527-.087,9.752,2.109,10.1,5.229.175,1.713-.348,3.163-2.874,4.613h0a5.953,5.953,0,0,1,3.488,5.184C80.877,29.834,77.262,32.47,70.991,32.514Z" transform="translate(0 -0.005)"/><path d="M70.643,22.451c-2.352,0-4.791.7-4.791,4.306s2.479,4.218,4.7,4.218h.174c2.308,0,4.486-1.054,4.49-4.219C75.216,23.286,72.864,22.451,70.643,22.451Z" transform="translate(0 -0.005)"/><path d="M70.247,13.225c-2.308.044-4.224,1.187-4.268,3.91,0,3.031,1.916,3.91,4.268,3.91,2.482,0,4.268-.966,4.268-3.91C74.515,14.28,72.773,13.225,70.247,13.225Z" transform="translate(0 -0.005)"/><path d="M77.433,21.442h0c2.526-1.45,3.049-2.9,2.874-4.613-.348-3.12-4.573-5.316-10.1-5.229-6.707.088-10.757,3.471-10.757,4.35s1.35,1.1,1.35,1.582h0v9.314c0,.571-1.263,1.23-1.263,1.845,0,.659,4.311,3.867,11.454,3.823,6.271-.044,9.886-2.68,9.93-5.888A5.953,5.953,0,0,0,77.433,21.442Zm-7.186-.4c-2.352,0-4.268-.879-4.268-3.91.044-2.723,1.96-3.866,4.268-3.91,2.526,0,4.268,1.055,4.268,3.91C74.515,20.079,72.729,21.045,70.247,21.045Zm.479,9.931h-.174c-2.221,0-4.7-.615-4.7-4.218s2.439-4.306,4.791-4.306c2.221,0,4.573.835,4.573,4.306C75.212,29.922,73.034,30.976,70.726,30.976Z" transform="translate(0 -0.005)" style="fill:#fff"/></svg>