<svg xmlns="http://www.w3.org/2000/svg" width="320" height="39" viewBox="0 0 320 39"><title>chevrolet-logo</title><path d="M103.283,7.9h-30.1c-.826,0-1.3-.239-1.3-1.316V2.034A1.818,1.818,0,0,0,69.878,0H35.529c-1.3,0-1.889.718-1.889,2.034V6.58c0,.957-.472,1.316-1.3,1.316H12.63A2.881,2.881,0,0,0,9.8,9.571L.236,28.592A1.747,1.747,0,0,0,0,29.43,1.647,1.647,0,0,0,1.771,31.1H32.224c.944,0,1.3.479,1.3,1.316v4.546A1.872,1.872,0,0,0,35.529,39H70A1.782,1.782,0,0,0,72,37.086V32.54c0-.957.354-1.316,1.3-1.316H92.423a3.031,3.031,0,0,0,2.951-1.555l9.443-18.782a1.685,1.685,0,0,0,.354-1.077A1.853,1.853,0,0,0,103.283,7.9Zm-7.555,7.537-4.6,9.092a1.3,1.3,0,0,1-1.18.6H67.281c-.944,0-1.3.479-1.3,1.316V31.7c0,.837-.354,1.316-1.3,1.316H40.959c-.826,0-1.3-.239-1.3-1.316V26.439c0-.957-.472-1.316-1.3-1.316H10.505a1.1,1.1,0,0,1-1.18-1.077.727.727,0,0,1,.118-.479l4.6-9.092c.118-.359.472-.6,1.18-.6H38.362c.826,0,1.3-.359,1.3-1.316V7.3c0-.957.354-1.316,1.3-1.316H64.8c.826,0,1.3.359,1.3,1.316v5.264c0,.837.354,1.316,1.3,1.316H94.784a1.094,1.094,0,0,1,1.18,1.077C95.846,15.193,95.846,15.313,95.728,15.432Z" transform="translate(0 0)" style="fill:#fff"/><path d="M159.349,16.573H151.2V5.566h-5.666v27.4H151.2V20.76h8.145v12.2H164.9V5.566h-5.548Z" transform="translate(0 0)" style="fill:#fff"/><path d="M293.914,5.566V9.754h7.672V32.962h5.666V9.754h7.554V5.566Z" transform="translate(0 0)" style="fill:#fff"/><path d="M264.167,5.566H258.5v27.4h16.053V28.775H264.049Z" transform="translate(0 0)" style="fill:#fff"/><path d="M199.6,28.416a.545.545,0,0,1-.59.359.648.648,0,0,1-.59-.359l-5.9-22.85h-6.61l6.846,25a2.735,2.735,0,0,0,2.951,2.393H200.9a2.913,2.913,0,0,0,2.951-2.393l6.61-25H205.5Z" transform="translate(0 0)" style="fill:#fff"/><path d="M126.535,9.871V28.653c0,2.991,1.534,4.307,4.249,4.307h12.63V28.773h-9.089c-1.534,0-2.125-.359-2.125-2.153V11.785c0-1.675.354-2.034,2.007-2.034H143.3V5.564h-12.63C127.951,5.564,126.535,7.12,126.535,9.871Z" transform="translate(0 0)" style="fill:#fff"/><path d="M173.987,26.622V20.64H185.2V16.453H173.987V11.787c0-1.555.354-2.034,2.007-2.034H185.2V5.566H172.452C169.5,5.566,168.2,7,168.2,9.873V28.655q0,4.307,4.249,4.307h13.928V28.775H175.993C174.459,28.775,173.987,28.416,173.987,26.622Z" transform="translate(0 0)" style="fill:#fff"/><path d="M226.867,21.354c2.6,0,4.249-1.2,4.249-4.307V9.75c0-2.871-1.3-4.307-4.249-4.307h-15.7v27.4h5.666V9.63h6.61c1.771,0,2.007.479,2.007,2.034v3.35c0,1.675-.472,2.153-2.125,2.153h-3.069a1.749,1.749,0,0,0-1.889,1.914,2.644,2.644,0,0,0,.59,1.436l7.082,12.322H233l-7.436-11.6Z" transform="translate(0 0)" style="fill:#fff"/><path d="M250.829,5.566H238.435c-2.951,0-4.249,1.555-4.249,4.307V28.655c0,3.11,1.653,4.307,4.249,4.307h12.394c2.715,0,4.249-1.316,4.249-4.307V9.873C255.079,7,253.78,5.566,250.829,5.566Zm-3.423,23.209h-5.43c-1.653,0-2.125-.478-2.125-2.153V11.787c0-1.436.236-2.034,2.007-2.034h5.43c1.416,0,2.007.239,2.007,2.034V26.622C249.413,28.416,248.941,28.775,247.406,28.775Z" transform="translate(0 0)" style="fill:#fff"/><path d="M281.282,26.622V20.64H292.5V16.453H281.282V11.787c0-1.555.354-2.034,2.007-2.034H292.5V5.566H279.747C276.8,5.566,275.5,7,275.5,9.873V28.655q0,4.307,4.249,4.307h13.928V28.775H283.288C281.872,28.775,281.282,28.416,281.282,26.622Z" transform="translate(0 0)" style="fill:#fff"/><path d="M319.054,7.12c0-.479-.354-.6-.708-.6H317.4V8.675h.354V7.718h.354l.59.957h.354l-.59-.957A.636.636,0,0,0,319.054,7.12Zm-.826.359h-.59V6.761h.59c.236,0,.472,0,.472.359C318.7,7.239,318.581,7.479,318.227,7.479Z" transform="translate(0 0)" style="fill:#fff"/><path d="M318.112,5.684A1.914,1.914,0,1,0,320,7.6,1.954,1.954,0,0,0,318.112,5.684Zm0,3.469a1.532,1.532,0,0,1-1.534-1.675,1.535,1.535,0,1,1,3.069,0A1.6,1.6,0,0,1,318.112,9.153Z" transform="translate(0 0)" style="fill:#fff"/></svg>