<svg xmlns="http://www.w3.org/2000/svg" width="211" height="80" viewBox="0 0 211 80"><title>ford-logo</title><path d="M105.556,80C163.748,80,211,62.147,211,40c0-22.034-47.252-40-105.444-40C47.252.113,0,17.966,0,40.113,0,62.147,47.252,80,105.556,80Z" transform="translate(0 0)" style="fill:#345c9a"/><path d="M105.556,75.931C49.62,75.931,4.172,60,4.172,40.112S49.62,4.066,105.556,4.066c56.048,0,101.5,16.158,101.5,36.045S161.6,75.931,105.556,75.931Z" transform="translate(0 0)" style="fill:#fff"/><path d="M105.555,73.108c54.244,0,98.226-14.8,98.226-33.107,0-18.192-43.982-32.994-98.226-32.994S7.329,21.808,7.329,40C7.329,58.305,51.311,73.108,105.555,73.108Z" transform="translate(0 0)" style="fill:#345c9a"/><path d="M131.269,46.666c4.624-4.407,7.217-8.927,13.871-8.814,4.06.113,5.075,3.277,5.752,4.633l8.8-14.915H165.1L150.44,53.446a7.421,7.421,0,0,0-.9,2.373c.113,1.243,1.8.9,1.128.9,2.932-.113,8.345-5.763,9.586-7.119.226-.339.789-.9,1.015-.9s.789.226.789.678a6.146,6.146,0,0,1-1.128,1.921c-2.706,3.39-7.217,8.7-12.292,8.814-2.481,0-3.5-1.017-3.834-3.051-1.128,1.017-5.075,2.825-9.135,2.825a5.579,5.579,0,0,1-5.413-3.616,8.255,8.255,0,0,1-.451-5.085,11.148,11.148,0,0,1-5.977,1.017c-2.819-.113-4.624-1.356-5.526-4.746-3.27,5.989-3.383,6.215-6.766,12.429h-5.751l7.443-12.655a17.957,17.957,0,0,0,1.8-4.52,1.288,1.288,0,0,0-1.241-1.582c-.9,0-2.481.9-4.06,2.373a76.082,76.082,0,0,0-6.654,8.249c-2.706,3.955-7.217,8.475-12.18,8.475-3.609,0-6.879-1.921-7.556-5.763,0,0-.338.9-3.5,2.712-.226.113-.9.565-1.128.452A3.957,3.957,0,0,1,77.7,55.932c.226.113.564-.226,1.917-1.243a9.311,9.311,0,0,0,3.045-3.39c.564-1.243,1.692-3.39,2.481-4.746,2.03-4.068,5.526-8.248,11.39-8.474A1.561,1.561,0,0,1,98,38.87a1.249,1.249,0,0,1,.338,1.243,13.029,13.029,0,0,0-8.571,5.311A15.223,15.223,0,0,0,87.4,51.186c-.451,3.051,1.015,5.085,3.158,5.537,3.947.565,7.218-2.26,9.811-6.667a15.425,15.425,0,0,0,1.128-5.763,6.739,6.739,0,0,0-1.579-4.068A1.787,1.787,0,0,1,101.5,38.3a1.072,1.072,0,0,1,.789.226,9.174,9.174,0,0,1,2.143,5.876,12.3,12.3,0,0,1-.113,2.034c2.819-3.5,6.428-8.023,9.247-8.814a4.1,4.1,0,0,1,1.579-.226c5.075-.113,4.4,4.52,4.4,4.52,2.707-3.164,4.624-4.294,7.1-4.181a3.546,3.546,0,0,1,3.722,3.5,3.832,3.832,0,0,1-3.609,3.842,3.476,3.476,0,0,1-3.722-2.712c-1.24.452-1.917,1.356-2.143,3.164a3.381,3.381,0,0,0,3.5,4.068A8.75,8.75,0,0,0,131.269,46.666Z" transform="translate(0 0)" style="fill:#fff"/><path d="M135.33,17.289c0,2.147-7.669,6.328-14.1,6.328-10.037,0-20.525-4.859-25.374-5.876-5.188-1.243-10.037-2.26-13.758-2.26-13.082,0-18.946,5.65-18.72,10.848.113,2.147,1.8,3.5,4.4,3.051,2.707-.452,6.541-3.051,7.443-5.311.226-.452.789-.565.9-.452a.637.637,0,0,1,.226.791c-.338,2.712-4.4,10.056-11.5,10.056-3.947,0-6.654-3.729-6.541-7.345.113-6.78,6.992-13.559,23.908-13.559a63.147,63.147,0,0,1,10.713.9c4.511.791,15.9,2.712,25.149,2.825a75.923,75.923,0,0,0,11.277-.452c3.721-.565,2.932-.791,4.4-.791C135.33,16.272,135.33,16.724,135.33,17.289Z" transform="translate(0 0)" style="fill:#fff"/><path d="M145.479,41.015c-2.368-.226-5.413,1.808-7.781,4.746a14.753,14.753,0,0,0-2.707,6.1c-.226,1.695.226,3.39.789,3.842s3.383,1.921,7.556-2.373A39.689,39.689,0,0,0,148.073,47l-.789-.226C148.637,44.292,148.411,41.354,145.479,41.015Z" transform="translate(0 0)" style="fill:#345c9a"/><path d="M95.746,32.994c0,.791,1.015,1.356,1.917,1.469-.226.791-.113,1.13-.451,1.017a3.209,3.209,0,0,1-2.819-1.921c-2.707.452-5.413.791-10.714,1.356C70.146,56.836,65.974,60.452,57.629,60.452c-5.864,0-11.165-3.842-11.277-10.847-.113-4.181,3.383-9.378,9.7-10.96.789,0,1.015.226,1.015.678,0,.226-.226.565-.9.9-1.8.678-5.075,4.294-5.075,7.684,0,2.486,1.579,5.311,4.173,5.876A7.012,7.012,0,0,0,57.4,53.9c6.654,0,13.984-7.458,21.991-18.757-1.24.113-6.766.678-8.12,2.26-.564.452-1.015.226-1.128-.339a3.223,3.223,0,0,1,.451-.9c2.143-2.486,8.684-3.051,10.263-3.164C86.95,23.616,94.844,17.74,96.536,17.74a.792.792,0,0,1,.564,1.13c-.113.113-.789.9-1.015,1.13A42.176,42.176,0,0,0,85.033,32.768c4.06-.226,8.8-1.017,8.8-1.017A8.032,8.032,0,0,1,93.6,30.17c.226-2.938,1.917-4.746,4.06-4.407a2.41,2.41,0,0,1,2.03,2.373,6.446,6.446,0,0,1-1.8,3.729A13.262,13.262,0,0,0,95.746,32.994Z" transform="translate(0 0)" style="fill:#fff"/><path d="M95.407,31.524s.677.113,1.692-1.13a3.09,3.09,0,0,0,.9-2.486c-.113-.452-.226-.9-.789-.791a2.292,2.292,0,0,0-1.917,1.695A5.331,5.331,0,0,0,95.407,31.524Z" transform="translate(0 0)" style="fill:#345c9a"/></svg>