<svg xmlns="http://www.w3.org/2000/svg" width="320" height="56" viewBox="0 0 320 56"><title>lexus-logo</title><path d="M306.824,26.563H283.38a6.159,6.159,0,0,1,6.16-5.752h27.722V15.228h-28.92c-11.465,0-16.256,8.628-16.256,16.918h32.342c1.027,0,3.765.169,3.765,2.876s-2.225,2.876-6.161,3.045H268.321V15.059H258.4V37.9h-19c-5.647,0-6.332-4.23-6.332-6.429V15.059H214.93L200.214,24.7l-13.348-9.644H148.192c-11.465,0-18.481,7.952-19.508,14.888h8.043a18.208,18.208,0,0,0-6.674,7.952H107.465c-5.647,0-6.332-4.23-6.332-6.429V15.059H91.208V30.624c0,10.659,7.529,12.858,11.294,12.858h79.23l14.888-9.813,13.519,9.813h15.572L204.834,28.255,221.946,16.92V31.977c0,9.643,9.583,11.5,12.15,11.5h72.385c3.594,0,13.519-.508,13.519-8.29S312.984,26.563,306.824,26.563ZM180.363,37.9H143.058c.342-2.876,3.594-5.752,7.187-5.752h22.075V26.563H142.2c.342-2.876,3.594-5.752,7.187-5.752h25.155V17.6L192,30.454Z" transform="translate(0 0)" style="fill:#fff"/><path d="M39.358,56C52.364,56,64,51.432,71.016,44.5h-6.5c-6.16,5.076-15.059,8.29-25.155,8.29-18.824,0-33.54-11.166-33.54-24.87,0-15.734,14.717-24.87,33.54-24.87,1.2,0,2.225.508,1.369,1.523-3.936,4.737-15.059,19.625-17.112,22.84C19.679,33.837,19.679,41.789,29.6,42.3H71.016c2.054,0,2.567-1.015,3.423-2.03a20.734,20.734,0,0,0,4.107-12.52c0-11.843-8.385-20.64-20.706-24.87L55.957,5.752C66.225,9.474,73.07,17.088,73.07,27.915a18.871,18.871,0,0,1-.856,5.414c-.513,1.523-1.369,2.876-3.08,2.876H36.278c-4.278,0-2.567-4.23-1.027-6.429,2.225-4.06,14.717-20.81,17.626-23.855.684-1.184,2.909-3.553,0-4.4A58.035,58.035,0,0,0,39.358,0C17.626,0,0,11,0,27.915,0,45.172,17.626,56,39.358,56Z" transform="translate(0 0)" style="fill:#fff"/></svg>