<svg xmlns="http://www.w3.org/2000/svg" width="320" height="65" viewBox="0 0 320 65"><title>mercedes-benz-logo</title><path d="M33.521,32.5l1.368-.846L53.361,44.18Z" transform="translate(0 0)" style="fill:#fff"/><path d="M32.5,31.823l-1.368-.846L32.667,7.109Z" transform="translate(0 0)" style="fill:#fff"/><path d="M30.786,31.654l-6.157,5.078L31.983,32.5Z" transform="translate(0 0)" style="fill:#fff"/><path d="M32.838,0A32.679,32.679,0,0,0,0,32.5a32.84,32.84,0,0,0,65.676,0A32.788,32.788,0,0,0,32.838,0Zm0,63.477A30.24,30.24,0,0,1,13,56.367,31.343,31.343,0,0,1,2.908,37.409,30.254,30.254,0,0,0,32.838,62.461,30.065,30.065,0,0,0,63.111,32.5a31.146,31.146,0,0,0-6.5-18.62c3.934,3.047,7.354,11.68,7.354,18.62A31.116,31.116,0,0,1,32.838,63.477ZM29.931,30.3,32.667,3.216h.171l.342,28.437L37.8,28.945,33.18,3.216A29.519,29.519,0,0,1,62.6,32.5a28.482,28.482,0,0,1-3.763,14.219l-20.524-17.1L36.43,30.638l22.405,16.25c0,.169-.171.169-.171.339L33.522,32.839v5.078L58.493,47.4a29.946,29.946,0,0,1-50.967,0L32.5,37.747V32.669L7.354,47.057c0-.169-.171-.169-.171-.339L29.417,30.638l-1.881-1.016L7.012,46.549A28.482,28.482,0,0,1,3.25,32.331a29.41,29.41,0,0,1,28.9-29.284l-3.934,25.9ZM32.838,1.862A30.864,30.864,0,0,0,1.71,32.669c0,6.94,2.565,13.372,6.328,19.128a30.8,30.8,0,0,0,4.618,5.924A32.1,32.1,0,0,1,.513,32.669,32.243,32.243,0,0,1,32.838.677c17.787,0,32.667,14.9,31.983,31.992C64.479,15.911,49.77,1.862,32.838,1.862Z" transform="translate(0 0)" style="fill:#fff"/><path d="M177.36,34.87c0-5.755-2.566-10.326-8.21-10.326-5.131,0-8.21,4.57-8.21,10.326s2.394,10.325,8.21,10.325c5.473,0,7.183-2.708,8.038-7.109h-1.881c-.171,1.523-1.2,5.247-5.3,5.247-4.618.169-4.96-5.755-4.789-8.633V33.178c0-1.693-.171-6.94,4.1-6.94,3.421,0,3.934,4.4,3.934,6.94h-8.038V34.7H177.36Z" transform="translate(0 0)" style="fill:#fff"/><path d="M81.24,17.266V18.62h1.2c.855,0,2.052,0,2.052,1.185l-.513,21.836c0,.846-.342,1.693-2.052,1.693h-1.2v1.354h8.21V43.333H87.568c-1.026,0-1.71-.338-1.71-1.693L86.2,20.82l8.723,22.513h.855l8.894-22.682.342,21.159a1.861,1.861,0,0,1-1.881,1.693h-1.71v1.354h10.262V43.5h-1.2c-.855,0-1.881-.508-1.881-1.524l-.342-21.836A1.8,1.8,0,0,1,109.8,18.62h1.539V17.266h-7.354l-7.525,19.8-7.7-19.8Z" transform="translate(0 0)" style="fill:#fff"/><path d="M138.366,44.518V43.5h-.855c-.684,0-2.052-.169-2.052-1.693V31.315c0-3.216,1.71-4.57,3.421-4.57.684,0,1.026.339.855,1.523a1.582,1.582,0,0,0,1.71,1.862c.855,0,2.052-.169,1.881-2.539-.171-2.2-1.539-3.216-3.763-3.216a5.063,5.063,0,0,0-3.592,1.693c-.513.677-1.026.339-1.2-.339,0-.677-.342-1.523-1.2-1.185a17.9,17.9,0,0,1-4.789.846v.846c3.421-.169,3.079,1.523,3.079,2.37v13.2c0,1.523-1.368,1.693-2.052,1.693h-1.2v1.016Z" transform="translate(0 0)" style="fill:#fff"/><path d="M156.494,25.73a7.841,7.841,0,0,0-4.618-1.354c-5.131,0-8.21,4.57-8.21,10.326s2.394,10.325,8.21,10.325c4.96,0,6.328-2.708,7.183-7.109h-1.881c-.171,1.523-.684,5.247-4.447,5.417-4.618.169-4.96-5.755-4.789-8.633,0-1.693.171-8.8,4.1-8.8a5.024,5.024,0,0,1,5.3,4.909h1.026V24.037h-.855Z" transform="translate(0 0)" style="fill:#fff"/><path d="M273.994,43.333c-4.618.169-4.96-5.755-4.789-8.633h12.143c0-5.755-2.566-10.325-8.21-10.325-5.131,0-8.21,4.57-8.21,10.325s2.394,10.325,8.21,10.325c5.473,0,7.183-2.708,8.038-7.109H279.3C279.125,39.609,278.1,43.333,273.994,43.333Zm-.684-17.1c3.421,0,3.934,4.4,3.934,6.94H269.2C269.2,31.484,269.034,26.237,273.31,26.237Z" transform="translate(0 0)" style="fill:#fff"/><path d="M207.293,43.333c-4.618.169-4.96-5.755-4.789-8.633h12.143c0-5.755-2.566-10.325-8.21-10.325-5.131,0-8.21,4.57-8.21,10.325s2.394,10.325,8.21,10.325c5.473,0,7.183-2.708,8.038-7.109h-1.881C212.424,39.609,211.4,43.333,207.293,43.333Zm-.684-17.1c3.421,0,3.934,4.4,3.934,6.94H202.5C202.5,31.484,202.333,26.237,206.609,26.237Z" transform="translate(0 0)" style="fill:#fff"/><path d="M121.091,43.333c-4.618.169-4.96-5.755-4.789-8.633h12.143c0-5.755-2.566-10.325-8.21-10.325-5.131,0-8.21,4.57-8.21,10.325s2.394,10.325,8.21,10.325c5.473,0,7.183-2.708,8.038-7.109h-1.881C126.222,39.609,125.2,43.333,121.091,43.333Zm-.684-17.1c3.421,0,3.934,4.4,3.934,6.94H116.3C116.3,31.484,116.131,26.237,120.407,26.237Z" transform="translate(0 0)" style="fill:#fff"/><path d="M195.146,40.455V17.942c0-.846-.513-1.693-1.368-1.523a17.9,17.9,0,0,1-4.789.846v.846c2.394-.169,2.565.508,2.565,1.354v6.94a5.737,5.737,0,0,0-4.447-1.862c-2.737,0-7.867,2.2-7.867,9.818,0,9.987,5.986,10.664,7.7,10.664a7.857,7.857,0,0,0,4.618-2.2c0-.169.342-.338.342,0,0,.677.684,1.862,1.368,1.524a17.9,17.9,0,0,1,4.789-.846v-.846C194.8,42.824,195.146,41.132,195.146,40.455Zm-3.592-2.539c0,4.4-2.394,5.755-4.447,5.755-4.447,0-4.1-6.6-4.1-9.479s.171-8.294,4.1-7.956c3.934.508,4.276,4.74,4.276,7.109v4.57Z" transform="translate(0 0)" style="fill:#fff"/><path d="M242.7,33.007V31.314h-10.6v1.693Z" transform="translate(0 0)" style="fill:#fff"/><path d="M217.21,37.747v6.771h.855l.855-1.693a7.853,7.853,0,0,0,4.789,1.862c2.223,0,5.3-1.185,6.5-3.385s.684-5.925-2.052-7.109A68.588,68.588,0,0,1,222,31.146a2.745,2.745,0,0,1-1.539-2.708c.171-1.354,1.368-2.708,3.934-2.708s3.934,2.031,4.276,4.57h.855V23.867h-.855l-.855,1.523a5.569,5.569,0,0,0-3.934-1.354,7.349,7.349,0,0,0-5.644,3.047,4.879,4.879,0,0,0,2.394,7.279c3.421,1.523,5.131,2.37,6.157,2.878a2.783,2.783,0,0,1,.855,3.555,4.311,4.311,0,0,1-3.763,2.37c-1.881,0-4.96-1.354-5.815-5.417Z" transform="translate(0 0)" style="fill:#fff"/><path d="M258.087,29.792c1.881-.508,3.934-3.893,3.934-6.263s-.855-6.263-6.5-6.263H243.378v1.185c1.2,0,3.25.169,3.25,2.2v19.8c0,1.185,0,3.047-3.25,3.047v1.185h9.92c3.079,0,9.92-.169,10.091-8.125C263.218,33.854,261.85,30.638,258.087,29.792ZM250.048,18.62h4.1c3.079,0,4.276,2.2,4.276,4.909,0,3.385-1.026,6.094-4.276,6.094h-4.1Zm4.1,24.714h-4.1V30.977h4.618c2.736,0,4.96,1.862,4.96,5.925C259.626,40.794,257.232,43.333,254.153,43.333Z" transform="translate(0 0)" style="fill:#fff"/><path d="M296.4,29.961V41.81c0,1.523-1.368,1.693-2.052,1.693h-.513v1.016h8.894V43.5h-.855c-.684,0-2.052-.169-2.052-1.693V29.961c0-5.417-4.96-5.586-6.67-5.586a6.612,6.612,0,0,0-4.1,1.693c-.513.677-1.026.339-1.2-.339,0-.677-.342-1.523-1.2-1.185a17.9,17.9,0,0,1-4.789.846v.846c3.421-.169,3.079,1.523,3.079,2.37v13.2c0,1.523-1.368,1.693-2.052,1.693h-1.2v1.016h9.578V43.5h-.855c-.684,0-2.052-.169-2.052-1.693V31.315c0-1.693.684-4.57,3.934-4.74C295.886,26.237,296.4,28.438,296.4,29.961Z" transform="translate(0 0)" style="fill:#fff"/><path d="M304.607,30.3l1.539-5.417H320L308.2,43.5h6.328c1.539,0,2.566-.508,4.1-4.232h.684l-1.368,5.417h-14.2l11.8-18.62h-5.3c-1.368,0-2.737,0-4.789,4.4h-.855Z" transform="translate(0 0)" style="fill:#fff"/></svg>