<?xml version="1.0" standalone="no"?>
<!DOCTYPE svg PUBLIC "-//W3C//DTD SVG 20010904//EN"
 "http://www.w3.org/TR/2001/REC-SVG-20010904/DTD/svg10.dtd">
<svg version="1.0" xmlns="http://www.w3.org/2000/svg"
 width="500.000000pt" height="500.000000pt" viewBox="0 0 500.000000 500.000000"
 preserveAspectRatio="xMidYMid meet">
<metadata>
Created by potrace 1.11, written by Peter Selinger 2001-2013
</metadata>
<g transform="translate(0.000000,500.000000) scale(0.100000,-0.100000)"
fill="#000000" stroke="none">
<path d="M3350 4580 c-30 -3 -65 -11 -77 -18 -21 -12 -47 -72 -108 -249 l-29
-83 -50 -16 c-28 -9 -88 -34 -134 -55 l-83 -38 -146 69 c-79 39 -158 70 -174
70 -39 0 -179 -123 -266 -234 -31 -39 -29 -66 12 -153 19 -41 35 -78 35 -83 0
-4 -277 -8 -616 -7 l-616 0 -23 -24 c-19 -20 -57 -128 -80 -229 -2 -8 -27 -94
-55 -190 -28 -96 -53 -182 -55 -190 -12 -47 -138 -476 -141 -482 -3 -5 -160
-8 -350 -8 l-345 0 -24 -25 c-25 -24 -25 -26 -25 -214 0 -183 1 -191 23 -216
22 -27 24 -27 160 -28 75 0 137 -3 137 -6 1 -3 2 -238 3 -521 l2 -515 29 -58
c47 -92 133 -158 228 -174 23 -4 46 -6 51 -5 9 2 8 15 11 -158 2 -162 11 -193
73 -255 66 -66 102 -72 423 -70 265 1 288 3 330 22 59 27 98 66 123 122 16 37
20 71 22 186 2 77 3 142 4 145 2 8 1429 6 1436 -2 4 -3 8 -71 9 -150 2 -94 8
-153 17 -173 25 -55 59 -92 111 -120 l53 -29 285 -1 c317 -2 350 3 418 58 68
54 84 105 84 273 l1 143 56 12 c114 23 191 83 240 189 l26 55 1 355 2 355 28
3 c35 4 94 51 191 152 79 80 108 129 98 160 -4 11 -35 81 -71 155 -35 74 -64
137 -64 141 0 4 13 35 29 69 16 34 40 92 53 128 l23 67 149 52 c82 28 161 62
175 74 l26 22 0 182 0 182 -26 22 c-14 12 -93 46 -176 74 l-150 53 -16 52 c-9
29 -34 87 -55 131 l-38 79 31 61 c81 166 114 244 110 264 -5 28 -22 52 -82
115 -97 103 -175 167 -203 167 -29 0 -81 -21 -228 -94 l-94 -46 -71 34 c-40
18 -97 41 -127 51 -30 9 -60 22 -66 29 -6 6 -33 73 -59 149 -26 76 -56 149
-67 162 -12 15 -33 26 -61 30 -57 9 -200 11 -267 5z m253 -292 c73 -203 64
-191 170 -223 51 -16 130 -48 175 -71 46 -24 94 -44 106 -46 13 -1 89 28 170
66 l147 70 64 -65 63 -64 -69 -144 c-38 -79 -69 -151 -69 -160 0 -10 22 -61
49 -115 27 -54 59 -134 72 -178 15 -52 31 -85 44 -94 11 -7 81 -34 155 -60 74
-25 140 -51 145 -56 8 -7 18 -178 10 -178 -16 0 -312 -113 -321 -122 -6 -7
-23 -51 -37 -98 -15 -47 -47 -125 -72 -173 -25 -48 -45 -98 -44 -110 0 -12 31
-85 68 -162 l69 -140 -64 -64 -63 -65 -143 68 c-79 37 -152 68 -163 68 -12 1
-63 -19 -115 -45 -52 -25 -132 -58 -176 -72 -45 -14 -88 -33 -97 -43 -8 -9
-36 -78 -62 -152 -27 -74 -53 -141 -58 -148 -7 -9 -35 -12 -95 -10 l-85 3 -54
149 c-29 82 -58 155 -63 162 -6 6 -50 24 -98 39 -48 15 -127 47 -175 72 -48
25 -98 45 -111 46 -13 0 -86 -30 -163 -67 -78 -36 -143 -66 -147 -66 -6 0
-126 117 -126 124 0 2 29 64 64 138 35 73 66 143 70 154 5 15 -10 54 -47 130
-29 60 -64 144 -77 186 -16 52 -30 80 -44 87 -12 6 -84 33 -161 60 l-140 49
-5 53 c-3 30 -3 71 -2 91 l4 36 101 37 c56 20 122 44 147 52 63 22 83 47 109
133 13 41 45 118 72 172 57 113 58 98 -30 282 -67 142 -67 131 -1 196 67 66
61 65 137 29 250 -117 246 -116 310 -77 54 34 146 73 230 98 40 12 76 27 82
33 5 7 31 71 57 142 25 72 50 140 55 153 8 20 14 22 97 22 l88 0 47 -132z
m-1225 -676 c-1 -5 -16 -40 -32 -79 l-30 -70 -481 0 c-498 -1 -513 -2 -534
-42 -6 -10 -47 -139 -91 -287 -44 -148 -95 -315 -112 -371 l-32 -103 -73 0
c-40 0 -73 4 -73 8 0 4 45 165 101 357 55 193 102 357 104 365 2 8 18 62 34
120 17 58 31 106 31 107 0 2 268 3 596 3 328 0 594 -4 592 -8z m-386 -329
c-16 -8 -36 -27 -42 -43 -14 -33 -20 -266 -8 -328 10 -56 23 -68 110 -98 40
-14 82 -29 93 -34 11 -5 43 -16 71 -25 64 -20 81 -33 90 -67 l6 -28 -537 0
c-446 0 -536 2 -532 13 3 8 19 61 37 118 17 57 44 147 60 199 16 52 43 143 61
201 l31 106 296 1 c268 0 292 -1 264 -15z m-1392 -790 c0 -2 -34 -37 -76 -78
l-76 -75 -143 0 -143 0 1 73 c0 39 1 75 3 78 4 6 434 8 434 2z m1791 -9 c8
-10 -6 -49 -58 -158 l-68 -146 -869 0 -869 0 24 26 c13 15 84 86 158 159 l134
132 768 0 c621 0 771 -2 780 -13z m-34 -480 c12 -8 39 -31 60 -52 68 -67 104
-92 133 -92 15 0 93 31 174 69 l146 70 82 -38 c46 -21 106 -46 133 -55 l50
-16 38 -103 c21 -56 40 -110 42 -119 7 -32 43 -105 54 -113 10 -6 63 -13 111
-14 9 -1 23 -21 33 -50 22 -64 92 -135 165 -169 81 -38 192 -37 274 2 161 78
227 272 149 431 -30 61 -93 128 -134 144 -14 5 -1 14 55 35 40 16 88 37 106
47 l33 19 65 -30 c59 -27 64 -32 64 -62 1 -18 1 -189 1 -380 0 -339 0 -349
-22 -387 -12 -22 -39 -49 -61 -61 l-41 -23 -1731 0 -1731 0 -37 23 c-21 12
-47 38 -60 58 -22 36 -22 39 -23 457 l0 422 925 0 c774 1 929 -1 947 -13z
m1462 -275 c106 -100 20 -283 -126 -266 -41 4 -113 47 -113 67 0 4 18 11 40
15 60 10 61 11 130 198 11 31 24 28 69 -14z m-2381 -838 c9 -1 12 -34 12 -131
0 -126 -1 -132 -25 -155 -27 -28 -2 -26 -339 -27 l-228 0 -24 24 c-26 25 -29
57 -25 248 l1 45 308 -1 c169 -1 313 -2 320 -3z m2430 -129 c3 -129 2 -133
-22 -157 -16 -16 -37 -25 -58 -26 -18 0 -140 -1 -272 -1 l-238 0 -25 24 c-22
23 -24 31 -25 150 0 69 2 129 5 134 3 5 146 9 319 9 l313 0 3 -133z"/>
<path d="M3448 3865 c-2 -1 -32 -5 -68 -9 -326 -30 -603 -268 -696 -596 -26
-91 -26 -298 0 -395 94 -357 407 -603 771 -607 102 -1 169 10 270 43 122 41
215 98 306 188 167 166 241 341 241 571 0 216 -70 392 -217 549 -91 98 -243
193 -345 216 -8 2 -31 9 -50 14 -19 6 -62 14 -95 17 -33 3 -72 7 -87 9 -15 1
-29 1 -30 0z m212 -195 c218 -74 369 -232 430 -451 26 -97 23 -266 -8 -352
-68 -188 -194 -324 -370 -397 -86 -37 -107 -41 -222 -45 -118 -5 -197 12 -305
64 -137 68 -236 168 -301 307 -35 75 -41 95 -53 189 -42 319 181 630 500 700
91 19 247 12 329 -15z"/>
<path d="M872 1926 c-234 -77 -303 -368 -127 -539 127 -124 336 -118 458 12
148 159 99 417 -98 510 -62 29 -170 37 -233 17z m186 -180 c46 -30 76 -95 67
-146 -9 -52 -41 -98 -85 -121 -131 -70 -278 72 -214 206 41 88 148 116 232 61z"/>
<path d="M1653 1688 c-37 -18 -43 -54 -42 -241 1 -171 2 -179 24 -205 l23 -27
664 -1 c369 0 675 4 690 9 50 16 52 26 53 221 1 99 -3 193 -7 207 -5 14 -20
31 -34 38 -34 15 -1339 15 -1371 -1z m1243 -161 c8 -8 8 -136 0 -144 -4 -4
-1033 -8 -1106 -4 -12 1 -15 16 -15 69 0 37 3 72 7 77 7 12 1102 14 1114 2z"/>
</g>
</svg>
