<svg xmlns="http://www.w3.org/2000/svg" width="320.001" height="66" viewBox="0 0 320.001 66"><title>skoda-logo</title><path d="M66.694,33A33.147,33.147,0,0,1,33.347,66a33,33,0,1,1,0-66A33.147,33.147,0,0,1,66.694,33Z"/><path d="M65.909,33A32.564,32.564,0,0,1,.784,33a32.564,32.564,0,0,1,65.124,0Z" style="fill:#fff"/><path d="M63.556,33A30.066,30.066,0,0,1,33.348,62.9a29.9,29.9,0,1,1,0-59.788A29.982,29.982,0,0,1,63.556,33Z" style="fill:#fff"/><path d="M60.939,33A27.594,27.594,0,1,1,33.346,5.7,27.456,27.456,0,0,1,60.939,33Z"/><path d="M54.27,46.071a13.924,13.924,0,0,0-7.454-3.624.73.73,0,0,0-.785.647V44.13c0,.259-.261.647-.523.647h-.654c-.785,0-.915-.906-.785-1.553a43.979,43.979,0,0,0,2.092-12.165,28.381,28.381,0,0,0-1.308-9.318c-1.177-3.494-2.354-6.988-8.239-12.294a1.688,1.688,0,0,0-1.308-.518h-1.7a25.158,25.158,0,0,0-7.062,1.035c-.785.259-.654.776-.262,1.165a36.182,36.182,0,0,1,7.323,8.282,4,4,0,0,1-3.139-1.424,43.914,43.914,0,0,0-7.977-5.824,1.283,1.283,0,0,0-1.177-.129,20,20,0,0,0-6.277,5.176c-.392.388-.131.647.262.906a49.627,49.627,0,0,1,8.893,6.212q-.981.776-3.139-.388a32.037,32.037,0,0,0-7.716-2.847,1.061,1.061,0,0,0-1.177.388,25.718,25.718,0,0,0-2.746,7.894,1.008,1.008,0,0,0,.785,1.165c4.839.906,13.6,3.106,15.039,13.071a1.113,1.113,0,0,1-1.7,1.165c-1.438-.647-2.877-1.424-4.446-2.071a.793.793,0,0,0-.523-.129H11.638a.965.965,0,0,0-.785,1.682A48.2,48.2,0,0,1,15.3,50.341a.682.682,0,0,0,.523.259h3.008c.262,0,.392,0,.523-.129.915-.518,1.962-1.165,2.877-1.682a.793.793,0,0,1,.523-.129H45.508a.56.56,0,0,1,.523.518v1.165a.73.73,0,0,0,.785.647,13.488,13.488,0,0,0,7.454-3.624C54.662,46.847,54.662,46.33,54.27,46.071Z"/><path d="M52.306,46.589a11.018,11.018,0,0,0-5.1-2.459c-.131,0-.262,0-.262.259v.129a1.115,1.115,0,0,1-.915,1.035H44.721a1.756,1.756,0,0,1-1.7-2.329C47.6,26.789,42.5,16.7,35.96,11,34.129,9.448,34,9.319,32.3,9.448a26.028,26.028,0,0,0-4.446.518c-.392.129-.654.388-.261.647a30.149,30.149,0,0,1,9.939,15.141c.131.259-.131.259-.262.259A3.129,3.129,0,0,1,34.129,24.2,45.317,45.317,0,0,0,21.182,13.46c-.392-.259-.392-.259-.654,0a17.643,17.643,0,0,0-4.315,3.365c-.262.259-.131.388.131.518A43.482,43.482,0,0,1,29.421,28.472c.261.388.261.518.131.647-.915.518-2.354.518-4.054-.518a54.726,54.726,0,0,0-12.554-5.694c-.392-.13-.392-.13-.654.259A22.314,22.314,0,0,0,10.2,29.248c0,.259-.131.259.131.388C20.136,31.577,25.5,36.883,26.021,44a2.025,2.025,0,0,1-2.746,1.941c-1.569-.518-3.008-1.035-4.446-1.424-.131,0-.392-.129-.523-.129H12.028c-.262,0-.392.129-.131.518a52.724,52.724,0,0,1,3.662,4.918.682.682,0,0,0,.523.259h2.354a1.872,1.872,0,0,0,.785-.259c.785-.518,1.7-.906,2.485-1.424a1.873,1.873,0,0,1,.785-.259H45.9a1.119,1.119,0,0,1,1.046,1.035v.13a.28.28,0,0,0,.262.259,10.634,10.634,0,0,0,5.1-2.588A.241.241,0,0,0,52.306,46.589ZM37.268,42.836a4.012,4.012,0,1,1,4.054-4.012A3.971,3.971,0,0,1,37.268,42.836Z" style="fill:#fff"/><path d="M41.584,38.953a4.577,4.577,0,1,1-4.577-4.529A4.61,4.61,0,0,1,41.584,38.953Z"/><path d="M40.929,38.821a3.139,3.139,0,1,1-3.139-3.106A3.256,3.256,0,0,1,40.929,38.821Z" style="fill:#fff"/><path d="M89.58,49.567c4.969.259,12.946.388,17.523.388,20.27,0,22.624,0,22.624-10.871,0-8.541-2.485-9.318-13.208-9.576L104.1,29.119c-5.754-.129-5.754-.777-5.754-3.365s.654-2.588,14.385-2.588c2.615,0,10.854.129,15.17.259a.615.615,0,0,0,.654-.647V17.214c0-.518-.262-.647-.654-.776-4.315-.259-11.377-.518-16.347-.518-19.877,0-23.016.388-23.016,10.482,0,8.671,1.962,9.835,14.647,10.224l11.377.388c5.362.129,5.493.777,5.493,2.847,0,2.718-.262,2.847-12.816,2.847-5.885,0-11.9-.259-17.523-.388-.523,0-.654.129-.654.647V48.79C88.927,49.308,89.188,49.437,89.58,49.567ZM303.523,37.4H288.746l6.8-13.329h1.177Zm-43.416-4.659v.518c0,8.541-.654,8.8-11.77,8.8h-9.154V23.943h9.154C259.453,23.943,260.107,24.331,260.107,32.743Zm-47.993,0v.518c0,9.318-.393,9.447-11.247,9.447-10.985,0-11.246-.13-11.246-9.447v-.518c0-9.318.392-9.447,11.246-9.447S212.114,23.555,212.114,32.743ZM319.87,48.661,303.916,16.955a.718.718,0,0,0-.785-.518H289.008a.717.717,0,0,0-.785.518L272.269,48.661c-.262.518,0,.777.523.777h9.285a.716.716,0,0,0,.784-.518l2.354-4.659h21.839l2.354,4.659a.717.717,0,0,0,.785.518h9.284Q320.263,49.437,319.87,48.661ZM248.337,16.437H229.9c-.523,0-.654.259-.654.647V48.661c0,.518.261.647.654.647h18.438c19.747,0,22.362-.906,22.362-16.435v-.259C270.7,17.472,268.084,16.437,248.337,16.437ZM176.675,48.661,158.236,30.8,175.5,17.214c.523-.388.262-.776-.262-.776H163.99a1.872,1.872,0,0,0-.785.259L145.551,30.672V17.214c0-.518-.262-.647-.654-.647h-8.631c-.523,0-.654.259-.654.647V48.79c0,.518.262.647.654.647H144.9c.523,0,.654-.259.654-.647V40.767l5.231-4.141,12.685,12.423a1.193,1.193,0,0,0,.915.388h12.162C176.936,49.437,177.2,49.049,176.675,48.661Zm1.962-15.918v.518c0,16.047,2.615,16.953,22.1,16.953,19.355,0,22.1-.906,22.1-17.082v-.388c0-16.047-2.616-16.953-22.1-16.953C181.382,15.79,178.636,16.7,178.636,32.743ZM100.565,8.8l4.185,4.788a1.135,1.135,0,0,0,.785.388h8.892a.793.793,0,0,0,.785-.388L119.4,8.8c.392-.388.262-.776-.392-.776h-6.016a.793.793,0,0,0-.785.388L110.373,11h-.915l-1.831-2.588a1.193,1.193,0,0,0-.915-.388h-5.885C100.3,8.025,100.173,8.414,100.565,8.8Z" style="fill:#fff"/></svg>