<svg xmlns="http://www.w3.org/2000/svg" style="display:none"><symbol id="bfr-logo" viewBox="0 0 152.65 65"><title>bfr-logo</title><path d="M20.64 6.76l.36-.85h22.81l.51.84H52l2-5.57L53 0H12.86l-.17.84q0 .51.08 1.77T13 4.22l-.9 2.54zM42.46 33.11l4.4-12.16a14.08 14.08 0 0 1-.68-1.77 3.22 3.22 0 0 0-1.1-1.77 7.75 7.75 0 0 0 2.11-1.6q.93-1 2.45-2.45l1.18-3.13h-7.35q-.42.93-1.1 2.11a6.85 6.85 0 0 1-1.52 2H17.93l1.52-4.14h-8.53L3.47 30.49q-.25.25-.68.76a11.51 11.51 0 0 1-.85.93l-.85 1q-.34.42-.51.68a5.53 5.53 0 0 1-.34.59q-.17.17-.17.25h40.44zm-3.81-10.39a13 13 0 0 1-.76 2.36l-.08.25q-.17.42-.68 1.44a5.18 5.18 0 0 1-.59 1.23l-1.18.84H12.52l3.13-8.53h22.83a3.48 3.48 0 0 1 .17 2.41zM92.75 5.83a26.45 26.45 0 0 0 3.47-1.44q1.69-.93 3.3-2a31.48 31.48 0 0 0 3-2.28H64.25a2.08 2.08 0 0 0-.76.42 2.71 2.71 0 0 0-.59.59l-2.28 5.21h28.92a11.2 11.2 0 0 0 3.21-.5zM115.15 6.76l.34-.84h22.83l.51.84h7.61L152.65 0h-45.28l-.17.84q0 .51.08 1.77a8.17 8.17 0 0 0 .34 1.6l-.93 2.53zM56 34.71l2.57-1.6 4.94-12.59h20A12.6 12.6 0 0 0 87 20a21.79 21.79 0 0 0 3.64-1.35q1.78-.93 3.47-2a33.72 33.72 0 0 0 3.21-2.36H59.1a2.08 2.08 0 0 0-.76.42 2.7 2.7 0 0 0-.59.59l-7.56 19.41zM96.9 34.38q.25.34.42.34h6.18q1.27-.42 1.44-.84l4-11.06 8.37-.84a2.37 2.37 0 0 1 .59.34l.76.51c1 1 6.66 6.5 7.56 7.35s1.66 1.46 2.28 2 3 2.59 3.07 2.53h9.19c-1.1-1.2-9.19-10.94-9.19-10.94a.84.84 0 0 1-.23-1c.24-.71 1.24-.62 1.86-.51A3.65 3.65 0 0 0 135 22l8-5.91 2.2-5.83H138a12.94 12.94 0 0 1-.76 1.6 9.58 9.58 0 0 1-1 1.6 4.54 4.54 0 0 1-1.27 1.27 3 3 0 0 1-1.69.51h-21.17l1.86-5h-8.46l-8.7 23.65a.6.6 0 0 0 .09.49zM8.84 55.8l.84 2.41H13L8 45.35H4.91L0 58.21h3.26l.82-2.41zm-2.36-7.09l1.69 4.9H4.76zM15.88 45.35v8c0 1.4.15 5.23 5.68 5.23s5.68-3.93 5.68-5.23v-8h-3.1v7.49c0 2.2-.69 3.23-2.59 3.23S19 55 19 52.84v-7.49zM37.73 58.21V47.85h3.95v-2.5H30.67v2.5h3.97v10.36h3.09zM56.72 51.78c0-3.89-2.12-6.79-6.63-6.79-5.17 0-6.63 3.8-6.63 6.79s1.46 6.79 6.63 6.79c4.51 0 6.63-2.9 6.63-6.79zm-9.91 0c0-3.4 1.57-4.3 3.28-4.3 3.17 0 3.3 3.14 3.3 4.3s-.15 4.3-3.3 4.3c-1.71 0-3.28-.94-3.28-4.3zM65.84 56.08c-2.21 0-2.64-1.25-2.62-2h-3.13c0 1.71.88 4.54 5.71 4.54 5.25 0 5.54-3.23 5.54-4.28 0-2.81-2.32-3.49-5.08-4-1.12-.22-2.59-.46-2.59-1.58 0-.64.49-1.23 2-1.23s2.17.7 2.25 1.4h2.92c0-1.87-1.35-3.89-5-3.89-4 0-5.38 1.73-5.38 3.8 0 2.86 2 3.45 4.33 4 1.59.35 3.33.61 3.33 2 .06 1.03-1.12 1.24-2.28 1.24zM85.67 47.85v-2.5H75.32v12.86h10.54v-2.5h-7.45v-2.88h6.4v-2.37h-6.4v-2.61h7.26zM100.76 49c0-3.32-3.13-3.65-4.46-3.65h-6.71v12.86h3.09v-4.74h2.38c.36 0 2-.07 2.12 1.47.17 2 0 2.46.52 3.27h3.15c-.47-.66-.47-1.19-.51-2.83 0-.94-.06-2.61-1.87-3.12a3.15 3.15 0 0 0 2.29-3.26zm-5.25 2.11h-2.83v-3.26h2.72c1.33 0 2.1.39 2.1 1.65 0 .63-.25 1.62-1.99 1.62zM115.51 45.35h-3.42l-2.55 9.18-2.66-9.18h-3.54l4.44 12.86h3.28l4.45-12.86zM118.6 45.35h3.09V58.2h-3.09zM132.3 47.48a2.44 2.44 0 0 1 2.7 2.24h3c0-1.89-1.2-4.72-5.85-4.72-1.26 0-6.31.26-6.31 7 0 5 3.07 6.56 6.43 6.56 4.65 0 5.75-3 6-4.9h-3.07a2.59 2.59 0 0 1-2.75 2.41c-2.1 0-3.22-1.74-3.22-4.17-.06-4.29 2.38-4.42 3.07-4.42zM145.12 52.83h6.41v-2.37h-6.41v-2.61h7.27v-2.5h-10.36v12.86h10.55v-2.5h-7.46v-2.88zM0 38.56v2.75h152.58l-2.76-2.75H0zM0 65h149.82l2.76-2.75H0V65z"/></symbol><symbol id="diagnostics-ico" viewBox="0 0 71.48 43.657"><title>diagnostics-ico</title><path d="M5.929 38.77h59.63a1.783 1.783 0 0 0 1.86-1.7V1.7a1.79 1.79 0 0 0-1.86-1.7H5.929a1.8 1.8 0 0 0-1.87 1.7v35.37a1.792 1.792 0 0 0 1.87 1.7zm.83-35.561h57.97v32.2H6.759zM0 40.12a3.392 3.392 0 0 0 3.226 3.538h65.025a3.392 3.392 0 0 0 3.23-3.537z"/><path d="M41.499 16.129h-.11c-.57-.01-1.26-.019-1.96-.019a23.008 23.008 0 0 0-2.99.12 11.9 11.9 0 0 0-1.39.5c-.22.09-.47.189-.73.3-2.02.86-4.79 2.18-5.41 2.91a.225.225 0 0 0-.05.19.191.191 0 0 0 .1.131.233.233 0 0 0 .1.05.663.663 0 0 0 .08.029 7.424 7.424 0 0 0 1.63.15c.28.01.58.021.91.021h.19c2.7 0 6.81-.211 9.78-.391l.12-.01v-.12c0-.33 0-.67-.02-1.03 0-.22-.02-.439-.03-.68-.04-.63-.11-1.31-.2-2.04zm-9.94 3.75c-.15-.069-.27-.109-.36-.05a.149.149 0 0 0-.08.16c0 .1.09.18.22.26-.2 0-.39 0-.56-.01a9.548 9.548 0 0 1-1.4-.1.436.436 0 0 1 .07-.07 9.5 9.5 0 0 1 1.37-1.01c.14-.08.26-.141.37-.2a1.5 1.5 0 0 1 .52-.14s.29 0 .29.159a8.062 8.062 0 0 1-.07.9c-.02.2-.08.2-.1.2a.589.589 0 0 1-.27-.099zm8.8.07l-.6.03c-.31.02-.62.04-.921.05-1.02.06-1.97.1-2.84.13-.2.01-.39.01-.59.021l-.72.029-.91.03c-.29 0-.58.01-.85.01-.37.011-.73.011-1.06.011h-.07l-.03-.03h.06c.11 0 .31-.05.35-.42a8.707 8.707 0 0 0 .07-.931c0-.26-.23-.39-.48-.409l.75-.36c.14-.07.28-.14.42-.2.21-.09.41-.18.61-.27a4.914 4.914 0 0 1 .48-.21c.82-.36 1.54-.65 2-.811a.909.909 0 0 1 .15-.05c.08-.03.15-.05.21-.07a.514.514 0 0 1 .09-.02c.07-.01.16-.021.26-.04.23-.021.52-.04.83-.05q.75-.031 1.86-.03c.53 0 1.07.01 1.54.01h.31v.01a27.011 27.011 0 0 1 .24 3.5c-.399.021-.779.051-1.159.071z"/><path d="M61.009 23.6a.994.994 0 0 0-.06-.21.494.494 0 0 1-.03-.07c-.02-.05-.04-.11-.07-.17a.222.222 0 0 0-.04-.07.288.288 0 0 1-.05-.069.225.225 0 0 1-.03-.051l-.06-.08a.437.437 0 0 1-.12-.17l-.02-.06a.64.64 0 0 1-.03-.21 1.228 1.228 0 0 0-.01-.18c0-.03-.01-.051-.01-.07v-.032c-.02-.08-.03-.16-.06-.25a.076.076 0 0 0-.01-.05l-.14-.62a1.439 1.439 0 0 1-.07-.22l-.04-.15c-.01-.04-.03-.08-.04-.109-.08-.3-.16-.56-.22-.74-.02-.061-.04-.11-.05-.141a.134.134 0 0 0-.02-.029l-.01-.051c-.059-.14-.26-.17-1.27-.3a14.248 14.248 0 0 1-2.84-.55c-.16-.06-.38-.15-.66-.27a35.189 35.189 0 0 0-13.28-3.02c-.14-.01-.29-.01-.44-.01-.19-.01-.39-.01-.58-.01-3.98-.021-4.21.05-5.09.319a62.823 62.823 0 0 0-6.35 2.98c-.79.39-1.4.71-1.61.79a11.563 11.563 0 0 1-2.38.4l-.03.25a11.947 11.947 0 0 0 2.51-.42c.211-.09.8-.39 1.62-.8a65.371 65.371 0 0 1 6.32-2.96c.85-.27 1.07-.33 5.01-.31.19 0 .38 0 .58.01a3.042 3.042 0 0 1 .42.01 34.893 34.893 0 0 1 13.2 3c.28.12.51.21.67.28a14.286 14.286 0 0 0 2.9.56 9.686 9.686 0 0 1 1.08.17c0 .011.01.03.01.04a1.092 1.092 0 0 1 .05.141 7.549 7.549 0 0 1 .22.729.355.355 0 0 1 .04.11l.04.14a1.4 1.4 0 0 0 .07.24l.13.519a.405.405 0 0 0 .01.091l.01.05a.788.788 0 0 1 .05.21.3.3 0 0 0 .01.09 1.058 1.058 0 0 1 .01.16.872.872 0 0 0 .05.32.035.035 0 0 1 .01.029.951.951 0 0 0 .17.26l.01.011a.2.2 0 0 0 .03.04l.03.04a.261.261 0 0 0 .05.08l.02.04a1.416 1.416 0 0 1 .08.17l.01.04a1.205 1.205 0 0 1 .06.18 8.091 8.091 0 0 1-.05 2.84l-.02.04a1.294 1.294 0 0 0-.39.23 1.967 1.967 0 0 1-.18.13c-.01.02-.03.029-.06.04a.2.2 0 0 1-.05.04l-.1.069c-.04.03-.08.05-.12.08a1.149 1.149 0 0 0-.11.07c-.08.04-.15.09-.24.13l-.19.11a4.358 4.358 0 0 1-.86.279.516.516 0 0 0-.12.021.974.974 0 0 1-.13.03h-.03c-.03.01-.05.01-.06.02-.42.09-.85.15-1.13.19a3.82 3.82 0 0 0 .07-.771 4.305 4.305 0 1 0-8.54.8h-20.72a4.822 4.822 0 0 0 .08-.8 4.33 4.33 0 0 0-2.79-4.04l-.03.26a4.075 4.075 0 0 1 2.57 3.78 3.862 3.862 0 0 1-.11.9l-.03.149h21.34l-.03-.149a3.937 3.937 0 0 1-.1-.9 4.055 4.055 0 1 1 8.11 0 3.067 3.067 0 0 1-.11.88l-.01.16h.16a13.34 13.34 0 0 0 1.34-.22.038.038 0 0 1 .03-.01.191.191 0 0 0 .05-.011c.04-.01.08-.02.13-.029a.692.692 0 0 0 .11-.021 4.1 4.1 0 0 0 .92-.3l.2-.11c.09-.04.17-.09.26-.14a.415.415 0 0 1 .11-.07c.04-.03.08-.06.14-.1l.13-.09c.03-.021.07-.04.08-.06.06-.04.12-.08.17-.12a1.24 1.24 0 0 1 .29-.18l.07-.01.04-.04a1.532 1.532 0 0 0 .09-.13 8.293 8.293 0 0 0 .06-2.994z"/><path d="M42.079 20.089c4.17-.25 8.51-.59 8.75-.689a.183.183 0 0 0 .13-.18c-.01-.481-3.1-2.16-4.23-2.481a18.462 18.462 0 0 0-4.19-.59 2.4 2.4 0 0 1-.25-.01h-.61l.02.14a27.73 27.73 0 0 1 .25 3.68v.141zm.21-3.7a2.4 2.4 0 0 0 .25.01 18.4 18.4 0 0 1 4.12.58 14.308 14.308 0 0 1 4.02 2.2c-.58.09-4.17.39-8.48.649a27.053 27.053 0 0 0-.24-3.44zM19.459 27.2a4.065 4.065 0 0 1 3.13-3.96l-.07-.24a4.35 4.35 0 0 0-3.24 5h-1.9a10.835 10.835 0 0 1-1.12-.04l-.58-.029a1.245 1.245 0 0 1-.61-.16.793.793 0 0 1-.1-.11l-.02-.03a.5.5 0 0 0-.03-.069.758.758 0 0 1 .01-.3.148.148 0 0 0 .02-.06.076.076 0 0 0 .01-.04.034.034 0 0 1 .01-.02l.01-.04c.03-.051.05-.08.05-.08l.03-.021v-.043a.408.408 0 0 0 .04-.09c.01-.01.01-.019.02-.04a.49.49 0 0 0 .02-.05.849.849 0 0 0 .07-.19 1.106 1.106 0 0 0 .02-.159c0-.33 0-.62.02-.9l-.01-.5a.782.782 0 0 0 .02-.21v-.11a.379.379 0 0 0 .01-.109 1.45 1.45 0 0 1 .01-.19 1.073 1.073 0 0 1 .01-.17.177.177 0 0 1 .01-.07v-.08l.016-.133h.11c.205.007.412.013.616.013a5.124 5.124 0 0 0 1.041-.089c.854-.2 1.1-.888 1.294-1.633l.038-.145-.149-.012c-.548-.041-1.1-.047-1.521-.047h-.557c.025-.035.048-.064.073-.1.41-.58 3.07-.95 5.59-1.22l-.07-.24c-2.69.28-5.25.65-5.72 1.31-.07.1-.125.174-.183.253l-.1.135a2.975 2.975 0 0 0-.705 1.624l-.019.138h.014a1.742 1.742 0 0 0-.018.121v.07a.325.325 0 0 0-.01.08 1.066 1.066 0 0 0-.01.17 1.659 1.659 0 0 0-.01.21.286.286 0 0 1-.01.09v.13a1.38 1.38 0 0 1-.01.19v.52c-.02.27-.02.57-.02.9a.582.582 0 0 1-.01.119.746.746 0 0 1-.06.131c0 .02-.01.029-.02.05a.912.912 0 0 0-.04.09l-.02.04a.073.073 0 0 0-.02.04c-.01.019-.03.05-.05.09-.01.01-.01.03-.03.08l-.04.11a1.069 1.069 0 0 0-.01.439c.01.05.04.09.05.13l.02.03a.7.7 0 0 0 .17.18 1.263 1.263 0 0 0 .75.221l.57.029c.6.04.6.04 1.14.04h2.21l-.03-.149a3.954 3.954 0 0 1-.1-.895zm-3.46-4.89l.006-.009H16.744c.377 0 .862 0 1.352.036-.175.629-.4 1.147-1.067 1.306a4.859 4.859 0 0 1-.987.083c-.2 0-.406-.006-.608-.013h-.078a2.766 2.766 0 0 1 .643-1.403zM25.389 29.03a2.631 2.631 0 0 0 .74-1.83 2.73 2.73 0 0 0-.03-.41l-.03-.14-2.09.67 1.3 1.81zm-1.02-1.57l1.5-.479a1.575 1.575 0 0 1 .01.22 2.277 2.277 0 0 1-.57 1.54l-.92-1.25zM21.199 25.98l-.07.13 1.3.42.47.16.35.109v-2.2l-.15.019a2.6 2.6 0 0 0-1.9 1.362zm1.8-1.09v1.568l-1.5-.489a2.34 2.34 0 0 1 1.5-1.079zM23.519 27.558a.37.37 0 1 0-.37-.36.374.374 0 0 0 .37.36zM23.519 29.81a2.768 2.768 0 0 0 1.18-.28l.13-.07-.8-1.12-.51-.689-1.31 1.81.13.07a2.53 2.53 0 0 0 1.18.279zm0-1.73l.93 1.28a2.319 2.319 0 0 1-1.86.01z"/><path d="M24.945 23.98l-.03.27a3.26 3.26 0 1 1-2.1-.239l-.07-.24a3.506 3.506 0 1 0 2.2.21z"/><path d="M25.839 25.98a2.631 2.631 0 0 0-1.89-1.36l-.15-.03v2.21l2.11-.689zm-1.794.478V24.89a2.338 2.338 0 0 1 1.49 1.08zM23.069 27.32l-2.1-.68-.03.14a2.72 2.72 0 0 0-.04.42 2.541 2.541 0 0 0 .77 1.83l.1.1.8-1.109.29-.391zm-1.33 1.42a2.312 2.312 0 0 1-.59-1.54 1.667 1.667 0 0 1 .02-.229l1.02.329.49.16zM52.659 23.675a3.515 3.515 0 1 0 3.521 3.521 3.519 3.519 0 0 0-3.521-3.521zm0 6.78a3.265 3.265 0 1 1 3.271-3.26 3.263 3.263 0 0 1-3.271 3.263z"/><path d="M52.658 27.651l-1.305 1.807.129.067a2.536 2.536 0 0 0 1.178.285 2.645 2.645 0 0 0 1.177-.285l.131-.065-.8-1.116zm-.929 1.716l.932-1.29.93 1.288a2.343 2.343 0 0 1-1.862.002zM52.659 27.558a.369.369 0 1 0-.374-.363.374.374 0 0 0 .374.363zM52.005 27.627l.206-.309-2.105-.684-.026.142a2.355 2.355 0 0 0-.036.419 2.575 2.575 0 0 0 .761 1.832l.1.1.8-1.112zm-1.125 1.115a2.323 2.323 0 0 1-.586-1.547c0-.08 0-.157.011-.231l1.026.339.486.153zM53.087 24.617l-.145-.023v2.207l2.1-.687-.069-.131a2.617 2.617 0 0 0-1.886-1.366zm.105 1.844v-1.57a2.369 2.369 0 0 1 1.49 1.078zM52.036 26.694l.353.1v-2.2l-.143.021a2.628 2.628 0 0 0-1.9 1.365l-.072.132 1.3.42zm.1-1.8v1.574l-1.5-.494a2.381 2.381 0 0 1 1.502-1.085zM54.423 29.132l.1-.106a2.6 2.6 0 0 0 .749-1.83 2.244 2.244 0 0 0-.036-.407l-.025-.141-2.094.671zm.6-1.937a2.317 2.317 0 0 1-.577 1.546l-.915-1.253-.021-.031 1.5-.481a2.044 2.044 0 0 1 .015.22zM11.779 7.14v9.63h9.95l2.19 7.439.71-7.439h3.28V7.14zm1.32 3.4h8.92v1h-8.92zm9.91 4.5h-9.91v-1h9.91zm.88-1.75h-10.79v-1h10.79zm1.28-3.5h-12.07v-1h12.07zM46.595 8.927h2.613v4.488h-2.613zM50.514 8.352h2.613v5.063h-2.613zM54.434 9.66h2.613v3.755h-2.613zM58.352 7.047h2.613v6.368h-2.613z"/><path d="M60.965 4.592h-1.306a.5.5 0 0 0-.32.115l-3.675 3.057-3.632-1.687a.493.493 0 0 0-.327-.033l-3.783.905-1.177-.378a.5.5 0 1 0-.307.951l1.307.421a.5.5 0 0 0 .269.011l3.75-.9 3.761 1.748a.5.5 0 0 0 .531-.068l3.78-3.143h1.129a.5.5 0 0 0 0-1z"/></symbol><symbol id="engine-ico" viewBox="0 0 64.07 51.95"><title>engine-ico</title><path d="M21.49 21.24a.53.53 0 0 0-.52.53.52.52 0 0 0 .52.52.52.52 0 0 0 .52-.52.52.52 0 0 0-.52-.53zM30.64 38.24l4.76-2a8.75 8.75 0 0 1-1.28-14.64l-6.88-1.5a5.69 5.69 0 0 1 .24 1.66 6 6 0 0 1-6 6 6.16 6.16 0 0 1-1-.08l1.95 6.49a5.07 5.07 0 0 1 8.17 4z"/><path d="M53.68 22.08L38.6 11.62l-.83-.56.08-.11H26.22l.08.11-1 .72-6.56 4.54.07.1a6 6 0 0 1 5.3-.08l15.71 3.43a8.76 8.76 0 0 1 2.92 16.9l-.19.07-3.72 1.39-10.28 4.11a5 5 0 0 1-3 1 5.09 5.09 0 0 1-5.08-5.08 1 1 0 0 1 0-.17l-3.78-12.65a6 6 0 0 1 .59-7.84l-.09-.13-6.85 4.71 4.47 11.43 7.21 18.44H42l7.21-18.44 4.47-11.42z"/><circle cx="39.49" cy="28.51" r="1.52"/><path d="M25.57 38.44a.26.26 0 0 0 .25-.26.26.26 0 1 0-.51 0 .27.27 0 0 0 .26.26zM36.7 36.81l-6.2 2.52a4.86 4.86 0 0 1-.47 1.26l8.37-3.35a7.92 7.92 0 0 1-1.7-.43zM26.8 18.98l8.49 1.86a8.08 8.08 0 0 1 1.57-.68l-10.9-2.38a5.9 5.9 0 0 1 .84 1.2zM18.15 26.73l2.81 9.33a5 5 0 0 1 .7-1.12l-2.32-7.58a5.13 5.13 0 0 1-1.19-.63zM47.24 28.51a7.75 7.75 0 1 0-7.75 7.73 7.75 7.75 0 0 0 7.75-7.73zm-10.27 0a2.52 2.52 0 1 1 2.52 2.52 2.52 2.52 0 0 1-2.52-2.52zM21.49 16.76a5 5 0 1 0 5 5 5 5 0 0 0-5-5zm0 6.52a1.52 1.52 0 1 1 1.52-1.52 1.52 1.52 0 0 1-1.52 1.48z"/><path d="M25.57 42.24a4.08 4.08 0 1 0-4.08-4.08 4.08 4.08 0 0 0 4.08 4.08zm0-5.34a1.26 1.26 0 1 1-1.23 1.28 1.25 1.25 0 0 1 1.23-1.26zM44.95 0H19.12v7.17h25.83zM20.48 6.58h-.77V.67h.77zm1.41 0h-.78V.67h.78zm1.4 0h-.77V.67h.77zm1.41 0h-.77V.67h.77zm1.41 0h-.77V.67h.77zm1.4 0h-.77V.67h.77zm1.41 0h-.77V.67h.77zm1.41 0h-.77V.67h.78zm1.41 0h-.78V.67h.78zm1.4 0h-.8V.67h.77zm1.41 0h-.77V.67h.77zm1.41 0h-.77V.67h.77zm1.41 0h-.78V.67h.75zm1.4 0H38V.67h.77zm1.41 0h-.77V.67h.77zm1.41 0h-.77V.67h.77zm1.4 0h-.77V.67h.77zm1.41 0h-.77V.67h.77zM25.4 7.96h13.28v1.92H25.4z"/><path d="M24.69 10.95l.22-.15-1.81-2.63h-5V5.56a3.9 3.9 0 0 0-1.28.58L1.73 16.55a4 4 0 0 0-1 5.57l2.55 3.7.74-.51 6-4.18zM4.48 26.18l3.34 6s.44 1.31 1.62 1.31h4.35L9.54 22.67zM62.34 16.55L47.23 6.14a3.9 3.9 0 0 0-1.28-.58v2.61h-5l-1.81 2.63.22.15 14.69 10.18 6 4.18.74.51 2.55-3.7a4 4 0 0 0-1-5.57zM50.28 33.51h4.35c1.18 0 1.62-1.31 1.62-1.31l3.33-6-5.06-3.51z"/></symbol><symbol id="exhaust_ico" viewBox="0 0 54.66 63.06"><title>exhaust_ico</title><path d="M8.21 22.483L36.656-.005 53.12 20.822 24.677 43.311zM8.98 37.85l5.43-4.29-3.64-4.62-7.25 5.74a2.92 2.92 0 0 0-.84 3.55l6.18 13.2-8.88 7.01 3.65 4.62 10.69-8.45a3 3 0 0 0 .84-3.56zM46.63 10.037l3.27-2.586 4.757 6.017-3.271 2.586z"/></symbol><symbol id="facebook-ico" viewBox="0 0 24 24"><title>facebook-ico</title><path d="M9.94 19.79h3.23V12h2.17s.2-1.26.3-2.63h-2.46v-1.8a.76.76 0 0 1 .7-.63h1.76V4.21h-2.4c-3.39 0-3.31 2.63-3.31 3v2.16H8.36V12h1.58v7.8z"/><path d="M0 0v24h24V0zm22.52 22.52h-21v-21h21z"/></symbol><symbol id="it-doors-logo" viewBox="0 0 74.84 27.49"><title>IT-Doors-logo</title><path d="M40.85 9.41a7.81 7.81 0 0 0-3.67-.64h-4.29v10.08h4.3a8 8 0 0 0 3.71-.61 2.43 2.43 0 0 0 1.1-2.31v-4.1a2.55 2.55 0 0 0-1.15-2.42zm-1.31 6.52a.94.94 0 0 1-.53 1 5.92 5.92 0 0 1-1.93.21h-1.77V10.5h1.85a4.36 4.36 0 0 1 1.78.28 1 1 0 0 1 .59 1zM51 17.52a3 3 0 0 0 .23-1.25v-2.22a3.3 3.3 0 0 0-.23-1.33 2.29 2.29 0 0 0-.59-.85 2.47 2.47 0 0 0-.91-.46 5.23 5.23 0 0 0-1-.2h-2.16a5.22 5.22 0 0 0-1 .2 2.49 2.49 0 0 0-.91.46 2.3 2.3 0 0 0-.59.85 3.3 3.3 0 0 0-.24 1.33v2.22a3 3 0 0 0 .23 1.25 2.2 2.2 0 0 0 .57.81 2.37 2.37 0 0 0 .89.44 5.53 5.53 0 0 0 1 .19h2.22a5.51 5.51 0 0 0 1-.19 2.38 2.38 0 0 0 .89-.44 2.23 2.23 0 0 0 .6-.81zm-2-1a1 1 0 0 1-.3.82 3.46 3.46 0 0 1-2.5 0 1 1 0 0 1-.3-.82v-2.83a1.06 1.06 0 0 1 .31-.86 3.14 3.14 0 0 1 2.48 0 1.06 1.06 0 0 1 .31.86zM59.6 11.88a2.48 2.48 0 0 0-.91-.46 5.2 5.2 0 0 0-1-.2h-2.16a5.21 5.21 0 0 0-1 .2 2.51 2.51 0 0 0-.91.46 2.31 2.31 0 0 0-.59.85 3.31 3.31 0 0 0-.24 1.33v2.22a3 3 0 0 0 .21 1.24 2.2 2.2 0 0 0 .58.81 2.34 2.34 0 0 0 .89.44 5.51 5.51 0 0 0 1 .19h2.22a5.52 5.52 0 0 0 1-.19 2.37 2.37 0 0 0 .89-.44 2.19 2.19 0 0 0 .57-.81 3 3 0 0 0 .24-1.25v-2.22a3.29 3.29 0 0 0-.24-1.33 2.29 2.29 0 0 0-.55-.84zm-1.44 4.66a1 1 0 0 1-.3.82 3.46 3.46 0 0 1-2.5 0 1 1 0 0 1-.3-.82v-2.85a1.06 1.06 0 0 1 .31-.86 3.14 3.14 0 0 1 2.48 0 1.06 1.06 0 0 1 .31.86zM65 11.64a1.33 1.33 0 0 0-.65 1v-1.31H62.2v7.51h2.27v-4.51a1.06 1.06 0 0 1 .47-1 2.76 2.76 0 0 1 1.4-.29h.78v-1.86h-.81a2.2 2.2 0 0 0-1.31.46zM72.07 14.11h-1a.94.94 0 0 1-.6-.15.44.44 0 0 1-.19-.34v-.4a.52.52 0 0 1 .25-.51 3.26 3.26 0 0 1 1.2-.13q.31 0 2.73.19v-1.45q-1.93-.14-2.67-.14a7.77 7.77 0 0 0-2.76.39 1.41 1.41 0 0 0-1 1.41v.92a1.6 1.6 0 0 0 .66 1.39 3.1 3.1 0 0 0 1.84.48h1a1.43 1.43 0 0 1 .87.18.68.68 0 0 1 .2.54v.47a.51.51 0 0 1-.37.52 3.18 3.18 0 0 1-1 .13 23.83 23.83 0 0 1-3-.33v1.51a22.92 22.92 0 0 0 3 .23h1.11a6.45 6.45 0 0 0 1-.16 2.42 2.42 0 0 0 .83-.35 1.72 1.72 0 0 0 .53-.63 2.05 2.05 0 0 0 .21-1v-.95q-.08-1.82-2.84-1.82zM34.87 21.86q-1.74 0-1.74 1.19v2q0 1.13 1.74 1.13a3.72 3.72 0 0 0 .6 0 2.68 2.68 0 0 0 .56-.16.94.94 0 0 0 .44-.35 1 1 0 0 0 .16-.58V23q0-1.14-1.76-1.14zM36 25q0 .72-1.15.72T33.73 25v-2a.75.75 0 0 1 .1-.39.6.6 0 0 1 .27-.24 1.3 1.3 0 0 1 .36-.11 2.88 2.88 0 0 1 .43 0Q36 22.27 36 23zM40.38 25.32a.33.33 0 0 1-.19.33 1.7 1.7 0 0 1-.67.09 1.34 1.34 0 0 1-.36 0 .39.39 0 0 1-.21-.12.42.42 0 0 1-.08-.16.77.77 0 0 1 0-.19V23h-.58v2.27a.88.88 0 0 0 .23.67 1.23 1.23 0 0 0 .84.22q.93 0 1-.44v.38H41V23h-.58zM43.54 22H43v1h-.69v.38H43v1.82a1 1 0 0 0 .23.76 1.24 1.24 0 0 0 .81.2 3.83 3.83 0 0 0 .65-.05v-.38l-.46.05a.83.83 0 0 1-.52-.11.58.58 0 0 1-.13-.44v-1.87h1.11V23h-1.15zM47.33 24.26H47c-.38 0-.57-.1-.57-.31v-.26a.31.31 0 0 1 .17-.3 1.44 1.44 0 0 1 .62-.09 6 6 0 0 1 1 .09V23l-.94-.05c-.92 0-1.38.24-1.38.73v.29a.67.67 0 0 0 .25.55 1.14 1.14 0 0 0 .74.2h.35a.85.85 0 0 1 .44.08.3.3 0 0 1 .13.28v.31a.29.29 0 0 1-.19.3 1.7 1.7 0 0 1-.58.07 8.29 8.29 0 0 1-1.08-.12v.44a7.81 7.81 0 0 0 1.06.08 2.13 2.13 0 0 0 1-.19.72.72 0 0 0 .35-.69V25q-.06-.74-1.04-.74zM52.33 23.18A.66.66 0 0 0 52 23a1.87 1.87 0 0 0-.38-.07h-1a1.85 1.85 0 0 0-.38.07.67.67 0 0 0-.31.18 1 1 0 0 0-.18.33 1.56 1.56 0 0 0-.07.52v1.07a1.52 1.52 0 0 0 .09.58.6.6 0 0 0 .31.32 1.47 1.47 0 0 0 .43.13 5.61 5.61 0 0 0 .6 0h.48a1.86 1.86 0 0 0 .38-.07.7.7 0 0 0 .31-.17.82.82 0 0 0 .18-.31 1.48 1.48 0 0 0 .07-.49V24a1.59 1.59 0 0 0-.07-.52.94.94 0 0 0-.13-.3zm-.33 2a1 1 0 0 1 0 .33.3.3 0 0 1-.17.18.79.79 0 0 1-.25.07h-.38a3 3 0 0 1-.38 0 .8.8 0 0 1-.25-.07.3.3 0 0 1-.17-.18 1 1 0 0 1 0-.33v-1.25c0-.29.06-.46.17-.53a2.22 2.22 0 0 1 1.33 0q.17.1.17.53zM56.31 25.32a.33.33 0 0 1-.19.33 1.71 1.71 0 0 1-.66.09 1.35 1.35 0 0 1-.36 0 .38.38 0 0 1-.21-.12.43.43 0 0 1-.08-.16.77.77 0 0 1 0-.19V23h-.58v2.27a.88.88 0 0 0 .23.67 1.22 1.22 0 0 0 .84.22q.93 0 1-.44v.38h.58V23h-.58zM59.44 23.09a.48.48 0 0 0-.28.4V23h-.54v3.09h.58V23.9a.4.4 0 0 1 .19-.38 1.26 1.26 0 0 1 .58-.1h.32v-.49H60a1.07 1.07 0 0 0-.56.16zM62.18 25.63a.51.51 0 0 1-.16-.45v-1.27a.61.61 0 0 1 .14-.49 1.12 1.12 0 0 1 .62-.11 3.89 3.89 0 0 1 1 .13V23a4.1 4.1 0 0 0-.88-.1h-.72a.79.79 0 0 0-.3.1 1.07 1.07 0 0 0-.21.18.73.73 0 0 0-.15.3 1.84 1.84 0 0 0 0 .44v1.14a1.31 1.31 0 0 0 .08.48.83.83 0 0 0 .18.3.69.69 0 0 0 .31.16 1.77 1.77 0 0 0 .36.07h.44a4.84 4.84 0 0 0 1-.09v-.43a3.8 3.8 0 0 1-.94.12 1.31 1.31 0 0 1-.77-.04zM65.26 21.86h.57v.6h-.57zM65.26 22.99h.57v3.09h-.57zM69.16 22.92c-.62 0-1 .15-1 .44V23h-.57v3.1h.57v-2.26a.44.44 0 0 1 .17-.4 1.43 1.43 0 0 1 .68-.11 1.34 1.34 0 0 1 .36 0 .38.38 0 0 1 .2.12.47.47 0 0 1 .08.16.82.82 0 0 1 0 .19v2.24h.57v-2.23a.88.88 0 0 0-.23-.67 1.22 1.22 0 0 0-.83-.22zM74.08 23.29c-.1-.24-.41-.36-.95-.36a1.57 1.57 0 0 0-1 .24 1 1 0 0 0-.3.79v1.24a.89.89 0 0 0 .26.73 1.61 1.61 0 0 0 1 .21 2.17 2.17 0 0 0 .65-.09c.19-.06.29-.16.3-.31v.74a.53.53 0 0 1-.2.47 1.14 1.14 0 0 1-.64.14 9.9 9.9 0 0 1-1.12-.09v.41a6.65 6.65 0 0 0 1.07.07 2.13 2.13 0 0 0 1.1-.23 1 1 0 0 0 .37-.89V23h-.54zm0 2a.43.43 0 0 1-.19.41 1.4 1.4 0 0 1-.63.11 1.32 1.32 0 0 1-.63-.1.46.46 0 0 1-.16-.42v-1.4a.49.49 0 0 1 .15-.42 1.19 1.19 0 0 1 .63-.11 1.36 1.36 0 0 1 .68.11.47.47 0 0 1 .16.41zM15.12 2.4V25l12.38 2.4V0zm9.66 7.77h-2.93v8.61H20v-8.62h-2.9V8.61h7.68zM0 27.39L12.39 25V2.4L0 0zM5.64 8.61H7.5v10.17H5.64z"/></symbol><symbol id="phone-ico" viewBox="0 0 15 24"><title>phone-ico</title><path d="M0 0v24h15V0zm1.15 1.14h12.7v17.72H1.15zm6.2 18a2 2 0 1 1-2 2 2 2 0 0 1 2.01-2zm0 1.14a.86.86 0 1 0 .87.86.85.85 0 0 0-.86-.85z"/></symbol><symbol id="steering-ico" viewBox="0 0 68.03 23.64"><title>steering-ico</title><path d="M55.19 10.11v3.78h-16a5.47 5.47 0 0 1-10.29 0h-16v-3.78h16a5.46 5.46 0 0 1 3.16-3.23V4.23h-1V2.47h5.9v1.76h-1v2.65a5.49 5.49 0 0 1 3.19 3.23zM67.38.02H57.42a.84.84 0 0 0-.84.84V22.8a.84.84 0 0 0 .84.84H67.38a.84.84 0 0 0 .68-.84V.8a.83.83 0 0 0-.68-.78zm-.4.43l-3.06 1.08V.45h3.06m-9.37 0h3.05v1.08L57.6.45m-.12.63l3.18 1.12v2.25l-3.18-1.12zm0 2.92l3.18 1.12v2.24l-3.18-1.12zm0 2.91l3.18 1.12v2.24l-3.18-1.12zm0 2.92l3.18 1.12v2.24l-3.18-1.12zm0 2.92l3.18 1.12v2.24l-3.18-1.12zm0 2.91l3.18 1.14v2.24l-3.18-1.14zm0 2.92l3.18 1.12v2.24l-3.18-1.14zm0 4.51v-1.6l3.18 1.13v.48zm3.81 0V.45h.77v22.64zm2 0h-.74V.45h.74zm3.81 0h-3.19v-.48l3.15-1.12zm-.04-2.29l-3.18 1.12V19.7l3.18-1.12zm0-2.92L63.88 19v-2.2l3.18-1.14zm0-2.91l-3.18 1.12v-2.22l3.18-1.12zm0-2.92l-3.18 1.12v-2.22l3.18-1.15zm0-2.91l-3.18 1.12V8.04l3.18-1.13zm0-2.92l-3.18 1.12V5.12L67.06 4zm0-2.91l-3.18 1.12V2.2l3.18-1.12zM10.79.02H.84A.84.84 0 0 0 0 .86V22.8a.84.84 0 0 0 .84.84h9.95a.84.84 0 0 0 .65-.82V.8a.83.83 0 0 0-.65-.78zm-.4.43L7.33 1.53V.45h3.06m-9.37 0h3.04v1.08l-3-1.08m-.12.63L4.06 2.2v2.25L.88 3.33zM.94 4l3.12 1.12v2.24L.88 6.24zm0 2.91l3.12 1.13v2.24L.88 9.16zm0 2.92l3.12 1.12v2.24L.88 12.07zm0 2.92l3.12 1.12v2.24L.88 14.99zm0 2.91l3.12 1.14v2.24L.9 17.9zm0 2.92l3.12 1.12v2.24L.9 20.8zm0 4.51v-1.6l3.12 1.13v.48zm3.81 0V.45h.73v22.64zm2 0h-.79V.45h.74zm3.81 0H7.33v-.48l3.18-1.12zm0-2.27l-3.18 1.12V19.7l3.18-1.12zm0-2.92l-3.18 1.12V16.8l3.18-1.12zm0-2.91l-3.18 1.12v-2.24l3.18-1.12zm0-2.92l-3.18 1.12v-2.24l3.13-1.15zm0-2.91l-3.18 1.12V8.04l3.18-1.12zm0-2.92L7.38 7.36V5.12L10.56 4zm0-2.91L7.38 4.45V2.2l3.18-1.12z"/></symbol><symbol id="telegram-ico" viewBox="0 0 24 24"><title>telegram-ico</title><path d="M4.48 11.72l3.59 1.34 1.39 4.47a.42.42 0 0 0 .67.2l2-1.63a.6.6 0 0 1 .73 0l3.61 2.62a.42.42 0 0 0 .66-.26l2.65-12.74a.42.42 0 0 0-.57-.48L4.48 10.93a.42.42 0 0 0 0 .79zm4.76.63l7-4.32a.12.12 0 0 1 .15.19l-5.78 5.38a1.2 1.2 0 0 0-.37.72L10 15.78a.18.18 0 0 1-.35 0l-.76-2.67a.71.71 0 0 1 .35-.76z"/><path d="M0 0v24h24V0zm22.52 22.52h-21v-21h21z"/></symbol><symbol id="temp-icon-left-arrow" viewBox="0 0 31.494 31.494"><path d="M10.273 5.01a1.117 1.117 0 0 1 1.587 1.57l-8.047 8.047h26.554c.62 0 1.127.492 1.127 1.11 0 .62-.508 1.128-1.127 1.128H3.813l8.047 8.032c.43.444.43 1.16 0 1.587a1.112 1.112 0 0 1-1.587 0L.32 16.532a1.12 1.12 0 0 1 0-1.57l9.953-9.953z" fill="#1E201D"/></symbol><symbol id="temp-icon-right-arrow" viewBox="0 0 31.49 31.49"><path d="M21.205 5.007a1.117 1.117 0 0 0-1.587 1.57l8.047 8.048H1.11c-.618 0-1.11.493-1.11 1.112 0 .62.492 1.127 1.11 1.127h26.555l-8.047 8.032c-.43.444-.43 1.16 0 1.587.444.444 1.16.444 1.587 0l9.952-9.952a1.092 1.092 0 0 0 0-1.57l-9.952-9.95z" fill="#1E201D"/></symbol><symbol id="transmission-ico" viewBox="0 0 46 80"><title>transmission-ico</title><path d="M17.34.21a7.92 7.92 0 0 0-1.53.61 7.54 7.54 0 0 0-2.65 3l-.37.89v40.28H8.35c-4.14 0-4.48.06-5.18.39A5.85 5.85 0 0 0 .45 48l-.45.86v9.86l.46.91a5.37 5.37 0 0 0 2.64 2.44c.89.41.93.41 5.24.45h4.35v6.37c0 6.31 0 6.38.43 7.31a7.17 7.17 0 0 0 3.45 3.38c.94.38 1 .38 6.31.38s5.37 0 6.31-.38a7.17 7.17 0 0 0 3.45-3.38c.38-.92.38-1 .43-7.31v-6.37h8.71l1.17-.52a5.28 5.28 0 0 0 2.56-2.52c.37-.7.37-.81.37-5.65v-4.97l-.45-.86a5.85 5.85 0 0 0-2.64-2.53c-.7-.33-1-.34-5.18-.39h-4.44V4.8l-.47-1A7.17 7.17 0 0 0 29.25.42c-.93-.36-1.1-.38-6-.41-4.07-.01-5.19-.01-5.91.2zm10.34 5.1l.37.33V45h-2.56v-7.69c0-7.17 0-7.75-.3-8.34a2.27 2.27 0 0 0-2.29-1.39 2.27 2.27 0 0 0-2.11 1.08c-.32.42-.34.63-.38 8.4v8h-2.59V5.69l.35-.36c.34-.33.36-.33 4.75-.33s4.4 0 4.76.31zm12.76 42.61a1.13 1.13 0 0 1 0 1.72l-.38.39H5.82l-.38-.39a1.13 1.13 0 0 1 0-1.72l.38-.39h34.23zM28.05 68.45c0 5.84 0 5.9-.35 6.26s-.35.36-4.75.36-4.4 0-4.76-.34l-.37-.33V62.55h10.23zM38.28 12.48v5h2.16v-3.36h.8a15.31 15.31 0 0 0 1.9-.17 2.47 2.47 0 0 0 1.6-.66 3.26 3.26 0 0 0 .27-4.6c-.88-1-1.44-1.14-4.3-1.14h-2.43v5zM43.4 10a1.27 1.27 0 0 1 0 1.6c-.21.24-.5.28-1.6.28h-1.28V9.66h1.28c1.07 0 1.32.05 1.6.34z"/><path d="M38.28 32.51v5h2.16v-3.36h.69c.62 0 .77.08 1.36.72A3.37 3.37 0 0 1 43.71 37v.47H46l-.11-.81a4 4 0 0 0-1.05-2.38l-.53-.58.48-.44A3.31 3.31 0 0 0 44 27.8c-.53-.24-1.07-.3-3.15-.3h-2.57v5zM43.4 30a1.27 1.27 0 0 1 0 1.6c-.21.24-.5.28-1.6.28h-1.28v-2.19h1.28c1.07 0 1.32.05 1.6.31zM38.28 72.57v5h2.56v-4.92l1.28 2.46 1.26 2.47H46v-10h-2.6v4.93L42.1 70l-1.26-2.46h-2.56v5z"/></symbol><symbol id="undercarriage-ico" viewBox="0 0 56.74 59.96"><title>undercarriage-ico</title><path d="M55.35 9.77a1.72 1.72 0 0 0-.39-.05H34.19a1.79 1.79 0 0 0-1.78 1.79v46.67a1.78 1.78 0 0 0 1.78 1.78h20.77a1.73 1.73 0 0 0 .39 0 1.78 1.78 0 0 0 1.39-1.78V11.51a1.77 1.77 0 0 0-1.39-1.74zm-.86.92l-6.5 2.29v-2.29h6.5m-19.91 0h6.5v2.29l-6.5-2.29m-.26 1.34l6.76 2.35v4.8l-6.76-2.38zm0 6.2l6.76 2.38v4.77L34.32 23zm0 6.19l6.76 2.39v4.76l-6.76-2.38zm0 6.2L41.08 33v4.76l-6.76-2.38zm0 6.2l6.76 2.38v4.76l-6.76-2.38zm0 6.19l6.76 2.37v4.77l-6.76-2.39zm0 6.2l6.76 2.38v4.79L34.32 54zm0 9.59v-3.42l6.76 2.39v1zm8.1 0V10.69h1.56V58.8zm4.24 0h-1.57V10.69h1.57zm8.09 0h-6.76v-1l6.76-2.42zm0-4.83l-6.76 2.41v-4.79l6.76-2.38zm0-6.2l-6.76 2.39v-4.78L54.75 43zm0-6.19l-6.76 2.38V39.2l6.76-2.38zm0-6.2l-6.76 2.38V33l6.76-2.38zm0-6.19l-6.76 2.38v-4.76l6.76-2.43zm0-6.2l-6.76 2.39v-4.77l6.76-2.38zm0-6.19l-6.76 2.38v-4.8L54.75 12zM29.69 19.87h1.65v29.95h-1.65zM15.96 33.7a3.43 3.43 0 0 1-2.62-1.32 4.13 4.13 0 0 1-.81-1.54H0v7.91h28.69v-7.86h-9.3a3.69 3.69 0 0 1-3.43 2.81zM17.84.91A2.43 2.43 0 0 0 15.99 0a2.82 2.82 0 0 0-2.59 2.61h5.18a3.25 3.25 0 0 0-.74-1.7z"/><path d="M14.11 31.79a2.43 2.43 0 0 0 1.85.91 2.89 2.89 0 0 0 2.62-3.11v-.56h-5.24v.56a3.44 3.44 0 0 0 .77 2.2zM10.14 26.94a1.09 1.09 0 0 0 1.1 1.09h9.08a1.09 1.09 0 0 0 .42-2.1l-.21-.1-2.69-1h2.5a1.09 1.09 0 0 0 .42-2.09l-.21-.1-2.71-.96h2.5a1.09 1.09 0 0 0 1.09-1.09 1.08 1.08 0 0 0-.7-1l-.2-.1-2.69-1h2.5a1.09 1.09 0 0 0 .4-2.11 1 1 0 0 0-.23-.12l-2.67-.88h2.47a1.09 1.09 0 0 0 .42-2.1l-.21-.1-2.69-1h2.5a1.09 1.09 0 0 0 .42-2.1l-.21-.1-2.69-1h2.5a1.09 1.09 0 0 0 .42-2.09l-.21-.1-2.69-1h2.5a1.095 1.095 0 0 0 0-2.19h-9.13a1.095 1.095 0 1 0 0 2.19h.15l2.74 1h-2.89a1.09 1.09 0 1 0 0 2.18h.12l2.75 1h-2.87a1.095 1.095 0 1 0 0 2.19h.15l2.74 1h-2.89a1.1 1.1 0 1 0 0 2.19h.15l2.74 1h-2.89a1.09 1.09 0 1 0 0 2.18h.12l2.75 1h-2.87a1.095 1.095 0 1 0 0 2.19h.15l2.74 1h-2.89a1.09 1.09 0 1 0 0 2.18h.12l2.75 1h-2.87a1.1 1.1 0 0 0-1.1 1.04z"/></symbol><symbol id="viber-ico" viewBox="0 0 24 24"><title>viber-ico</title><path d="M8.93 15.05a19.54 19.54 0 0 0 6.54 4.23 2.73 2.73 0 0 0 3.87-1.85 1.41 1.41 0 0 0 0-1 8.37 8.37 0 0 0-3.79-2.78 1.4 1.4 0 0 0-1.24.81 1.41 1.41 0 0 1-2 .46 6.51 6.51 0 0 1-2-1.33 6.51 6.51 0 0 1-1.33-2 1.41 1.41 0 0 1 .46-2 1.4 1.4 0 0 0 .81-1.24 8.37 8.37 0 0 0-2.74-3.71 1.41 1.41 0 0 0-1 0A2.73 2.73 0 0 0 4.7 8.51a19.54 19.54 0 0 0 4.23 6.54zM12.43 5.54a5 5 0 0 1 1.21 0A5.42 5.42 0 0 1 17 7.08a5.21 5.21 0 0 1 1.53 3.22 4.71 4.71 0 0 1-.05 1.21.52.52 0 0 0 .42.6h.1a.52.52 0 0 0 .51-.43 5.75 5.75 0 0 0 .06-1.48 6.25 6.25 0 0 0-1.83-3.86 6.46 6.46 0 0 0-4-1.88 6 6 0 0 0-1.46.05.52.52 0 0 0 .16 1z"/><path d="M17.23 11.66h.07a.52.52 0 0 0 .51-.45 4 4 0 0 0 0-.85 4.52 4.52 0 0 0-1.31-2.79 4.72 4.72 0 0 0-2.92-1.38 4.3 4.3 0 0 0-.91 0 .52.52 0 0 0 .13 1 3.26 3.26 0 0 1 .69 0 3.68 3.68 0 0 1 2.28 1.08 3.48 3.48 0 0 1 1 2.14 3 3 0 0 1 0 .63.52.52 0 0 0 .46.62z"/><path d="M15.55 11.35a.52.52 0 0 0 .52-.48 2.36 2.36 0 0 0 0-.36 3 3 0 0 0-2.67-2.59h-.34a.52.52 0 1 0 0 1h.2a2 2 0 0 1 1.73 1.64 1.32 1.32 0 0 1 0 .2.52.52 0 0 0 .56.59z"/><path d="M0 0v24h24V0zm22.52 22.52h-21v-21h21z"/></symbol></svg>