<svg xmlns="http://www.w3.org/2000/svg" style="display:none"><symbol id="arrow-thin-right-ico" viewBox="0 0 9.82 20.42"><title>arrow-thin-right-ico</title><path d="M0 19.91a.5.5 0 0 0 .88.33L9.7 10.18a.5.5 0 0 0 0-.67L.86.16A.5.5 0 0 0 0 .5v1.68a.5.5 0 0 0 .15.35l7 7a.5.5 0 0 1 0 .69L.13 18a.5.5 0 0 0-.13.34z"/></symbol><symbol id="bfr-logo" viewBox="0 0 152.65 65"><title>bfr-logo</title><path d="M20.64 6.76l.36-.85h22.81l.51.84H52l2-5.57L53 0H12.86l-.17.84q0 .51.08 1.77T13 4.22l-.9 2.54zM42.46 33.11l4.4-12.16a14.08 14.08 0 0 1-.68-1.77 3.22 3.22 0 0 0-1.1-1.77 7.75 7.75 0 0 0 2.11-1.6q.93-1 2.45-2.45l1.18-3.13h-7.35q-.42.93-1.1 2.11a6.85 6.85 0 0 1-1.52 2H17.93l1.52-4.14h-8.53L3.47 30.49q-.25.25-.68.76a11.51 11.51 0 0 1-.85.93l-.85 1q-.34.42-.51.68a5.53 5.53 0 0 1-.34.59q-.17.17-.17.25h40.44zm-3.81-10.39a13 13 0 0 1-.76 2.36l-.08.25q-.17.42-.68 1.44a5.18 5.18 0 0 1-.59 1.23l-1.18.84H12.52l3.13-8.53h22.83a3.48 3.48 0 0 1 .17 2.41zM92.75 5.83a26.45 26.45 0 0 0 3.47-1.44q1.69-.93 3.3-2a31.48 31.48 0 0 0 3-2.28H64.25a2.08 2.08 0 0 0-.76.42 2.71 2.71 0 0 0-.59.59l-2.28 5.21h28.92a11.2 11.2 0 0 0 3.21-.5zM115.15 6.76l.34-.84h22.83l.51.84h7.61L152.65 0h-45.28l-.17.84q0 .51.08 1.77a8.17 8.17 0 0 0 .34 1.6l-.93 2.53zM56 34.71l2.57-1.6 4.94-12.59h20A12.6 12.6 0 0 0 87 20a21.79 21.79 0 0 0 3.64-1.35q1.78-.93 3.47-2a33.72 33.72 0 0 0 3.21-2.36H59.1a2.08 2.08 0 0 0-.76.42 2.7 2.7 0 0 0-.59.59l-7.56 19.41zM96.9 34.38q.25.34.42.34h6.18q1.27-.42 1.44-.84l4-11.06 8.37-.84a2.37 2.37 0 0 1 .59.34l.76.51c1 1 6.66 6.5 7.56 7.35s1.66 1.46 2.28 2 3 2.59 3.07 2.53h9.19c-1.1-1.2-9.19-10.94-9.19-10.94a.84.84 0 0 1-.23-1c.24-.71 1.24-.62 1.86-.51A3.65 3.65 0 0 0 135 22l8-5.91 2.2-5.83H138a12.94 12.94 0 0 1-.76 1.6 9.58 9.58 0 0 1-1 1.6 4.54 4.54 0 0 1-1.27 1.27 3 3 0 0 1-1.69.51h-21.17l1.86-5h-8.46l-8.7 23.65a.6.6 0 0 0 .09.49zM8.84 55.8l.84 2.41H13L8 45.35H4.91L0 58.21h3.26l.82-2.41zm-2.36-7.09l1.69 4.9H4.76zM15.88 45.35v8c0 1.4.15 5.23 5.68 5.23s5.68-3.93 5.68-5.23v-8h-3.1v7.49c0 2.2-.69 3.23-2.59 3.23S19 55 19 52.84v-7.49zM37.73 58.21V47.85h3.95v-2.5H30.67v2.5h3.97v10.36h3.09zM56.72 51.78c0-3.89-2.12-6.79-6.63-6.79-5.17 0-6.63 3.8-6.63 6.79s1.46 6.79 6.63 6.79c4.51 0 6.63-2.9 6.63-6.79zm-9.91 0c0-3.4 1.57-4.3 3.28-4.3 3.17 0 3.3 3.14 3.3 4.3s-.15 4.3-3.3 4.3c-1.71 0-3.28-.94-3.28-4.3zM65.84 56.08c-2.21 0-2.64-1.25-2.62-2h-3.13c0 1.71.88 4.54 5.71 4.54 5.25 0 5.54-3.23 5.54-4.28 0-2.81-2.32-3.49-5.08-4-1.12-.22-2.59-.46-2.59-1.58 0-.64.49-1.23 2-1.23s2.17.7 2.25 1.4h2.92c0-1.87-1.35-3.89-5-3.89-4 0-5.38 1.73-5.38 3.8 0 2.86 2 3.45 4.33 4 1.59.35 3.33.61 3.33 2 .06 1.03-1.12 1.24-2.28 1.24zM85.67 47.85v-2.5H75.32v12.86h10.54v-2.5h-7.45v-2.88h6.4v-2.37h-6.4v-2.61h7.26zM100.76 49c0-3.32-3.13-3.65-4.46-3.65h-6.71v12.86h3.09v-4.74h2.38c.36 0 2-.07 2.12 1.47.17 2 0 2.46.52 3.27h3.15c-.47-.66-.47-1.19-.51-2.83 0-.94-.06-2.61-1.87-3.12a3.15 3.15 0 0 0 2.29-3.26zm-5.25 2.11h-2.83v-3.26h2.72c1.33 0 2.1.39 2.1 1.65 0 .63-.25 1.62-1.99 1.62zM115.51 45.35h-3.42l-2.55 9.18-2.66-9.18h-3.54l4.44 12.86h3.28l4.45-12.86zM118.6 45.35h3.09V58.2h-3.09zM132.3 47.48a2.44 2.44 0 0 1 2.7 2.24h3c0-1.89-1.2-4.72-5.85-4.72-1.26 0-6.31.26-6.31 7 0 5 3.07 6.56 6.43 6.56 4.65 0 5.75-3 6-4.9h-3.07a2.59 2.59 0 0 1-2.75 2.41c-2.1 0-3.22-1.74-3.22-4.17-.06-4.29 2.38-4.42 3.07-4.42zM145.12 52.83h6.41v-2.37h-6.41v-2.61h7.27v-2.5h-10.36v12.86h10.55v-2.5h-7.46v-2.88zM0 38.56v2.75h152.58l-2.76-2.75H0zM0 65h149.82l2.76-2.75H0V65z"/></symbol><symbol id="brakes-ico" viewBox="0 0 52.668 55.44"><title>brakes-ico</title><path d="M38.846.044a3.769 3.769 0 0 0-2.471 1.5l-.2.263A31 31 0 0 0 30.466.176a2.824 2.824 0 0 0-3.318 3.191l1.052 6.766a2.757 2.757 0 0 0 1.946 2.242 19.45 19.45 0 0 1 10.646 7.645 2.761 2.761 0 0 0 2.692 1.151l6.807-1.061a2.811 2.811 0 0 0 2.027-4.141 31.511 31.511 0 0 0-3.439-5.029l.111-.142a3.784 3.784 0 0 0-.817-5.282L41.649.731a3.758 3.758 0 0 0-2.8-.687zM26 3.387A25.9 25.9 0 0 0 9.45 9.335a1.022 1.022 0 0 1 .867 1.02 1.039 1.039 0 0 1-1.039 1.05 1.053 1.053 0 0 1-1.039-.969A25.992 25.992 0 0 0 .123 26.928a1.049 1.049 0 0 1 1.351 1.6 1.036 1.036 0 0 1-1.422.032c-.013.289-.052.564-.052.858a25.978 25.978 0 0 0 5.96 16.568 1.026 1.026 0 0 1 1-.879 1.065 1.065 0 0 1 1.059 1.06 1.017 1.017 0 0 1-.968 1.02 25.99 25.99 0 0 0 16.457 8.13 1.037 1.037 0 0 1 .111-1.333 1.05 1.05 0 0 1 1.482 0 1.036 1.036 0 0 1 .052 1.4c.294.013.558.052.847.052a25.893 25.893 0 0 0 16.538-5.948 1.036 1.036 0 0 1 .161-2.06 1.057 1.057 0 0 1 1.039.97 26.055 26.055 0 0 0 8.128-16.512 1.04 1.04 0 0 1-1.351-1.575 1.03 1.03 0 0 1 1.412-.052c.023-.289.052-.559.052-.848a25.924 25.924 0 0 0-1.412-8.473.335.335 0 0 1-.131.041l-6.807 1.04a3.352 3.352 0 0 1-.544.052 2.7 2.7 0 0 1-.555-.052 1.113 1.113 0 0 1-.121.152 1.04 1.04 0 0 1-1.482 0 1.081 1.081 0 0 1-.272-1.04 3.177 3.177 0 0 1-.555-.616l-.009-.009a1.049 1.049 0 0 1-1.1-.243 1.036 1.036 0 0 1-.111-1.333c-.155-.171-.294-.34-.444-.495a1.02 1.02 0 0 1-1.351-.111 1.037 1.037 0 0 1-.131-1.313 14.586 14.586 0 0 0-1.17-.919 17.893 17.893 0 0 0-4.276-2.363h-.071a.982.982 0 0 1-.7-.273l-.827-.253a.531.531 0 0 1-.232-.1 1.052 1.052 0 1 1-1.634-1.232 3.437 3.437 0 0 1-.7-1.606l-.615-4.019a1.15 1.15 0 0 1-.292.535 1.04 1.04 0 0 1-1.482 0 1.053 1.053 0 0 1 0-1.484 1.041 1.041 0 0 1 1.482 0 .731.731 0 0 1 .171.232L26.3 3.5c0-.032-.013-.055 0-.091a2.259 2.259 0 0 0-.3-.023zm-2.21 3.525a1.029 1.029 0 0 1 .736.3 1.056 1.056 0 0 1 0 1.495 1.04 1.04 0 0 1-1.482 0 1.065 1.065 0 0 1 0-1.495 1.052 1.052 0 0 1 .746-.3zM21.864 8.83a1.029 1.029 0 0 1 .736.3 1.065 1.065 0 0 1 0 1.494 1.045 1.045 0 0 1-1.482 0 1.065 1.065 0 0 1 0-1.494 1.052 1.052 0 0 1 .746-.3zm-1.926 1.919a1.029 1.029 0 0 1 .736.313 1.066 1.066 0 0 1 0 1.495 1.049 1.049 0 0 1-1.482 0 1.066 1.066 0 0 1 0-1.495 1.054 1.054 0 0 1 .746-.313zm6.062.879a1.061 1.061 0 0 1 1.039 1.06 1.05 1.05 0 0 1-2.1 0A1.065 1.065 0 0 1 26 11.628zm-16.719.414a1.034 1.034 0 0 1 1.039 1.04 1.048 1.048 0 0 1-1.039 1.06 1.065 1.065 0 0 1-1.059-1.06 1.047 1.047 0 0 1 1.057-1.04zm8.743.646a1.055 1.055 0 0 1 .746 1.8 1.049 1.049 0 1 1-.746-1.8zM26 14.244a15.169 15.169 0 1 1-15.168 15.168A15.165 15.165 0 0 1 26 14.244zm-9.9.354a1.069 1.069 0 0 1 .746.313 1.047 1.047 0 1 1-.746-.311zm-6.817.162a1.048 1.048 0 0 1 1.039 1.06 1.03 1.03 0 0 1-1.039 1.04 1.047 1.047 0 0 1-1.059-1.04 1.065 1.065 0 0 1 1.055-1.061zm4.891 1.777a1.03 1.03 0 0 1 .736.3 1.058 1.058 0 1 1-.736-.3zm-4.891.929a1.055 1.055 0 1 1-1.059 1.06 1.065 1.065 0 0 1 1.055-1.061zM26 19.455a9.958 9.958 0 1 0 9.943 9.957A9.958 9.958 0 0 0 26 19.455zM9.279 20.2a1.056 1.056 0 0 1 0 2.111 1.056 1.056 0 1 1 0-2.111zm16.709 1.384a1.3 1.3 0 1 1-1.3 1.3 1.3 1.3 0 0 1 1.3-1.298zm17.587.717a1.05 1.05 0 0 1 .746 1.8 1.04 1.04 0 0 1-1.482 0 1.066 1.066 0 0 1 0-1.495 1.03 1.03 0 0 1 .736-.306zm-34.3.616a1.056 1.056 0 0 1 0 2.111 1.056 1.056 0 1 1 0-2.111zm12.1.576a1.3 1.3 0 1 1-.918.384 1.293 1.293 0 0 1 .923-.383zm9.217 0a1.3 1.3 0 1 1-.918.384 1.294 1.294 0 0 1 .926-.383zm14.894.737a1.041 1.041 0 0 1 .736.314 1.032 1.032 0 1 1-.736-.314zm-36.212 1.4a1.051 1.051 0 0 1 1.039 1.06 1.034 1.034 0 0 1-1.039 1.04A1.051 1.051 0 0 1 8.22 26.7a1.068 1.068 0 0 1 1.059-1.065zm38.138.515a1.05 1.05 0 1 1-.746.3 1.039 1.039 0 0 1 .751-.295zM26 26.322a3.09 3.09 0 1 1-3.1 3.09 3.09 3.09 0 0 1 3.1-3.09zm23.345 1.757a1.055 1.055 0 0 1 .746 1.8 1.049 1.049 0 1 1-.746-1.8zm-29.869.041a1.3 1.3 0 1 1-1.3 1.293 1.289 1.289 0 0 1 1.298-1.293zm13.039 0a1.3 1.3 0 1 1-1.3 1.293 1.294 1.294 0 0 1 1.298-1.293zm10.185.243a1.056 1.056 0 1 1-1.039 1.05 1.039 1.039 0 0 1 1.039-1.05zm-33.419.009a1.03 1.03 0 0 1 1.039 1.04 1.048 1.048 0 0 1-1.039 1.06 1.064 1.064 0 0 1-1.059-1.06 1.048 1.048 0 0 1 1.057-1.041zm-6.645.273a1.052 1.052 0 0 1 .746.3 1.065 1.065 0 0 1 0 1.495A1.053 1.053 0 0 1 1.9 28.947a1.03 1.03 0 0 1 .733-.303zm1.924 1.928a1.055 1.055 0 0 1 .746 1.8 1.04 1.04 0 0 1-1.482 0 1.053 1.053 0 0 1 0-1.485 1.03 1.03 0 0 1 .736-.315zm38.138.515a1.047 1.047 0 0 1 1.059 1.04 1.065 1.065 0 0 1-1.059 1.06 1.048 1.048 0 0 1-1.039-1.06 1.03 1.03 0 0 1 1.041-1.04zM6.486 32.5a1.068 1.068 0 0 1 .746.313 1.049 1.049 0 1 1-1.482 0 1.039 1.039 0 0 1 .736-.313zm14.894.232a1.284 1.284 0 0 1 .918.374 1.3 1.3 0 1 1-1.836 0 1.291 1.291 0 0 1 .918-.372zm9.217 0a1.286 1.286 0 0 1 .918.374 1.3 1.3 0 1 1-1.835 0 1.291 1.291 0 0 1 .92-.372zm12.1 1.06a1.056 1.056 0 1 1 0 2.111 1.056 1.056 0 0 1 0-2.111zM8.4 34.42a1.033 1.033 0 0 1 .736.3 1.058 1.058 0 1 1-.736-.3zm17.587.232a1.3 1.3 0 1 1-1.3 1.293 1.3 1.3 0 0 1 1.301-1.293zm-15.661 1.7a1.029 1.029 0 0 1 .736.314 1.021 1.021 0 1 1-.736-.314zm32.37.182a1.056 1.056 0 1 1-1.039 1.05 1.042 1.042 0 0 1 1.043-1.053zm-30.442 1.744a1.042 1.042 0 0 1 .736.313 1.053 1.053 0 0 1 0 1.485 1.041 1.041 0 0 1-1.482 0 1.055 1.055 0 0 1 .746-1.8zm30.444.97a1.048 1.048 0 0 1 1.059 1.04 1.065 1.065 0 0 1-1.057 1.06 1.051 1.051 0 0 1-1.039-1.061 1.034 1.034 0 0 1 1.039-1.039zM14.17 40.2a1.03 1.03 0 0 1 .736.3 1.053 1.053 0 0 1 0 1.485 1.05 1.05 0 0 1-1.483-1.485 1.052 1.052 0 0 1 .747-.3zm23.647 0a1.028 1.028 0 0 1 .736.3 1.054 1.054 0 0 1 0 1.485 1.041 1.041 0 0 1-1.482 0 1.045 1.045 0 0 1 .746-1.788zm4.883 1.764a1.056 1.056 0 1 1 0 2.111 1.056 1.056 0 0 1 0-2.111zm-6.817.152a1.063 1.063 0 0 1 .746.314 1.049 1.049 0 1 1-1.482 0 1.029 1.029 0 0 1 .734-.314zm-1.926 1.939a1.04 1.04 0 0 1 .746.3 1.053 1.053 0 0 1 0 1.485 1.049 1.049 0 0 1-1.482-1.485 1.02 1.02 0 0 1 .734-.3zm8.743.645a1.047 1.047 0 0 1 1.059 1.04A1.065 1.065 0 0 1 42.7 46.8a1.048 1.048 0 0 1-1.039-1.06A1.03 1.03 0 0 1 42.7 44.7zm-33.008.4a1.048 1.048 0 0 1 1.039 1.06 1.031 1.031 0 0 1-1.039 1.04 1.047 1.047 0 0 1-1.059-1.04 1.065 1.065 0 0 1 1.059-1.06zm2.713 0a1.039 1.039 0 0 1 1.028 1.06A1.019 1.019 0 0 1 12.4 47.2a1.048 1.048 0 0 1-1.059-1.04A1.065 1.065 0 0 1 12.4 45.1zm2.713 0a1.065 1.065 0 0 1 1.059 1.06 1.054 1.054 0 1 1-1.059-1.06zm2.723 0a1.056 1.056 0 0 1 1.049 1.06 1.054 1.054 0 0 1-2.108 0 1.065 1.065 0 0 1 1.058-1.06zm2.713 0a1.048 1.048 0 0 1 1.039 1.06 1.027 1.027 0 0 1-1.039 1.04 1.047 1.047 0 0 1-1.059-1.04 1.065 1.065 0 0 1 1.058-1.06zm2.713 0a1.065 1.065 0 0 1 1.059 1.06 1.047 1.047 0 0 1-1.059 1.04 1.03 1.03 0 0 1-1.039-1.04 1.048 1.048 0 0 1 1.038-1.06zm2.713 0a1.065 1.065 0 0 1 1.059 1.06 1.05 1.05 0 0 1-2.1 0 1.061 1.061 0 0 1 1.039-1.06zm6.071.868a1.03 1.03 0 0 1 .736.313 1.053 1.053 0 0 1 0 1.484 1.041 1.041 0 0 1-1.482 0 1.055 1.055 0 0 1 .746-1.8zm-1.926 1.929a1.04 1.04 0 0 1 .736.314 1.049 1.049 0 1 1-1.482 0 1.066 1.066 0 0 1 .744-.318zm-1.936 1.929a1.055 1.055 0 1 1-.736.313 1.028 1.028 0 0 1 .734-.318zm-1.908 1.914a1.044 1.044 0 0 1 .746.3 1.056 1.056 0 1 1-1.492 0 1.042 1.042 0 0 1 .746-.3z"/></symbol><symbol id="clock-ico" viewBox="0 0 70 70"><title>clock-ico</title><path d="M35 0A35 35 0 1 1 0 35 35 35 0 0 1 35 0zm0 3.59A31.41 31.41 0 1 0 66.41 35 31.38 31.38 0 0 0 35 3.59zm0 6.28a1.79 1.79 0 0 1 1.79 1.79V35A1.79 1.79 0 0 1 35 36.79H13.46a1.79 1.79 0 0 1 0-3.59h19.75V11.67A1.79 1.79 0 0 1 35 9.87z"/></symbol><symbol id="diagnostics-ico" viewBox="0 0 71.48 43.657"><title>diagnostics-ico</title><path d="M5.929 38.77h59.63a1.783 1.783 0 0 0 1.86-1.7V1.7a1.79 1.79 0 0 0-1.86-1.7H5.929a1.8 1.8 0 0 0-1.87 1.7v35.37a1.792 1.792 0 0 0 1.87 1.7zm.83-35.561h57.97v32.2H6.759zM0 40.12a3.392 3.392 0 0 0 3.226 3.538h65.025a3.392 3.392 0 0 0 3.23-3.537z"/><path d="M41.499 16.129h-.11c-.57-.01-1.26-.019-1.96-.019a23.008 23.008 0 0 0-2.99.12 11.9 11.9 0 0 0-1.39.5c-.22.09-.47.189-.73.3-2.02.86-4.79 2.18-5.41 2.91a.225.225 0 0 0-.05.19.191.191 0 0 0 .1.131.233.233 0 0 0 .1.05.663.663 0 0 0 .08.029 7.424 7.424 0 0 0 1.63.15c.28.01.58.021.91.021h.19c2.7 0 6.81-.211 9.78-.391l.12-.01v-.12c0-.33 0-.67-.02-1.03 0-.22-.02-.439-.03-.68-.04-.63-.11-1.31-.2-2.04zm-9.94 3.75c-.15-.069-.27-.109-.36-.05a.149.149 0 0 0-.08.16c0 .1.09.18.22.26-.2 0-.39 0-.56-.01a9.548 9.548 0 0 1-1.4-.1.436.436 0 0 1 .07-.07 9.5 9.5 0 0 1 1.37-1.01c.14-.08.26-.141.37-.2a1.5 1.5 0 0 1 .52-.14s.29 0 .29.159a8.062 8.062 0 0 1-.07.9c-.02.2-.08.2-.1.2a.589.589 0 0 1-.27-.099zm8.8.07l-.6.03c-.31.02-.62.04-.921.05-1.02.06-1.97.1-2.84.13-.2.01-.39.01-.59.021l-.72.029-.91.03c-.29 0-.58.01-.85.01-.37.011-.73.011-1.06.011h-.07l-.03-.03h.06c.11 0 .31-.05.35-.42a8.707 8.707 0 0 0 .07-.931c0-.26-.23-.39-.48-.409l.75-.36c.14-.07.28-.14.42-.2.21-.09.41-.18.61-.27a4.914 4.914 0 0 1 .48-.21c.82-.36 1.54-.65 2-.811a.909.909 0 0 1 .15-.05c.08-.03.15-.05.21-.07a.514.514 0 0 1 .09-.02c.07-.01.16-.021.26-.04.23-.021.52-.04.83-.05q.75-.031 1.86-.03c.53 0 1.07.01 1.54.01h.31v.01a27.011 27.011 0 0 1 .24 3.5c-.399.021-.779.051-1.159.071z"/><path d="M61.009 23.6a.994.994 0 0 0-.06-.21.494.494 0 0 1-.03-.07c-.02-.05-.04-.11-.07-.17a.222.222 0 0 0-.04-.07.288.288 0 0 1-.05-.069.225.225 0 0 1-.03-.051l-.06-.08a.437.437 0 0 1-.12-.17l-.02-.06a.64.64 0 0 1-.03-.21 1.228 1.228 0 0 0-.01-.18c0-.03-.01-.051-.01-.07v-.032c-.02-.08-.03-.16-.06-.25a.076.076 0 0 0-.01-.05l-.14-.62a1.439 1.439 0 0 1-.07-.22l-.04-.15c-.01-.04-.03-.08-.04-.109-.08-.3-.16-.56-.22-.74-.02-.061-.04-.11-.05-.141a.134.134 0 0 0-.02-.029l-.01-.051c-.059-.14-.26-.17-1.27-.3a14.248 14.248 0 0 1-2.84-.55c-.16-.06-.38-.15-.66-.27a35.189 35.189 0 0 0-13.28-3.02c-.14-.01-.29-.01-.44-.01-.19-.01-.39-.01-.58-.01-3.98-.021-4.21.05-5.09.319a62.823 62.823 0 0 0-6.35 2.98c-.79.39-1.4.71-1.61.79a11.563 11.563 0 0 1-2.38.4l-.03.25a11.947 11.947 0 0 0 2.51-.42c.211-.09.8-.39 1.62-.8a65.371 65.371 0 0 1 6.32-2.96c.85-.27 1.07-.33 5.01-.31.19 0 .38 0 .58.01a3.042 3.042 0 0 1 .42.01 34.893 34.893 0 0 1 13.2 3c.28.12.51.21.67.28a14.286 14.286 0 0 0 2.9.56 9.686 9.686 0 0 1 1.08.17c0 .011.01.03.01.04a1.092 1.092 0 0 1 .05.141 7.549 7.549 0 0 1 .22.729.355.355 0 0 1 .04.11l.04.14a1.4 1.4 0 0 0 .07.24l.13.519a.405.405 0 0 0 .01.091l.01.05a.788.788 0 0 1 .05.21.3.3 0 0 0 .01.09 1.058 1.058 0 0 1 .01.16.872.872 0 0 0 .05.32.035.035 0 0 1 .01.029.951.951 0 0 0 .17.26l.01.011a.2.2 0 0 0 .03.04l.03.04a.261.261 0 0 0 .05.08l.02.04a1.416 1.416 0 0 1 .08.17l.01.04a1.205 1.205 0 0 1 .06.18 8.091 8.091 0 0 1-.05 2.84l-.02.04a1.294 1.294 0 0 0-.39.23 1.967 1.967 0 0 1-.18.13c-.01.02-.03.029-.06.04a.2.2 0 0 1-.05.04l-.1.069c-.04.03-.08.05-.12.08a1.149 1.149 0 0 0-.11.07c-.08.04-.15.09-.24.13l-.19.11a4.358 4.358 0 0 1-.86.279.516.516 0 0 0-.12.021.974.974 0 0 1-.13.03h-.03c-.03.01-.05.01-.06.02-.42.09-.85.15-1.13.19a3.82 3.82 0 0 0 .07-.771 4.305 4.305 0 1 0-8.54.8h-20.72a4.822 4.822 0 0 0 .08-.8 4.33 4.33 0 0 0-2.79-4.04l-.03.26a4.075 4.075 0 0 1 2.57 3.78 3.862 3.862 0 0 1-.11.9l-.03.149h21.34l-.03-.149a3.937 3.937 0 0 1-.1-.9 4.055 4.055 0 1 1 8.11 0 3.067 3.067 0 0 1-.11.88l-.01.16h.16a13.34 13.34 0 0 0 1.34-.22.038.038 0 0 1 .03-.01.191.191 0 0 0 .05-.011c.04-.01.08-.02.13-.029a.692.692 0 0 0 .11-.021 4.1 4.1 0 0 0 .92-.3l.2-.11c.09-.04.17-.09.26-.14a.415.415 0 0 1 .11-.07c.04-.03.08-.06.14-.1l.13-.09c.03-.021.07-.04.08-.06.06-.04.12-.08.17-.12a1.24 1.24 0 0 1 .29-.18l.07-.01.04-.04a1.532 1.532 0 0 0 .09-.13 8.293 8.293 0 0 0 .06-2.994z"/><path d="M42.079 20.089c4.17-.25 8.51-.59 8.75-.689a.183.183 0 0 0 .13-.18c-.01-.481-3.1-2.16-4.23-2.481a18.462 18.462 0 0 0-4.19-.59 2.4 2.4 0 0 1-.25-.01h-.61l.02.14a27.73 27.73 0 0 1 .25 3.68v.141zm.21-3.7a2.4 2.4 0 0 0 .25.01 18.4 18.4 0 0 1 4.12.58 14.308 14.308 0 0 1 4.02 2.2c-.58.09-4.17.39-8.48.649a27.053 27.053 0 0 0-.24-3.44zM19.459 27.2a4.065 4.065 0 0 1 3.13-3.96l-.07-.24a4.35 4.35 0 0 0-3.24 5h-1.9a10.835 10.835 0 0 1-1.12-.04l-.58-.029a1.245 1.245 0 0 1-.61-.16.793.793 0 0 1-.1-.11l-.02-.03a.5.5 0 0 0-.03-.069.758.758 0 0 1 .01-.3.148.148 0 0 0 .02-.06.076.076 0 0 0 .01-.04.034.034 0 0 1 .01-.02l.01-.04c.03-.051.05-.08.05-.08l.03-.021v-.043a.408.408 0 0 0 .04-.09c.01-.01.01-.019.02-.04a.49.49 0 0 0 .02-.05.849.849 0 0 0 .07-.19 1.106 1.106 0 0 0 .02-.159c0-.33 0-.62.02-.9l-.01-.5a.782.782 0 0 0 .02-.21v-.11a.379.379 0 0 0 .01-.109 1.45 1.45 0 0 1 .01-.19 1.073 1.073 0 0 1 .01-.17.177.177 0 0 1 .01-.07v-.08l.016-.133h.11c.205.007.412.013.616.013a5.124 5.124 0 0 0 1.041-.089c.854-.2 1.1-.888 1.294-1.633l.038-.145-.149-.012c-.548-.041-1.1-.047-1.521-.047h-.557c.025-.035.048-.064.073-.1.41-.58 3.07-.95 5.59-1.22l-.07-.24c-2.69.28-5.25.65-5.72 1.31-.07.1-.125.174-.183.253l-.1.135a2.975 2.975 0 0 0-.705 1.624l-.019.138h.014a1.742 1.742 0 0 0-.018.121v.07a.325.325 0 0 0-.01.08 1.066 1.066 0 0 0-.01.17 1.659 1.659 0 0 0-.01.21.286.286 0 0 1-.01.09v.13a1.38 1.38 0 0 1-.01.19v.52c-.02.27-.02.57-.02.9a.582.582 0 0 1-.01.119.746.746 0 0 1-.06.131c0 .02-.01.029-.02.05a.912.912 0 0 0-.04.09l-.02.04a.073.073 0 0 0-.02.04c-.01.019-.03.05-.05.09-.01.01-.01.03-.03.08l-.04.11a1.069 1.069 0 0 0-.01.439c.01.05.04.09.05.13l.02.03a.7.7 0 0 0 .17.18 1.263 1.263 0 0 0 .75.221l.57.029c.6.04.6.04 1.14.04h2.21l-.03-.149a3.954 3.954 0 0 1-.1-.895zm-3.46-4.89l.006-.009H16.744c.377 0 .862 0 1.352.036-.175.629-.4 1.147-1.067 1.306a4.859 4.859 0 0 1-.987.083c-.2 0-.406-.006-.608-.013h-.078a2.766 2.766 0 0 1 .643-1.403zM25.389 29.03a2.631 2.631 0 0 0 .74-1.83 2.73 2.73 0 0 0-.03-.41l-.03-.14-2.09.67 1.3 1.81zm-1.02-1.57l1.5-.479a1.575 1.575 0 0 1 .01.22 2.277 2.277 0 0 1-.57 1.54l-.92-1.25zM21.199 25.98l-.07.13 1.3.42.47.16.35.109v-2.2l-.15.019a2.6 2.6 0 0 0-1.9 1.362zm1.8-1.09v1.568l-1.5-.489a2.34 2.34 0 0 1 1.5-1.079zM23.519 27.558a.37.37 0 1 0-.37-.36.374.374 0 0 0 .37.36zM23.519 29.81a2.768 2.768 0 0 0 1.18-.28l.13-.07-.8-1.12-.51-.689-1.31 1.81.13.07a2.53 2.53 0 0 0 1.18.279zm0-1.73l.93 1.28a2.319 2.319 0 0 1-1.86.01z"/><path d="M24.945 23.98l-.03.27a3.26 3.26 0 1 1-2.1-.239l-.07-.24a3.506 3.506 0 1 0 2.2.21z"/><path d="M25.839 25.98a2.631 2.631 0 0 0-1.89-1.36l-.15-.03v2.21l2.11-.689zm-1.794.478V24.89a2.338 2.338 0 0 1 1.49 1.08zM23.069 27.32l-2.1-.68-.03.14a2.72 2.72 0 0 0-.04.42 2.541 2.541 0 0 0 .77 1.83l.1.1.8-1.109.29-.391zm-1.33 1.42a2.312 2.312 0 0 1-.59-1.54 1.667 1.667 0 0 1 .02-.229l1.02.329.49.16zM52.659 23.675a3.515 3.515 0 1 0 3.521 3.521 3.519 3.519 0 0 0-3.521-3.521zm0 6.78a3.265 3.265 0 1 1 3.271-3.26 3.263 3.263 0 0 1-3.271 3.263z"/><path d="M52.658 27.651l-1.305 1.807.129.067a2.536 2.536 0 0 0 1.178.285 2.645 2.645 0 0 0 1.177-.285l.131-.065-.8-1.116zm-.929 1.716l.932-1.29.93 1.288a2.343 2.343 0 0 1-1.862.002zM52.659 27.558a.369.369 0 1 0-.374-.363.374.374 0 0 0 .374.363zM52.005 27.627l.206-.309-2.105-.684-.026.142a2.355 2.355 0 0 0-.036.419 2.575 2.575 0 0 0 .761 1.832l.1.1.8-1.112zm-1.125 1.115a2.323 2.323 0 0 1-.586-1.547c0-.08 0-.157.011-.231l1.026.339.486.153zM53.087 24.617l-.145-.023v2.207l2.1-.687-.069-.131a2.617 2.617 0 0 0-1.886-1.366zm.105 1.844v-1.57a2.369 2.369 0 0 1 1.49 1.078zM52.036 26.694l.353.1v-2.2l-.143.021a2.628 2.628 0 0 0-1.9 1.365l-.072.132 1.3.42zm.1-1.8v1.574l-1.5-.494a2.381 2.381 0 0 1 1.502-1.085zM54.423 29.132l.1-.106a2.6 2.6 0 0 0 .749-1.83 2.244 2.244 0 0 0-.036-.407l-.025-.141-2.094.671zm.6-1.937a2.317 2.317 0 0 1-.577 1.546l-.915-1.253-.021-.031 1.5-.481a2.044 2.044 0 0 1 .015.22zM11.779 7.14v9.63h9.95l2.19 7.439.71-7.439h3.28V7.14zm1.32 3.4h8.92v1h-8.92zm9.91 4.5h-9.91v-1h9.91zm.88-1.75h-10.79v-1h10.79zm1.28-3.5h-12.07v-1h12.07zM46.595 8.927h2.613v4.488h-2.613zM50.514 8.352h2.613v5.063h-2.613zM54.434 9.66h2.613v3.755h-2.613zM58.352 7.047h2.613v6.368h-2.613z"/><path d="M60.965 4.592h-1.306a.5.5 0 0 0-.32.115l-3.675 3.057-3.632-1.687a.493.493 0 0 0-.327-.033l-3.783.905-1.177-.378a.5.5 0 1 0-.307.951l1.307.421a.5.5 0 0 0 .269.011l3.75-.9 3.761 1.748a.5.5 0 0 0 .531-.068l3.78-3.143h1.129a.5.5 0 0 0 0-1z"/></symbol><symbol id="electrics-ico" viewBox="0 0 50 33"><title>electrics-ico</title><path d="M49.19 3.3h-7.25V.82a.83.83 0 0 0-.24-.58.8.8 0 0 0-.57-.24h-4.84a.8.8 0 0 0-.57.24.83.83 0 0 0-.24.58V3.3h-21V.82a.83.83 0 0 0-.24-.58.8.8 0 0 0-.53-.24H8.87a.8.8 0 0 0-.57.24.83.83 0 0 0-.24.58V3.3H.81a.8.8 0 0 0-.57.24.83.83 0 0 0-.24.59v3.3A.83.83 0 0 0 .24 8a.8.8 0 0 0 .57.24h.81V28H.81a.8.8 0 0 0-.57.24.83.83 0 0 0-.24.58v3.3a.83.83 0 0 0 .24.58.8.8 0 0 0 .57.3h48.38a.8.8 0 0 0 .57-.24.84.84 0 0 0 .24-.58v-3.3a.84.84 0 0 0-.24-.58.8.8 0 0 0-.57-.24h-.81V8.25h.81a.8.8 0 0 0 .57-.25.83.83 0 0 0 .24-.57v-3.3a.83.83 0 0 0-.24-.58.8.8 0 0 0-.57-.25zM37.1 1.65h3.23V3.3H37.1zm-27.42 0h3.22V3.3H9.68zm-6.45 6.6h1.61V28H3.23zM6.45 28V8.25h37.1V28zm41.94 3.3H1.61v-1.6h46.78zM46.77 28h-1.61V8.25h1.61zm1.62-21.4H1.61V4.95h46.78z"/><path d="M12.9 16.5H8.06v1.65h4.84zM41.94 16.5h-1.62v-1.65h-1.61v1.65H37.1v1.65h1.61v1.65h1.61v-1.65h1.61zM31.45 16.5h-4.68l4.47-5.23a.84.84 0 0 0 .13-.88.82.82 0 0 0-.3-.35.79.79 0 0 0-.44-.13h-6.44a.79.79 0 0 0-.39.1.81.81 0 0 0-.29.28l-5.65 9.08a.84.84 0 0 0 0 .84.82.82 0 0 0 .3.31.79.79 0 0 0 .41.11H22l-2.54 4.54a.84.84 0 0 0-.1.54.83.83 0 0 0 .26.48.79.79 0 0 0 1 .06L31.92 18a.82.82 0 0 0 .29-.41.84.84 0 0 0 0-.51.82.82 0 0 0-.29-.41.79.79 0 0 0-.47-.17zm-8.76 6.22l1.4-2.5a.84.84 0 0 0 0-.83.82.82 0 0 0-.3-.3.79.79 0 0 0-.4-.11H20l4.62-7.42h4.23l-4.45 5.22a.83.83 0 0 0-.19.42.84.84 0 0 0 .06.46.82.82 0 0 0 .3.35.79.79 0 0 0 .44.13h3.94z"/></symbol><symbol id="engine-ico" viewBox="0 0 64.07 51.95"><title>engine-ico</title><path d="M21.49 21.24a.53.53 0 0 0-.52.53.52.52 0 0 0 .52.52.52.52 0 0 0 .52-.52.52.52 0 0 0-.52-.53zM30.64 38.24l4.76-2a8.75 8.75 0 0 1-1.28-14.64l-6.88-1.5a5.69 5.69 0 0 1 .24 1.66 6 6 0 0 1-6 6 6.16 6.16 0 0 1-1-.08l1.95 6.49a5.07 5.07 0 0 1 8.17 4z"/><path d="M53.68 22.08L38.6 11.62l-.83-.56.08-.11H26.22l.08.11-1 .72-6.56 4.54.07.1a6 6 0 0 1 5.3-.08l15.71 3.43a8.76 8.76 0 0 1 2.92 16.9l-.19.07-3.72 1.39-10.28 4.11a5 5 0 0 1-3 1 5.09 5.09 0 0 1-5.08-5.08 1 1 0 0 1 0-.17l-3.78-12.65a6 6 0 0 1 .59-7.84l-.09-.13-6.85 4.71 4.47 11.43 7.21 18.44H42l7.21-18.44 4.47-11.42z"/><circle cx="39.49" cy="28.51" r="1.52"/><path d="M25.57 38.44a.26.26 0 0 0 .25-.26.26.26 0 1 0-.51 0 .27.27 0 0 0 .26.26zM36.7 36.81l-6.2 2.52a4.86 4.86 0 0 1-.47 1.26l8.37-3.35a7.92 7.92 0 0 1-1.7-.43zM26.8 18.98l8.49 1.86a8.08 8.08 0 0 1 1.57-.68l-10.9-2.38a5.9 5.9 0 0 1 .84 1.2zM18.15 26.73l2.81 9.33a5 5 0 0 1 .7-1.12l-2.32-7.58a5.13 5.13 0 0 1-1.19-.63zM47.24 28.51a7.75 7.75 0 1 0-7.75 7.73 7.75 7.75 0 0 0 7.75-7.73zm-10.27 0a2.52 2.52 0 1 1 2.52 2.52 2.52 2.52 0 0 1-2.52-2.52zM21.49 16.76a5 5 0 1 0 5 5 5 5 0 0 0-5-5zm0 6.52a1.52 1.52 0 1 1 1.52-1.52 1.52 1.52 0 0 1-1.52 1.48z"/><path d="M25.57 42.24a4.08 4.08 0 1 0-4.08-4.08 4.08 4.08 0 0 0 4.08 4.08zm0-5.34a1.26 1.26 0 1 1-1.23 1.28 1.25 1.25 0 0 1 1.23-1.26zM44.95 0H19.12v7.17h25.83zM20.48 6.58h-.77V.67h.77zm1.41 0h-.78V.67h.78zm1.4 0h-.77V.67h.77zm1.41 0h-.77V.67h.77zm1.41 0h-.77V.67h.77zm1.4 0h-.77V.67h.77zm1.41 0h-.77V.67h.77zm1.41 0h-.77V.67h.78zm1.41 0h-.78V.67h.78zm1.4 0h-.8V.67h.77zm1.41 0h-.77V.67h.77zm1.41 0h-.77V.67h.77zm1.41 0h-.78V.67h.75zm1.4 0H38V.67h.77zm1.41 0h-.77V.67h.77zm1.41 0h-.77V.67h.77zm1.4 0h-.77V.67h.77zm1.41 0h-.77V.67h.77zM25.4 7.96h13.28v1.92H25.4z"/><path d="M24.69 10.95l.22-.15-1.81-2.63h-5V5.56a3.9 3.9 0 0 0-1.28.58L1.73 16.55a4 4 0 0 0-1 5.57l2.55 3.7.74-.51 6-4.18zM4.48 26.18l3.34 6s.44 1.31 1.62 1.31h4.35L9.54 22.67zM62.34 16.55L47.23 6.14a3.9 3.9 0 0 0-1.28-.58v2.61h-5l-1.81 2.63.22.15 14.69 10.18 6 4.18.74.51 2.55-3.7a4 4 0 0 0-1-5.57zM50.28 33.51h4.35c1.18 0 1.62-1.31 1.62-1.31l3.33-6-5.06-3.51z"/></symbol><symbol id="exhaust-ico" viewBox="0 0 54.66 63.06"><title>exhaust_ico</title><path d="M8.21 22.483L36.656-.005 53.12 20.822 24.677 43.311zM8.98 37.85l5.43-4.29-3.64-4.62-7.25 5.74a2.92 2.92 0 0 0-.84 3.55l6.18 13.2-8.88 7.01 3.65 4.62 10.69-8.45a3 3 0 0 0 .84-3.56zM46.63 10.037l3.27-2.586 4.757 6.017-3.271 2.586z"/></symbol><symbol id="exhaust_ico" viewBox="0 0 54.66 63.06"><title>exhaust_ico</title><path d="M8.21 22.483L36.656-.005 53.12 20.822 24.677 43.311zM8.98 37.85l5.43-4.29-3.64-4.62-7.25 5.74a2.92 2.92 0 0 0-.84 3.55l6.18 13.2-8.88 7.01 3.65 4.62 10.69-8.45a3 3 0 0 0 .84-3.56zM46.63 10.037l3.27-2.586 4.757 6.017-3.271 2.586z"/></symbol><symbol id="facebook-ico" viewBox="0 0 24 24"><title>facebook-ico</title><path d="M9.94 19.79h3.23V12h2.17s.2-1.26.3-2.63h-2.46v-1.8a.76.76 0 0 1 .7-.63h1.76V4.21h-2.4c-3.39 0-3.31 2.63-3.31 3v2.16H8.36V12h1.58v7.8z"/><path d="M0 0v24h24V0zm22.52 22.52h-21v-21h21z"/></symbol><symbol id="fuel-sys-ico" viewBox="0 0 34 40"><title>fuel-sys-ico</title><path d="M20.269 2.581H7.192a.658.658 0 0 0-.462.189.641.641 0 0 0-.192.456v10.322A.641.641 0 0 0 6.73 14a.658.658 0 0 0 .462.189h13.077a.658.658 0 0 0 .463-.189.641.641 0 0 0 .191-.456V3.226a.641.641 0 0 0-.191-.456.658.658 0 0 0-.463-.189zM19.615 12.9H7.846V3.871h11.769z"/><path d="M33.234 29.944l-.7-.691A3.842 3.842 0 0 1 31.681 28a3.8 3.8 0 0 1-.3-1.482V8.387a.64.64 0 0 0-.192-.456L28.578 5.35a.658.658 0 0 0-.462-.189h-1.962V3.226a.641.641 0 0 0-.191-.456.658.658 0 0 0-.462-.189h-1.963V.645a.641.641 0 0 0-.192-.456.658.658 0 0 0-.461-.189H4.577a.658.658 0 0 0-.462.189.641.641 0 0 0-.192.456v35.484H.654a.658.658 0 0 0-.462.189.641.641 0 0 0-.192.456v2.581a.641.641 0 0 0 .192.456.658.658 0 0 0 .462.189h26.154a.658.658 0 0 0 .462-.189.641.641 0 0 0 .191-.456v-2.581a.641.641 0 0 0-.191-.456.658.658 0 0 0-.462-.189h-3.27V21.935h1.308a1.975 1.975 0 0 1 1.387.567 1.923 1.923 0 0 1 .574 1.369v5.871a5.067 5.067 0 0 0 .4 1.976 5.122 5.122 0 0 0 1.136 1.673l.7.691a2.6 2.6 0 0 0 .848.561 2.628 2.628 0 0 0 1 .2h.495a2.634 2.634 0 0 0 1.849-.756A2.564 2.564 0 0 0 34 32.258v-.488a2.533 2.533 0 0 0-.2-.988 2.56 2.56 0 0 0-.566-.838zm-3.157-19.621h-1.308V7.364l1.308 1.29zm-5.231-6.452v6.452h-1.308V3.871zm1.308 34.839H1.308v-1.29h24.846zM5.231 36.129V1.29h17v34.839zm27.462-3.871a1.282 1.282 0 0 1-.383.912 1.317 1.317 0 0 1-.925.378h-.495a1.315 1.315 0 0 1-.5-.1 1.3 1.3 0 0 1-.424-.281l-.7-.691a3.844 3.844 0 0 1-.852-1.255 3.8 3.8 0 0 1-.3-1.482v-5.868a3.208 3.208 0 0 0-.959-2.28 3.3 3.3 0 0 0-2.311-.946h-1.306v-9.032H25.5a.658.658 0 0 0 .462-.189.641.641 0 0 0 .191-.456V6.452h1.308v4.516a.641.641 0 0 0 .191.456.659.659 0 0 0 .462.189h1.962v14.9a5.066 5.066 0 0 0 .4 1.976 5.122 5.122 0 0 0 1.136 1.673l.7.691a1.282 1.282 0 0 1 .285.419 1.268 1.268 0 0 1 .1.495z"/><path d="M11.774 26.594a1.926 1.926 0 0 0 .626 1.276 1.981 1.981 0 0 0 2.67 0 1.925 1.925 0 0 0 .621-1.276l-1.956-3.861z"/><path d="M18.814 20.146a7.259 7.259 0 0 0-9.079-.885 7.119 7.119 0 0 0-2.649 3.185 7.028 7.028 0 0 0 1.559 7.734 7.246 7.246 0 0 0 11.066-1.08 7.019 7.019 0 0 0-.9-8.958zm-2.772 8.587a3.3 3.3 0 0 1-4.623 0 3.2 3.2 0 0 1-.958-2.281.638.638 0 0 1 .072-.288L13.149 21a.677.677 0 0 1 .249-.24.689.689 0 0 1 .673 0 .677.677 0 0 1 .249.24l2.612 5.161a.638.638 0 0 1 .069.288 3.2 3.2 0 0 1-.959 2.284zM10.462 5.161H9.154v2.581h1.308zM13.077 5.161h-1.308v2.581h1.308zM15.692 5.161h-1.307v2.581h1.308zM18.308 5.161H17v2.581h1.308zM18.308 9.032H9.154v1.29h9.154z"/></symbol><symbol id="it-doors-logo" viewBox="0 0 74.84 27.49"><title>IT-Doors-logo</title><path d="M40.85 9.41a7.81 7.81 0 0 0-3.67-.64h-4.29v10.08h4.3a8 8 0 0 0 3.71-.61 2.43 2.43 0 0 0 1.1-2.31v-4.1a2.55 2.55 0 0 0-1.15-2.42zm-1.31 6.52a.94.94 0 0 1-.53 1 5.92 5.92 0 0 1-1.93.21h-1.77V10.5h1.85a4.36 4.36 0 0 1 1.78.28 1 1 0 0 1 .59 1zM51 17.52a3 3 0 0 0 .23-1.25v-2.22a3.3 3.3 0 0 0-.23-1.33 2.29 2.29 0 0 0-.59-.85 2.47 2.47 0 0 0-.91-.46 5.23 5.23 0 0 0-1-.2h-2.16a5.22 5.22 0 0 0-1 .2 2.49 2.49 0 0 0-.91.46 2.3 2.3 0 0 0-.59.85 3.3 3.3 0 0 0-.24 1.33v2.22a3 3 0 0 0 .23 1.25 2.2 2.2 0 0 0 .57.81 2.37 2.37 0 0 0 .89.44 5.53 5.53 0 0 0 1 .19h2.22a5.51 5.51 0 0 0 1-.19 2.38 2.38 0 0 0 .89-.44 2.23 2.23 0 0 0 .6-.81zm-2-1a1 1 0 0 1-.3.82 3.46 3.46 0 0 1-2.5 0 1 1 0 0 1-.3-.82v-2.83a1.06 1.06 0 0 1 .31-.86 3.14 3.14 0 0 1 2.48 0 1.06 1.06 0 0 1 .31.86zM59.6 11.88a2.48 2.48 0 0 0-.91-.46 5.2 5.2 0 0 0-1-.2h-2.16a5.21 5.21 0 0 0-1 .2 2.51 2.51 0 0 0-.91.46 2.31 2.31 0 0 0-.59.85 3.31 3.31 0 0 0-.24 1.33v2.22a3 3 0 0 0 .21 1.24 2.2 2.2 0 0 0 .58.81 2.34 2.34 0 0 0 .89.44 5.51 5.51 0 0 0 1 .19h2.22a5.52 5.52 0 0 0 1-.19 2.37 2.37 0 0 0 .89-.44 2.19 2.19 0 0 0 .57-.81 3 3 0 0 0 .24-1.25v-2.22a3.29 3.29 0 0 0-.24-1.33 2.29 2.29 0 0 0-.55-.84zm-1.44 4.66a1 1 0 0 1-.3.82 3.46 3.46 0 0 1-2.5 0 1 1 0 0 1-.3-.82v-2.85a1.06 1.06 0 0 1 .31-.86 3.14 3.14 0 0 1 2.48 0 1.06 1.06 0 0 1 .31.86zM65 11.64a1.33 1.33 0 0 0-.65 1v-1.31H62.2v7.51h2.27v-4.51a1.06 1.06 0 0 1 .47-1 2.76 2.76 0 0 1 1.4-.29h.78v-1.86h-.81a2.2 2.2 0 0 0-1.31.46zM72.07 14.11h-1a.94.94 0 0 1-.6-.15.44.44 0 0 1-.19-.34v-.4a.52.52 0 0 1 .25-.51 3.26 3.26 0 0 1 1.2-.13q.31 0 2.73.19v-1.45q-1.93-.14-2.67-.14a7.77 7.77 0 0 0-2.76.39 1.41 1.41 0 0 0-1 1.41v.92a1.6 1.6 0 0 0 .66 1.39 3.1 3.1 0 0 0 1.84.48h1a1.43 1.43 0 0 1 .87.18.68.68 0 0 1 .2.54v.47a.51.51 0 0 1-.37.52 3.18 3.18 0 0 1-1 .13 23.83 23.83 0 0 1-3-.33v1.51a22.92 22.92 0 0 0 3 .23h1.11a6.45 6.45 0 0 0 1-.16 2.42 2.42 0 0 0 .83-.35 1.72 1.72 0 0 0 .53-.63 2.05 2.05 0 0 0 .21-1v-.95q-.08-1.82-2.84-1.82zM34.87 21.86q-1.74 0-1.74 1.19v2q0 1.13 1.74 1.13a3.72 3.72 0 0 0 .6 0 2.68 2.68 0 0 0 .56-.16.94.94 0 0 0 .44-.35 1 1 0 0 0 .16-.58V23q0-1.14-1.76-1.14zM36 25q0 .72-1.15.72T33.73 25v-2a.75.75 0 0 1 .1-.39.6.6 0 0 1 .27-.24 1.3 1.3 0 0 1 .36-.11 2.88 2.88 0 0 1 .43 0Q36 22.27 36 23zM40.38 25.32a.33.33 0 0 1-.19.33 1.7 1.7 0 0 1-.67.09 1.34 1.34 0 0 1-.36 0 .39.39 0 0 1-.21-.12.42.42 0 0 1-.08-.16.77.77 0 0 1 0-.19V23h-.58v2.27a.88.88 0 0 0 .23.67 1.23 1.23 0 0 0 .84.22q.93 0 1-.44v.38H41V23h-.58zM43.54 22H43v1h-.69v.38H43v1.82a1 1 0 0 0 .23.76 1.24 1.24 0 0 0 .81.2 3.83 3.83 0 0 0 .65-.05v-.38l-.46.05a.83.83 0 0 1-.52-.11.58.58 0 0 1-.13-.44v-1.87h1.11V23h-1.15zM47.33 24.26H47c-.38 0-.57-.1-.57-.31v-.26a.31.31 0 0 1 .17-.3 1.44 1.44 0 0 1 .62-.09 6 6 0 0 1 1 .09V23l-.94-.05c-.92 0-1.38.24-1.38.73v.29a.67.67 0 0 0 .25.55 1.14 1.14 0 0 0 .74.2h.35a.85.85 0 0 1 .44.08.3.3 0 0 1 .13.28v.31a.29.29 0 0 1-.19.3 1.7 1.7 0 0 1-.58.07 8.29 8.29 0 0 1-1.08-.12v.44a7.81 7.81 0 0 0 1.06.08 2.13 2.13 0 0 0 1-.19.72.72 0 0 0 .35-.69V25q-.06-.74-1.04-.74zM52.33 23.18A.66.66 0 0 0 52 23a1.87 1.87 0 0 0-.38-.07h-1a1.85 1.85 0 0 0-.38.07.67.67 0 0 0-.31.18 1 1 0 0 0-.18.33 1.56 1.56 0 0 0-.07.52v1.07a1.52 1.52 0 0 0 .09.58.6.6 0 0 0 .31.32 1.47 1.47 0 0 0 .43.13 5.61 5.61 0 0 0 .6 0h.48a1.86 1.86 0 0 0 .38-.07.7.7 0 0 0 .31-.17.82.82 0 0 0 .18-.31 1.48 1.48 0 0 0 .07-.49V24a1.59 1.59 0 0 0-.07-.52.94.94 0 0 0-.13-.3zm-.33 2a1 1 0 0 1 0 .33.3.3 0 0 1-.17.18.79.79 0 0 1-.25.07h-.38a3 3 0 0 1-.38 0 .8.8 0 0 1-.25-.07.3.3 0 0 1-.17-.18 1 1 0 0 1 0-.33v-1.25c0-.29.06-.46.17-.53a2.22 2.22 0 0 1 1.33 0q.17.1.17.53zM56.31 25.32a.33.33 0 0 1-.19.33 1.71 1.71 0 0 1-.66.09 1.35 1.35 0 0 1-.36 0 .38.38 0 0 1-.21-.12.43.43 0 0 1-.08-.16.77.77 0 0 1 0-.19V23h-.58v2.27a.88.88 0 0 0 .23.67 1.22 1.22 0 0 0 .84.22q.93 0 1-.44v.38h.58V23h-.58zM59.44 23.09a.48.48 0 0 0-.28.4V23h-.54v3.09h.58V23.9a.4.4 0 0 1 .19-.38 1.26 1.26 0 0 1 .58-.1h.32v-.49H60a1.07 1.07 0 0 0-.56.16zM62.18 25.63a.51.51 0 0 1-.16-.45v-1.27a.61.61 0 0 1 .14-.49 1.12 1.12 0 0 1 .62-.11 3.89 3.89 0 0 1 1 .13V23a4.1 4.1 0 0 0-.88-.1h-.72a.79.79 0 0 0-.3.1 1.07 1.07 0 0 0-.21.18.73.73 0 0 0-.15.3 1.84 1.84 0 0 0 0 .44v1.14a1.31 1.31 0 0 0 .08.48.83.83 0 0 0 .18.3.69.69 0 0 0 .31.16 1.77 1.77 0 0 0 .36.07h.44a4.84 4.84 0 0 0 1-.09v-.43a3.8 3.8 0 0 1-.94.12 1.31 1.31 0 0 1-.77-.04zM65.26 21.86h.57v.6h-.57zM65.26 22.99h.57v3.09h-.57zM69.16 22.92c-.62 0-1 .15-1 .44V23h-.57v3.1h.57v-2.26a.44.44 0 0 1 .17-.4 1.43 1.43 0 0 1 .68-.11 1.34 1.34 0 0 1 .36 0 .38.38 0 0 1 .2.12.47.47 0 0 1 .08.16.82.82 0 0 1 0 .19v2.24h.57v-2.23a.88.88 0 0 0-.23-.67 1.22 1.22 0 0 0-.83-.22zM74.08 23.29c-.1-.24-.41-.36-.95-.36a1.57 1.57 0 0 0-1 .24 1 1 0 0 0-.3.79v1.24a.89.89 0 0 0 .26.73 1.61 1.61 0 0 0 1 .21 2.17 2.17 0 0 0 .65-.09c.19-.06.29-.16.3-.31v.74a.53.53 0 0 1-.2.47 1.14 1.14 0 0 1-.64.14 9.9 9.9 0 0 1-1.12-.09v.41a6.65 6.65 0 0 0 1.07.07 2.13 2.13 0 0 0 1.1-.23 1 1 0 0 0 .37-.89V23h-.54zm0 2a.43.43 0 0 1-.19.41 1.4 1.4 0 0 1-.63.11 1.32 1.32 0 0 1-.63-.1.46.46 0 0 1-.16-.42v-1.4a.49.49 0 0 1 .15-.42 1.19 1.19 0 0 1 .63-.11 1.36 1.36 0 0 1 .68.11.47.47 0 0 1 .16.41zM15.12 2.4V25l12.38 2.4V0zm9.66 7.77h-2.93v8.61H20v-8.62h-2.9V8.61h7.68zM0 27.39L12.39 25V2.4L0 0zM5.64 8.61H7.5v10.17H5.64z"/></symbol><symbol id="letter-ico" viewBox="0 0 29 20"><title>letter-ico</title><path d="M0 0v20h29V0zm26.1 1.43l-11.6 8.3-11.6-8.3zm1.45 17.14H1.45V2.14l13.05 9.37 13-9.37z"/></symbol><symbol id="noise-insulation-ico" viewBox="0 0 48 40"><title>noise-insulation-ico</title><path d="M33.292 6.923a7.743 7.743 0 0 0-7.153 4.749 7.656 7.656 0 0 0 1.678 8.383 7.77 7.77 0 0 0 11.913-1.166 7.648 7.648 0 0 0-.965-9.711 7.777 7.777 0 0 0-5.473-2.255zm4.378 12.042a6.206 6.206 0 0 1-10.1-1.995 6.125 6.125 0 0 1 1.343-6.706 6.216 6.216 0 0 1 9.53.933 6.118 6.118 0 0 1-.772 7.768zM28.647 27.692H16.259a.777.777 0 0 0-.547.225.767.767 0 0 0-.227.544v3.077a.767.767 0 0 0 .227.544.777.777 0 0 0 .547.225h12.388a.777.777 0 0 0 .548-.225.767.767 0 0 0 .227-.544v-3.077a.767.767 0 0 0-.227-.544.777.777 0 0 0-.548-.225zm-.774 3.077h-10.84v-1.538h10.84z"/><path d="M47.921 13.1a.771.771 0 0 0-.51-.646l-2.85-1.006a11.515 11.515 0 0 0-1.053-2.517l1.3-2.708a.765.765 0 0 0-.1-.815 14.772 14.772 0 0 0-2.156-2.142.778.778 0 0 0-.821-.1l-2.72 1.295a11.735 11.735 0 0 0-2.534-1.045L35.465.586a.773.773 0 0 0-.65-.508 14.916 14.916 0 0 0-3.044 0 .774.774 0 0 0-.65.508l-1.013 2.828a11.741 11.741 0 0 0-2.534 1.047l-2.726-1.288a.778.778 0 0 0-.821.1 14.765 14.765 0 0 0-2.156 2.142.765.765 0 0 0-.1.815l.7 1.464H10.839a.777.777 0 0 0-.466.155.769.769 0 0 0-.278.4L7.159 18.461H.774a.777.777 0 0 0-.547.225.767.767 0 0 0-.227.544v3.077a.767.767 0 0 0 .227.544.777.777 0 0 0 .547.225H3.1v9.231a3.067 3.067 0 0 0 .9 2.176 3.107 3.107 0 0 0 2.19.9v2.308a2.3 2.3 0 0 0 .68 1.632A2.33 2.33 0 0 0 8.517 40h4.645a2.33 2.33 0 0 0 1.643-.676 2.3 2.3 0 0 0 .68-1.632v-2.307h13.936v2.308a2.3 2.3 0 0 0 .68 1.632 2.33 2.33 0 0 0 1.643.675h4.646a2.33 2.33 0 0 0 1.642-.676 2.3 2.3 0 0 0 .68-1.632v-2.307a3.107 3.107 0 0 0 2.19-.9 3.067 3.067 0 0 0 .907-2.176v-6.227a.778.778 0 0 0 .749-.12 14.771 14.771 0 0 0 2.156-2.142.765.765 0 0 0 .1-.815l-1.3-2.708a11.516 11.516 0 0 0 1.05-2.517l2.848-1.006a.774.774 0 0 0 .349-.25.766.766 0 0 0 .161-.4 14.521 14.521 0 0 0-.001-3.024zM11.423 9.23h11.5a11.512 11.512 0 0 0-.667 1.538h-9.1a.778.778 0 0 0-.462.152.769.769 0 0 0-.279.4l-2.157 7.144H8.769zm7.238 6.9a.766.766 0 0 0 .161.4.774.774 0 0 0 .349.25l2.848 1.006c.066.231.155.455.238.681H11.881l1.858-6.154H19.6l-.423.149a.774.774 0 0 0-.349.25.766.766 0 0 0-.161.4 14.513 14.513 0 0 0-.005 3.015zM8.063 20h14.866c.047.1.087.2.144.3L21.772 23c-.011.023-.014.048-.022.072H4.966zm-6.515 1.538V20h4.325l-1.548 1.538zm12.388 16.154a.767.767 0 0 1-.227.544.777.777 0 0 1-.547.225H8.517a.777.777 0 0 1-.547-.225.767.767 0 0 1-.227-.544v-2.307h6.194zm23.227 0a.767.767 0 0 1-.227.544.777.777 0 0 1-.547.225h-4.645a.777.777 0 0 1-.548-.225.767.767 0 0 1-.227-.544v-2.307h6.194zm3.1-5.385a1.534 1.534 0 0 1-.454 1.088 1.553 1.553 0 0 1-1.095.451H6.194A1.554 1.554 0 0 1 5.1 33.4a1.534 1.534 0 0 1-.454-1.088v-7.697h17.947a14.781 14.781 0 0 0 1.434 1.347.778.778 0 0 0 .821.1l2.726-1.291a11.736 11.736 0 0 0 2.534 1.045l1.012 2.828a.773.773 0 0 0 .65.508c.281.029.564.031.847.044a3.08 3.08 0 0 0 2.033 2.184 3.108 3.108 0 0 0 2.943-.551 3.064 3.064 0 0 0-.693-5.161 11.685 11.685 0 0 0 2.111-.9l1.25.593zm-6.006-3.126c.187-.012.374-.01.56-.029a.773.773 0 0 0 .65-.508l.591-1.651a1.54 1.54 0 0 1 1.042 1.02 1.526 1.526 0 0 1-.28 1.424 1.548 1.548 0 0 1-2.56-.255zM46.425 15.49l-2.763.976a.771.771 0 0 0-.493.543 9.989 9.989 0 0 1-1.189 2.85.765.765 0 0 0-.039.732l1.259 2.627a13.109 13.109 0 0 1-1.251 1.243l-2.646-1.254a.778.778 0 0 0-.735.038 10.129 10.129 0 0 1-2.868 1.182.773.773 0 0 0-.547.49l-.982 2.745a13.2 13.2 0 0 1-1.761 0l-.983-2.745a.773.773 0 0 0-.547-.49 10.131 10.131 0 0 1-2.869-1.182.778.778 0 0 0-.735-.038l-2.646 1.254a13.141 13.141 0 0 1-1.247-1.239l1.258-2.628a.765.765 0 0 0-.039-.732 10.014 10.014 0 0 1-1.189-2.85.77.77 0 0 0-.493-.543l-2.763-.976q-.029-.444-.029-.878c0-.289.01-.582.029-.875l2.763-.976a.771.771 0 0 0 .493-.543 10.013 10.013 0 0 1 1.189-2.85.765.765 0 0 0 .039-.732l-1.255-2.627a13.134 13.134 0 0 1 1.247-1.239l2.646 1.25a.779.779 0 0 0 .736-.038A10.155 10.155 0 0 1 30.879 4.8a.775.775 0 0 0 .336-.176.767.767 0 0 0 .211-.314l.983-2.745a13.178 13.178 0 0 1 1.761 0l.983 2.745a.773.773 0 0 0 .547.49 10.159 10.159 0 0 1 2.865 1.182.778.778 0 0 0 .735.038l2.646-1.25A13.142 13.142 0 0 1 43.2 6.012L41.941 8.64a.765.765 0 0 0 .039.732 9.991 9.991 0 0 1 1.189 2.85.771.771 0 0 0 .493.543l2.763.976a13.505 13.505 0 0 1 0 1.749z"/><path d="M9.291 25.385a3.1 3.1 0 0 0-2.861 1.9 3.063 3.063 0 0 0 .67 3.352 3.108 3.108 0 0 0 4.765-.466 3.062 3.062 0 0 0-.385-3.885 3.107 3.107 0 0 0-2.189-.901zm1.095 4.165a1.552 1.552 0 0 1-2.526-.5 1.531 1.531 0 0 1 .34-1.676 1.554 1.554 0 0 1 2.382.233 1.531 1.531 0 0 1-.193 1.943z"/></symbol><symbol id="painting-ico" viewBox="0 0 40 40"><title>painting-ico</title><path d="M39.355 27.742A.645.645 0 0 0 40 27.1V5.161a.645.645 0 0 0-.189-.456l-1.29-1.29a.645.645 0 0 0-.456-.189h-7.1V.645A.645.645 0 0 0 30.323 0h-7.742a.645.645 0 0 0-.645.645v2.581H7.742v-.645a.645.645 0 0 0-.642-.646H3.226a.634.634 0 0 0-.527.294l-.01-.006L.108 6.094a.645.645 0 0 0 0 .716l2.581 3.871.01-.006a.634.634 0 0 0 .527.294H7.1a.645.645 0 0 0 .645-.645v-.647h1.29v1.935a.645.645 0 0 0 .645.645h.645v1.29h-.648a.645.645 0 0 0-.645.645v1.936h-2.58a.645.645 0 0 0-.645.645v2.581a.628.628 0 0 0 .081.3l-2.473 2.471a.645.645 0 0 0-.189.456v16.774a.645.645 0 0 0 .645.645h16.774a.645.645 0 0 0 .645-.645V22.581a.646.646 0 0 0-.189-.456l-2.473-2.473a.629.629 0 0 0 .081-.3v-2.578a.645.645 0 0 0-.645-.645h-2.58v-1.936a.645.645 0 0 0-.645-.645h-.645v-1.29h.645a.645.645 0 0 0 .645-.645V9.677h6.452v1.668l-2.392 2.392a.645.645 0 0 0-.189.456v1.29a.645.645 0 0 0 .645.645h2.581a.645.645 0 0 0 .456-.189l2.581-2.581a.646.646 0 0 0 .189-.456V9.677H27.1v1.935a.645.645 0 0 0 .189.456l2.392 2.392v8.12h-1.939a.645.645 0 0 0-.645.645V27.1a.645.645 0 0 0 .645.645h5.806v1.29H32.9a.645.645 0 0 0-.645.645v3.871a.645.645 0 0 0 .645.645h6.452a.645.645 0 0 0 .648-.648v-3.871a.645.645 0 0 0-.645-.645h-.645v-1.29zM2.581 8.194L1.419 6.452 2.581 4.71zm3.871 1.483H3.871V3.226h2.581zM23.226 1.29h6.452v1.936h-6.452zm-12.9 13.548h3.871v1.29h-3.874zm1.29-1.29v-1.29H12.9v1.29zM20 38.71H4.516v-5.54l1.635-1.635a1.926 1.926 0 0 1 1.369-.567h.443a1.926 1.926 0 0 1 1.369.567L10.4 32.6a3.205 3.205 0 0 0 2.281.945h.443a3.205 3.205 0 0 0 2.281-.945l1.068-1.068a1.925 1.925 0 0 1 1.369-.567h.443a1.926 1.926 0 0 1 1.369.567l.346.348zm0-15.862v7.33a3.2 3.2 0 0 0-1.714-.5h-.443a3.205 3.205 0 0 0-2.281.945l-1.068 1.068a1.923 1.923 0 0 1-1.369.567h-.443a1.923 1.923 0 0 1-1.369-.567l-1.068-1.068a3.205 3.205 0 0 0-2.281-.945h-.443a3.205 3.205 0 0 0-2.281.945l-.723.723v-8.5L7.364 20h9.788zm-2.581-5.428v1.29H7.1v-1.29zm-3.226-6.452h-3.87V9.677h3.871zm3.871-2.581H7.742V4.516h10.323zm1.29 0V7.1h2.581v1.29zm5.161 4.249l-2.2 2.2h-1.67v-.378l2.392-2.392a.645.645 0 0 0 .189-.456V7.1h1.29zm1.29-4.249V7.1h2.581v1.29zm2.581 2.959V9.677h.645a.645.645 0 0 0 .645-.645v-2.58a.645.645 0 0 0-.645-.645h-9.676V4.516H37.8l.912.912v17.153h-7.744V20H32.9v-1.29h-1.932v-2.581H32.9v-1.29h-1.932v-.645a.645.645 0 0 0-.189-.456zM38.71 32.9h-5.162v-2.577h5.162zm-3.871-3.871v-1.29h2.581v1.29zm-6.452-2.581v-2.577H38.71v2.581z"/><path d="M38.065 34.839h-3.871a.645.645 0 0 0 0 1.29h3.871a.645.645 0 0 0 0-1.29zM37.419 36.774h-2.58a.645.645 0 0 0 0 1.29h2.581a.645.645 0 0 0 0-1.29zM36.774 38.71h-1.29a.645.645 0 0 0 0 1.29h1.29a.645.645 0 1 0 0-1.29zM5.807 33.548h1.29v1.29h-1.29zM7.097 36.129h1.29v1.29h-1.29zM9.678 34.839h1.29v1.29h-1.29zM13.549 34.839h1.29v1.29h-1.29zM16.129 36.129h1.29v1.29h-1.29zM17.42 33.548h1.29v1.29h-1.29z"/></symbol><symbol id="phone-ico" viewBox="0 0 15 24"><title>phone-ico</title><path d="M0 0v24h15V0zm1.15 1.14h12.7v17.72H1.15zm6.2 18a2 2 0 1 1-2 2 2 2 0 0 1 2.01-2zm0 1.14a.86.86 0 1 0 .87.86.85.85 0 0 0-.86-.85z"/></symbol><symbol id="pin-ico" viewBox="0 0 15 24"><title>pin-ico</title><path d="M15 7.25A7.38 7.38 0 0 0 7.5 0 7.38 7.38 0 0 0 0 7.25C0 11.26 7.5 24 7.5 24S15 11.26 15 7.25zm-12 0a4.39 4.39 0 0 1 4.5-4.31A4.39 4.39 0 0 1 12 7.25a4.39 4.39 0 0 1-4.5 4.32A4.39 4.39 0 0 1 3 7.25z"/></symbol><symbol id="salon-tune-ico" viewBox="0 0 40 40"><title>salon-tune-ico</title><path d="M29.677 25.806a.645.645 0 0 0-.189-.456l-1.935-1.935a.645.645 0 0 0-.912 0l-.189.189-1.479-1.479a.645.645 0 0 0-.912 0l-1.936 1.935a.645.645 0 0 0 0 .912l1.475 1.479-.189.189a.645.645 0 0 0 0 .912l1.935 1.935a.645.645 0 0 0 .912 0l3.226-3.226a.645.645 0 0 0 .193-.455zm-6.184-1.29l1.023-1.023 1.023 1.023-1.023 1.023zm2.314 3.6L24.783 27.1l2.317-2.317 1.023 1.023zM30.968 29.032v-1.29h-.645a.645.645 0 0 0-.456.189l-1.935 1.935a.645.645 0 0 0 0 .912l1.479 1.479-.189.189a.645.645 0 0 0 0 .912l1.935 1.935a.645.645 0 0 0 .912 0l3.226-3.226a.645.645 0 0 0 0-.912L33.36 29.22a.645.645 0 0 0-.912 0l-2.125 2.125-1.023-1.022 1.29-1.29zM32.9 30.59l1.023 1.023-2.314 2.314L30.59 32.9z"/><path d="M39.811 25.35l-8.387-8.387a.645.645 0 0 0-.456-.189h-5.161a.645.645 0 0 0-.456.189l-1.8 1.8-7.611-7.606a.645.645 0 0 0-.456-.189h-1.669l-.912-.912V8.387a.645.645 0 0 0-.189-.456L10.779 6a.645.645 0 0 0-.456-.189H8.654l-.267-.267V2.581a.645.645 0 0 0-.187-.456L6.263.189A.645.645 0 0 0 5.806 0H1.935a.645.645 0 0 0-.456.189l-1.29 1.29A.645.645 0 0 0 0 1.935v3.871a.645.645 0 0 0 .189.456L2.125 8.2a.645.645 0 0 0 .456.189h2.958l.267.267v1.668a.645.645 0 0 0 .194.455l1.935 1.935a.645.645 0 0 0 .456.189h1.668l.912.912v1.668a.645.645 0 0 0 .189.456l7.608 7.608-1.8 1.8a.645.645 0 0 0-.189.456v5.161a.645.645 0 0 0 .189.456l8.387 8.387a.645.645 0 0 0 .456.189h5.161a.645.645 0 0 0 .456-.189l8.387-8.387a.645.645 0 0 0 .185-.452v-5.161a.645.645 0 0 0-.189-.457zM12.258 15.217v-1.669a.646.646 0 0 0-.189-.456l-1.29-1.29a.645.645 0 0 0-.456-.189H8.654L7.1 10.055V8.387a.645.645 0 0 0-.189-.456l-.645-.645a.645.645 0 0 0-.46-.186H2.848L1.29 5.539V2.2l.91-.91h3.339L7.1 2.848v2.958a.645.645 0 0 0 .189.456l.645.645a.645.645 0 0 0 .456.189h1.668l1.557 1.557v1.668a.645.645 0 0 0 .189.456l1.29 1.29a.645.645 0 0 0 .456.189h1.668l7.419 7.419-2.959 2.959zM38.71 30.7l-8.01 8.01h-4.627l-8.008-8.01v-4.627l8.009-8.009H30.7l8.009 8.009z"/><path d="M38.9 22.392l.912-.912-7.1-7.1a.645.645 0 0 0-.456-.189h-6.45v1.29h6.185z"/></symbol><symbol id="search-ico" viewBox="0 0 24 24"><title>search-ico</title><path d="M16.26 14.74l7.59 7.59a.5.5 0 0 1 0 .71l-.8.8a.5.5 0 0 1-.71 0l-7.59-7.59a9.12 9.12 0 1 1 1.52-1.52zm-8.52 1.2a7 7 0 1 0-5.47-5.47 7 7 0 0 0 5.47 5.47z"/></symbol><symbol id="share-ico" viewBox="0 0 21 24"><title>share-ico</title><path d="M4.332 24a3.948 3.948 0 1 1 2.825-6.7l6.863-4.688a.921.921 0 0 1 1.311.234 2.1 2.1 0 1 0 0-2.367l-.021.031a.923.923 0 0 1-1.237.25L6.018 6.538a.837.837 0 0 1-.111-.06.927.927 0 0 1-.307-1.239.97.97 0 0 1 .071-.108 2.093 2.093 0 1 0-1.729.915A2.116 2.116 0 0 0 4.384 6l.39 1.807A3.943 3.943 0 1 1 7.64 5.3l6.7 3.512a3.948 3.948 0 1 1 .068 5.773l-6.93 4.735-.011.007a.921.921 0 0 1-1.326-.334 2.1 2.1 0 1 0 .186 1.7l1.756.564A3.928 3.928 0 0 1 4.332 24z"/></symbol><symbol id="steering-ico" viewBox="0 0 68.03 23.64"><title>steering-ico</title><path d="M55.19 10.11v3.78h-16a5.47 5.47 0 0 1-10.29 0h-16v-3.78h16a5.46 5.46 0 0 1 3.16-3.23V4.23h-1V2.47h5.9v1.76h-1v2.65a5.49 5.49 0 0 1 3.19 3.23zM67.38.02H57.42a.84.84 0 0 0-.84.84V22.8a.84.84 0 0 0 .84.84H67.38a.84.84 0 0 0 .68-.84V.8a.83.83 0 0 0-.68-.78zm-.4.43l-3.06 1.08V.45h3.06m-9.37 0h3.05v1.08L57.6.45m-.12.63l3.18 1.12v2.25l-3.18-1.12zm0 2.92l3.18 1.12v2.24l-3.18-1.12zm0 2.91l3.18 1.12v2.24l-3.18-1.12zm0 2.92l3.18 1.12v2.24l-3.18-1.12zm0 2.92l3.18 1.12v2.24l-3.18-1.12zm0 2.91l3.18 1.14v2.24l-3.18-1.14zm0 2.92l3.18 1.12v2.24l-3.18-1.14zm0 4.51v-1.6l3.18 1.13v.48zm3.81 0V.45h.77v22.64zm2 0h-.74V.45h.74zm3.81 0h-3.19v-.48l3.15-1.12zm-.04-2.29l-3.18 1.12V19.7l3.18-1.12zm0-2.92L63.88 19v-2.2l3.18-1.14zm0-2.91l-3.18 1.12v-2.22l3.18-1.12zm0-2.92l-3.18 1.12v-2.22l3.18-1.15zm0-2.91l-3.18 1.12V8.04l3.18-1.13zm0-2.92l-3.18 1.12V5.12L67.06 4zm0-2.91l-3.18 1.12V2.2l3.18-1.12zM10.79.02H.84A.84.84 0 0 0 0 .86V22.8a.84.84 0 0 0 .84.84h9.95a.84.84 0 0 0 .65-.82V.8a.83.83 0 0 0-.65-.78zm-.4.43L7.33 1.53V.45h3.06m-9.37 0h3.04v1.08l-3-1.08m-.12.63L4.06 2.2v2.25L.88 3.33zM.94 4l3.12 1.12v2.24L.88 6.24zm0 2.91l3.12 1.13v2.24L.88 9.16zm0 2.92l3.12 1.12v2.24L.88 12.07zm0 2.92l3.12 1.12v2.24L.88 14.99zm0 2.91l3.12 1.14v2.24L.9 17.9zm0 2.92l3.12 1.12v2.24L.9 20.8zm0 4.51v-1.6l3.12 1.13v.48zm3.81 0V.45h.73v22.64zm2 0h-.79V.45h.74zm3.81 0H7.33v-.48l3.18-1.12zm0-2.27l-3.18 1.12V19.7l3.18-1.12zm0-2.92l-3.18 1.12V16.8l3.18-1.12zm0-2.91l-3.18 1.12v-2.24l3.18-1.12zm0-2.92l-3.18 1.12v-2.24l3.13-1.15zm0-2.91l-3.18 1.12V8.04l3.18-1.12zm0-2.92L7.38 7.36V5.12L10.56 4zm0-2.91L7.38 4.45V2.2l3.18-1.12z"/></symbol><symbol id="telegram-ico" viewBox="0 0 24 24"><title>telegram-ico</title><path d="M4.48 11.72l3.59 1.34 1.39 4.47a.42.42 0 0 0 .67.2l2-1.63a.6.6 0 0 1 .73 0l3.61 2.62a.42.42 0 0 0 .66-.26l2.65-12.74a.42.42 0 0 0-.57-.48L4.48 10.93a.42.42 0 0 0 0 .79zm4.76.63l7-4.32a.12.12 0 0 1 .15.19l-5.78 5.38a1.2 1.2 0 0 0-.37.72L10 15.78a.18.18 0 0 1-.35 0l-.76-2.67a.71.71 0 0 1 .35-.76z"/><path d="M0 0v24h24V0zm22.52 22.52h-21v-21h21z"/></symbol><symbol id="temp-icon-left-arrow" viewBox="0 0 31.494 31.494"><path d="M10.273 5.01a1.117 1.117 0 0 1 1.587 1.57l-8.047 8.047h26.554c.62 0 1.127.492 1.127 1.11 0 .62-.508 1.128-1.127 1.128H3.813l8.047 8.032c.43.444.43 1.16 0 1.587a1.112 1.112 0 0 1-1.587 0L.32 16.532a1.12 1.12 0 0 1 0-1.57l9.953-9.953z" fill="#1E201D"/></symbol><symbol id="temp-icon-right-arrow" viewBox="0 0 31.49 31.49"><path d="M21.205 5.007a1.117 1.117 0 0 0-1.587 1.57l8.047 8.048H1.11c-.618 0-1.11.493-1.11 1.112 0 .62.492 1.127 1.11 1.127h26.555l-8.047 8.032c-.43.444-.43 1.16 0 1.587.444.444 1.16.444 1.587 0l9.952-9.952a1.092 1.092 0 0 0 0-1.57l-9.952-9.95z" fill="#1E201D"/></symbol><symbol id="transmission-ico" viewBox="0 0 46 80"><title>transmission-ico</title><path d="M17.34.21a7.92 7.92 0 0 0-1.53.61 7.54 7.54 0 0 0-2.65 3l-.37.89v40.28H8.35c-4.14 0-4.48.06-5.18.39A5.85 5.85 0 0 0 .45 48l-.45.86v9.86l.46.91a5.37 5.37 0 0 0 2.64 2.44c.89.41.93.41 5.24.45h4.35v6.37c0 6.31 0 6.38.43 7.31a7.17 7.17 0 0 0 3.45 3.38c.94.38 1 .38 6.31.38s5.37 0 6.31-.38a7.17 7.17 0 0 0 3.45-3.38c.38-.92.38-1 .43-7.31v-6.37h8.71l1.17-.52a5.28 5.28 0 0 0 2.56-2.52c.37-.7.37-.81.37-5.65v-4.97l-.45-.86a5.85 5.85 0 0 0-2.64-2.53c-.7-.33-1-.34-5.18-.39h-4.44V4.8l-.47-1A7.17 7.17 0 0 0 29.25.42c-.93-.36-1.1-.38-6-.41-4.07-.01-5.19-.01-5.91.2zm10.34 5.1l.37.33V45h-2.56v-7.69c0-7.17 0-7.75-.3-8.34a2.27 2.27 0 0 0-2.29-1.39 2.27 2.27 0 0 0-2.11 1.08c-.32.42-.34.63-.38 8.4v8h-2.59V5.69l.35-.36c.34-.33.36-.33 4.75-.33s4.4 0 4.76.31zm12.76 42.61a1.13 1.13 0 0 1 0 1.72l-.38.39H5.82l-.38-.39a1.13 1.13 0 0 1 0-1.72l.38-.39h34.23zM28.05 68.45c0 5.84 0 5.9-.35 6.26s-.35.36-4.75.36-4.4 0-4.76-.34l-.37-.33V62.55h10.23zM38.28 12.48v5h2.16v-3.36h.8a15.31 15.31 0 0 0 1.9-.17 2.47 2.47 0 0 0 1.6-.66 3.26 3.26 0 0 0 .27-4.6c-.88-1-1.44-1.14-4.3-1.14h-2.43v5zM43.4 10a1.27 1.27 0 0 1 0 1.6c-.21.24-.5.28-1.6.28h-1.28V9.66h1.28c1.07 0 1.32.05 1.6.34z"/><path d="M38.28 32.51v5h2.16v-3.36h.69c.62 0 .77.08 1.36.72A3.37 3.37 0 0 1 43.71 37v.47H46l-.11-.81a4 4 0 0 0-1.05-2.38l-.53-.58.48-.44A3.31 3.31 0 0 0 44 27.8c-.53-.24-1.07-.3-3.15-.3h-2.57v5zM43.4 30a1.27 1.27 0 0 1 0 1.6c-.21.24-.5.28-1.6.28h-1.28v-2.19h1.28c1.07 0 1.32.05 1.6.31zM38.28 72.57v5h2.56v-4.92l1.28 2.46 1.26 2.47H46v-10h-2.6v4.93L42.1 70l-1.26-2.46h-2.56v5z"/></symbol><symbol id="tuning-ico" viewBox="0 0 40 40"><title>tuning-ico</title><path d="M39.355 24.516a.645.645 0 0 0 .645-.645V.645A.645.645 0 0 0 39.355 0h-3.871a.646.646 0 0 0-.456.189L24.894 10.323h-5.539V5.806a.645.645 0 0 0-.189-.456L14 .189a.645.645 0 0 0-1.1.456V7.1H6.452V.645A.645.645 0 0 0 5.35.189L.189 5.35A.645.645 0 0 0 0 5.806v5.161a.646.646 0 0 0 .189.456L5.161 16.4v22.955a.645.645 0 0 0 .645.645h7.742a.645.645 0 0 0 .645-.645v-18.71h1.936a.645.645 0 0 0 .645-.645 4.516 4.516 0 0 1 9.032 0 .645.645 0 0 0 .645.645h.649v3.226a.645.645 0 0 0 .645.645h7.1v3.871H34.2a.645.645 0 0 0-.645.645v10.323A.645.645 0 0 0 34.2 40h5.161a.645.645 0 0 0 .639-.645V29.032a.645.645 0 0 0-.645-.645h-.645v-3.871zm-.645-14.193h-5.162V7.364l3.493-3.493h1.669zM12.9 38.71H9.032V14.839a.645.645 0 0 0-.189-.456l-3.871-3.871-.912.912 3.682 3.682v23.6h-1.29V16.129a.645.645 0 0 0-.189-.456L1.29 10.7V6.074L5.161 2.2v5.542a.645.645 0 0 0 .645.645h7.742a.645.645 0 0 0 .645-.645V2.2l3.871 3.871v4.249h-1.935a.645.645 0 0 0-.456.189L11.8 14.383a.645.645 0 0 0-.189.456V20a.645.645 0 0 0 .645.645h.644zm14.161-19.355a5.807 5.807 0 0 0-11.541 0H12.9v-4.249l3.5-3.493h8.765a.645.645 0 0 0 .456-.189L35.751 1.29h2.959v1.29h-1.936a.645.645 0 0 0-.456.189l-3.871 3.872a.645.645 0 0 0-.189.456v3.871a.645.645 0 0 0 .645.645h5.807v7.742zm7.778 10.323h1.668l-1.668 1.668zm1.29-1.29v-3.872h1.29v3.871zM38.71 38.71h-1.669l1.668-1.668zm0-3.493l-3.493 3.493h-.378v-1.669l3.871-3.871zm0-3.871l-3.871 3.871V33.17l3.493-3.493h.378zm-10.323-8.12v-2.581H38.71v2.581z"/><path d="M20.215 20.319a1.936 1.936 0 1 0-.713-.869 1.935 1.935 0 0 0 .713.869zm.539-1.968a.645.645 0 1 1-.109.358.645.645 0 0 1 .109-.358zM31.691 34.65l-6.986-6.986a1.921 1.921 0 0 0-1.368-.567h-.222a1.915 1.915 0 0 0-1.2.43A1.93 1.93 0 0 0 20 25.806h-2.581a1.935 1.935 0 0 0-1.935 1.935v10.324A1.935 1.935 0 0 0 17.419 40H20a1.935 1.935 0 0 0 1.935-1.935v-3.6l4.972 4.972a1.92 1.92 0 0 0 1.369.563h.224a1.921 1.921 0 0 0 1.368-.567l1.824-1.825a1.921 1.921 0 0 0 .567-1.369v-.221a1.922 1.922 0 0 0-.567-1.369zm-11.046-3.3l-1.1 1.1.912.912.189-.189v2.046l-1.1 1.1.912.912.189-.189v1.023a.645.645 0 0 1-.647.645h-2.581a.645.645 0 0 1-.645-.645v-1.024l.189.189.912-.912-1.1-1.1V33.17l.189.189.912-.912-1.1-1.1V29.3l.189.189.912-.912-1.058-1.057a.641.641 0 0 1 .6-.423H20a.641.641 0 0 1 .6.423l-1.056 1.056.912.912.189-.189zm10.323 4.894a.646.646 0 0 1-.189.457l-1.824 1.825a.65.65 0 0 1-.456.189h-.222a.651.651 0 0 1-.456-.189l-.456-.456h1.023v-1.29h-2.314l-1.29-1.29h1.023V34.2h-2.314L22.2 32.9h1.023v-1.29h-1.29V29.3l.723-.723a.651.651 0 0 1 .456-.189h.222a.651.651 0 0 1 .456.189l.078.078v2.314h1.29v-1.025l1.29 1.29v2.314h1.29v-1.023l1.29 1.29v2.314h1.29v-1.023l.456.456a.645.645 0 0 1 .189.457z"/></symbol><symbol id="undercarriage-ico" viewBox="0 0 56.74 59.96"><title>undercarriage-ico</title><path d="M55.35 9.77a1.72 1.72 0 0 0-.39-.05H34.19a1.79 1.79 0 0 0-1.78 1.79v46.67a1.78 1.78 0 0 0 1.78 1.78h20.77a1.73 1.73 0 0 0 .39 0 1.78 1.78 0 0 0 1.39-1.78V11.51a1.77 1.77 0 0 0-1.39-1.74zm-.86.92l-6.5 2.29v-2.29h6.5m-19.91 0h6.5v2.29l-6.5-2.29m-.26 1.34l6.76 2.35v4.8l-6.76-2.38zm0 6.2l6.76 2.38v4.77L34.32 23zm0 6.19l6.76 2.39v4.76l-6.76-2.38zm0 6.2L41.08 33v4.76l-6.76-2.38zm0 6.2l6.76 2.38v4.76l-6.76-2.38zm0 6.19l6.76 2.37v4.77l-6.76-2.39zm0 6.2l6.76 2.38v4.79L34.32 54zm0 9.59v-3.42l6.76 2.39v1zm8.1 0V10.69h1.56V58.8zm4.24 0h-1.57V10.69h1.57zm8.09 0h-6.76v-1l6.76-2.42zm0-4.83l-6.76 2.41v-4.79l6.76-2.38zm0-6.2l-6.76 2.39v-4.78L54.75 43zm0-6.19l-6.76 2.38V39.2l6.76-2.38zm0-6.2l-6.76 2.38V33l6.76-2.38zm0-6.19l-6.76 2.38v-4.76l6.76-2.43zm0-6.2l-6.76 2.39v-4.77l6.76-2.38zm0-6.19l-6.76 2.38v-4.8L54.75 12zM29.69 19.87h1.65v29.95h-1.65zM15.96 33.7a3.43 3.43 0 0 1-2.62-1.32 4.13 4.13 0 0 1-.81-1.54H0v7.91h28.69v-7.86h-9.3a3.69 3.69 0 0 1-3.43 2.81zM17.84.91A2.43 2.43 0 0 0 15.99 0a2.82 2.82 0 0 0-2.59 2.61h5.18a3.25 3.25 0 0 0-.74-1.7z"/><path d="M14.11 31.79a2.43 2.43 0 0 0 1.85.91 2.89 2.89 0 0 0 2.62-3.11v-.56h-5.24v.56a3.44 3.44 0 0 0 .77 2.2zM10.14 26.94a1.09 1.09 0 0 0 1.1 1.09h9.08a1.09 1.09 0 0 0 .42-2.1l-.21-.1-2.69-1h2.5a1.09 1.09 0 0 0 .42-2.09l-.21-.1-2.71-.96h2.5a1.09 1.09 0 0 0 1.09-1.09 1.08 1.08 0 0 0-.7-1l-.2-.1-2.69-1h2.5a1.09 1.09 0 0 0 .4-2.11 1 1 0 0 0-.23-.12l-2.67-.88h2.47a1.09 1.09 0 0 0 .42-2.1l-.21-.1-2.69-1h2.5a1.09 1.09 0 0 0 .42-2.1l-.21-.1-2.69-1h2.5a1.09 1.09 0 0 0 .42-2.09l-.21-.1-2.69-1h2.5a1.095 1.095 0 0 0 0-2.19h-9.13a1.095 1.095 0 1 0 0 2.19h.15l2.74 1h-2.89a1.09 1.09 0 1 0 0 2.18h.12l2.75 1h-2.87a1.095 1.095 0 1 0 0 2.19h.15l2.74 1h-2.89a1.1 1.1 0 1 0 0 2.19h.15l2.74 1h-2.89a1.09 1.09 0 1 0 0 2.18h.12l2.75 1h-2.87a1.095 1.095 0 1 0 0 2.19h.15l2.74 1h-2.89a1.09 1.09 0 1 0 0 2.18h.12l2.75 1h-2.87a1.1 1.1 0 0 0-1.1 1.04z"/></symbol><symbol id="viber-ico" viewBox="0 0 24 24"><title>viber-ico</title><path d="M8.93 15.05a19.54 19.54 0 0 0 6.54 4.23 2.73 2.73 0 0 0 3.87-1.85 1.41 1.41 0 0 0 0-1 8.37 8.37 0 0 0-3.79-2.78 1.4 1.4 0 0 0-1.24.81 1.41 1.41 0 0 1-2 .46 6.51 6.51 0 0 1-2-1.33 6.51 6.51 0 0 1-1.33-2 1.41 1.41 0 0 1 .46-2 1.4 1.4 0 0 0 .81-1.24 8.37 8.37 0 0 0-2.74-3.71 1.41 1.41 0 0 0-1 0A2.73 2.73 0 0 0 4.7 8.51a19.54 19.54 0 0 0 4.23 6.54zM12.43 5.54a5 5 0 0 1 1.21 0A5.42 5.42 0 0 1 17 7.08a5.21 5.21 0 0 1 1.53 3.22 4.71 4.71 0 0 1-.05 1.21.52.52 0 0 0 .42.6h.1a.52.52 0 0 0 .51-.43 5.75 5.75 0 0 0 .06-1.48 6.25 6.25 0 0 0-1.83-3.86 6.46 6.46 0 0 0-4-1.88 6 6 0 0 0-1.46.05.52.52 0 0 0 .16 1z"/><path d="M17.23 11.66h.07a.52.52 0 0 0 .51-.45 4 4 0 0 0 0-.85 4.52 4.52 0 0 0-1.31-2.79 4.72 4.72 0 0 0-2.92-1.38 4.3 4.3 0 0 0-.91 0 .52.52 0 0 0 .13 1 3.26 3.26 0 0 1 .69 0 3.68 3.68 0 0 1 2.28 1.08 3.48 3.48 0 0 1 1 2.14 3 3 0 0 1 0 .63.52.52 0 0 0 .46.62z"/><path d="M15.55 11.35a.52.52 0 0 0 .52-.48 2.36 2.36 0 0 0 0-.36 3 3 0 0 0-2.67-2.59h-.34a.52.52 0 1 0 0 1h.2a2 2 0 0 1 1.73 1.64 1.32 1.32 0 0 1 0 .2.52.52 0 0 0 .56.59z"/><path d="M0 0v24h24V0zm22.52 22.52h-21v-21h21z"/></symbol></svg>