<svg xmlns="http://www.w3.org/2000/svg" width="320" height="53" viewBox="0 0 320 53"><title>toyota-logo</title><path d="M37.746,50.282c-4.213-2.718-7.414-11.891-7.414-22.933V26.16C18.536,24.292,10.111,19.2,9.774,13.08a19.6,19.6,0,0,0-4.55,12.231C5.392,38.561,19.716,49.263,37.746,50.282ZM0,26.5C0,11.891,18.031,0,40.443,0,62.686,0,80.885,11.891,80.885,26.5S62.854,53,40.443,53,0,41.109,0,26.5ZM40.274,3.737c4.381,0,7.92,6.625,9.268,15.8,8.425-1.359,14.323-4.417,14.323-7.814,0-4.756-10.616-8.494-23.591-8.494S16.683,7.135,16.683,11.721c0,3.567,5.9,6.625,14.323,7.814C32.354,10.362,36.061,3.737,40.274,3.737Zm2.7,46.545C61,49.263,75.324,38.561,75.324,25.481a19.6,19.6,0,0,0-4.55-12.231c-.169,6.115-8.763,11.212-20.558,13.08v1.189C50.216,38.391,47.183,47.564,42.97,50.282Zm-2.7-30.067c1.854,0,3.876,0,5.561-.17C44.992,14.1,42.8,10.022,40.274,10.022S35.556,14.1,34.713,20.045C36.567,20.215,38.42,20.215,40.274,20.215Zm0,21.744c3.2,0,5.9-6.795,6.066-15.288-2.022.17-4.044.34-6.066.34s-4.044-.17-6.066-.34C34.376,35.164,37.072,41.958,40.274,41.958Z" transform="translate(0 0)" style="fill:#fff"/><path d="M206.089,26.5a20.053,20.053,0,1,1,40.105,0,20.053,20.053,0,1,1-40.105,0Zm20.221,12.74c6.235,0,11.29-5.776,11.29-12.91s-5.055-12.91-11.29-12.91-11.29,5.776-11.29,12.91C215.02,33.633,220.075,39.238,226.31,39.238Z" transform="translate(0 0)" style="fill:#fff"/><path d="M269.112,14.609V45.866h-8.426V14.609h-11.8V7.645h32.185v6.965H269.112Z" transform="translate(0 0)" style="fill:#fff"/><path d="M291.353,37.2l-3.2,8.663h-9.942L293.88,7.645h10.448L320,45.866h-9.942l-3.2-8.663h-15.5Zm7.752-6.455H304.5l-5.224-13.93-5.224,13.93Z" transform="translate(0 0)" style="fill:#fff"/><path d="M112.9,14.609V45.866h-8.426V14.609h-11.8V7.645H124.7v6.965Z" transform="translate(0 0)" style="fill:#fff"/><path d="M126.888,26.5a20.053,20.053,0,1,1,40.105,0,20.053,20.053,0,1,1-40.105,0Zm20.221,12.74c6.235,0,11.29-5.776,11.29-12.91s-5.055-12.91-11.29-12.91-11.29,5.776-11.29,12.91C135.819,33.633,140.874,39.238,147.109,39.238Z" transform="translate(0 0)" style="fill:#fff"/><path d="M186.71,45.866h4.213V31.257L205.752,7.645H195.81l-9.1,15.968L177.442,7.645H167.5l14.829,23.612V45.866Z" transform="translate(0 0)" style="fill:#fff"/></svg>