<svg xmlns="http://www.w3.org/2000/svg" width="270.082" height="62.831" viewBox="0 0 270.082 62.831"><title>volkswagen-logo</title><path d="M5.47,31.415A25.787,25.787,0,0,0,20.788,55.054L6.721,23.484A26.342,26.342,0,0,0,5.47,31.415Zm4.845-15.241L22.507,43.546l5.158-11.353h7.659l5.158,11.353L52.672,16.174A26.485,26.485,0,0,0,44.857,9.02L35.323,30.327H27.665L18.131,9.02A31,31,0,0,0,10.316,16.174Zm46.108,7.309L42.357,55.054A25.787,25.787,0,0,0,57.674,31.415,26.342,26.342,0,0,0,56.424,23.484ZM39.231,56.143,31.572,39.036,23.914,56.143a24.652,24.652,0,0,0,7.659,1.089A21.266,21.266,0,0,0,39.231,56.143ZM23.914,6.532l7.659,17.107L39.231,6.532a25.337,25.337,0,0,0-7.659-1.089A24.652,24.652,0,0,0,23.914,6.532ZM0,31.415A31.573,31.573,0,1,1,31.572,62.831C14.223,62.675,0,48.678,0,31.415Z" transform="translate(0)" style="fill:#fff"/><path d="M93.154,43.745H87.371L78.149,19.173h5.939l4.689,13.841a29.7,29.7,0,0,1,1.407,4.977c.469-1.711.938-3.266,1.407-4.821l4.845-14h5.783Z" transform="translate(0)" style="fill:#fff"/><path d="M113.472,36.127a3.606,3.606,0,1,1-7.19,0,3.606,3.606,0,1,1,7.19,0Zm5,0c0-4.666-3.595-8.087-8.6-8.087-5.158,0-8.753,3.577-8.753,8.087a8.159,8.159,0,0,0,8.44,8.243C115.348,44.214,118.474,40.326,118.474,36.127Z" transform="translate(0)" style="fill:#fff"/><path d="M122.382,43.747V17.775h4.845V43.747Z" transform="translate(0)" style="fill:#fff"/><path d="M141.45,43.747l-4.845-7.154v7.154H131.76V17.775h4.845V34.882l4.845-6.376h6.1l-5.939,7,6.408,8.243Z" transform="translate(0)" style="fill:#fff"/><path d="M155.36,44.214c-3.439,0-5.314-1.089-6.252-3.577l4.22-1.555a2.5,2.5,0,0,0,2.188,1.711c.938,0,1.563-.311,1.563-1.089,0-2.177-7.5-1.244-7.5-6.532,0-2.8,2.344-5.132,6.252-5.132,2.813,0,4.845,1.089,5.939,3.577l-3.907,1.555a2.207,2.207,0,0,0-2.188-1.555c-.625,0-1.407.311-1.407,1.089,0,2.488,7.5,1.244,7.5,6.687C161.768,42.348,158.955,44.214,155.36,44.214Z" transform="translate(0)" style="fill:#fff"/><path d="M185.682,43.747h-4.689l-2.657-7.465a7.091,7.091,0,0,1-.625-2.333,23.953,23.953,0,0,1-.625,2.333l-2.657,7.465h-4.845l-6.565-15.241h5.158l2.97,7.309c.313.778.625,1.711.938,2.644.313-.933.469-1.866.781-2.644l2.657-7.465h5.158l2.344,7c.313,1.089.625,2.022.938,2.955a13.006,13.006,0,0,1,1.094-2.955l2.657-7h5Z" transform="translate(0)" style="fill:#fff"/><path d="M205.689,36.438a3.834,3.834,0,0,1-3.595,4.044c-2.344,0-3.751-1.866-3.751-4.2a3.611,3.611,0,0,1,3.595-3.888A3.769,3.769,0,0,1,205.689,36.438Zm4.845,7.309V28.507h-4.845v1.711a5.758,5.758,0,0,0-4.845-2.177c-4.689,0-7.659,3.577-7.659,8.243s2.657,7.932,7.19,7.932a7.46,7.46,0,0,0,5.314-2.022v1.555Z" transform="translate(0)" style="fill:#fff"/><path d="M226.476,35.97c0,2.022-1.25,3.888-3.439,3.888a3.562,3.562,0,0,1-3.751-3.888,3.564,3.564,0,0,1,3.595-3.733A3.631,3.631,0,0,1,226.476,35.97Zm4.689,6.376V28.661h-4.845v1.711c-.938-1.555-2.657-2.177-4.845-2.177-4.22,0-7.346,3.421-7.346,7.932,0,4.044,2.344,7.465,7.19,7.465a6.859,6.859,0,0,0,5-2.022v2.177c0,2.488-1.094,3.732-3.439,3.732-1.563,0-2.97-.933-2.97-2.333h-4.845c0,3.266,2.813,5.91,7.5,5.91,2.813,0,4.845-.622,6.565-2.333C230.7,47.324,231.165,45.613,231.165,42.347Z" transform="translate(0)" style="fill:#fff"/><path d="M246.013,34.416h-6.1a3.1,3.1,0,0,1,3.126-2.955A3.063,3.063,0,0,1,246.013,34.416Zm4.845,1.555c0-4.977-3.126-7.932-7.815-7.932s-7.971,3.577-7.971,8.243c0,5.288,3.907,7.932,7.971,7.932,3.595,0,5.783-1.244,7.5-3.577l-3.126-2.022a4.245,4.245,0,0,1-3.751,2.022,3.517,3.517,0,0,1-3.751-3.266h10.941Z" transform="translate(0)" style="fill:#fff"/><path d="M264.925,43.747v-8.4c0-1.4-.469-2.955-2.345-2.955-.938,0-2.97.622-2.97,3.421v7.932h-5V28.505h5v2.022a6.07,6.07,0,0,1,5-2.333,5.171,5.171,0,0,1,4.064,1.555c.938.933,1.407,2.177,1.407,4.51V43.9h-5.158Z" transform="translate(0)" style="fill:#fff"/></svg>