<svg xmlns="http://www.w3.org/2000/svg" width="52.668" height="55.44" viewBox="0 0 52.668 55.44"><title>brakes-ico</title><path d="M38.846.044a3.769,3.769,0,0,0-2.471,1.5l-.2.263A31,31,0,0,0,30.466.176a2.824,2.824,0,0,0-3.318,3.191L28.2,10.133a2.757,2.757,0,0,0,1.946,2.242A19.45,19.45,0,0,1,40.792,20.02a2.761,2.761,0,0,0,2.692,1.151l6.807-1.061a2.811,2.811,0,0,0,2.027-4.141,31.511,31.511,0,0,0-3.439-5.029l.111-.142a3.784,3.784,0,0,0-.817-5.282L41.649.731a3.758,3.758,0,0,0-2.8-.687ZM26,3.387A25.9,25.9,0,0,0,9.45,9.335a1.022,1.022,0,0,1,.867,1.02,1.039,1.039,0,0,1-1.039,1.05,1.053,1.053,0,0,1-1.039-.969A25.992,25.992,0,0,0,.123,26.928a1.049,1.049,0,0,1,1.351,1.6,1.036,1.036,0,0,1-1.422.032c-.013.289-.052.564-.052.858A25.978,25.978,0,0,0,5.96,45.986a1.026,1.026,0,0,1,1-.879,1.065,1.065,0,0,1,1.059,1.06,1.017,1.017,0,0,1-.968,1.02,25.99,25.99,0,0,0,16.457,8.13,1.037,1.037,0,0,1,.111-1.333,1.05,1.05,0,0,1,1.482,0,1.036,1.036,0,0,1,.052,1.4c.294.013.558.052.847.052a25.893,25.893,0,0,0,16.538-5.948,1.036,1.036,0,0,1,.161-2.06,1.057,1.057,0,0,1,1.039.97,26.055,26.055,0,0,0,8.128-16.512,1.04,1.04,0,0,1-1.351-1.575,1.03,1.03,0,0,1,1.412-.052c.023-.289.052-.559.052-.848a25.924,25.924,0,0,0-1.412-8.473.335.335,0,0,1-.131.041l-6.807,1.04a3.352,3.352,0,0,1-.544.052,2.7,2.7,0,0,1-.555-.052,1.113,1.113,0,0,1-.121.152,1.04,1.04,0,0,1-1.482,0,1.081,1.081,0,0,1-.272-1.04,3.177,3.177,0,0,1-.555-.616l-.009-.009a1.049,1.049,0,0,1-1.1-.243,1.036,1.036,0,0,1-.111-1.333c-.155-.171-.294-.34-.444-.495a1.02,1.02,0,0,1-1.351-.111,1.037,1.037,0,0,1-.131-1.313,14.586,14.586,0,0,0-1.17-.919,17.893,17.893,0,0,0-4.276-2.363h-.071a.982.982,0,0,1-.7-.273l-.827-.253a.531.531,0,0,1-.232-.1,1.052,1.052,0,1,1-1.634-1.232,3.437,3.437,0,0,1-.7-1.606l-.615-4.019a1.15,1.15,0,0,1-.292.535,1.04,1.04,0,0,1-1.482,0,1.053,1.053,0,0,1,0-1.484,1.041,1.041,0,0,1,1.482,0,.731.731,0,0,1,.171.232L26.3,3.5c0-.032-.013-.055,0-.091a2.259,2.259,0,0,0-.3-.023ZM23.79,6.912a1.029,1.029,0,0,1,.736.3,1.056,1.056,0,0,1,0,1.495,1.04,1.04,0,0,1-1.482,0,1.065,1.065,0,0,1,0-1.495A1.052,1.052,0,0,1,23.79,6.912ZM21.864,8.83a1.029,1.029,0,0,1,.736.3,1.065,1.065,0,0,1,0,1.494,1.045,1.045,0,0,1-1.482,0,1.065,1.065,0,0,1,0-1.494A1.052,1.052,0,0,1,21.864,8.83Zm-1.926,1.919a1.029,1.029,0,0,1,.736.313,1.066,1.066,0,0,1,0,1.495,1.049,1.049,0,0,1-1.482,0,1.066,1.066,0,0,1,0-1.495A1.054,1.054,0,0,1,19.938,10.749ZM26,11.628a1.061,1.061,0,0,1,1.039,1.06,1.049,1.049,0,0,1-2.1,0A1.065,1.065,0,0,1,26,11.628Zm-16.719.414a1.034,1.034,0,0,1,1.039,1.04,1.048,1.048,0,0,1-1.039,1.06,1.065,1.065,0,0,1-1.059-1.06A1.047,1.047,0,0,1,9.279,12.042Zm8.743.646a1.055,1.055,0,0,1,.746,1.8,1.049,1.049,0,1,1-.746-1.8ZM26,14.244A15.169,15.169,0,1,1,10.832,29.412,15.165,15.165,0,0,1,26,14.244Zm-9.9.354a1.069,1.069,0,0,1,.746.313A1.047,1.047,0,1,1,16.1,14.6Zm-6.817.162a1.048,1.048,0,0,1,1.039,1.06,1.03,1.03,0,0,1-1.039,1.04,1.047,1.047,0,0,1-1.059-1.04A1.065,1.065,0,0,1,9.279,14.759Zm4.891,1.777a1.03,1.03,0,0,1,.736.3,1.058,1.058,0,1,1-.736-.3Zm-4.891.929a1.055,1.055,0,1,1-1.059,1.06A1.065,1.065,0,0,1,9.279,17.465ZM26,19.455a9.958,9.958,0,1,0,9.943,9.957A9.958,9.958,0,0,0,26,19.455ZM9.279,20.2a1.055,1.055,0,0,1,0,2.111,1.055,1.055,0,1,1,0-2.111Zm16.709,1.384a1.3,1.3,0,1,1-1.3,1.3A1.3,1.3,0,0,1,25.988,21.586Zm17.587.717a1.05,1.05,0,0,1,.746,1.8,1.04,1.04,0,0,1-1.482,0,1.066,1.066,0,0,1,0-1.495A1.03,1.03,0,0,1,43.575,22.3Zm-34.3.616a1.056,1.056,0,0,1,0,2.111,1.055,1.055,0,1,1,0-2.111Zm12.1.576a1.3,1.3,0,1,1-.918.384A1.293,1.293,0,0,1,21.38,23.494Zm9.217,0a1.3,1.3,0,1,1-.918.384A1.294,1.294,0,0,1,30.6,23.494Zm14.894.737a1.041,1.041,0,0,1,.736.314,1.032,1.032,0,1,1-.736-.314Zm-36.212,1.4a1.051,1.051,0,0,1,1.039,1.06,1.034,1.034,0,0,1-1.039,1.04A1.051,1.051,0,0,1,8.22,26.7,1.068,1.068,0,0,1,9.279,25.635Zm38.138.515a1.05,1.05,0,1,1-.746.3A1.039,1.039,0,0,1,47.417,26.15ZM26,26.322a3.09,3.09,0,1,1-3.1,3.09A3.09,3.09,0,0,1,26,26.322Zm23.345,1.757a1.055,1.055,0,0,1,.746,1.8,1.049,1.049,0,1,1-.746-1.8Zm-29.869.041a1.3,1.3,0,1,1-1.3,1.293A1.289,1.289,0,0,1,19.474,28.12Zm13.039,0a1.3,1.3,0,1,1-1.3,1.293A1.294,1.294,0,0,1,32.513,28.12Zm10.185.243a1.056,1.056,0,1,1-1.039,1.05A1.039,1.039,0,0,1,42.7,28.363Zm-33.419.009a1.03,1.03,0,0,1,1.039,1.04,1.048,1.048,0,0,1-1.039,1.06,1.064,1.064,0,0,1-1.059-1.06A1.048,1.048,0,0,1,9.279,28.371Zm-6.645.273a1.052,1.052,0,0,1,.746.3,1.065,1.065,0,0,1,0,1.495A1.053,1.053,0,0,1,1.9,28.947,1.03,1.03,0,0,1,2.633,28.644ZM4.56,30.573a1.055,1.055,0,0,1,.746,1.8,1.04,1.04,0,0,1-1.482,0,1.053,1.053,0,0,1,0-1.485A1.03,1.03,0,0,1,4.56,30.573Zm38.138.515a1.047,1.047,0,0,1,1.059,1.04,1.065,1.065,0,0,1-1.059,1.06,1.048,1.048,0,0,1-1.039-1.06A1.03,1.03,0,0,1,42.7,31.088ZM6.486,32.5a1.068,1.068,0,0,1,.746.313,1.049,1.049,0,1,1-1.482,0A1.039,1.039,0,0,1,6.486,32.5Zm14.894.232a1.284,1.284,0,0,1,.918.374,1.3,1.3,0,1,1-1.836,0A1.291,1.291,0,0,1,21.38,32.734Zm9.217,0a1.286,1.286,0,0,1,.918.374,1.3,1.3,0,1,1-1.835,0A1.291,1.291,0,0,1,30.6,32.734Zm12.1,1.06a1.055,1.055,0,1,1,0,2.111,1.055,1.055,0,0,1,0-2.111ZM8.4,34.42a1.033,1.033,0,0,1,.736.3,1.058,1.058,0,1,1-.736-.3Zm17.587.232a1.3,1.3,0,1,1-1.3,1.293A1.3,1.3,0,0,1,25.988,34.652Zm-15.661,1.7a1.029,1.029,0,0,1,.736.314,1.021,1.021,0,1,1-.736-.314Zm32.37.182a1.056,1.056,0,1,1-1.039,1.05A1.042,1.042,0,0,1,42.7,36.531ZM12.254,38.278a1.042,1.042,0,0,1,.736.313,1.053,1.053,0,0,1,0,1.485,1.041,1.041,0,0,1-1.482,0,1.055,1.055,0,0,1,.746-1.8Zm30.444.97a1.048,1.048,0,0,1,1.059,1.04A1.065,1.065,0,0,1,42.7,41.348a1.051,1.051,0,0,1-1.039-1.061A1.034,1.034,0,0,1,42.7,39.248ZM14.17,40.2a1.03,1.03,0,0,1,.736.3,1.053,1.053,0,0,1,0,1.485A1.049,1.049,0,0,1,13.423,40.5,1.052,1.052,0,0,1,14.17,40.2Zm23.647,0a1.028,1.028,0,0,1,.736.3,1.054,1.054,0,0,1,0,1.485,1.041,1.041,0,0,1-1.482,0,1.045,1.045,0,0,1,.746-1.788ZM42.7,41.964a1.055,1.055,0,1,1,0,2.111,1.056,1.056,0,0,1,0-2.111Zm-6.817.152a1.063,1.063,0,0,1,.746.314,1.049,1.049,0,1,1-1.482,0A1.029,1.029,0,0,1,35.881,42.116Zm-1.926,1.939a1.04,1.04,0,0,1,.746.3,1.053,1.053,0,0,1,0,1.485,1.049,1.049,0,0,1-1.482-1.485A1.02,1.02,0,0,1,33.955,44.055ZM42.7,44.7a1.047,1.047,0,0,1,1.059,1.04A1.065,1.065,0,0,1,42.7,46.8a1.048,1.048,0,0,1-1.039-1.06A1.03,1.03,0,0,1,42.7,44.7ZM9.692,45.1a1.048,1.048,0,0,1,1.039,1.06A1.031,1.031,0,0,1,9.692,47.2a1.047,1.047,0,0,1-1.059-1.04A1.065,1.065,0,0,1,9.692,45.1Zm2.713,0a1.039,1.039,0,0,1,1.028,1.06A1.019,1.019,0,0,1,12.4,47.2a1.048,1.048,0,0,1-1.059-1.04A1.065,1.065,0,0,1,12.4,45.1Zm2.713,0a1.065,1.065,0,0,1,1.059,1.06,1.054,1.054,0,1,1-1.059-1.06Zm2.723,0a1.056,1.056,0,0,1,1.049,1.06,1.054,1.054,0,0,1-2.108,0A1.065,1.065,0,0,1,17.84,45.1Zm2.713,0a1.048,1.048,0,0,1,1.039,1.06,1.027,1.027,0,0,1-1.039,1.04,1.047,1.047,0,0,1-1.059-1.04A1.065,1.065,0,0,1,20.553,45.1Zm2.713,0a1.065,1.065,0,0,1,1.059,1.06,1.047,1.047,0,0,1-1.059,1.04,1.03,1.03,0,0,1-1.039-1.04A1.048,1.048,0,0,1,23.266,45.1Zm2.713,0a1.065,1.065,0,0,1,1.059,1.06,1.049,1.049,0,0,1-2.1,0A1.061,1.061,0,0,1,25.978,45.1Zm6.071.868a1.03,1.03,0,0,1,.736.313,1.053,1.053,0,0,1,0,1.484,1.041,1.041,0,0,1-1.482,0,1.055,1.055,0,0,1,.746-1.8Zm-1.926,1.929a1.04,1.04,0,0,1,.736.314,1.049,1.049,0,1,1-1.482,0A1.066,1.066,0,0,1,30.123,47.893Zm-1.936,1.929a1.055,1.055,0,1,1-.736.313A1.028,1.028,0,0,1,28.187,49.821ZM26.281,51.74a1.044,1.044,0,0,1,.746.3,1.056,1.056,0,1,1-1.492,0A1.042,1.042,0,0,1,26.281,51.74Z" transform="translate(0 0)"/></svg>