<svg xmlns="http://www.w3.org/2000/svg" width="71.48" height="43.657" viewBox="0 0 71.48 43.657"><title>diagnostics-ico</title><path d="M21.884,68.912h59.63a1.783,1.783,0,0,0,1.86-1.7V31.842a1.79,1.79,0,0,0-1.86-1.7H21.884a1.8,1.8,0,0,0-1.87,1.7v35.37A1.792,1.792,0,0,0,21.884,68.912Zm.83-35.561h57.97v32.2H22.714Z" transform="translate(-15.955 -30.142)"/><path d="M15.955,70.262A3.392,3.392,0,0,0,19.181,73.8H84.206a3.392,3.392,0,0,0,3.23-3.537Z" transform="translate(-15.955 -30.142)"/><path d="M57.454,46.271h-.11c-.57-.01-1.26-.019-1.96-.019a23.008,23.008,0,0,0-2.99.12,11.9,11.9,0,0,0-1.39.5c-.22.09-.47.189-.73.3-2.02.86-4.79,2.18-5.41,2.91a.225.225,0,0,0-.05.19.191.191,0,0,0,.1.131.233.233,0,0,0,.1.05.663.663,0,0,0,.08.029,7.424,7.424,0,0,0,1.63.15c.28.01.58.021.91.021h.19c2.7,0,6.81-.211,9.78-.391l.12-.01v-.12c0-.33,0-.67-.02-1.03,0-.22-.02-.439-.03-.68-.04-.63-.11-1.31-.2-2.04Zm-9.94,3.75c-.15-.069-.27-.109-.36-.05a.149.149,0,0,0-.08.16c0,.1.09.18.22.26-.2,0-.39,0-.56-.01a9.548,9.548,0,0,1-1.4-.1.436.436,0,0,1,.07-.07,9.5,9.5,0,0,1,1.37-1.01c.14-.08.26-.141.37-.2a1.5,1.5,0,0,1,.52-.14s.29,0,.29.159a8.062,8.062,0,0,1-.07.9c-.02.2-.08.2-.1.2A.589.589,0,0,1,47.514,50.021Zm8.8.07-.6.03c-.31.02-.62.04-.921.05-1.02.06-1.97.1-2.84.13-.2.01-.39.01-.59.021l-.72.029-.91.03c-.29,0-.58.01-.85.01-.37.011-.73.011-1.06.011h-.07l-.03-.03h.06c.11,0,.31-.05.35-.42a8.707,8.707,0,0,0,.07-.931c0-.26-.23-.39-.48-.409l.75-.36c.14-.07.28-.14.42-.2.21-.09.41-.18.61-.27a4.914,4.914,0,0,1,.48-.21c.82-.36,1.54-.65,2-.811a.909.909,0,0,1,.15-.05c.08-.03.15-.05.21-.07a.514.514,0,0,1,.09-.02c.07-.01.16-.021.26-.04.23-.021.52-.04.83-.05q.75-.031,1.86-.03c.53,0,1.07.01,1.54.01h.31v.01a27.011,27.011,0,0,1,.24,3.5C57.074,50.042,56.694,50.072,56.314,50.092Z" transform="translate(-15.955 -30.142)"/><path d="M76.964,53.742a.994.994,0,0,0-.06-.21.494.494,0,0,1-.03-.07c-.02-.05-.04-.11-.07-.17a.222.222,0,0,0-.04-.07.288.288,0,0,1-.05-.069.225.225,0,0,1-.03-.051l-.06-.08a.437.437,0,0,1-.12-.17l-.02-.06a.64.64,0,0,1-.03-.21,1.228,1.228,0,0,0-.01-.18c0-.03-.01-.051-.01-.07V52.3c-.02-.08-.03-.16-.06-.25a.076.076,0,0,0-.01-.05l-.14-.62a1.439,1.439,0,0,1-.07-.22l-.04-.15c-.01-.04-.03-.08-.04-.109-.08-.3-.16-.56-.22-.74-.02-.061-.04-.11-.05-.141a.134.134,0,0,0-.02-.029l-.01-.051c-.059-.14-.26-.17-1.27-.3a14.248,14.248,0,0,1-2.84-.55c-.16-.06-.38-.15-.66-.27A35.189,35.189,0,0,0,57.724,45.8c-.14-.01-.29-.01-.44-.01-.19-.01-.39-.01-.58-.01-3.98-.021-4.21.05-5.09.319a62.823,62.823,0,0,0-6.35,2.98c-.79.39-1.4.71-1.61.79a11.563,11.563,0,0,1-2.38.4l-.03.25a11.947,11.947,0,0,0,2.51-.42c.211-.09.8-.39,1.62-.8a65.371,65.371,0,0,1,6.32-2.96c.85-.27,1.07-.33,5.01-.31.19,0,.38,0,.58.01a3.042,3.042,0,0,1,.42.01,34.893,34.893,0,0,1,13.2,3c.28.12.51.21.67.28a14.286,14.286,0,0,0,2.9.56,9.686,9.686,0,0,1,1.08.17c0,.011.01.03.01.04a1.092,1.092,0,0,1,.05.141,7.549,7.549,0,0,1,.22.729.355.355,0,0,1,.04.11l.04.14a1.4,1.4,0,0,0,.07.24l.13.519a.405.405,0,0,0,.01.091l.01.05a.788.788,0,0,1,.05.21.3.3,0,0,0,.01.09,1.058,1.058,0,0,1,.01.16.872.872,0,0,0,.05.32.035.035,0,0,1,.01.029.951.951,0,0,0,.17.26l.01.011a.2.2,0,0,0,.03.04l.03.04a.261.261,0,0,0,.05.08l.02.04a1.416,1.416,0,0,1,.08.17l.01.04a1.205,1.205,0,0,1,.06.18,8.091,8.091,0,0,1-.05,2.84l-.02.04a1.294,1.294,0,0,0-.39.23,1.967,1.967,0,0,1-.18.13c-.01.02-.03.029-.06.04a.2.2,0,0,1-.05.04l-.1.069c-.04.03-.08.05-.12.08a1.149,1.149,0,0,0-.11.07c-.08.04-.15.09-.24.13l-.19.11a4.358,4.358,0,0,1-.86.279.516.516,0,0,0-.12.021.974.974,0,0,1-.13.03h-.03c-.03.01-.05.01-.06.02-.42.09-.85.15-1.13.19a3.82,3.82,0,0,0,.07-.771,4.305,4.305,0,1,0-8.54.8H43.694a4.822,4.822,0,0,0,.08-.8,4.33,4.33,0,0,0-2.79-4.04l-.03.26a4.075,4.075,0,0,1,2.57,3.78,3.862,3.862,0,0,1-.11.9l-.03.149h21.34l-.03-.149a3.937,3.937,0,0,1-.1-.9,4.055,4.055,0,1,1,8.11,0,3.067,3.067,0,0,1-.11.88l-.01.16h.16a13.34,13.34,0,0,0,1.34-.22.038.038,0,0,1,.03-.01.191.191,0,0,0,.05-.011c.04-.01.08-.02.13-.029a.692.692,0,0,0,.11-.021,4.1,4.1,0,0,0,.92-.3l.2-.11c.09-.04.17-.09.26-.14a.415.415,0,0,1,.11-.07c.04-.03.08-.06.14-.1l.13-.09c.03-.021.07-.04.08-.06.06-.04.12-.08.17-.12a1.24,1.24,0,0,1,.29-.18l.07-.01.04-.04a1.532,1.532,0,0,0,.09-.13A8.293,8.293,0,0,0,76.964,53.742Z" transform="translate(-15.955 -30.142)"/><path d="M58.034,50.231c4.17-.25,8.51-.59,8.75-.689a.183.183,0,0,0,.13-.18c-.01-.481-3.1-2.16-4.23-2.481a18.462,18.462,0,0,0-4.19-.59,2.4,2.4,0,0,1-.25-.01h-.61l.02.14a27.73,27.73,0,0,1,.25,3.68v.141Zm.21-3.7a2.4,2.4,0,0,0,.25.01,18.4,18.4,0,0,1,4.12.58,14.308,14.308,0,0,1,4.02,2.2c-.58.09-4.17.39-8.48.649a27.053,27.053,0,0,0-.24-3.44Z" transform="translate(-15.955 -30.142)"/><path d="M35.414,57.342a4.065,4.065,0,0,1,3.13-3.96l-.07-.24a4.35,4.35,0,0,0-3.24,5h-1.9a10.835,10.835,0,0,1-1.12-.04l-.58-.029a1.245,1.245,0,0,1-.61-.16.793.793,0,0,1-.1-.11l-.02-.03a.5.5,0,0,0-.03-.069.758.758,0,0,1,.01-.3.148.148,0,0,0,.02-.06.076.076,0,0,0,.01-.04.034.034,0,0,1,.01-.02l.01-.04c.03-.051.05-.08.05-.08l.03-.021V57.1a.408.408,0,0,0,.04-.09c.01-.01.01-.019.02-.04a.49.49,0,0,0,.02-.05.849.849,0,0,0,.07-.19,1.106,1.106,0,0,0,.02-.159c0-.33,0-.62.02-.9l-.01-.5a.782.782,0,0,0,.02-.21v-.11a.379.379,0,0,0,.01-.109,1.45,1.45,0,0,1,.01-.19,1.073,1.073,0,0,1,.01-.17.177.177,0,0,1,.01-.07v-.08c.005-.048.011-.089.016-.133l.11,0c.205.007.412.013.616.013a5.124,5.124,0,0,0,1.041-.089c.854-.2,1.1-.888,1.294-1.633l.038-.145-.149-.012c-.548-.041-1.1-.047-1.521-.047-.186,0-.372,0-.557,0,.025-.035.048-.064.073-.1.41-.58,3.07-.95,5.59-1.22l-.07-.24c-2.69.28-5.25.65-5.72,1.31-.07.1-.125.174-.183.253h0l-.1.135a2.975,2.975,0,0,0-.705,1.624l-.019.138h.014c-.007.039-.013.076-.018.121v.07a.325.325,0,0,0-.01.08,1.066,1.066,0,0,0-.01.17,1.659,1.659,0,0,0-.01.21.286.286,0,0,1-.01.09v.13a1.38,1.38,0,0,1-.01.19v.52c-.02.27-.02.57-.02.9a.582.582,0,0,1-.01.119.746.746,0,0,1-.06.131c0,.02-.01.029-.02.05a.912.912,0,0,0-.04.09l-.02.04a.073.073,0,0,0-.02.04c-.01.019-.03.05-.05.09-.01.01-.01.03-.03.08l-.04.11a1.069,1.069,0,0,0-.01.439c.01.05.04.09.05.13l.02.03a.7.7,0,0,0,.17.18,1.263,1.263,0,0,0,.75.221l.57.029c.6.04.6.04,1.14.04h2.21l-.03-.149A3.954,3.954,0,0,1,35.414,57.342Zm-3.46-4.89.006-.009h.058c.227,0,.454,0,.681,0,.377,0,.862,0,1.352.036-.175.629-.4,1.147-1.067,1.306a4.859,4.859,0,0,1-.987.083c-.2,0-.406-.006-.608-.013l-.078,0A2.766,2.766,0,0,1,31.954,52.452Z" transform="translate(-15.955 -30.142)"/><path d="M41.344,59.172a2.631,2.631,0,0,0,.74-1.83,2.73,2.73,0,0,0-.03-.41l-.03-.14-2.09.67,1.3,1.81Zm-1.02-1.57,1.5-.479a1.575,1.575,0,0,1,.01.22,2.277,2.277,0,0,1-.57,1.54l-.92-1.25Z" transform="translate(-15.955 -30.142)"/><path d="M37.154,56.122l-.07.13,1.3.42.47.16.35.109v-2.2l-.15.019A2.6,2.6,0,0,0,37.154,56.122Zm1.8-1.09V56.6l-1.5-.489A2.34,2.34,0,0,1,38.954,55.032Z" transform="translate(-15.955 -30.142)"/><path d="M39.474,57.7a.37.37,0,1,0-.37-.36A.374.374,0,0,0,39.474,57.7Z" transform="translate(-15.955 -30.142)"/><path d="M39.474,59.952a2.768,2.768,0,0,0,1.18-.28l.13-.07-.8-1.12-.51-.689-1.31,1.81.13.07A2.53,2.53,0,0,0,39.474,59.952Zm0-1.73.93,1.28a2.319,2.319,0,0,1-1.86.01Z" transform="translate(-15.955 -30.142)"/><path d="M40.9,54.122l-.03.27a3.26,3.26,0,1,1-2.1-.239l-.07-.24a3.506,3.506,0,1,0,2.2.21Z" transform="translate(-15.955 -30.142)"/><path d="M41.794,56.122a2.631,2.631,0,0,0-1.89-1.36l-.15-.03v2.21l2.11-.689ZM40,56.6V55.032a2.338,2.338,0,0,1,1.49,1.08Z" transform="translate(-15.955 -30.142)"/><path d="M39.024,57.462l-2.1-.68-.03.14a2.72,2.72,0,0,0-.04.42,2.541,2.541,0,0,0,.77,1.83l.1.1.8-1.109.29-.391Zm-1.33,1.42a2.312,2.312,0,0,1-.59-1.54,1.667,1.667,0,0,1,.02-.229l1.02.329.49.16Z" transform="translate(-15.955 -30.142)"/><path d="M68.614,53.817a3.515,3.515,0,1,0,3.521,3.521A3.519,3.519,0,0,0,68.614,53.817Zm0,6.78a3.265,3.265,0,1,1,3.271-3.26A3.263,3.263,0,0,1,68.614,60.6Z" transform="translate(-15.955 -30.142)"/><path d="M68.613,57.793,67.308,59.6l.129.067a2.536,2.536,0,0,0,1.178.285,2.645,2.645,0,0,0,1.177-.285l.131-.065-.8-1.116Zm-.929,1.716.932-1.29.93,1.288A2.343,2.343,0,0,1,67.684,59.509Z" transform="translate(-15.955 -30.142)"/><path d="M68.614,57.7a.369.369,0,1,0-.374-.363A.374.374,0,0,0,68.614,57.7Z" transform="translate(-15.955 -30.142)"/><path d="M67.96,57.769l.206-.309-2.105-.684-.026.142a2.355,2.355,0,0,0-.036.419,2.575,2.575,0,0,0,.761,1.832l.1.1.8-1.112Zm-1.125,1.115a2.323,2.323,0,0,1-.586-1.547c0-.08,0-.157.011-.231l1.026.339.486.153Z" transform="translate(-15.955 -30.142)"/><path d="M69.042,54.759l-.145-.023v2.207l2.1-.687-.069-.131A2.617,2.617,0,0,0,69.042,54.759Zm.105,1.844V55.033a2.369,2.369,0,0,1,1.49,1.078Z" transform="translate(-15.955 -30.142)"/><path d="M67.991,56.836l.353.1v-2.2l-.143.021a2.628,2.628,0,0,0-1.9,1.365l-.072.132,1.3.42Zm.1-1.8v1.574l-1.5-.494A2.381,2.381,0,0,1,68.093,55.031Z" transform="translate(-15.955 -30.142)"/><path d="M70.378,59.274l.1-.106a2.6,2.6,0,0,0,.749-1.83,2.244,2.244,0,0,0-.036-.407l-.025-.141-2.094.671Zm.6-1.937a2.317,2.317,0,0,1-.577,1.546l-.915-1.253-.021-.031,1.5-.481A2.044,2.044,0,0,1,70.98,57.338Z" transform="translate(-15.955 -30.142)"/><path d="M27.734,37.282v9.63h9.95l2.19,7.439.71-7.439h3.28v-9.63Zm1.32,3.4h8.92v1h-8.92Zm9.91,4.5h-9.91v-1h9.91Zm.88-1.75H29.054v-1h10.79Zm1.28-3.5H29.054v-1h12.07Z" transform="translate(-15.955 -30.142)"/><rect x="46.595" y="8.927" width="2.613" height="4.488"/><rect x="50.514" y="8.352" width="2.613" height="5.063"/><rect x="54.434" y="9.66" width="2.613" height="3.755"/><rect x="58.352" y="7.047" width="2.613" height="6.368"/><path d="M76.92,34.734H75.614a.5.5,0,0,0-.32.115l-3.675,3.057-3.632-1.687a.493.493,0,0,0-.327-.033l-3.783.905L62.7,36.713a.5.5,0,1,0-.307.951l1.307.421a.5.5,0,0,0,.269.011l3.75-.9,3.761,1.748a.5.5,0,0,0,.531-.068l3.78-3.143H76.92a.5.5,0,0,0,0-1Z" transform="translate(-15.955 -30.142)"/></svg>
