<svg xmlns="http://www.w3.org/2000/svg" width="50" height="33" viewBox="0 0 50 33"><title>electrics-ico</title><path d="M49.19,3.3H41.94V.82A.83.83,0,0,0,41.7.24.8.8,0,0,0,41.13,0H36.29a.8.8,0,0,0-.57.24.83.83,0,0,0-.24.58V3.3h-21V.82a.83.83,0,0,0-.24-.58A.8.8,0,0,0,13.71,0H8.87A.8.8,0,0,0,8.3.24a.83.83,0,0,0-.24.58V3.3H.81a.8.8,0,0,0-.57.24A.83.83,0,0,0,0,4.13v3.3A.83.83,0,0,0,.24,8a.8.8,0,0,0,.57.24h.81V28H.81a.8.8,0,0,0-.57.24.83.83,0,0,0-.24.58v3.3a.83.83,0,0,0,.24.58A.8.8,0,0,0,.81,33H49.19a.8.8,0,0,0,.57-.24.84.84,0,0,0,.24-.58v-3.3a.84.84,0,0,0-.24-.58.8.8,0,0,0-.57-.24h-.81V8.25h.81A.8.8,0,0,0,49.76,8,.83.83,0,0,0,50,7.43V4.13a.83.83,0,0,0-.24-.58A.8.8,0,0,0,49.19,3.3ZM37.1,1.65h3.23V3.3H37.1Zm-27.42,0H12.9V3.3H9.68ZM3.23,8.25H4.84V28H3.23ZM6.45,28V8.25h37.1V28Zm41.94,3.3H1.61V29.7H48.39ZM46.77,28H45.16V8.25h1.61ZM48.39,6.6H1.61V4.95H48.39Z"/><path d="M12.9,16.5H8.06v1.65H12.9Z"/><path d="M41.94,16.5H40.32V14.85H38.71V16.5H37.1v1.65h1.61V19.8h1.61V18.15h1.61Z"/><path d="M31.45,16.5H26.77l4.47-5.23a.84.84,0,0,0,.13-.88.82.82,0,0,0-.3-.35.79.79,0,0,0-.44-.13H24.19a.79.79,0,0,0-.39.1.81.81,0,0,0-.29.28l-5.65,9.08a.84.84,0,0,0,0,.84.82.82,0,0,0,.3.31.79.79,0,0,0,.41.11H22l-2.54,4.54a.84.84,0,0,0-.1.54.83.83,0,0,0,.26.48.79.79,0,0,0,1,.06L31.92,18a.82.82,0,0,0,.29-.41.84.84,0,0,0,0-.51.82.82,0,0,0-.29-.41A.79.79,0,0,0,31.45,16.5Zm-8.76,6.22,1.4-2.5a.84.84,0,0,0,0-.83.82.82,0,0,0-.3-.3.79.79,0,0,0-.4-.11H20l4.62-7.42h4.23L24.4,16.78a.83.83,0,0,0-.19.42.84.84,0,0,0,.06.46.82.82,0,0,0,.3.35.79.79,0,0,0,.44.13h3.94Z"/></svg>