<svg xmlns="http://www.w3.org/2000/svg" width="64.07" height="51.95" viewBox="0 0 64.07 51.95"><title>engine-ico</title><path d="M39.15,45a.53.53,0,0,0-.52.53.52.52,0,0,0,.52.52.52.52,0,0,0,.52-.52A.52.52,0,0,0,39.15,45Z" transform="translate(-17.66 -23.76)"/><path d="M48.3,62,53.06,60a8.75,8.75,0,0,1-1.28-14.64L44.9,43.86a5.69,5.69,0,0,1,.24,1.66,6,6,0,0,1-6,6,6.16,6.16,0,0,1-1-.08l1.95,6.49a5.07,5.07,0,0,1,8.17,4Z" transform="translate(-17.66 -23.76)"/><path d="M71.34,45.84,56.26,35.38l-.83-.56.08-.11H43.88l.08.11-1,.72-6.56,4.54.07.1a6,6,0,0,1,5.3-.08l15.71,3.43a8.76,8.76,0,0,1,2.92,16.9l-.19.07-3.72,1.39L46.21,66a5,5,0,0,1-3,1,5.09,5.09,0,0,1-5.08-5.08,1,1,0,0,1,0-.17L34.35,49.1a6,6,0,0,1,.59-7.84l-.09-.13L28,45.84l4.47,11.43,7.21,18.44H59.66l7.21-18.44,4.47-11.42Z" transform="translate(-17.66 -23.76)"/><circle cx="39.49" cy="28.51" r="1.52"/><path d="M43.23,62.2a.26.26,0,0,0,.25-.26.26.26,0,1,0-.51,0A.27.27,0,0,0,43.23,62.2Z" transform="translate(-17.66 -23.76)"/><path d="M54.36,60.57l-6.2,2.52h0a4.86,4.86,0,0,1-.47,1.26L56.06,61A7.92,7.92,0,0,1,54.36,60.57Z" transform="translate(-17.66 -23.76)"/><path d="M44.46,42.74l8.49,1.86h0a8.08,8.08,0,0,1,1.57-.68l-10.9-2.38A5.9,5.9,0,0,1,44.46,42.74Z" transform="translate(-17.66 -23.76)"/><path d="M35.81,50.49l2.81,9.33a5,5,0,0,1,.7-1.12L37,51.12A5.13,5.13,0,0,1,35.81,50.49Z" transform="translate(-17.66 -23.76)"/><path d="M64.9,52.27A7.75,7.75,0,1,0,57.15,60,7.75,7.75,0,0,0,64.9,52.27Zm-10.27,0a2.52,2.52,0,1,1,2.52,2.52A2.52,2.52,0,0,1,54.63,52.27Z" transform="translate(-17.66 -23.76)"/><path d="M39.15,40.52a5,5,0,1,0,5,5A5,5,0,0,0,39.15,40.52Zm0,6.52a1.52,1.52,0,1,1,1.52-1.52A1.52,1.52,0,0,1,39.15,47Z" transform="translate(-17.66 -23.76)"/><path d="M43.23,66a4.08,4.08,0,1,0-4.08-4.08A4.08,4.08,0,0,0,43.23,66Zm0-5.34A1.26,1.26,0,1,1,42,61.94,1.25,1.25,0,0,1,43.23,60.68Z" transform="translate(-17.66 -23.76)"/><path d="M62.61,23.76H36.78v7.17H62.61ZM38.14,30.34h-.77V24.43h.77Zm1.41,0h-.78V24.43h.78Zm1.4,0h-.77V24.43h.77Zm1.41,0h-.77V24.43h.77Zm1.41,0H43V24.43h.77Zm1.4,0H44.4V24.43h.77Zm1.41,0h-.77V24.43h.77Zm1.41,0h-.77V24.43H48Zm1.41,0h-.78V24.43h.78Zm1.4,0H50V24.43h.77Zm1.41,0h-.77V24.43h.77Zm1.41,0h-.77V24.43h.77Zm1.41,0h-.78V24.43H55Zm1.4,0h-.77V24.43h.77Zm1.41,0h-.77V24.43h.77Zm1.41,0h-.77V24.43h.77Zm1.4,0h-.77V24.43h.77Zm1.41,0h-.77V24.43h.77Z" transform="translate(-17.66 -23.76)"/><rect x="25.4" y="7.96" width="13.28" height="1.92"/><path d="M42.35,34.71l.22-.15-1.81-2.63h-5V29.32a3.9,3.9,0,0,0-1.28.58L19.39,40.31a4,4,0,0,0-1,5.57l2.55,3.7.74-.51,6-4.18Z" transform="translate(-17.66 -23.76)"/><path d="M22.14,49.94l3.34,6s.44,1.31,1.62,1.31h4.35L27.2,46.43Z" transform="translate(-17.66 -23.76)"/><path d="M80,40.31,64.89,29.9a3.9,3.9,0,0,0-1.28-.58v2.61h-5l-1.81,2.63.22.15L71.71,44.89l6,4.18.74.51L81,45.88A4,4,0,0,0,80,40.31Z" transform="translate(-17.66 -23.76)"/><path d="M67.94,57.27h4.35c1.18,0,1.62-1.31,1.62-1.31l3.33-6-5.06-3.51Z" transform="translate(-17.66 -23.76)"/></svg>
