<svg xmlns="http://www.w3.org/2000/svg" width="34" height="40" viewBox="0 0 34 40"><title>fuel-sys-ico</title><path d="M20.269,2.581H7.192a.658.658,0,0,0-.462.189.641.641,0,0,0-.192.456V13.548A.641.641,0,0,0,6.73,14a.658.658,0,0,0,.462.189H20.269A.658.658,0,0,0,20.732,14a.641.641,0,0,0,.191-.456V3.226a.641.641,0,0,0-.191-.456A.658.658,0,0,0,20.269,2.581ZM19.615,12.9H7.846V3.871H19.615Z"/><path d="M33.234,29.944l-.7-.691A3.842,3.842,0,0,1,31.681,28a3.8,3.8,0,0,1-.3-1.482V8.387a.64.64,0,0,0-.192-.456L28.578,5.35a.658.658,0,0,0-.462-.189H26.154V3.226a.641.641,0,0,0-.191-.456.658.658,0,0,0-.462-.189H23.538V.645a.641.641,0,0,0-.192-.456A.658.658,0,0,0,22.885,0H4.577a.658.658,0,0,0-.462.189.641.641,0,0,0-.192.456V36.129H.654a.658.658,0,0,0-.462.189A.641.641,0,0,0,0,36.774v2.581a.641.641,0,0,0,.192.456A.658.658,0,0,0,.654,40H26.808a.658.658,0,0,0,.462-.189.641.641,0,0,0,.191-.456V36.774a.641.641,0,0,0-.191-.456.658.658,0,0,0-.462-.189H23.538V21.935h1.308a1.975,1.975,0,0,1,1.387.567,1.923,1.923,0,0,1,.574,1.369v5.871a5.067,5.067,0,0,0,.4,1.976,5.122,5.122,0,0,0,1.136,1.673l.7.691a2.6,2.6,0,0,0,.848.561,2.628,2.628,0,0,0,1,.2h.495a2.634,2.634,0,0,0,1.849-.756A2.564,2.564,0,0,0,34,32.258V31.77a2.533,2.533,0,0,0-.2-.988A2.56,2.56,0,0,0,33.234,29.944ZM30.077,10.323H28.769V7.364l1.308,1.29ZM24.846,3.871v6.452H23.538V3.871ZM26.154,38.71H1.308v-1.29H26.154ZM5.231,36.129V1.29h17V36.129Zm27.462-3.871a1.282,1.282,0,0,1-.383.912,1.317,1.317,0,0,1-.925.378H30.89a1.315,1.315,0,0,1-.5-.1,1.3,1.3,0,0,1-.424-.281l-.7-.691a3.844,3.844,0,0,1-.852-1.255,3.8,3.8,0,0,1-.3-1.482V23.871a3.208,3.208,0,0,0-.959-2.28,3.3,3.3,0,0,0-2.311-.946H23.538V11.613H25.5a.658.658,0,0,0,.462-.189.641.641,0,0,0,.191-.456V6.452h1.308v4.516a.641.641,0,0,0,.191.456.659.659,0,0,0,.462.189h1.962v14.9a5.066,5.066,0,0,0,.4,1.976,5.122,5.122,0,0,0,1.136,1.673l.7.691a1.282,1.282,0,0,1,.285.419,1.268,1.268,0,0,1,.1.495Z"/><path d="M11.774,26.594A1.926,1.926,0,0,0,12.4,27.87a1.981,1.981,0,0,0,2.67,0,1.925,1.925,0,0,0,.621-1.276l-1.956-3.861Z"/><path d="M18.814,20.146a7.259,7.259,0,0,0-9.079-.885,7.119,7.119,0,0,0-2.649,3.185A7.028,7.028,0,0,0,8.645,30.18,7.246,7.246,0,0,0,19.711,29.1a7.019,7.019,0,0,0-.9-8.958Zm-2.772,8.587a3.3,3.3,0,0,1-4.623,0,3.2,3.2,0,0,1-.958-2.281.638.638,0,0,1,.072-.288L13.149,21a.677.677,0,0,1,.249-.24.689.689,0,0,1,.673,0,.677.677,0,0,1,.249.24l2.612,5.161a.638.638,0,0,1,.069.288A3.2,3.2,0,0,1,16.042,28.733Z"/><path d="M10.462,5.161H9.154V7.742h1.308Z"/><path d="M13.077,5.161H11.769V7.742h1.308Z"/><path d="M15.692,5.161H14.385V7.742h1.308Z"/><path d="M18.308,5.161H17V7.742h1.308Z"/><path d="M18.308,9.032H9.154v1.29h9.154Z"/></svg>