<svg xmlns="http://www.w3.org/2000/svg" width="48" height="40" viewBox="0 0 48 40"><title>noise-insulation-ico</title><path d="M33.292,6.923a7.743,7.743,0,0,0-7.153,4.749,7.656,7.656,0,0,0,1.678,8.383A7.77,7.77,0,0,0,39.73,18.889a7.648,7.648,0,0,0-.965-9.711A7.777,7.777,0,0,0,33.292,6.923ZM37.67,18.965a6.206,6.206,0,0,1-10.1-1.995,6.125,6.125,0,0,1,1.343-6.706,6.216,6.216,0,0,1,9.53.933,6.118,6.118,0,0,1-.772,7.768Z" transform="translate(0 0)"/><path d="M28.647,27.692H16.259a.777.777,0,0,0-.547.225.767.767,0,0,0-.227.544v3.077a.767.767,0,0,0,.227.544.777.777,0,0,0,.547.225H28.647a.777.777,0,0,0,.548-.225.767.767,0,0,0,.227-.544V28.461a.767.767,0,0,0-.227-.544A.777.777,0,0,0,28.647,27.692Zm-.774,3.077H17.033V29.231H27.873Z" transform="translate(0 0)"/><path d="M47.921,13.1h0a.771.771,0,0,0-.51-.646l-2.85-1.006a11.515,11.515,0,0,0-1.053-2.517l1.3-2.708a.765.765,0,0,0-.1-.815,14.772,14.772,0,0,0-2.156-2.142.778.778,0,0,0-.821-.1L39.011,4.461a11.735,11.735,0,0,0-2.534-1.045L35.465.586a.773.773,0,0,0-.65-.508,14.916,14.916,0,0,0-3.044,0,.774.774,0,0,0-.65.508L30.108,3.414a11.741,11.741,0,0,0-2.534,1.047L24.848,3.173a.778.778,0,0,0-.821.1,14.765,14.765,0,0,0-2.156,2.142.765.765,0,0,0-.1.815l.7,1.464H10.839a.777.777,0,0,0-.466.155.769.769,0,0,0-.278.4L7.159,18.461H.774a.777.777,0,0,0-.547.225A.767.767,0,0,0,0,19.23v3.077a.767.767,0,0,0,.227.544.777.777,0,0,0,.547.225H3.1v9.231A3.067,3.067,0,0,0,4,34.483a3.107,3.107,0,0,0,2.19.9v2.308a2.3,2.3,0,0,0,.68,1.632A2.33,2.33,0,0,0,8.517,40h4.645a2.33,2.33,0,0,0,1.643-.676,2.3,2.3,0,0,0,.68-1.632V35.385H29.421v2.308a2.3,2.3,0,0,0,.68,1.632A2.33,2.33,0,0,0,31.744,40H36.39a2.33,2.33,0,0,0,1.642-.676,2.3,2.3,0,0,0,.68-1.632V35.385a3.107,3.107,0,0,0,2.19-.9,3.067,3.067,0,0,0,.907-2.176V26.082a.778.778,0,0,0,.749-.12,14.771,14.771,0,0,0,2.156-2.142.765.765,0,0,0,.1-.815l-1.3-2.708a11.516,11.516,0,0,0,1.05-2.517l2.848-1.006a.774.774,0,0,0,.349-.25.766.766,0,0,0,.161-.4A14.521,14.521,0,0,0,47.921,13.1ZM11.423,9.23h11.5a11.512,11.512,0,0,0-.667,1.538h-9.1a.778.778,0,0,0-.462.152.769.769,0,0,0-.279.4l-2.157,7.144H8.769Zm7.238,6.9h0a.766.766,0,0,0,.161.4.774.774,0,0,0,.349.25l2.848,1.006c.066.231.155.455.238.681H11.881l1.858-6.154H19.6l-.423.149a.774.774,0,0,0-.349.25.766.766,0,0,0-.161.4A14.513,14.513,0,0,0,18.662,16.127ZM8.063,20H22.929c.047.1.087.2.144.3h0L21.772,23c-.011.023-.014.048-.022.072H4.966ZM1.548,21.538V20H5.873L4.325,21.538ZM13.936,37.692a.767.767,0,0,1-.227.544.777.777,0,0,1-.547.225H8.517a.777.777,0,0,1-.547-.225.767.767,0,0,1-.227-.544V35.385h6.194Zm23.227,0a.767.767,0,0,1-.227.544.777.777,0,0,1-.547.225H31.744a.777.777,0,0,1-.548-.225.767.767,0,0,1-.227-.544V35.385h6.194Zm3.1-5.385a1.534,1.534,0,0,1-.454,1.088,1.553,1.553,0,0,1-1.095.451H6.194A1.554,1.554,0,0,1,5.1,33.4a1.534,1.534,0,0,1-.454-1.088V24.615H22.593a14.781,14.781,0,0,0,1.434,1.347.778.778,0,0,0,.821.1l2.726-1.291a11.736,11.736,0,0,0,2.534,1.045l1.012,2.828a.773.773,0,0,0,.65.508c.281.029.564.031.847.044A3.08,3.08,0,0,0,34.65,31.38a3.108,3.108,0,0,0,2.943-.551,3.064,3.064,0,0,0-.693-5.161,11.685,11.685,0,0,0,2.111-.9l1.25.593Zm-6.006-3.126c.187-.012.374-.01.56-.029a.773.773,0,0,0,.65-.508l.591-1.651A1.54,1.54,0,0,1,37.1,28.013a1.526,1.526,0,0,1-.28,1.424,1.548,1.548,0,0,1-2.56-.255ZM46.425,15.49l-2.763.976a.771.771,0,0,0-.493.543,9.989,9.989,0,0,1-1.189,2.85.765.765,0,0,0-.039.732L43.2,23.218a13.109,13.109,0,0,1-1.251,1.243l-2.646-1.254a.778.778,0,0,0-.735.038A10.129,10.129,0,0,1,35.7,24.427a.773.773,0,0,0-.547.49l-.982,2.745a13.2,13.2,0,0,1-1.761,0l-.983-2.745a.773.773,0,0,0-.547-.49,10.131,10.131,0,0,1-2.869-1.182.778.778,0,0,0-.735-.038l-2.646,1.254a13.141,13.141,0,0,1-1.247-1.239l1.258-2.628a.765.765,0,0,0-.039-.732,10.014,10.014,0,0,1-1.189-2.85.77.77,0,0,0-.493-.543l-2.763-.976q-.029-.444-.029-.878c0-.289.01-.582.029-.875l2.763-.976a.771.771,0,0,0,.493-.543,10.013,10.013,0,0,1,1.189-2.85.765.765,0,0,0,.039-.732L23.386,6.012a13.134,13.134,0,0,1,1.247-1.239l2.646,1.25a.779.779,0,0,0,.736-.038A10.155,10.155,0,0,1,30.879,4.8a.775.775,0,0,0,.336-.176.767.767,0,0,0,.211-.314l.983-2.745a13.178,13.178,0,0,1,1.761,0l.983,2.745a.773.773,0,0,0,.547.49,10.159,10.159,0,0,1,2.865,1.182.778.778,0,0,0,.735.038l2.646-1.25A13.142,13.142,0,0,1,43.2,6.012L41.941,8.64a.765.765,0,0,0,.039.732,9.991,9.991,0,0,1,1.189,2.85.771.771,0,0,0,.493.543l2.763.976c.019.292.029.585.029.875S46.445,15.2,46.425,15.49Z" transform="translate(0 0)"/><path d="M9.291,25.385a3.1,3.1,0,0,0-2.861,1.9A3.063,3.063,0,0,0,7.1,30.637a3.108,3.108,0,0,0,4.765-.466,3.062,3.062,0,0,0-.385-3.885A3.107,3.107,0,0,0,9.291,25.385Zm1.095,4.165a1.552,1.552,0,0,1-2.526-.5A1.531,1.531,0,0,1,8.2,27.374a1.554,1.554,0,0,1,2.382.233,1.531,1.531,0,0,1-.193,1.943Z" transform="translate(0 0)"/></svg>