<svg xmlns="http://www.w3.org/2000/svg" width="40" height="40" viewBox="0 0 40 40"><title>painting-ico</title><path d="M39.355,27.742A.645.645,0,0,0,40,27.1V5.161a.645.645,0,0,0-.189-.456l-1.29-1.29a.645.645,0,0,0-.456-.189h-7.1V.645A.645.645,0,0,0,30.323,0H22.581a.645.645,0,0,0-.645.645V3.226H7.742V2.581A.645.645,0,0,0,7.1,1.935H3.226a.634.634,0,0,0-.527.294l-.01-.006L.108,6.094a.645.645,0,0,0,0,.716l2.581,3.871.01-.006a.634.634,0,0,0,.527.294H7.1a.645.645,0,0,0,.645-.645V9.677h1.29v1.935a.645.645,0,0,0,.645.645h.645v1.29H9.677a.645.645,0,0,0-.645.645v1.936H6.452a.645.645,0,0,0-.645.645v2.581a.628.628,0,0,0,.081.3L3.415,22.125a.645.645,0,0,0-.189.456V39.355A.645.645,0,0,0,3.871,40H20.645a.645.645,0,0,0,.645-.645V22.581a.646.646,0,0,0-.189-.456l-2.473-2.473a.629.629,0,0,0,.081-.3V16.774a.645.645,0,0,0-.645-.645H15.484V14.193a.645.645,0,0,0-.645-.645h-.645v-1.29h.645a.645.645,0,0,0,.645-.645V9.677h6.452v1.668l-2.392,2.392a.645.645,0,0,0-.189.456v1.29a.645.645,0,0,0,.645.645h2.581a.645.645,0,0,0,.456-.189l2.581-2.581a.646.646,0,0,0,.189-.456V9.677H27.1v1.935a.645.645,0,0,0,.189.456l2.392,2.392v8.12H27.742a.645.645,0,0,0-.645.645V27.1a.645.645,0,0,0,.645.645h5.806v1.29H32.9a.645.645,0,0,0-.645.645v3.871a.645.645,0,0,0,.645.645h6.452A.645.645,0,0,0,40,33.548V29.677a.645.645,0,0,0-.645-.645H38.71v-1.29ZM2.581,8.194,1.419,6.452,2.581,4.71ZM6.452,9.677H3.871V3.226H6.452ZM23.226,1.29h6.452V3.226H23.226Zm-12.9,13.548h3.871v1.29H10.323Zm1.29-1.29v-1.29H12.9v1.29ZM20,38.71H4.516V33.17l1.635-1.635a1.926,1.926,0,0,1,1.369-.567h.443a1.926,1.926,0,0,1,1.369.567L10.4,32.6a3.205,3.205,0,0,0,2.281.945h.443a3.205,3.205,0,0,0,2.281-.945l1.068-1.068a1.925,1.925,0,0,1,1.369-.567h.443a1.926,1.926,0,0,1,1.369.567L20,31.88Zm0-15.862v7.33a3.2,3.2,0,0,0-1.714-.5h-.443a3.205,3.205,0,0,0-2.281.945l-1.068,1.068a1.923,1.923,0,0,1-1.369.567h-.443a1.923,1.923,0,0,1-1.369-.567l-1.068-1.068a3.205,3.205,0,0,0-2.281-.945H7.521a3.205,3.205,0,0,0-2.281.945l-.723.723v-8.5L7.364,20h9.788Zm-2.581-5.428v1.29H7.1v-1.29Zm-3.226-6.452H10.323V9.677h3.871Zm3.871-2.581H7.742V4.516H18.065Zm1.29,0V7.1h2.581v1.29Zm5.161,4.249-2.2,2.2H20.645v-.378l2.392-2.392a.645.645,0,0,0,.189-.456V7.1h1.29Zm1.29-4.249V7.1h2.581v1.29Zm2.581,2.959V9.677h.645a.645.645,0,0,0,.645-.645V6.452a.645.645,0,0,0-.645-.645H19.355V4.516H37.8l.912.912V22.581H30.968V20H32.9V18.71H30.968V16.129H32.9v-1.29H30.968v-.645a.645.645,0,0,0-.189-.456ZM38.71,32.9H33.548V30.323H38.71Zm-3.871-3.871v-1.29h2.581v1.29Zm-6.452-2.581V23.871H38.71v2.581Z"/><path d="M38.065,34.839H34.194a.645.645,0,0,0,0,1.29h3.871a.645.645,0,0,0,0-1.29Z"/><path d="M37.419,36.774H34.839a.645.645,0,0,0,0,1.29h2.581a.645.645,0,0,0,0-1.29Z"/><path d="M36.774,38.71h-1.29a.645.645,0,0,0,0,1.29h1.29a.645.645,0,1,0,0-1.29Z"/><rect x="5.807" y="33.548" width="1.29" height="1.29"/><rect x="7.097" y="36.129" width="1.29" height="1.29"/><rect x="9.678" y="34.839" width="1.29" height="1.29"/><rect x="13.549" y="34.839" width="1.29" height="1.29"/><rect x="16.129" y="36.129" width="1.29" height="1.29"/><rect x="17.42" y="33.548" width="1.29" height="1.29"/></svg>