<svg xmlns="http://www.w3.org/2000/svg" width="21" height="24" viewBox="0 0 21 24"><title>share-ico</title><path d="M4.332,24a3.948,3.948,0,1,1,2.825-6.7l6.863-4.688a.921.921,0,0,1,1.311.234,2.1,2.1,0,1,0,0-2.367l-.021.031a.923.923,0,0,1-1.237.25L6.018,6.538a.837.837,0,0,1-.111-.06A.927.927,0,0,1,5.6,5.239a.97.97,0,0,1,.071-.108,2.093,2.093,0,1,0-1.729.915A2.116,2.116,0,0,0,4.384,6l.39,1.807A3.943,3.943,0,1,1,7.64,5.3l6.7,3.512a3.948,3.948,0,1,1,.068,5.773L7.478,19.32l-.011.007a.921.921,0,0,1-1.326-.334,2.1,2.1,0,1,0,.186,1.7l1.756.564A3.928,3.928,0,0,1,4.332,24Z" transform="translate(0 0)"/></svg>