<svg xmlns="http://www.w3.org/2000/svg" width="68.03" height="23.64" viewBox="0 0 68.03 23.64"><title>steering-ico</title><path d="M71.13,48.31v3.78h-16a5.47,5.47,0,0,1-10.29,0h-16V48.31h16A5.46,5.46,0,0,1,48,45.08V42.43H47V40.67H52.9v1.76h-1v2.65a5.49,5.49,0,0,1,3.19,3.23Z" transform="translate(-15.94 -38.2)" /><path d="M83.32,38.22l-.18,0H73.36a.84.84,0,0,0-.84.84V61a.84.84,0,0,0,.84.84h9.78l.18,0A.84.84,0,0,0,84,61V39A.83.83,0,0,0,83.32,38.22Zm-.4.43-3.06,1.08V38.65h3.06m-9.37,0H76.6v1.08l-3.06-1.08m-.12.63L76.6,40.4v2.25l-3.18-1.12Zm0,2.92,3.18,1.12v2.24l-3.18-1.12Zm0,2.91,3.18,1.12v2.24l-3.18-1.12Zm0,2.92,3.18,1.12v2.24l-3.18-1.12Zm0,2.92,3.18,1.12v2.24l-3.18-1.12Zm0,2.91L76.6,55v2.24L73.42,56.1Zm0,2.92L76.6,57.9v2.24L73.42,59Zm0,4.51v-1.6l3.18,1.13v.48Zm3.81,0V38.65H78V61.29Zm2,0h-.74V38.65h.74Zm3.81,0H79.85v-.48L83,59.69ZM83,59l-3.18,1.12V57.9L83,56.78Zm0-2.92-3.18,1.12V55L83,53.86Zm0-2.91-3.18,1.12V52.07L83,50.95Zm0-2.92-3.18,1.12V49.15L83,48Zm0-2.91-3.18,1.12V46.24L83,45.11Zm0-2.92-3.18,1.12V43.32L83,42.2Zm0-2.91-3.18,1.12V40.4L83,39.28Z" transform="translate(-15.94 -38.2)" /><path d="M26.73,38.22l-.18,0H16.78a.84.84,0,0,0-.84.84V61a.84.84,0,0,0,.84.84h9.77l.18,0a.84.84,0,0,0,.65-.82V39A.83.83,0,0,0,26.73,38.22Zm-.4.43-3.06,1.08V38.65h3.06m-9.37,0H20v1.08L17,38.65m-.12.63L20,40.4v2.25l-3.18-1.12Zm0,2.92L20,43.32v2.24l-3.18-1.12Zm0,2.91L20,46.24v2.24l-3.18-1.12Zm0,2.92L20,49.15v2.24l-3.18-1.12Zm0,2.92L20,52.07v2.24l-3.18-1.12Zm0,2.91L20,55v2.24L16.84,56.1Zm0,2.92L20,57.9v2.24L16.84,59Zm0,4.51v-1.6L20,60.82v.48Zm3.81,0V38.65h.73V61.29Zm2,0H21.9V38.65h.74Zm3.81,0H23.27v-.48l3.18-1.12Zm0-2.27-3.18,1.12V57.9l3.18-1.12Zm0-2.92-3.18,1.12V55l3.18-1.12Zm0-2.91-3.18,1.12V52.07l3.18-1.12Zm0-2.92-3.18,1.12V49.15L26.45,48Zm0-2.91-3.18,1.12V46.24l3.18-1.12Zm0-2.92-3.18,1.12V43.32l3.18-1.12Zm0-2.91-3.18,1.12V40.4l3.18-1.12Z" transform="translate(-15.94 -38.2)" /></svg>
