<svg xmlns="http://www.w3.org/2000/svg" width="46" height="80" viewBox="0 0 46 80"><title>transmission-ico</title><path d="M17.34.21a7.92,7.92,0,0,0-1.53.61,7.54,7.54,0,0,0-2.65,3l-.37.89,0,20.14,0,20.14-4.44,0c-4.14,0-4.48.06-5.18.39A5.85,5.85,0,0,0,.45,48L0,48.86v9.86l.46.91A5.37,5.37,0,0,0,3.1,62.07c.89.41.93.41,5.24.45l4.35,0,0,6.37c0,6.31,0,6.38.43,7.31a7.17,7.17,0,0,0,3.45,3.38c.94.38,1,.38,6.31.38s5.37,0,6.31-.38a7.17,7.17,0,0,0,3.45-3.38c.38-.92.38-1,.43-7.31l0-6.37,4.35,0,4.36,0L42.95,62a5.28,5.28,0,0,0,2.56-2.52c.37-.7.37-.81.37-5.65V48.86L45.43,48a5.85,5.85,0,0,0-2.64-2.53c-.7-.33-1-.34-5.18-.39l-4.44,0,0-20.14,0-20.14L32.7,3.8A7.17,7.17,0,0,0,29.25.42c-.93-.36-1.1-.38-6-.41C19.18,0,18.06,0,17.34.21Zm10.34,5.1.37.33V45H25.49V37.31c0-7.17,0-7.75-.3-8.34a2.27,2.27,0,0,0-2.29-1.39,2.27,2.27,0,0,0-2.11,1.08c-.32.42-.34.63-.38,8.4l0,8H17.82V5.69l.35-.36C18.51,5,18.53,5,22.92,5S27.32,5,27.68,5.31ZM40.44,47.92a1.13,1.13,0,0,1,0,1.72l-.38.39H5.82l-.38-.39a1.13,1.13,0,0,1,0-1.72l.38-.39H40.05ZM28.05,68.45c0,5.84,0,5.9-.35,6.26s-.35.36-4.75.36-4.4,0-4.76-.34l-.37-.33V62.55H28.05Z"/><path d="M38.28,12.48v5l1.09,0,1.07,0,0-1.69,0-1.67h.8a15.31,15.31,0,0,0,1.9-.17,2.47,2.47,0,0,0,1.6-.66,3.26,3.26,0,0,0,.27-4.6c-.88-1-1.44-1.14-4.3-1.14H38.28v5ZM43.4,10a1.27,1.27,0,0,1,0,1.6c-.21.24-.5.28-1.6.28H40.52V9.66H41.8C42.87,9.66,43.12,9.71,43.4,10Z"/><path d="M38.28,32.51v5l1.09,0,1.07,0,0-1.69,0-1.67h.69c.62,0,.77.08,1.36.72A3.37,3.37,0,0,1,43.71,37v.47H46l-.11-.81a4,4,0,0,0-1.05-2.38l-.53-.58.48-.44A3.31,3.31,0,0,0,44,27.8c-.53-.24-1.07-.3-3.15-.3H38.28v5ZM43.4,30a1.27,1.27,0,0,1,0,1.6c-.21.24-.5.28-1.6.28H40.52V29.69H41.8C42.87,29.69,43.12,29.74,43.4,30Z"/><path d="M38.28,72.57v5h2.56l0-2.47V72.65l1.28,2.46,1.26,2.47H46v-10H43.4l0,2.46v2.47L42.1,70l-1.26-2.46H38.28v5Z"/></svg>
