<svg xmlns="http://www.w3.org/2000/svg" width="40" height="40" viewBox="0 0 40 40"><title>tuning-ico</title><path d="M39.355,24.516A.645.645,0,0,0,40,23.871V.645A.645.645,0,0,0,39.355,0H35.484a.646.646,0,0,0-.456.189L24.894,10.323H19.355V5.806a.645.645,0,0,0-.189-.456L14,.189a.645.645,0,0,0-1.1.456V7.1H6.452V.645A.645.645,0,0,0,5.35.189L.189,5.35A.645.645,0,0,0,0,5.806v5.161a.646.646,0,0,0,.189.456L5.161,16.4V39.355A.645.645,0,0,0,5.806,40h7.742a.645.645,0,0,0,.645-.645V20.645h1.936A.645.645,0,0,0,16.774,20a4.516,4.516,0,0,1,9.032,0,.645.645,0,0,0,.645.645H27.1v3.226a.645.645,0,0,0,.645.645h7.1v3.871h-.645a.645.645,0,0,0-.645.645V39.355a.645.645,0,0,0,.645.645h5.161A.645.645,0,0,0,40,39.355V29.032a.645.645,0,0,0-.645-.645H38.71V24.516ZM38.71,10.323H33.548V7.364l3.493-3.493H38.71ZM12.9,38.71H9.032V14.839a.645.645,0,0,0-.189-.456L4.972,10.512l-.912.912,3.682,3.682v23.6H6.452V16.129a.645.645,0,0,0-.189-.456L1.29,10.7V6.074L5.161,2.2V7.742a.645.645,0,0,0,.645.645h7.742a.645.645,0,0,0,.645-.645V2.2l3.871,3.871v4.249H16.129a.645.645,0,0,0-.456.189L11.8,14.383a.645.645,0,0,0-.189.456V20a.645.645,0,0,0,.645.645H12.9ZM27.061,19.355a5.807,5.807,0,0,0-11.541,0H12.9V15.106L16.4,11.613h8.765a.645.645,0,0,0,.456-.189L35.751,1.29H38.71v1.29H36.774a.645.645,0,0,0-.456.189L32.447,6.641a.645.645,0,0,0-.189.456v3.871a.645.645,0,0,0,.645.645H38.71v7.742Zm7.778,10.323h1.668l-1.668,1.668Zm1.29-1.29V24.516h1.29v3.871ZM38.71,38.71H37.041l1.668-1.668Zm0-3.493L35.217,38.71h-.378V37.041L38.71,33.17Zm0-3.871-3.871,3.871V33.17l3.493-3.493h.378Zm-10.323-8.12V20.645H38.71v2.581Z"/><path d="M20.215,20.319a1.936,1.936,0,1,0-.713-.869A1.935,1.935,0,0,0,20.215,20.319Zm.539-1.968a.645.645,0,1,1-.109.358A.645.645,0,0,1,20.754,18.351Z"/><path d="M31.691,34.65l-6.986-6.986a1.921,1.921,0,0,0-1.368-.567h-.222a1.915,1.915,0,0,0-1.2.43A1.93,1.93,0,0,0,20,25.806H17.419a1.935,1.935,0,0,0-1.935,1.935V38.065A1.935,1.935,0,0,0,17.419,40H20a1.935,1.935,0,0,0,1.935-1.935v-3.6l4.972,4.972A1.92,1.92,0,0,0,28.276,40H28.5a1.921,1.921,0,0,0,1.368-.567l1.824-1.825a1.921,1.921,0,0,0,.567-1.369v-.221a1.922,1.922,0,0,0-.567-1.369Zm-11.046-3.3-1.1,1.1.912.912.189-.189v2.046l-1.1,1.1.912.912.189-.189v1.023A.645.645,0,0,1,20,38.71H17.419a.645.645,0,0,1-.645-.645V37.041l.189.189.912-.912-1.1-1.1V33.17l.189.189.912-.912-1.1-1.1V29.3l.189.189.912-.912L16.819,27.52a.641.641,0,0,1,.6-.423H20a.641.641,0,0,1,.6.423l-1.056,1.056.912.912.189-.189Zm10.323,4.894a.646.646,0,0,1-.189.457l-1.824,1.825a.65.65,0,0,1-.456.189h-.222a.651.651,0,0,1-.456-.189l-.456-.456h1.023v-1.29H26.074l-1.29-1.29h1.023v-1.29H23.493L22.2,32.9h1.023v-1.29h-1.29V29.3l.723-.723a.651.651,0,0,1,.456-.189h.222a.651.651,0,0,1,.456.189l.078.078v2.314h1.29V29.944l1.29,1.29v2.314h1.29V32.525l1.29,1.29v2.314h1.29V35.106l.456.456a.645.645,0,0,1,.189.457Z"/></svg>