<svg xmlns="http://www.w3.org/2000/svg" width="56.74" height="59.96" viewBox="0 0 56.74 59.96"><title>undercarriage-ico</title><path d="M76.51,29.39a1.72,1.72,0,0,0-.39-.05H55.35a1.79,1.79,0,0,0-1.78,1.79V77.8a1.78,1.78,0,0,0,1.78,1.78H76.12a1.73,1.73,0,0,0,.39,0A1.78,1.78,0,0,0,77.9,77.8V31.13A1.77,1.77,0,0,0,76.51,29.39Zm-.86.92-6.5,2.29V30.31h6.5m-19.91,0h6.5V32.6l-6.5-2.29m-.26,1.34L62.24,34V38.8l-6.76-2.38Zm0,6.2,6.76,2.38V45l-6.76-2.38Zm0,6.19,6.76,2.39v4.76l-6.76-2.38Zm0,6.2,6.76,2.38v4.76L55.48,55Zm0,6.2,6.76,2.38v4.76L55.48,61.2Zm0,6.19L62.24,65v4.77l-6.76-2.39Zm0,6.2,6.76,2.38V76l-6.76-2.38Zm0,9.59V75l6.76,2.39v1Zm8.1,0V30.31h1.56V78.42Zm4.24,0H66.25V30.31h1.57Zm8.09,0H69.15v-1L75.91,75Zm0-4.83L69.15,76V71.21l6.76-2.38Zm0-6.2-6.76,2.39V65l6.76-2.38Zm0-6.19-6.76,2.38V58.82l6.76-2.38Zm0-6.2-6.76,2.38V52.62l6.76-2.38Zm0-6.19-6.76,2.38V46.43L75.91,44Zm0-6.2L69.15,45V40.23l6.76-2.38Zm0-6.19L69.15,38.8V34l6.76-2.38Z" transform="translate(-21.16 -19.62)"/><rect x="29.69" y="19.87" width="1.65" height="29.95"/><path d="M37.12,53.32A3.43,3.43,0,0,1,34.5,52a4.13,4.13,0,0,1-.81-1.54H21.16v7.91H49.85V50.51h-9.3A3.69,3.69,0,0,1,37.12,53.32Z" transform="translate(-21.16 -19.62)"/><path d="M39,20.53a2.43,2.43,0,0,0-1.85-.91,2.82,2.82,0,0,0-2.59,2.61h5.18A3.25,3.25,0,0,0,39,20.53Z" transform="translate(-21.16 -19.62)"/><path d="M35.27,51.41a2.43,2.43,0,0,0,1.85.91,2.89,2.89,0,0,0,2.62-3.11v-.56H34.5v.56A3.44,3.44,0,0,0,35.27,51.41Z" transform="translate(-21.16 -19.62)"/><path d="M31.3,46.56a1.09,1.09,0,0,0,1.1,1.09h9.08a1.09,1.09,0,0,0,.42-2.1h0l-.21-.1-2.69-1h2.5a1.09,1.09,0,0,0,.42-2.09h0l-.21-.1L39,41.3h2.5a1.09,1.09,0,0,0,1.09-1.09,1.08,1.08,0,0,0-.7-1l-.2-.1-2.69-1h2.5A1.09,1.09,0,0,0,41.9,36a1,1,0,0,0-.23-.12L39,35h2.47a1.09,1.09,0,0,0,.42-2.1h0l-.21-.1-2.69-1h2.5a1.09,1.09,0,0,0,.42-2.1h0l-.21-.1-2.69-1h2.5a1.09,1.09,0,0,0,.42-2.09h0l-.21-.1-2.69-1h2.5a1.09,1.09,0,0,0,0-2.19H32.4a1.09,1.09,0,1,0,0,2.19h.15l2.74,1H32.4a1.09,1.09,0,1,0,0,2.18h.12l2.75,1H32.4a1.09,1.09,0,1,0,0,2.19h.15l2.74,1H32.4a1.1,1.1,0,1,0,0,2.19h.15l2.74,1H32.4a1.09,1.09,0,1,0,0,2.18h.12l2.75,1H32.4a1.09,1.09,0,1,0,0,2.19h.15l2.74,1H32.4a1.09,1.09,0,1,0,0,2.18h.12l2.75,1H32.4A1.1,1.1,0,0,0,31.3,46.56Z" transform="translate(-21.16 -19.62)"/></svg>
