<svg xmlns="http://www.w3.org/2000/svg" width="24" height="24" viewBox="0 0 24 24"><title>viber-ico</title><path d="M8.93,15.05a19.54,19.54,0,0,0,6.54,4.23,2.73,2.73,0,0,0,3.87-1.85,1.41,1.41,0,0,0,0-1,8.37,8.37,0,0,0-3.79-2.78,1.4,1.4,0,0,0-1.24.81,1.41,1.41,0,0,1-2,.46,6.51,6.51,0,0,1-2-1.33,6.51,6.51,0,0,1-1.33-2,1.41,1.41,0,0,1,.46-2,1.4,1.4,0,0,0,.81-1.24A8.37,8.37,0,0,0,7.51,4.64a1.41,1.41,0,0,0-1,0A2.73,2.73,0,0,0,4.7,8.51,19.54,19.54,0,0,0,8.93,15.05Z"/><path d="M12.43,5.54a5,5,0,0,1,1.21,0A5.42,5.42,0,0,1,17,7.08a5.21,5.21,0,0,1,1.53,3.22,4.71,4.71,0,0,1-.05,1.21.52.52,0,0,0,.42.6H19a.52.52,0,0,0,.51-.43,5.75,5.75,0,0,0,.06-1.48,6.25,6.25,0,0,0-1.83-3.86,6.46,6.46,0,0,0-4-1.88,6,6,0,0,0-1.46.05.52.52,0,0,0,.16,1Z"/><path d="M17.23,11.66h.07a.52.52,0,0,0,.51-.45,4,4,0,0,0,0-.85A4.52,4.52,0,0,0,16.5,7.57a4.72,4.72,0,0,0-2.92-1.38,4.3,4.3,0,0,0-.91,0,.52.52,0,0,0,.13,1,3.26,3.26,0,0,1,.69,0,3.68,3.68,0,0,1,2.28,1.08,3.48,3.48,0,0,1,1,2.14,3,3,0,0,1,0,.63A.52.52,0,0,0,17.23,11.66Z"/><path d="M15.55,11.35h0a.52.52,0,0,0,.52-.48,2.36,2.36,0,0,0,0-.36,3,3,0,0,0-2.67-2.59h-.34a.52.52,0,1,0,0,1h.2a2,2,0,0,1,1.73,1.64,1.32,1.32,0,0,1,0,.2A.52.52,0,0,0,15.55,11.35Z"/><path d="M0,0V24H24V0ZM22.52,22.52h-21v-21h21Z"/></svg>
